<?xml version="1.0" encoding="UTF-8"?>
<svg width="1500px" height="1500px" viewBox="0 0 1500 1500" version="1.1" xmlns="http://www.w3.org/2000/svg" xmlns:xlink="http://www.w3.org/1999/xlink">
    <!-- Generator: Sketch 52.6 (67491) - http://www.bohemiancoding.com/sketch -->
    <title>mozza-create</title>
    <desc>Created with Sketch.</desc>
    <g id="mozza-create" stroke="none" stroke-width="1" fill="none" fill-rule="evenodd">
        <g id="Group" transform="translate(0.000000, 160.000000)">
            <g id="Path">
                <g transform="translate(36.000000, 0.000000)">
                    <path d="M1428.2,668.5 C1423.5,678.4 1418.1,688.4 1412.3,698.4 C1369.6,772.2 1296.2,850.6 1177.8,930.2 C1158.9,943 1138.8,955.8 1117.5,968.5 C664.7,1240.2 395.8,1187.4 271.3,1146.5 C146.9,1105.7 40.3,1000.5 2.8,786 C2.8,786 -16.4,600 69.9,406.2 C80.2,383 92,359.8 105.5,336.7 C106.5,335 107.5,333.3 108.6,331.6 C143.8,272.7 190.1,215.3 251.3,164.5 C323.2,104.6 504,53.9 628.1,24 C1072.3,-83.3 1329.4,200.2 1402.3,316 C1447.4,387.8 1501,516.4 1428.2,668.5 Z" fill="#194560"></path>
                    <path d="M456.4,418.9 C456.9,422.8 454.2,426.3 450.3,426.8 C446.4,427.3 442.9,424.6 442.4,420.7 C441.9,416.8 444.6,413.3 448.5,412.8 C452.3,412.3 455.9,415 456.4,418.9 Z" fill="#FCCD35"></path>
                    <path d="M563.6,270.2 C564.2,274.8 561,279 556.4,279.6 C551.8,280.2 547.6,277 547.1,272.4 C546.5,267.8 549.7,263.7 554.3,263.1 C558.8,262.4 563,265.6 563.6,270.2 Z" fill="#FCCD35"></path>
                    <path d="M839.8,37.8 C840.4,42.4 837.2,46.6 832.6,47.2 C828,47.8 823.8,44.6 823.3,40 C822.7,35.4 825.9,31.3 830.5,30.7 C835,30 839.2,33.2 839.8,37.8 Z" fill="#FCCD35"></path>
                    <path d="M471.7,187.2 C472.1,190 470.1,192.5 467.3,192.9 C464.5,193.3 462,191.3 461.6,188.5 C461.2,185.7 463.2,183.2 466,182.8 C468.8,182.4 471.3,184.4 471.7,187.2 Z" fill="#FCCD35"></path>
                    <path d="M274.6,241.7 C275.1,245.4 272.5,248.8 268.8,249.2 C265.1,249.7 261.7,247.1 261.3,243.4 C260.8,239.7 263.4,236.3 267.1,235.9 C270.7,235.4 274.1,238 274.6,241.7 Z" fill="#FCCD35"></path>
                    <path d="M90.8,580.3 C91.2,583.3 89.1,586 86.1,586.4 C83.1,586.8 80.4,584.7 80,581.7 C79.6,578.7 81.7,576 84.7,575.6 C87.7,575.3 90.5,577.4 90.8,580.3 Z" fill="#FCCD35"></path>
                    <path d="M400.8,304.9 C401.3,308.6 398.7,312.1 394.9,312.6 C391.2,313.1 387.7,310.5 387.2,306.7 C386.7,303 389.3,299.5 393.1,299 C396.9,298.5 400.3,301.2 400.8,304.9 Z" fill="#FCCD35"></path>
                    <path d="M671.3,59.1 C671.7,61.9 669.7,64.5 666.9,64.9 C664.1,65.3 661.5,63.3 661.1,60.5 C660.7,57.7 662.7,55.1 665.5,54.7 C668.4,54.4 671,56.3 671.3,59.1 Z" fill="#FCCD35"></path>
                    <path d="M303.2,360.7 C303.7,364.2 301.2,367.4 297.7,367.9 C294.2,368.4 291,365.9 290.5,362.4 C290,358.9 292.5,355.7 296,355.2 C299.5,354.7 302.7,357.2 303.2,360.7 Z" fill="#FCCD35"></path>
                    <path d="M1057.3,83.7 C1058,89.3 1054.1,94.5 1048.5,95.2 C1042.9,95.9 1037.7,92 1037,86.4 C1036.3,80.8 1040.2,75.6 1045.8,74.9 C1051.4,74.1 1056.6,78.1 1057.3,83.7 Z" fill="#FCCD35"></path>
                    <path d="M140.7,434.9 C141.2,438.4 138.7,441.6 135.2,442.1 C131.7,442.6 128.5,440.1 128,436.6 C127.5,433.1 130,429.9 133.5,429.4 C137,428.9 140.3,431.4 140.7,434.9 Z" fill="#FCCD35"></path>
                    <path d="M1411.2,516.9 C1411.8,521.3 1408.7,525.4 1404.2,526 C1399.8,526.6 1395.7,523.5 1395.1,519 C1394.5,514.6 1397.6,510.5 1402.1,509.9 C1406.5,509.3 1410.6,512.5 1411.2,516.9 Z" fill="#FCCD35"></path>
                    <path d="M1394.1,392.3 C1394.7,396.7 1391.6,400.8 1387.1,401.4 C1382.7,402 1378.6,398.9 1378,394.4 C1377.4,390 1380.5,385.9 1385,385.3 C1389.5,384.7 1393.5,387.9 1394.1,392.3 Z" fill="#FCCD35"></path>
                    <path d="M1343.5,601.4 C1343.7,603.3 1342.4,605 1340.6,605.2 C1338.7,605.4 1337,604.1 1336.8,602.3 C1336.6,600.4 1337.9,598.7 1339.7,598.5 C1341.5,598.2 1343.2,599.5 1343.5,601.4 Z" fill="#FCCD35"></path>
                    <path d="M1202.9,694.7 C1203.6,700 1199.9,704.9 1194.5,705.6 C1189.2,706.3 1184.3,702.6 1183.6,697.3 C1182.9,692 1186.6,687.1 1192,686.4 C1197.3,685.6 1202.2,689.3 1202.9,694.7 Z" fill="#FCCD35"></path>
                    <path d="M1303.7,667.3 C1304.2,670.8 1301.7,674 1298.2,674.5 C1294.7,675 1291.5,672.5 1291,669 C1290.5,665.5 1293,662.3 1296.5,661.8 C1300.1,661.3 1303.3,663.8 1303.7,667.3 Z" fill="#FCCD35"></path>
                    <path d="M1062.2,786.8 C1062.6,790.1 1060.3,793.1 1057,793.5 C1053.7,793.9 1050.7,791.6 1050.3,788.3 C1049.9,785 1052.2,782 1055.5,781.6 C1058.7,781.2 1061.7,783.5 1062.2,786.8 Z" fill="#FCCD35"></path>
                    <path d="M1056.2,890.4 C1056.9,895.4 1053.3,900 1048.3,900.7 C1043.3,901.4 1038.7,897.8 1038,892.8 C1037.3,887.8 1040.9,883.2 1045.9,882.5 C1050.9,881.8 1055.5,885.4 1056.2,890.4 Z" fill="#FCCD35"></path>
                    <path d="M852.6,862.9 C853.2,867.8 849.8,872.3 844.9,873 C840,873.6 835.5,870.2 834.8,865.3 C834.2,860.4 837.6,855.9 842.5,855.2 C847.4,854.5 851.9,858 852.6,862.9 Z" fill="#FCCD35"></path>
                    <path d="M901,959.4 C901.3,961.6 899.7,963.7 897.5,964 C895.3,964.3 893.2,962.7 892.9,960.5 C892.6,958.3 894.2,956.2 896.4,955.9 C898.7,955.6 900.7,957.2 901,959.4 Z" fill="#FCCD35"></path>
                    <path d="M472.2,1111.9 C472.5,1114.1 470.9,1116.2 468.7,1116.5 C466.5,1116.8 464.4,1115.2 464.1,1113 C463.8,1110.8 465.4,1108.7 467.6,1108.4 C469.9,1108.1 472,1109.7 472.2,1111.9 Z" fill="#FCCD35"></path>
                    <path d="M803.3,1061.1 C803.8,1065.1 801,1068.7 797,1069.3 C793,1069.8 789.4,1067 788.8,1063 C788.3,1059 791.1,1055.4 795.1,1054.8 C799.1,1054.3 802.8,1057.1 803.3,1061.1 Z" fill="#FCCD35"></path>
                    <path d="M777.4,979.8 C778,984.2 774.9,988.3 770.4,988.9 C766,989.5 761.9,986.4 761.3,981.9 C760.7,977.5 763.8,973.4 768.3,972.8 C772.7,972.2 776.8,975.3 777.4,979.8 Z" fill="#FCCD35"></path>
                    <path d="M601.4,1115.2 C602,1119.4 599,1123.3 594.8,1123.8 C590.6,1124.4 586.7,1121.4 586.2,1117.2 C585.6,1113 588.6,1109.1 592.8,1108.6 C597,1108 600.9,1111 601.4,1115.2 Z" fill="#FCCD35"></path>
                    <path d="M325.4,1033.3 C326,1037.5 323,1041.4 318.8,1041.9 C314.6,1042.5 310.7,1039.5 310.2,1035.3 C309.6,1031.1 312.6,1027.2 316.8,1026.7 C321,1026.2 324.8,1029.1 325.4,1033.3 Z" fill="#FCCD35"></path>
                    <path d="M1255,783.2 C1255.5,786.7 1253,789.9 1249.5,790.3 C1246,790.8 1242.8,788.3 1242.4,784.8 C1241.9,781.3 1244.4,778.1 1247.9,777.7 C1251.4,777.2 1254.6,779.7 1255,783.2 Z" fill="#FCCD35"></path>
                    <path d="M204.3,528.9 C204.7,531.7 202.7,534.2 199.9,534.6 C197.1,535 194.6,533 194.2,530.2 C193.8,527.4 195.8,524.9 198.6,524.5 C201.4,524.2 204,526.1 204.3,528.9 Z" fill="#FCCD35"></path>
                    <path d="M201.7,698.7 C202,701.3 200.2,703.6 197.7,704 C195.1,704.3 192.8,702.5 192.4,700 C192.1,697.4 193.9,695.1 196.4,694.7 C199,694.3 201.3,696.1 201.7,698.7 Z" fill="#FCCD35"></path>
                    <path d="M99,747.7 C99.6,751.9 96.6,755.8 92.4,756.3 C88.2,756.9 84.3,753.9 83.8,749.7 C83.2,745.5 86.2,741.6 90.4,741.1 C94.6,740.5 98.5,743.5 99,747.7 Z" fill="#FCCD35"></path>
                    <path d="M126.4,810.4 C126.7,812.8 125.1,814.9 122.7,815.2 C120.3,815.5 118.2,813.9 117.9,811.5 C117.6,809.1 119.3,807 121.6,806.7 C124,806.3 126.1,808 126.4,810.4 Z" fill="#FCCD35"></path>
                </g>
                <g transform="translate(0.000000, 203.000000)">
                    <path d="M567.2,572.6 L547.8,525.7 L540.3,512.7 C536.6,511.3 369.2,451.8 225.5,541.7 L262,558.8 C262,558.8 187.6,605.4 138.7,662.7 C84.6,726.1 0,839 0,839 C0,839 111.8,833.3 235.2,804.5 C319.6,784.8 376.3,756.7 376.3,756.7 L372.9,796.9 C522.5,717.4 566.6,576.5 567.2,572.6 Z" fill="#F46A40"></path>
                    <path d="M472.4,536.2 C441.3,532.2 366.5,536 339.8,548.3 C347.1,551.8 358.7,556.3 363.6,564.2 C302.1,592.4 243.3,665.3 191.4,727.3 C320.4,709.3 362.5,692.5 422,662.8 C423.1,673.9 422.7,685 420.9,695 C459.3,673.2 482.2,624.5 500.8,585.1" fill="#FCCD35"></path>
                    <g transform="translate(219.000000, 0.000000)">
                        <path d="M366.8,265.9 C366.8,265.9 321.9,364.7 285.1,403.5 C285.1,403.5 285.1,403.5 285.1,403.5 C280.2,408.6 275.5,412.7 271,415.4 C158.1,390.5 3.7,434.8 0.9,435.6 C0.9,435.6 0.9,435.6 0.9,435.6 C0.9,435.6 0.9,435.6 0.9,435.6 C2.5,433.2 107.1,279.5 191.2,251.2 C247.3,232.3 366.8,265.9 366.8,265.9 Z" fill="#F46A40"></path>
                        <path d="M355.3,289.1 C355.3,289.1 314.7,359.8 285.2,403.5 C285.2,403.5 285.2,403.5 285.2,403.5 C280.3,408.6 275.6,412.7 271.1,415.4 C158.2,390.5 3.8,434.8 1,435.6 C3.3,433.3 153.3,284 210.9,273.3 C268.8,262.5 355.3,289.1 355.3,289.1 Z" fill="#D84827"></path>
                        <path d="M571.9,639.6 C571.9,639.6 464.4,624.4 411.9,634.6 C411.9,634.6 411.9,634.6 411.9,634.6 C404.9,635.9 399,637.7 394.3,640.1 C354.7,748.7 234.4,855.2 232.2,857.1 C232.2,857.1 232.2,857.1 232.2,857.1 C232.2,857.1 232.2,857.1 232.2,857.1 C235.1,857 420.9,851.4 490,795.6 C536,758.4 571.9,639.6 571.9,639.6 Z" fill="#F46A40"></path>
                        <path d="M546.1,636.8 C546.1,636.8 464.7,633.1 411.9,634.5 C411.9,634.5 411.9,634.5 411.9,634.5 C404.9,635.8 399,637.6 394.3,640 C354.7,748.6 234.4,855.1 232.2,857 C235.4,856.3 441.9,810 481.8,767.2 C522.1,724 546.1,636.8 546.1,636.8 Z" fill="#D84827"></path>
                        <path d="M562.8,652.6 C551.4,654.3 540.4,655.7 529.7,656.8 C445.7,666.1 385.7,661.6 385.7,661.6 C364.9,638.1 347.8,613.2 334.9,592.3 C332.7,588.6 330.5,585.1 328.5,581.8 C315.2,559.1 307.9,543.4 307.9,543.4 C305.3,539.3 269.8,482.8 250.2,414.6 C250.2,414.6 279.8,359.5 334.8,291.8 C342.6,282.2 350.9,272.4 359.7,262.4 C384.7,234 413.9,204.6 446.7,176.8 C491,139.5 542.1,105.2 599.4,80.9 C624.4,70.3 649.2,60.7 673.9,52.1 C732.5,31.7 790,17 846.1,8.6 C846.1,8.6 846.2,8.6 846.2,8.6 C974.9,-10.8 1095.8,2.3 1203,53.9 C1188.5,175.2 1131.5,286.3 1041.5,385.9 C1041.4,386 1041.2,386.2 1041.1,386.3 C989.3,443.5 926.6,496.9 854.7,546.4 C761.9,610.3 652.6,639.5 562.8,652.6 Z" fill="#FFFFFF"></path>
                        <path d="M562.8,652.6 C551.4,654.3 540.4,655.7 529.7,656.8 C445.7,666.1 385.7,661.6 385.7,661.6 C364.9,638.1 347.8,613.2 334.9,592.3 C353.9,587.8 727.2,497.8 912.3,355.7 C1102.3,209.9 1203.1,53.9 1203.1,53.9 C1188.6,175.2 1131.6,286.3 1041.6,385.9 C1041.5,386 1041.3,386.2 1041.2,386.3 C989.4,443.5 926.7,496.9 854.8,546.4 C761.9,610.3 652.6,639.5 562.8,652.6 Z" fill="#F7E5DF"></path>
                        <path d="M1041.1,386.4 C932.2,326.3 854.7,214.1 844.8,80.7 C843,56.3 843.5,32.2 846.2,8.7 C846.2,8.7 846.3,8.7 846.3,8.7 C975,-10.7 1095.9,2.4 1203.1,54 C1188.6,175.3 1131.6,286.4 1041.6,386 C1041.4,386.1 1041.3,386.2 1041.1,386.4 Z" fill="#F46A40"></path>
                        <path d="M721.7,456.5 C660.3,490.2 583.2,467.7 549.5,406.3 C515.8,344.9 538.3,267.8 599.7,234.1 C661.1,200.4 738.2,222.9 771.9,284.3 C805.5,345.7 783.1,422.8 721.7,456.5 Z" fill="#F46A40"></path>
                        <path d="M706.3,428.4 C694.1,435.1 681.1,438.8 668.1,439.8 C660.6,440.4 653.1,440.1 645.8,438.9 C638.6,437.8 631.5,435.8 624.7,433 C612.5,428 601.3,420.5 592,410.6 C586.5,404.8 581.6,398.2 577.6,390.9 C553,346.1 568.5,290 612,264 C613,263.4 614,262.8 615.1,262.2 C626.1,256.2 637.8,252.5 649.5,251.1 C656.8,250.2 664.2,250.2 671.4,251.1 C678.8,251.9 686.1,253.7 693.1,256.2 C713.9,263.8 732.2,278.7 743.7,299.6 C768.9,345.6 752.1,403.2 706.3,428.4 Z" fill="#283944"></path>
                        <path d="M1041.1,386.4 C1041.2,386.2 1041.4,386.1 1041.5,386 C1131.6,286.4 1188.5,175.4 1203,54 C1203,54 1117.3,186.6 955,321.6 C980.5,347 1009.5,368.9 1041.1,386.4 Z" fill="#D84827"></path>
                    </g>
                    <path d="M1036.8,96 C973.1,156.4 868.7,188.9 779.5,203.5 C751.2,207.7 698.8,212.7 679.8,187.4 C675.7,182 672.9,176.8 671,171.6 C714.5,133.4 764.9,98.1 821.7,72.6 C846.4,61.5 871.1,51.4 895.5,42.3 L1036.8,96 Z" fill="#F7E5DF"></path>
                    <path d="M469.2,414.7 C469.2,414.7 439.8,409.8 422.8,421.9 C405.8,434 548.4,697.9 569.5,693.2 C590.6,688.5 604.6,661.7 604.6,661.7 C604.6,661.7 489.7,484.1 469.2,414.7 Z" fill="#283944"></path>
                </g>
                <path d="M868.5,454.2 L843.7,636 C831.5,631 820.3,623.5 811,613.6 L831,467 C832,466.4 833,465.8 834.1,465.2 C845.1,459.2 856.8,455.6 868.5,454.2 Z" fill="#777777"></path>
                <path d="M912.1,459.3 L887.1,642.8 C879.6,643.4 872.1,643.1 864.8,641.9 L890.4,454.2 C897.9,455 905.2,456.8 912.1,459.3 Z" fill="#777777"></path>
                <g transform="translate(701.000000, 74.000000)">
                    <path d="M370.1,194.3 C368.6,196.7 366.9,199.1 365,201.4 C351.6,218.9 330.1,236.5 297,252.9 C291.7,255.5 286.1,258.1 280.2,260.7 C154.9,315.1 87.7,292.5 57.2,277.8 C26.7,263.1 2.9,232.6 0.5,176.3 C0.5,176.3 1.8,128 30.5,81.2 C33.9,75.6 37.7,70 42,64.6 C42.3,64.2 42.6,63.8 43,63.4 C54,49.5 67.8,36.3 85.2,25.3 C105.6,12.4 153.7,5.5 186.5,2 C304,-10.6 360.4,70.8 375.2,103 C384.5,123 393.9,157.8 370.1,194.3 Z" fill="#FFFFFF"></path>
                    <g transform="translate(137.000000, 41.000000)">
                        <g transform="translate(35.000000, 35.000000)">
                            <path d="M24.1,77.6 C28.4,80.3 32.7,82.8 37.4,84.5 C48.8,88.6 62.8,88.6 85.3,78.3 C95.9,73.5 102.9,65 107.4,55.7 C113.8,42.5 115.1,27.6 114.2,19.3 C113,8.5 108.7,2.1 104.7,0.3 C104,0 102.3,0.2 99.9,0.7 C88.7,3.2 62.6,13.6 51.9,17.7 C40.4,22 14.6,31.3 4.5,39.7 C2.8,41.1 1.6,42.5 0.9,43.8 C-2.2,50.6 9.8,68.4 24.1,77.6 Z" fill="#DA1E19"></path>
                            <path d="M37.5,84.5 C48.9,88.6 62.9,88.6 85.4,78.3 C96,73.5 103,65 107.5,55.7 C99.7,52.8 83.6,48.9 66.1,55.7 C53.5,60.8 43.8,73.5 37.5,84.5 Z" fill="#FF6B69"></path>
                            <path d="M4.6,39.8 C10.1,47.8 17.5,49.2 21.4,48.5 C25.8,47.8 84.6,24.8 94.1,17.9 C101.1,12.8 100.6,4.6 99.9,0.7 C88.7,3.2 62.6,13.6 51.9,17.7 C40.5,22.1 14.7,31.4 4.6,39.8 Z" fill="#FFFFFF"></path>
                        </g>
                        <path d="M9.1,73.4 C9.1,65.2 16,56 24.6,61.8 C26,62.8 28.1,63.3 29.7,62.5 C31.6,61.5 32.3,60.6 32.8,58.5 C33.2,56.9 32.3,54.6 30.9,53.7 C15.6,43.8 -2.2,56.9 0.3,74.5 C1.2,80.4 9.1,79 9.1,73.4 Z" fill="#2F2F2F"></path>
                        <path d="M156.1,8.1 C144.5,-4.6 122.5,-1 120.3,17.5 C120,19.9 121.2,21.9 123.4,22.9 C124.8,23.6 126,23.5 127.4,22.9 C129,22.2 130.3,20.6 130.5,18.9 C131.6,7.8 143,8.6 149.9,14.3 C153.7,17.5 159.5,11.9 156.1,8.1 Z" fill="#2F2F2F"></path>
                    </g>
                    <path d="M297.1,253 C291.8,255.6 286.2,258.2 280.3,260.8 C155,315.2 87.8,292.6 57.3,277.9 C26.8,263.2 3,232.7 0.6,176.4 C0.6,176.4 1.9,128.1 30.6,81.3 C7.2,167.9 72.5,238 162.2,256.6 C208.7,265.8 252.8,261.4 297.1,253 Z" fill="#F6F6F6"></path>
                </g>
            </g>
            <path d="M608.5,110 C609.1,114.9 605.7,119.4 600.8,120 C595.9,120.6 591.4,117.2 590.8,112.3 C590.2,107.4 593.6,102.9 598.5,102.3 C603.4,101.7 607.9,105.1 608.5,110 Z" id="Path" fill="#FCCD35"></path>
        </g>
    </g>
</svg>