<?xml version="1.0" encoding="UTF-8"?>
<svg width="320px" height="80px" viewBox="0 0 320 80" version="1.1" xmlns="http://www.w3.org/2000/svg" xmlns:xlink="http://www.w3.org/1999/xlink">
    <!-- Generator: Sketch 52.6 (67491) - http://www.bohemiancoding.com/sketch -->
    <title>logo-airbnb-color-2</title>
    <desc>Created with Sketch.</desc>
    <g id="logo-airbnb-color-2" stroke="none" stroke-width="1" fill="none" fill-rule="evenodd">
        <g id="logo" transform="translate(70.000000, 12.000000)" fill="#FF5A5F" fill-rule="nonzero">
            <path d="M95.032,14.056 C95.032,16.072 93.408,17.696 91.392,17.696 C89.376,17.696 87.752,16.072 87.752,14.056 C87.752,12.04 89.32,10.416 91.392,10.416 C93.464,10.472 95.032,12.096 95.032,14.056 Z M80.024,21.392 C80.024,21.728 80.024,22.288 80.024,22.288 C80.024,22.288 78.288,20.048 74.592,20.048 C68.488,20.048 63.728,24.696 63.728,31.136 C63.728,37.52 68.432,42.224 74.592,42.224 C78.344,42.224 80.024,39.928 80.024,39.928 L80.024,40.88 C80.024,41.328 80.36,41.664 80.808,41.664 L85.344,41.664 L85.344,20.608 C85.344,20.608 81.2,20.608 80.808,20.608 C80.36,20.608 80.024,21 80.024,21.392 Z M80.024,34.888 C79.184,36.12 77.504,37.184 75.488,37.184 C71.904,37.184 69.16,34.944 69.16,31.136 C69.16,27.328 71.904,25.088 75.488,25.088 C77.448,25.088 79.24,26.208 80.024,27.384 L80.024,34.888 Z M88.704,20.608 L94.08,20.608 L94.08,41.664 L88.704,41.664 L88.704,20.608 Z M169.008,20.048 C165.312,20.048 163.576,22.288 163.576,22.288 L163.576,10.472 L158.2,10.472 L158.2,41.664 C158.2,41.664 162.344,41.664 162.736,41.664 C163.184,41.664 163.52,41.272 163.52,40.88 L163.52,39.928 C163.52,39.928 165.256,42.224 168.952,42.224 C175.056,42.224 179.816,37.52 179.816,31.136 C179.816,24.752 175.056,20.048 169.008,20.048 Z M168.112,37.128 C166.04,37.128 164.416,36.064 163.576,34.832 L163.576,27.328 C164.416,26.208 166.208,25.032 168.112,25.032 C171.696,25.032 174.44,27.272 174.44,31.08 C174.44,34.888 171.696,37.128 168.112,37.128 Z M155.4,29.176 L155.4,41.72 L150.024,41.72 L150.024,29.792 C150.024,26.32 148.904,24.92 145.88,24.92 C144.256,24.92 142.576,25.76 141.512,26.992 L141.512,41.664 L136.136,41.664 L136.136,20.608 L140.392,20.608 C140.84,20.608 141.176,21 141.176,21.392 L141.176,22.288 C142.744,20.664 144.816,20.048 146.888,20.048 C149.24,20.048 151.2,20.72 152.768,22.064 C154.672,23.632 155.4,25.648 155.4,29.176 Z M123.088,20.048 C119.392,20.048 117.656,22.288 117.656,22.288 L117.656,10.472 L112.28,10.472 L112.28,41.664 C112.28,41.664 116.424,41.664 116.816,41.664 C117.264,41.664 117.6,41.272 117.6,40.88 L117.6,39.928 C117.6,39.928 119.336,42.224 123.032,42.224 C129.136,42.224 133.896,37.52 133.896,31.136 C133.952,24.752 129.192,20.048 123.088,20.048 Z M122.192,37.128 C120.12,37.128 118.496,36.064 117.656,34.832 L117.656,27.328 C118.496,26.208 120.288,25.032 122.192,25.032 C125.776,25.032 128.52,27.272 128.52,31.08 C128.52,34.888 125.776,37.128 122.192,37.128 Z M107.632,20.048 C109.256,20.048 110.096,20.328 110.096,20.328 L110.096,25.312 C110.096,25.312 105.616,23.8 102.816,26.992 L102.816,41.72 L97.44,41.72 L97.44,20.608 C97.44,20.608 101.584,20.608 101.976,20.608 C102.424,20.608 102.76,21 102.76,21.392 L102.76,22.288 C103.768,21.112 105.952,20.048 107.632,20.048 Z M51.8,39.76 C51.52,39.088 51.24,38.36 50.96,37.744 C50.512,36.736 50.064,35.784 49.672,34.888 L49.616,34.832 C45.752,26.432 41.608,17.92 37.24,9.52 L37.072,9.184 C36.624,8.344 36.176,7.448 35.728,6.552 C35.168,5.544 34.608,4.48 33.712,3.472 C31.92,1.232 29.344,0 26.6,0 C23.8,0 21.28,1.232 19.432,3.36 C18.592,4.368 17.976,5.432 17.416,6.44 C16.968,7.336 16.52,8.232 16.072,9.072 L15.904,9.408 C11.592,17.808 7.392,26.32 3.528,34.72 L3.472,34.832 C3.08,35.728 2.632,36.68 2.184,37.688 C1.904,38.304 1.624,38.976 1.344,39.704 C0.616,41.776 0.392,43.736 0.672,45.752 C1.288,49.952 4.088,53.48 7.952,55.048 C9.408,55.664 10.92,55.944 12.488,55.944 C12.936,55.944 13.496,55.888 13.944,55.832 C15.792,55.608 17.696,54.992 19.544,53.928 C21.84,52.64 24.024,50.792 26.488,48.104 C28.952,50.792 31.192,52.64 33.432,53.928 C35.28,54.992 37.184,55.608 39.032,55.832 C39.48,55.888 40.04,55.944 40.488,55.944 C42.056,55.944 43.624,55.664 45.024,55.048 C48.944,53.48 51.688,49.896 52.304,45.752 C52.752,43.792 52.528,41.832 51.8,39.76 Z M26.544,42.672 C23.52,38.864 21.56,35.28 20.888,32.256 C20.608,30.968 20.552,29.848 20.72,28.84 C20.832,27.944 21.168,27.16 21.616,26.488 C22.68,24.976 24.472,24.024 26.544,24.024 C28.616,24.024 30.464,24.92 31.472,26.488 C31.92,27.16 32.256,27.944 32.368,28.84 C32.536,29.848 32.48,31.024 32.2,32.256 C31.528,35.224 29.568,38.808 26.544,42.672 Z M48.888,45.304 C48.496,48.216 46.536,50.736 43.792,51.856 C42.448,52.416 40.992,52.584 39.536,52.416 C38.136,52.248 36.736,51.8 35.28,50.96 C33.264,49.84 31.248,48.104 28.896,45.528 C32.592,40.992 34.832,36.848 35.672,33.152 C36.064,31.416 36.12,29.848 35.952,28.392 C35.728,26.992 35.224,25.704 34.44,24.584 C32.704,22.064 29.792,20.608 26.544,20.608 C23.296,20.608 20.384,22.12 18.648,24.584 C17.864,25.704 17.36,26.992 17.136,28.392 C16.912,29.848 16.968,31.472 17.416,33.152 C18.256,36.848 20.552,41.048 24.192,45.584 C21.896,48.16 19.824,49.896 17.808,51.016 C16.352,51.856 14.952,52.304 13.552,52.472 C12.04,52.64 10.584,52.416 9.296,51.912 C6.552,50.792 4.592,48.272 4.2,45.36 C4.032,43.96 4.144,42.56 4.704,40.992 C4.872,40.432 5.152,39.872 5.432,39.2 C5.824,38.304 6.272,37.352 6.72,36.4 L6.776,36.288 C10.64,27.944 14.784,19.432 19.096,11.144 L19.264,10.808 C19.712,9.968 20.16,9.072 20.608,8.232 C21.056,7.336 21.56,6.496 22.176,5.768 C23.352,4.424 24.92,3.696 26.656,3.696 C28.392,3.696 29.96,4.424 31.136,5.768 C31.752,6.496 32.256,7.336 32.704,8.232 C33.152,9.072 33.6,9.968 34.048,10.808 L34.216,11.144 C38.472,19.488 42.616,28 46.48,36.344 L46.48,36.4 C46.928,37.296 47.32,38.304 47.768,39.2 C48.048,39.872 48.328,40.432 48.496,40.992 C48.944,42.448 49.112,43.848 48.888,45.304 Z" id="Shape"></path>
        </g>
    </g>
</svg>