<?xml version="1.0" encoding="UTF-8"?>
<svg width="320px" height="80px" viewBox="0 0 320 80" version="1.1" xmlns="http://www.w3.org/2000/svg" xmlns:xlink="http://www.w3.org/1999/xlink">
    <!-- Generator: Sketch 52.6 (67491) - http://www.bohemiancoding.com/sketch -->
    <title>logo-meetic-color-2</title>
    <desc>Created with Sketch.</desc>
    <g id="logo-meetic-color-2" stroke="none" stroke-width="1" fill="none" fill-rule="evenodd">
        <g id="logo" transform="translate(68.000000, 12.000000)">
            <path d="M44.3476923,18.3550769 C41.9147692,14.7043077 37.8461538,12.5261538 33.4627692,12.5261538 C29.3458462,12.5261538 25.6704615,14.44 23.272,17.4246154 C20.7993846,14.34 17.0707692,12.5261538 13.0769231,12.5261538 C5.86707692,12.5261538 0.00246153846,18.3907692 0.00246153846,25.5990769 L0.00246153846,47.3313846 L5.76307692,47.3313846 L5.76307692,25.5990769 C5.76307692,21.5676923 9.04307692,18.2870769 13.076,18.2870769 C15.5273846,18.2870769 17.8046154,19.5064615 19.1670769,21.5507692 C19.9664615,22.7495385 20.3892308,24.1495385 20.3892308,25.5984615 L20.3892308,47.3307692 L26.1507692,47.3307692 L26.1507692,25.5990769 C26.1507692,21.5676923 29.4307692,18.2870769 33.4624615,18.2870769 C35.9147692,18.2870769 38.1916923,19.5064615 39.5535385,21.5507692 C40.3535385,22.7495385 40.7750769,24.1495385 40.7750769,25.5984615 L40.7750769,47.3307692 L46.5350769,47.3307692 L46.5350769,25.5990769 C46.5350769,23.0098462 45.7781538,20.5036923 44.3443077,18.356" id="Path" fill="#E64280"></path>
            <path d="M146.070769,3.75907692 C146.070769,5.57661538 144.596923,7.04738462 142.781538,7.04738462 C140.964615,7.04738462 139.492308,5.57661538 139.492308,3.75907692 C139.492308,1.94276923 140.964615,0.469846154 142.781538,0.469846154 C144.596923,0.469846154 146.070769,1.94369231 146.070769,3.75969231 L146.070769,3.75907692 Z M139.900615,12.3381538 L145.661538,12.3381538 L145.661538,47.172 L139.900615,47.172 L139.900615,12.3381538 Z M167.421231,41.5996923 C160.873538,41.5996923 155.547385,36.2735385 155.547385,29.7289231 C155.547385,23.1843077 160.873538,17.8581538 167.418154,17.8581538 C171.113538,17.8581538 174.568923,19.572 176.812,22.4766154 L183.488923,22.4766154 C183.095077,21.6027692 182.633538,20.7627692 182.095077,19.9566154 C178.812,15.0335385 173.325846,12.0950769 167.415077,12.0950769 C157.692,12.0950769 149.781231,20.0027692 149.781231,29.7258462 C149.781231,39.4458462 157.692,47.3535385 167.412615,47.3535385 C173.340923,47.3535385 178.838462,44.3996923 182.116308,39.4550769 C182.642462,38.6612308 183.096308,37.8304615 183.484,36.9750769 L176.807077,36.9750769 C174.564,39.8796923 171.114769,41.5935385 167.413231,41.5935385 L167.421231,41.5996923 Z" id="Shape" fill="#464648" fill-rule="nonzero"></path>
            <path d="M81.2830769,27.9489231 C81.2830769,19.3612308 74.2969231,12.3747692 65.7107692,12.3747692 C60.4904615,12.3747692 55.6430769,14.9716923 52.7446154,19.3203077 C51.0393846,21.8803077 50.1384615,24.8649231 50.1384615,27.9510769 L50.1384615,29.4526154 L50.1963077,30.9695385 C51.2098462,43.3172308 61.6455385,46.8556923 70.2393846,50.0126154 C74.2393846,51.4833846 78.0169231,52.8710769 80.3655385,55.0095385 L81.2824615,55.8464615 L81.2824615,48.6618462 L81.0141538,48.5018462 C79.3076923,47.4895385 76.9329231,46.6649231 74.1818462,45.7110769 C66.7203077,43.1203077 56.7603077,39.9449231 56.1633846,30.9726154 L81.2833846,30.9726154 L81.2833846,27.9541538 L81.2830769,27.9489231 Z M55.84,25.9064615 L56.0021538,25.2655385 C56.2784615,24.1624615 56.74,23.1230769 57.372,22.1747692 C59.2304615,19.3830769 62.3443077,17.7147692 65.6950769,17.7147692 C70.2796923,17.7147692 74.2643077,20.8184615 75.3873846,25.2636923 L75.5473846,25.9067692 L55.8366154,25.9067692 L55.84,25.9064615 Z" id="Shape" fill="#E64280" fill-rule="nonzero"></path>
            <path d="M83.3036923,30.9661538 L108.425538,30.9661538 C107.829846,39.9375385 97.8692308,43.116 90.4058462,45.7052308 C87.652,46.6603077 85.2766154,47.4852308 83.572,48.4969231 L83.3012308,48.6569231 L83.3012308,55.8393846 L84.2181538,55.0024615 C86.5658462,52.864 90.3443077,51.4750769 94.3443077,50.0055385 C102.938154,46.8507692 113.372,43.3126154 114.387385,30.9649231 L114.445846,29.448 L114.445846,27.9464615 C114.445846,24.8603077 113.544308,21.8769231 111.836615,19.3181538 C108.935077,14.9695385 104.088923,12.3726154 98.868,12.3726154 C90.2821538,12.3726154 83.2956923,19.3603077 83.2956923,27.948 L83.2956923,30.9695385 L83.3036923,30.9661538 Z M89.036,25.9064615 L89.1975385,25.2633846 C90.3193846,20.8187692 94.3052308,17.7147692 98.8910769,17.7147692 C102.243077,17.7147692 105.353846,19.3824615 107.215692,22.1747692 C107.849538,23.1243077 108.311077,24.1633846 108.588,25.2649231 L108.751077,25.908 L89.0403077,25.908 L89.036,25.9064615 Z M136.203692,12.3378462 L126.593846,12.3378462 L126.593846,0.211076923 L120.806769,0.211076923 L120.806769,12.3378462 L115.576615,12.3378462 L115.576615,18.1249231 L120.806769,18.1249231 L120.806769,47.172 L126.593846,47.1750769 L126.593846,18.1230769 L136.203692,18.1230769 L136.203692,12.3378462 Z" id="Shape" fill="#464648" fill-rule="nonzero"></path>
        </g>
    </g>
</svg>