<?xml version="1.0" encoding="UTF-8"?>
<svg width="320px" height="80px" viewBox="0 0 320 80" version="1.1" xmlns="http://www.w3.org/2000/svg" xmlns:xlink="http://www.w3.org/1999/xlink">
    <!-- Generator: Sketch 52.6 (67491) - http://www.bohemiancoding.com/sketch -->
    <title>logo-qonto-color-2</title>
    <desc>Created with Sketch.</desc>
    <g id="logo-qonto-color-2" stroke="none" stroke-width="1" fill="none" fill-rule="evenodd">
        <g id="logo" transform="translate(67.000000, 17.000000)">
            <path d="M53.8571429,23 C53.8571429,24.4285714 54,25.8571429 54.2857143,27 C54.5714286,28.2857143 55,29.2857143 55.7142857,30.2857143 C56.4285714,31.1428571 57.1428571,32 58.2857143,32.4285714 C59.4285714,32.8571429 60.5714286,33.2857143 62,33.2857143 C63.4285714,33.2857143 64.5714286,33 65.8571429,32.5714286 C67,32.1428571 67.8571429,31.5714286 68.5714286,31.1428571 L68.5714286,13.2857143 C67.8571429,13 67.1428571,13 66.2857143,12.8571429 C65.4285714,12.7142857 64.2857143,12.7142857 62.8571429,12.7142857 C60.1428571,12.7142857 58,13.5714286 56.2857143,15.4285714 C54.7142857,17.1428571 53.8571429,19.7142857 53.8571429,23 Z M49.5714286,16.7142857 C50.2857143,14.8571429 51.1428571,13.2857143 52.4285714,12 C53.7142857,10.7142857 55.1428571,9.71428571 56.8571429,9 C58.5714286,8.57142857 60.5714286,8.14285714 62.7142857,8.14285714 C65,8.14285714 67.1428571,8.28571429 69,8.71428571 C70.8571429,9.14285714 72.2857143,9.42857143 73.4285714,9.71428571 L73.4285714,49.1428571 L68.4285714,50 L68.4285714,35.7142857 C67.8571429,36.1428571 66.8571429,36.5714286 65.5714286,37 C64.2857143,37.4285714 62.8571429,37.7142857 61.2857143,37.7142857 C59.2857143,37.7142857 57.4285714,37.2857143 55.8571429,36.5714286 C54.2857143,35.8571429 53,34.8571429 51.8571429,33.5714286 C50.7142857,32.2857143 50,30.7142857 49.4285714,28.8571429 C48.8571429,27 48.5714286,25.1428571 48.5714286,23 C48.5714286,20.7142857 48.8571429,18.5714286 49.5714286,16.7142857 Z M105.428571,22.8571429 C105.428571,25.1428571 105.142857,27.1428571 104.428571,29 C103.714286,30.8571429 102.857143,32.4285714 101.714286,33.7142857 C100.571429,35 99.1428571,36 97.5714286,36.7142857 C96,37.4285714 94.1428571,37.7142857 92.2857143,37.7142857 C90.4285714,37.7142857 88.5714286,37.4285714 87,36.7142857 C85.4285714,36 84,35 82.8571429,33.7142857 C81.7142857,32.4285714 80.7142857,30.8571429 80.1428571,29 C79.4285714,27.1428571 79.1428571,25.1428571 79.1428571,22.8571429 C79.1428571,20.7142857 79.4285714,18.5714286 80.1428571,16.8571429 C80.8571429,15 81.7142857,13.4285714 82.8571429,12.1428571 C84,10.8571429 85.4285714,9.85714286 87,9.14285714 C88.5714286,8.42857143 90.4285714,8.14285714 92.2857143,8.14285714 C94.1428571,8.14285714 96,8.42857143 97.5714286,9.14285714 C99.1428571,9.85714286 100.571429,10.8571429 101.714286,12.1428571 C102.857143,13.4285714 103.857143,15 104.428571,16.8571429 C105.142857,18.7142857 105.428571,20.7142857 105.428571,22.8571429 Z M100.142857,22.8571429 C100.142857,19.7142857 99.4285714,17.1428571 98,15.2857143 C96.5714286,13.4285714 94.5714286,12.4285714 92.1428571,12.4285714 C89.7142857,12.4285714 87.7142857,13.4285714 86.2857143,15.2857143 C84.8571429,17.1428571 84.2857143,19.7142857 84.2857143,22.8571429 C84.2857143,26 85,28.5714286 86.4285714,30.4285714 C87.8571429,32.2857143 89.8571429,33.2857143 92.2857143,33.2857143 C94.7142857,33.2857143 96.7142857,32.2857143 98.1428571,30.4285714 C99.4285714,28.5714286 100.142857,26.1428571 100.142857,22.8571429 Z M111,9.57142857 C112.142857,9.28571429 113.714286,9 115.571429,8.71428571 C117.428571,8.42857143 119.714286,8.28571429 122.142857,8.28571429 C124.428571,8.28571429 126.285714,8.57142857 127.714286,9.28571429 C129.142857,9.85714286 130.428571,10.8571429 131.285714,12 C132.285714,12.8571429 132.857143,14.2857143 133.285714,15.8571429 C133.714286,17.4285714 133.857143,19.1428571 133.857143,21.1428571 L133.857143,37 L128.857143,37 L128.857143,22.2857143 C128.857143,20.5714286 128.714286,19 128.571429,17.8571429 C128.428571,16.7142857 128,15.5714286 127.428571,14.8571429 C126.857143,14.1428571 126.142857,13.5714286 125.285714,13.1428571 C124.428571,12.7142857 123.285714,12.5714286 121.857143,12.5714286 L120.142857,12.5714286 C120.142857,12.5714286 118.857143,12.7142857 118.285714,12.8571429 C117.714286,13 117.285714,13 116.857143,13 C116.428571,13.1428571 116.142857,13.1428571 116,13.1428571 L116,37 L111,37 L111,9.57142857 Z M145.285714,8.71428571 L156,8.71428571 L156,13 L145.285714,13 L145.285714,26 C145.285714,27.4285714 145.428571,28.5714286 145.571429,29.5714286 C145.857143,30.4285714 146.142857,31.2857143 146.571429,31.7142857 C147,32.2857143 147.571429,32.5714286 148.142857,32.8571429 C148.857143,33.1428571 149.571429,33.1428571 150.428571,33.1428571 C152,33.1428571 153.142857,33 154.142857,32.5714286 C155,32.2857143 155.714286,32 156,31.8571429 L157,36 C156.428571,36.2857143 155.571429,36.5714286 154.285714,37 C153,37.4285714 151.571429,37.5714286 150,37.5714286 C148.142857,37.5714286 146.428571,37.2857143 145.285714,36.8571429 C144,36.4285714 143,35.5714286 142.285714,34.7142857 C141.571429,33.7142857 141,32.5714286 140.714286,31.1428571 C140.428571,29.7142857 140.285714,28 140.285714,26.1428571 L140.285714,0.857142857 L145.285714,0 L145.285714,8.71428571 Z M185.714286,22.8571429 C185.714286,25.1428571 185.428571,27.1428571 184.714286,29 C184,30.8571429 183.142857,32.4285714 182,33.7142857 C180.857143,35 179.428571,36 177.857143,36.7142857 C176.285714,37.4285714 174.428571,37.7142857 172.571429,37.7142857 C170.714286,37.7142857 168.857143,37.4285714 167.285714,36.7142857 C165.714286,36 164.285714,35 163.142857,33.7142857 C162,32.4285714 161,30.8571429 160.428571,29 C159.714286,27.1428571 159.428571,25.1428571 159.428571,22.8571429 C159.428571,20.7142857 159.714286,18.5714286 160.428571,16.8571429 C161.142857,15 162,13.4285714 163.142857,12.1428571 C164.285714,10.8571429 165.714286,9.85714286 167.285714,9.14285714 C168.857143,8.42857143 170.714286,8.14285714 172.571429,8.14285714 C174.428571,8.14285714 176.285714,8.42857143 177.857143,9.14285714 C179.428571,9.85714286 180.857143,10.8571429 182,12.1428571 C183.142857,13.4285714 184.142857,15 184.714286,16.8571429 C185.428571,18.7142857 185.714286,20.7142857 185.714286,22.8571429 Z M180.428571,22.8571429 C180.428571,19.7142857 179.714286,17.1428571 178.285714,15.2857143 C176.857143,13.4285714 174.857143,12.4285714 172.428571,12.4285714 C170,12.4285714 168,13.4285714 166.571429,15.2857143 C165.142857,17.1428571 164.428571,19.7142857 164.428571,22.8571429 C164.428571,26 165.142857,28.5714286 166.571429,30.4285714 C168,32.2857143 170,33.2857143 172.428571,33.2857143 C174.857143,33.2857143 176.857143,32.2857143 178.285714,30.4285714 C179.714286,28.5714286 180.428571,26.1428571 180.428571,22.8571429 Z" id="Shape" fill="#414660" fill-rule="nonzero"></path>
            <g id="Group" transform="translate(0.000000, 5.714286)" fill="#6A5AED">
                <path d="M5,11.1428571 C2,8.14285714 0.285714286,4.14285714 -1.77635684e-14,-1.59872116e-14 C4.28571429,0.285714286 8.14285714,2 11.1428571,5 C14.1428571,8 15.8571429,12 16.1428571,16.1428571 C12,15.8571429 8,14.1428571 5,11.1428571 Z M29.2857143,11.1428571 C26.2857143,14.1428571 22.2857143,15.8571429 18.1428571,16.1428571 C18.4285714,12 20.1428571,8 23.1428571,5 C26,2 30,0.285714286 34.2857143,-1.59872116e-14 C34,4.14285714 32.2857143,8.14285714 29.2857143,11.1428571 Z M29.2857143,23 C32.2857143,25.8571429 34,29.8571429 34.2857143,34.1428571 C30.1428571,33.8571429 26.1428571,32.1428571 23.1428571,29.1428571 C20.1428571,26.1428571 18.4285714,22.1428571 18.1428571,18 C22.2857143,18.2857143 26.2857143,20 29.2857143,23 Z M5,23 C8,20 12,18.2857143 16.2857143,18 C16,22.1428571 14.2857143,26.1428571 11.2857143,29.1428571 C8.14285714,32.1428571 4.28571429,33.8571429 2.30926389e-14,34.1428571 C0.285714286,29.8571429 2,25.8571429 5,23 Z" id="Combined-Shape"></path>
            </g>
        </g>
    </g>
</svg>