<?xml version="1.0" encoding="UTF-8"?>
<svg width="60px" height="64px" viewBox="0 0 60 64" version="1.1" xmlns="http://www.w3.org/2000/svg" xmlns:xlink="http://www.w3.org/1999/xlink">
    <!-- Generator: Sketch 52.6 (67491) - http://www.bohemiancoding.com/sketch -->
    <title>logo-airbnb-bw</title>
    <desc>Created with Sketch.</desc>
    <g id="Page-1" stroke="none" stroke-width="1" fill="none" fill-rule="evenodd">
        <path d="M59.151993,45.4854855 C59.9923273,47.8558559 60.2508917,50.0980981 59.7337629,52.3403403 C59.0227108,57.0810811 55.8552969,61.1811812 51.3304199,62.974975 C49.7143924,63.6796797 47.9044416,64 46.0944908,64 C45.577362,64 44.930951,63.9359359 44.4138222,63.8718719 C42.280666,63.6156156 40.0828686,62.9109109 37.9497123,61.6936937 C35.3640683,60.2202202 32.7784243,58.1061061 29.9342159,55.031031 C27.0900075,58.1061061 24.5690046,60.2202202 21.9187196,61.6936937 C19.7855633,62.9109109 17.5877659,63.6156156 15.4546096,63.8718719 C14.9374808,63.9359359 14.2910698,64 13.773941,64 C11.9639902,64 10.2186805,63.6796797 8.53801192,62.974975 C4.07777604,61.1811812 0.845721054,57.1451451 0.134668958,52.3403403 C-0.188536541,50.034034 0.070027858,47.7917918 0.910362154,45.4214214 C1.23356765,44.5885886 1.55677315,43.8198198 1.87997865,43.1151151 C2.39710745,41.961962 2.91423624,40.8728729 3.36672394,39.8478478 L3.43136504,39.7197197 C7.89160092,30.1101101 12.7396834,20.3723724 17.7170481,10.7627628 L17.9109714,10.3783784 C18.4281002,9.41741742 18.945229,8.39239239 19.4623578,7.36736737 C20.1087688,6.21421421 20.8198209,4.996997 21.7894374,3.84384384 C23.9225936,1.40940941 26.8314431,5.68434189e-14 30.0634981,5.68434189e-14 C33.230912,5.68434189e-14 36.2044026,1.40940941 38.2729178,3.97197197 C39.3071754,5.12512513 39.9535864,6.34234234 40.5999974,7.4954955 C41.1171262,8.52052052 41.634255,9.54554555 42.1513838,10.5065065 L42.3453071,10.8908909 C47.3873128,20.5005005 52.1707542,30.2382382 56.6309901,39.8478478 L56.6956312,39.9119119 C57.1481189,40.9369369 57.6652477,42.026026 58.1823765,43.1791792 C58.505582,43.8838839 58.8287875,44.7167167 59.151993,45.4854855 Z M29.998857,48.8168168 C33.4894764,44.3963964 35.7519149,40.2962963 36.5276081,36.9009009 C36.8508136,35.4914915 36.9154547,34.1461461 36.7215314,32.992993 C36.5922492,31.967968 36.2044026,31.0710711 35.6872738,30.3023023 C34.523734,28.5085085 32.3905777,27.4834835 29.998857,27.4834835 C27.6071363,27.4834835 25.5386211,28.5725726 24.3104402,30.3023023 C23.7933114,31.0710711 23.4054648,31.967968 23.2761826,32.992993 C23.0822593,34.1461461 23.1469004,35.4274274 23.4701059,36.9009009 C24.2457991,40.3603604 26.5082376,44.4604605 29.998857,48.8168168 Z M55.7906558,51.8278278 C56.0492202,50.1621622 55.8552969,48.5605606 55.3381681,46.8948949 C55.1442448,46.2542543 54.8210393,45.6136136 54.4978338,44.8448448 C53.980705,43.8198198 53.5282173,42.6666667 53.0110885,41.6416416 L53.0110885,41.5775776 C48.5508526,32.032032 43.7674113,22.2942943 38.8546877,12.7487487 L38.6607644,12.3643644 C38.1436356,11.4034034 37.6265068,10.3783784 37.109378,9.41741742 C36.5922492,8.39239239 36.0104793,7.43143143 35.2994272,6.5985986 C33.9419641,5.06106106 32.1320133,4.22822823 30.1281392,4.22822823 C28.1242651,4.22822823 26.3143143,5.06106106 24.9568512,6.5985986 C24.2457991,7.43143143 23.6640292,8.39239239 23.1469004,9.41741742 C22.6297717,10.3783784 22.1126429,11.4034034 21.5955141,12.3643644 L21.4015908,12.7487487 C16.4242261,22.2302302 11.6407847,31.967968 7.18054882,41.5135135 L7.11590772,41.6416416 C6.59877893,42.7307307 6.08165013,43.8198198 5.62916243,44.8448448 C5.30595693,45.6136136 4.98275143,46.2542543 4.78882814,46.8948949 C4.14241714,48.6886887 4.01313494,50.2902903 4.20705824,51.8918919 C4.65954594,55.2232232 6.92198443,58.1061061 10.0893983,59.3873874 C11.5761436,59.963964 13.2568122,60.2202202 15.0021219,60.028028 C16.6181494,59.8358358 18.2341769,59.3233233 19.9148455,58.3623624 C22.2419251,57.0810811 24.6336457,55.0950951 27.2839308,52.1481481 C23.0822593,46.958959 20.4319743,42.1541542 19.4623578,37.9259259 C18.945229,36.004004 18.8805879,34.1461461 19.1391523,32.4804805 C19.3977167,30.8788789 19.9794866,29.4054054 20.884462,28.1241241 C22.888336,25.3053053 26.2496732,23.5755756 29.998857,23.5755756 C33.7480408,23.5755756 37.109378,25.2412412 39.1132521,28.1241241 C40.0182275,29.4054054 40.5999974,30.8788789 40.8585618,32.4804805 C41.0524851,34.1461461 40.987844,35.9399399 40.5353563,37.9259259 C39.5657398,42.1541542 36.9800958,46.8948949 32.7137832,52.0840841 C35.4287094,55.031031 37.755789,57.017017 40.0828686,58.2982983 C41.7635372,59.2592593 43.3795647,59.7717718 44.9955921,59.963964 C46.6762607,60.1561562 48.3569293,59.963964 49.9083157,59.3233233 C53.0757296,58.042042 55.3381681,55.1591592 55.7906558,51.8278278 Z" id="logo-airbnb-bw" fill="#000000" fill-rule="nonzero"></path>
    </g>
</svg>