<?xml version="1.0" encoding="UTF-8"?>
<svg width="49px" height="58px" viewBox="0 0 49 58" version="1.1" xmlns="http://www.w3.org/2000/svg" xmlns:xlink="http://www.w3.org/1999/xlink">
    <!-- Generator: Sketch 52.6 (67491) - http://www.bohemiancoding.com/sketch -->
    <title>logo-paypal-color</title>
    <desc>Created with Sketch.</desc>
    <g id="Page-4" stroke="none" stroke-width="1" fill="none" fill-rule="evenodd">
        <g id="logo-paypal-color">
            <path d="M41.5674036,4.51459221 C38.9002726,1.46436489 34.0790429,0.15666786 27.9115015,0.15666786 L10.0111329,0.15666786 C8.7492645,0.15666786 7.67699497,1.0774912 7.47942971,2.32603813 L0.0261208859,49.7564333 C-0.12205306,50.6916445 0.599697452,51.5389298 1.54450552,51.5389298 L12.595414,51.5389298 L15.3708873,33.875428 L15.2848508,34.4285615 C15.4824161,33.1800145 16.5467193,32.2591913 17.8069944,32.2591913 L23.0584066,32.2591913 C33.3748184,32.2591913 41.4526883,28.0547375 43.8123187,15.8921958 C43.8824224,15.5324992 43.9429667,15.1823945 43.9955444,14.8402831 C43.6976034,14.6820166 43.6976034,14.6820166 43.9955444,14.8402831 C44.6981757,10.3448747 43.9907646,7.28505547 41.5674036,4.51459221" id="Path" fill="#27346A"></path>
            <path d="M19.5994212,13.220849 C19.8941759,13.0801676 20.222389,13.0018337 20.566535,13.0018337 L34.6000417,13.0018337 C36.2618205,13.0018337 37.8120704,13.110542 39.2284858,13.3391492 C39.6347693,13.4046939 40.0283065,13.4798305 40.4106909,13.5661577 C40.7930754,13.6508863 41.1643068,13.7468054 41.5243854,13.8523164 C41.7044246,13.9050719 41.8812775,13.959426 42.0549437,14.0169775 C42.7512019,14.2503806 43.3996621,14.5221514 43.9955444,14.8402831 C44.6981757,10.343276 43.9907646,7.28505547 41.5674036,4.51459221 C38.8986793,1.46436489 34.0790429,0.15666786 27.9115015,0.15666786 L10.0095397,0.15666786 C8.7492645,0.15666786 7.67699497,1.0774912 7.47942971,2.32603813 L0.0261208859,49.7548347 C-0.12205306,50.6916445 0.599697452,51.5373312 1.54291225,51.5373312 L12.595414,51.5373312 L18.3534854,14.8994332 C18.4713873,14.1480669 18.9525543,13.532586 19.5994212,13.220849 Z" id="Path" fill="#27346A"></path>
            <path d="M43.8123187,15.8921958 C41.4526883,28.0531389 33.3748184,32.2591913 23.0584066,32.2591913 L17.8054012,32.2591913 C16.545126,32.2591913 15.4808228,33.1800145 15.2848508,34.4285615 L11.8322385,56.3908376 C11.7031838,57.2093473 12.334118,57.9511216 13.159431,57.9511216 L22.4752704,57.9511216 C23.577812,57.9511216 24.5162469,57.1454011 24.68832,56.0535221 L24.7791362,55.5771239 L26.5349177,44.4121408 L26.6480398,43.7950614 C26.8201129,42.7031824 27.7585479,41.8974619 28.8610894,41.8974619 L30.2551991,41.8974619 C39.2794705,41.8974619 46.3456151,38.2189644 48.4104908,27.579938 C49.2724488,23.1340878 48.8263339,19.4220187 46.5463669,16.8146178 C45.8548885,16.0248839 44.996117,15.3726341 43.9955444,14.8402831 C43.9413734,15.1839932 43.8824224,15.5324992 43.8123187,15.8921958 Z" id="Path" fill="#2790C3"></path>
            <path d="M41.5259787,13.8523164 C41.1659001,13.7468054 40.7946686,13.6508863 40.4122841,13.5661577 C40.0298998,13.4814292 39.6347693,13.4062926 39.2300791,13.3407478 C37.8120704,13.110542 36.2634137,13.0018337 34.6000417,13.0018337 L20.5681282,13.0018337 C20.222389,13.0018337 19.8941759,13.0801676 19.6010145,13.2224476 C18.9525543,13.5341847 18.4729806,14.1480669 18.3550787,14.9010318 L15.3724806,33.875428 L15.2864441,34.4285615 C15.4824161,33.1800145 16.5467193,32.2591913 17.8069944,32.2591913 L23.0599999,32.2591913 C33.3764116,32.2591913 41.4542816,28.0547375 43.813912,15.8921958 C43.8840157,15.5324992 43.9429667,15.1839932 43.9971377,14.8402831 C43.3996621,14.52375 42.7527951,14.2503806 42.0565369,14.0185761 C41.8828708,13.9610247 41.7060179,13.9050719 41.5259787,13.8523164" id="Path" fill="#1F264F"></path>
        </g>
    </g>
</svg>