<?xml version="1.0" encoding="UTF-8"?>
<svg width="320px" height="80px" viewBox="0 0 320 80" version="1.1" xmlns="http://www.w3.org/2000/svg" xmlns:xlink="http://www.w3.org/1999/xlink">
    <!-- Generator: Sketch 52.6 (67491) - http://www.bohemiancoding.com/sketch -->
    <title>logo-aircall-color-2</title>
    <desc>Created with Sketch.</desc>
    <defs>
        <path d="M41.9042581,1.20490323 C38.7700645,0.475096774 33.6162581,0 27.7922581,0 C21.9682581,0 16.8126452,0.475096774 13.6784516,1.20490323 C7.42812903,2.52541935 2.50735484,7.48412903 1.19587097,13.7814194 C0.473290323,16.9390968 0,22.1308387 0,28 C0,33.8691613 0.471483871,39.0609032 1.19587097,42.2185806 C2.50735484,48.515871 7.42812903,53.4727742 13.6784516,54.7950968 C16.8126452,55.5249032 21.9664516,56 27.7922581,56 C33.6180645,56 38.7700645,55.5249032 41.9042581,54.7950968 C48.1545806,53.4745806 53.0753548,48.515871 54.3868387,42.2185806 C55.1094194,39.0609032 55.5827097,33.8691613 55.5827097,28 C55.5827097,22.1308387 55.1112258,16.9390968 54.3868387,13.7814194 C53.0753548,7.48412903 48.1545806,2.52722581 41.9042581,1.20490323 Z" id="path-1"></path>
    </defs>
    <g id="logo-aircall-color-2" stroke="none" stroke-width="1" fill="none" fill-rule="evenodd">
        <g id="logo" transform="translate(62.000000, 12.000000)">
            <g id="a-link" fill="#00B388">
                <path d="M41.9042581,1.20490323 C38.7700645,0.475096774 33.6162581,0 27.7922581,0 C21.9682581,0 16.8126452,0.475096774 13.6784516,1.20490323 C7.42812903,2.52541935 2.50735484,7.48412903 1.19587097,13.7814194 C0.473290323,16.9390968 0,22.1308387 0,28 C0,33.8691613 0.471483871,39.0609032 1.19587097,42.2185806 C2.50735484,48.515871 7.42812903,53.4727742 13.6784516,54.7950968 C16.8126452,55.5249032 21.9664516,56 27.7922581,56 C33.6180645,56 38.7700645,55.5249032 41.9042581,54.7950968 C48.1545806,53.4745806 53.0753548,48.515871 54.3868387,42.2185806 C55.1094194,39.0609032 55.5827097,33.8691613 55.5827097,28 C55.5827097,22.1308387 55.1112258,16.9390968 54.3868387,13.7814194 C53.0753548,7.48412903 48.1545806,2.52722581 41.9042581,1.20490323 Z" id="a"></path>
            </g>
            <g id="Clipped">
                <mask id="mask-2" fill="white">
                    <use xlink:href="#path-1"></use>
                </mask>
                <g id="a"></g>
                <path d="M34.4689032,42.9863226 C33.937568,41.7090076 32.8136614,40.7734313 31.4611613,40.4825806 C30.6464516,40.2929032 29.3060645,40.1682581 27.7922581,40.1682581 C26.2784516,40.1682581 24.9380645,40.2929032 24.1215484,40.4825806 C22.7789963,40.7710882 21.6609191,41.6950688 21.1246452,42.9592258 C20.9405078,43.3928939 20.4973072,43.6579381 20.028129,43.6149677 C19.928738,43.6057107 19.8293824,43.5960763 19.7300645,43.5860645 C17.5514839,43.3692903 15.8389677,43.0621935 14.8436129,42.7063226 C14.0691538,42.4158565 13.5973906,41.6295845 13.7055484,40.8095484 C13.8753548,38.5261935 15.251871,33.1754839 17.3094194,27.0696774 C19.6632258,20.0877419 22.1218065,14.4353548 23.2309677,13.3334194 C23.494186,13.0566801 23.8200723,12.8472703 24.1811613,12.7228387 C24.9109677,12.4753548 26.2531613,12.3073548 27.7904516,12.3073548 C29.3295484,12.3073548 30.6735484,12.4753548 31.3997419,12.7228387 L31.4123871,12.7264516 C31.7691955,12.8514453 32.0911691,13.0594897 32.3517419,13.3334194 C33.4609032,14.4353548 35.9212903,20.0877419 38.2732903,27.0696774 C40.3308387,33.1754839 41.7073548,38.5261935 41.8771613,40.8113548 C41.8777069,40.8379204 41.8795154,40.864445 41.8825806,40.8908387 C41.88554,40.9407891 41.8879487,40.9907707 41.8898065,41.0407742 C41.8910033,41.7810252 41.4333165,42.4445271 40.7409032,42.7063226 C39.7473548,43.0621935 38.0348387,43.3674839 35.8580645,43.5860645 L35.5184516,43.6185806 C35.0685409,43.659534 34.6441872,43.4034584 34.4707097,42.9863226 L34.4689032,42.9863226 Z" id="Path" fill="#FFFFFF" mask="url(#mask-2)"></path>
            </g>
            <path d="M88.779871,18.6570323 L94.0908387,18.6570323 L94.0908387,42.0090323 L88.779871,42.0090323 L88.779871,37.9047742 C87.1215484,40.8149677 84.2745806,42.4859355 80.5767742,42.4859355 C74.4113548,42.4859355 69.4797419,37.0467097 69.4797419,30.3194839 C69.4797419,23.5922581 74.4113548,18.2 80.5767742,18.2 C84.2745806,18.2 87.1215484,19.8691613 88.779871,22.7811613 L88.779871,18.6570323 Z M168.301677,18.6570323 L173.612645,18.6570323 L173.612645,42.0090323 L168.301677,42.0090323 L168.301677,37.9047742 C166.641548,40.8149677 163.796387,42.4859355 160.098581,42.4859355 C153.933161,42.4859355 148.999742,37.0467097 148.999742,30.3194839 C148.999742,23.5922581 153.931355,18.2 160.098581,18.2 C163.796387,18.2 166.641548,19.8691613 168.301677,22.7811613 L168.301677,18.6570323 Z M81.8322581,37.4098065 C85.8642581,37.4098065 88.8990968,34.3569032 88.8990968,30.3014194 C88.8990968,26.2929032 85.8642581,23.24 81.8322581,23.24 C79.9566192,23.2317975 78.1553798,23.9730158 76.828751,25.2989662 C75.5021222,26.6249165 74.7599827,28.4257766 74.7672258,30.3014194 C74.7672258,34.2611613 77.896,37.4098065 81.8322581,37.4098065 Z M161.075871,37.4098065 C165.107871,37.4098065 168.14271,34.3569032 168.14271,30.3014194 C168.14271,26.2929032 165.107871,23.24 161.075871,23.24 C159.200232,23.2317975 157.398993,23.9730158 156.072364,25.2989662 C154.745735,26.6249165 154.003596,28.4257766 154.010839,30.3014194 C154.010839,34.2611613 157.139613,37.4098065 161.075871,37.4098065 Z M102.046452,7 C103.896258,7 105.460645,8.57522581 105.460645,10.3870968 C105.457731,12.2750238 103.934322,13.8081044 102.046452,13.8229677 C100.196645,13.8229677 98.6792258,12.2965161 98.6792258,10.3870968 C98.6792258,8.57522581 100.196645,7 102.046452,7 Z M99.4379355,18.592 L104.701935,18.592 L104.701935,41.944 L99.4379355,41.944 L99.4379355,18.592 Z M121.238194,18.1349677 C122.251613,18.1349677 123.228903,18.2867097 123.931613,18.555871 C124.347097,18.7148387 124.712,18.8900645 124.997419,19.0381935 L122.853161,23.5489032 C122.159719,23.3423477 121.439675,23.2388755 120.716129,23.2418065 C118.154581,23.2418065 115.309419,25.387871 115.309419,29.492129 L115.309419,41.944 L110.045419,41.944 L110.045419,18.592 L115.309419,18.592 L115.309419,21.952 C116.353548,19.7101935 118.962065,18.1349677 121.238194,18.1349677 Z M147.675613,36.027871 C145.921548,39.8936774 141.842581,42.4227097 137.004903,42.4227097 C130.129548,42.4227097 124.865548,37.220129 124.865548,30.3014194 C124.865548,23.3827097 130.080774,18.1349677 136.957935,18.1349677 C141.463226,18.1349677 145.256774,20.3785806 146.965677,23.8126452 L142.507355,26.3416774 C141.558968,24.4810323 139.472516,23.24 136.957935,23.24 C132.97471,23.24 130.080774,26.2929032 130.080774,30.3032258 C130.080774,34.2629677 133.021677,37.315871 137.004903,37.315871 C139.709161,37.315871 141.936516,36.027871 142.980645,33.88 L147.675613,36.027871 Z M184.221935,7 L184.221935,41.944 L178.957935,41.944 L178.957935,7 L184.221935,7 Z M194.829419,7 L194.829419,41.944 L189.565419,41.944 L189.565419,7 L194.829419,7 Z" id="Shape" fill="#101820" fill-rule="nonzero"></path>
        </g>
    </g>
</svg>