<?xml version="1.0" encoding="UTF-8"?>
<svg width="76px" height="51px" viewBox="0 0 76 51" version="1.1" xmlns="http://www.w3.org/2000/svg" xmlns:xlink="http://www.w3.org/1999/xlink">
    <!-- Generator: Sketch 52.6 (67491) - http://www.bohemiancoding.com/sketch -->
    <title>logo-meetic-bw</title>
    <desc>Created with Sketch.</desc>
    <g id="Page-1" stroke="none" stroke-width="1" fill="none" fill-rule="evenodd">
        <g id="logo-meetic-bw" fill="#000000" fill-rule="nonzero">
            <path d="M36.9758095,18.2572816 C36.9758095,8.23326761 28.758762,0.0782957746 18.6598095,0.0782957746 C12.5197333,0.0782957746 6.81828571,3.10956338 3.40914286,8.1855 C1.40346667,11.173669 0.343809524,14.6574718 0.343809524,18.2597957 L0.343809524,20.0124718 L0.41184762,21.7831057 C1.60396191,36.195993 13.8783238,40.3262746 23.9863238,44.0112043 C28.6910857,45.7279648 33.1341905,47.3477535 35.8966095,49.8438803 L36.9750857,50.8207816 L36.9750857,42.4345141 L36.6595047,42.2477535 C34.6523809,41.0661338 31.8592,40.1035986 28.6234095,38.9902184 C19.8472191,35.9661338 8.13236191,32.259655 7.43026667,21.7866972 L36.9761714,21.7866972 L36.9761714,18.2633873 L36.9758095,18.2572816 Z M7.04990476,15.8732113 L7.24062857,15.1250916 C7.56561905,13.8375211 8.10847619,12.6242957 8.85182857,11.5173803 C11.0377333,8.25876761 14.7002095,6.31142957 18.6413524,6.31142957 C24.0337333,6.31142957 28.7204,9.93422535 30.0413524,15.1229366 L30.2295429,15.8735704 L7.0459238,15.8735704 L7.04990476,15.8732113 Z" id="Shape" fill-opacity="0.540647645"></path>
            <path d="M39.352438,21.779155 L68.9005143,21.779155 C68.1998667,32.2510352 56.4842857,35.9611057 47.7059238,38.9833943 C44.4668762,40.0982113 41.6729714,41.0611057 39.6680191,42.242007 L39.3495429,42.4287676 L39.3495429,50.8125211 L40.4280191,49.8356197 C43.1893524,47.339493 47.6335429,45.7182676 52.3383047,44.0029436 C62.4463047,40.3205282 74.7184953,36.1906057 75.9127809,21.7777184 L75.9815429,20.0070845 L75.9815429,18.2544084 C75.9815429,14.6520845 74.9211619,11.1697184 72.9125905,8.18298591 C69.4998286,3.1070493 63.7998286,0.0757816902 57.6590286,0.0757816902 C47.5604381,0.0757816902 39.3430286,8.23219014 39.3430286,18.2562043 L39.3430286,21.7831057 L39.352438,21.779155 Z M46.0947238,15.8732113 L46.2847238,15.1225775 C47.6042286,9.9345845 52.2923429,6.31142957 57.6861714,6.31142957 C61.6287619,6.31142957 65.2876191,8.2580493 67.4775047,11.5173803 C68.2230286,12.6257324 68.7658857,13.8385986 69.0916,15.1243732 L69.2834095,15.875007 L46.0997905,15.875007 L46.0947238,15.8732113 Z" id="Shape"></path>
        </g>
    </g>
</svg>