<?xml version="1.0" encoding="UTF-8"?>
<svg width="64px" height="62px" viewBox="0 0 64 62" version="1.1" xmlns="http://www.w3.org/2000/svg" xmlns:xlink="http://www.w3.org/1999/xlink">
    <!-- Generator: Sketch 52.6 (67491) - http://www.bohemiancoding.com/sketch -->
    <title>logo-molotov-bw</title>
    <desc>Created with Sketch.</desc>
    <g id="Page-1" stroke="none" stroke-width="1" fill="none" fill-rule="evenodd">
        <g id="logo-molotov-bw" fill="#000000" fill-rule="nonzero">
            <path d="M1.22001589,19.8637744 C0.406671962,19.8637744 1.42135227e-13,18.0488102 1.42108547e-13,17.0404968 C1.42108547e-13,16.0321834 4.2700556,8.99453666 5.59173948,7.06846755 C6.91342335,5.14239844 10.471803,4.47956024e-16 13.8268467,0 C17.1818904,0 18.4019063,0.907482078 18.4019063,1.71413281 C18.4019063,2.25189997 16.6396611,12.8055804 13.1151708,33.3751742 C18.2461664,17.2864961 23.6345699,8.68222156 29.2803813,7.56235065 C31.3137411,7.159025 34.6675837,8.92059582 35.1771247,10.1839655 C35.7871326,11.6964357 31.720413,26.2161489 31.3137411,30.0477399 C32.6354249,27.426125 39.537708,7.83543372 47.6822875,6.65486857 C50.3256553,6.2717097 52.8178891,7.59640435 53.8840349,9.57897749 C54.6973789,11.0914476 50.6306593,27.2849624 50.0206513,31.7618727 C49.4106434,36.238783 47.0722796,50.5165023 48.8006354,56.2638888 C49.6838427,59.2008612 50.9356632,60.2971425 50.9356632,61.0029619 C50.9356632,61.7087813 49.1056394,62.212938 47.3772836,61.910444 C45.6489277,61.6079499 40.1048475,59.4080715 39.5488483,52.3314665 C38.9388403,44.5674531 44.4289118,18.2504729 45.3439237,15.2255326 C45.6489277,14.4188819 38.8371724,20.9729191 32.8387609,36.2992831 C31.8796008,38.7500047 30.9070691,42.3860733 29.9920572,44.5674531 C29.3423791,46.1162797 25.9253376,47.4915621 24.0953137,47.2898994 C22.2652899,47.0882367 23.3836378,37.6100933 23.7903098,34.7868143 C24.1969817,31.9635354 26.4336775,19.0571236 27.0074526,16.1330147 C27.0074526,15.8305207 20.3335981,22.8887146 15.0468626,38.4167413 C13.0798587,44.1941607 11.6918189,51.1214904 10.980143,51.9281411 C10.268467,52.7347918 8.17136616,54.6505873 5.2867355,54.6505873 C4.23629865,54.6505873 3.86338364,52.3856239 3.86338364,50.5165023 C3.86338364,48.6473807 6.50675139,31.56021 6.81175536,28.2327757 C7.11675933,24.9053415 8.84511517,14.8222073 9.25178713,9.85826162 C9.25178713,9.20533109 6.81175536,12.6039177 5.49007149,14.4188819 C4.16838761,16.2338461 2.23669579,19.8637744 1.22001589,19.8637744 Z M5.51232386,59.3896604 C5.71565984,58.5830097 13.0468813,57.3730336 17.2041428,56.3647202 C21.3614042,55.3564067 30.0143096,53.1381172 35.809385,52.8356232 C35.809385,54.3144829 36.2838356,55.9277843 37.2327369,57.6755276 C27.4726098,58.6166201 21.5758664,59.1879977 19.5425065,59.3896604 C16.4924668,59.6921544 9.3757075,61.0029619 7.95235563,61.0029619 C6.52900376,61.0029619 5.30898788,60.1963111 5.51232386,59.3896604 Z M52.2573471,51.2349479 C58.3634838,51.109694 61.9896421,51.9163447 63.1358221,53.6549001 C64.2880593,55.4026434 64.2880593,57.5873225 63.1358221,60.2089373 C61.2041303,57.8898165 55.9173948,56.6798404 52.969023,56.6798404 C52.969023,54.9657076 52.6640191,51.839936 52.2573471,51.2349479 Z" id="Shape"></path>
        </g>
    </g>
</svg>