<?xml version="1.0" encoding="UTF-8"?>
<svg width="320px" height="80px" viewBox="0 0 320 80" version="1.1" xmlns="http://www.w3.org/2000/svg" xmlns:xlink="http://www.w3.org/1999/xlink">
    <!-- Generator: Sketch 52.6 (67491) - http://www.bohemiancoding.com/sketch -->
    <title>logo-paypal-color-2</title>
    <desc>Created with Sketch.</desc>
    <g id="logo-paypal-color-2" stroke="none" stroke-width="1" fill="none" fill-rule="evenodd">
        <g id="logo" transform="translate(48.000000, 12.000000)">
            <path d="M83.4779355,12.1917419 L71.1236129,12.1917419 C70.2786273,12.191209 69.5589946,12.8058474 69.4273548,13.6405161 L64.4307097,45.3202581 C64.3842215,45.6177626 64.4702894,45.9207087 64.6662523,46.1493321 C64.8622153,46.3779555 65.1484339,46.5093438 65.4495484,46.5089032 L71.3476129,46.5089032 C72.1931837,46.5092967 72.9130301,45.8937092 73.043871,45.0583226 L74.3914839,36.5138065 C74.5222188,35.6790959 75.241049,35.063722 76.0859355,35.0632258 L79.9969032,35.0632258 C88.1349677,35.0632258 92.8317419,31.1251613 94.0583226,23.3212903 C94.6110968,19.9070968 94.0818065,17.2245161 92.4830968,15.3458065 C90.7272258,13.2828387 87.6129032,12.1917419 83.4779355,12.1917419 Z M84.9032258,23.7620645 C84.2276129,28.1950968 80.8405161,28.1950968 77.5654194,28.1950968 L75.7011613,28.1950968 L77.0090323,19.916129 C77.0881331,19.4157418 77.5194637,19.0472337 78.0260645,19.0472258 L78.8805161,19.0472258 C81.1114839,19.0472258 83.216,19.0472258 84.3034839,20.3189677 C84.952,21.0776774 85.1507097,22.2049032 84.9032258,23.7620645 Z M120.407226,23.6193548 L114.491097,23.6193548 C113.984496,23.6193627 113.553165,23.9878708 113.474065,24.4882581 L113.212129,26.1429677 L112.798452,25.5432258 C111.517677,23.6843871 108.661677,23.0629677 105.811097,23.0629677 C99.2735484,23.0629677 93.6898065,28.0144516 92.6023226,34.9602581 C92.0369032,38.4250323 92.8407742,41.7380645 94.8061935,44.0485161 C96.6090323,46.1729032 99.1886452,47.0580645 102.257806,47.0580645 C107.525419,47.0580645 110.446452,43.6709677 110.446452,43.6709677 L110.18271,45.3148387 C110.135148,45.6122825 110.220217,45.9156371 110.415505,46.1449788 C110.610793,46.3743204 110.896713,46.5066477 111.197935,46.5070968 L116.526968,46.5070968 C117.372539,46.5074902 118.092385,45.8919027 118.223226,45.0565161 L121.420645,24.808 C121.468274,24.5112085 121.383364,24.2084585 121.188346,23.9797199 C120.993327,23.7509812 120.707815,23.6192619 120.407226,23.6193548 Z M112.160774,35.1336774 C111.589935,38.5135484 108.907355,40.7824516 105.485935,40.7824516 C103.768,40.7824516 102.395097,40.2314839 101.513548,39.1873548 C100.639226,38.1504516 100.306839,36.6745806 100.585032,35.0307097 C101.117935,31.6797419 103.845677,29.3367742 107.21471,29.3367742 C108.89471,29.3367742 110.260387,29.8949677 111.16,30.948129 C112.061419,32.012129 112.419097,33.4970323 112.160774,35.1336774 Z M151.915355,23.6193548 L145.970323,23.6193548 C145.401107,23.6202559 144.869052,23.9021703 144.548645,24.3726452 L136.349161,36.4505806 L132.873548,24.844129 C132.654491,24.1172869 131.985199,23.6197216 131.226065,23.6193548 L125.384,23.6193548 C125.051273,23.61847 124.738626,23.7784184 124.544655,24.0487578 C124.350685,24.3190972 124.299302,24.6665045 124.40671,24.9814194 L130.955097,44.1984516 L124.79871,52.8892903 C124.575663,53.2034196 124.546637,53.6157851 124.72348,53.958062 C124.900323,54.300339 125.253447,54.5152604 125.63871,54.5150968 L131.576516,54.5150968 C132.13926,54.5158719 132.666549,54.2404123 132.987355,53.7780645 L152.760774,25.236129 C152.979216,24.9213927 153.004857,24.5114023 152.82733,24.1719024 C152.649804,23.8324024 152.298468,23.619535 151.915355,23.6193548 Z" id="Shape" fill="#253B80" fill-rule="nonzero"></path>
            <path d="M171.598452,12.1917419 L159.242323,12.1917419 C158.398021,12.1920981 157.679404,12.8065233 157.547871,13.6405161 L152.551226,45.3202581 C152.504193,45.6172505 152.589567,45.9199447 152.784855,46.1485913 C152.980143,46.3772379 153.265758,46.5089051 153.566452,46.5089032 L159.907097,46.5089032 C160.498048,46.5080368 161.000599,46.0774979 161.092129,45.4936774 L162.510194,36.5138065 C162.640928,35.6790959 163.359759,35.063722 164.204645,35.0632258 L168.113806,35.0632258 C176.253677,35.0632258 180.948645,31.1251613 182.177032,23.3212903 C182.731613,19.9070968 182.19871,17.2245161 180.6,15.3458065 C178.845935,13.2828387 175.733419,12.1917419 171.598452,12.1917419 Z M173.023742,23.7620645 C172.349935,28.1950968 168.962839,28.1950968 165.685935,28.1950968 L163.823484,28.1950968 L165.133161,19.916129 C165.210738,19.415626 165.641908,19.0465995 166.148387,19.0472258 L167.002839,19.0472258 C169.232,19.0472258 171.338323,19.0472258 172.425806,20.3189677 C173.074323,21.0776774 173.271226,22.2049032 173.023742,23.7620645 Z M208.525935,23.6193548 L202.613419,23.6193548 C202.106658,23.6179609 201.675055,23.9873571 201.598194,24.4882581 L201.336258,26.1429677 L200.920774,25.5432258 C199.64,23.6843871 196.785806,23.0629677 193.935226,23.0629677 C187.397677,23.0629677 181.815742,28.0144516 180.728258,34.9602581 C180.164645,38.4250323 180.964903,41.7380645 182.930323,44.0485161 C184.736774,46.1729032 187.312774,47.0580645 190.381935,47.0580645 C195.649548,47.0580645 198.570581,43.6709677 198.570581,43.6709677 L198.306839,45.3148387 C198.259177,45.612906 198.344706,45.916875 198.540806,46.1463538 C198.736906,46.3758325 199.023824,46.5077059 199.325677,46.5070968 L204.652903,46.5070968 C205.49779,46.5066005 206.21662,45.8912267 206.347355,45.0565161 L209.546581,24.808 C209.592476,24.5102958 209.505945,24.2074043 209.309713,23.9788719 C209.113481,23.7503394 208.827156,23.6190031 208.525935,23.6193548 Z M200.279484,35.1336774 C199.712258,38.5135484 197.026065,40.7824516 193.604645,40.7824516 C191.890323,40.7824516 190.513806,40.2314839 189.632258,39.1873548 C188.757935,38.1504516 188.429161,36.6745806 188.703742,35.0307097 C189.240258,31.6797419 191.964387,29.3367742 195.333419,29.3367742 C197.013419,29.3367742 198.379097,29.8949677 199.27871,30.948129 C200.183742,32.012129 200.541419,33.4970323 200.279484,35.1336774 Z M215.500645,13.0606452 L210.429935,45.3202581 C210.382903,45.6172505 210.468277,45.9199447 210.663564,46.1485913 C210.858852,46.3772379 211.144468,46.5089051 211.445161,46.5089032 L216.542968,46.5089032 C217.390194,46.5089032 218.109161,45.8947097 218.239226,45.0583226 L223.239484,13.3803871 C223.28646,13.0832243 223.201121,12.7803805 223.005901,12.5514663 C222.810681,12.3225522 222.52511,12.1904679 222.224258,12.1899355 L216.515871,12.1899355 C216.009651,12.191728 215.579545,12.5606083 215.500645,13.0606452 Z" id="Shape" fill="#179BD7" fill-rule="nonzero"></path>
            <path d="M13.1256774,52.6652903 L14.0704516,46.6642581 L11.9659355,46.6154839 L1.91664516,46.6154839 L8.9003871,2.33393548 C8.94335966,2.05428939 9.18468826,1.84831466 9.4676129,1.84980645 L26.412129,1.84980645 C32.0374194,1.84980645 35.9194839,3.0203871 37.9463226,5.33083871 C38.8965161,6.41470968 39.5016774,7.54735484 39.7943226,8.79380645 C40.1014194,10.1016774 40.1068387,11.6642581 39.8069677,13.5700645 L39.7852903,13.7091613 L39.7852903,14.9303226 L40.7354839,15.4686452 C41.4608772,15.8361498 42.1129043,16.3332821 42.6593548,16.9354839 C43.4722581,17.8621935 43.9979355,19.04 44.220129,20.4363871 C44.4495484,21.8725161 44.3736774,23.5814194 43.9979355,25.516129 C43.5643871,27.7416774 42.8634839,29.68 41.9169032,31.2660645 C41.0817226,32.6869225 39.958789,33.9175346 38.620129,34.8789677 C37.3628387,35.7713548 35.8689032,36.4487742 34.179871,36.8823226 C32.5432258,37.3086452 30.6771613,37.5236129 28.6304516,37.5236129 L27.3117419,37.5236129 C26.3687742,37.5236129 25.4529032,37.8632258 24.7339355,38.472 C24.0159871,39.0872699 23.5397166,39.9373872 23.3899355,40.8709677 L23.2905806,41.4110968 L21.6214194,51.987871 L21.5455484,52.3762581 C21.5256774,52.4990968 21.4913548,52.5605161 21.4407742,52.6020645 C21.3917759,52.6421357 21.330646,52.6644226 21.2673548,52.6652903 L13.1256774,52.6652903 Z" id="Path" fill="#253B80"></path>
            <path d="M41.6350968,13.8500645 C41.5845161,14.1734194 41.5267097,14.504 41.4616774,14.8436129 C39.2270968,26.3163871 31.5821935,30.2797419 21.8183226,30.2797419 L16.8469677,30.2797419 C15.6529032,30.2797419 14.6467097,31.1468387 14.4606452,32.3246452 L11.9153548,48.4670968 L11.1945806,53.0428387 C11.1364735,53.4101567 11.2420563,53.7845044 11.4835322,54.0673266 C11.7250081,54.3501487 12.0781789,54.5131038 12.4500645,54.5132903 L21.2673548,54.5132903 C22.3114839,54.5132903 23.1984516,53.7545806 23.3628387,52.7249032 L23.4495484,52.2769032 L25.1096774,41.7416774 L25.2162581,41.1636129 C25.3788387,40.1303226 26.2676129,39.3716129 27.3117419,39.3716129 L28.6304516,39.3716129 C37.1731613,39.3716129 43.8606452,35.9032258 45.8152258,25.8665806 C46.6317419,21.6738065 46.2090323,18.1729032 44.0485161,15.7107097 C43.3637449,14.9490429 42.5459141,14.3185297 41.6350968,13.8500645 Z" id="Path" fill="#179BD7"></path>
            <path d="M39.2975484,12.9179355 C38.5840476,12.7115325 37.8582133,12.5504371 37.1243871,12.4356129 C35.6743844,12.2127724 34.2089274,12.1058532 32.7419355,12.115871 L19.4609032,12.115871 C18.4165535,12.1150646 17.5276206,12.8759114 17.3672258,13.907871 L14.5419355,31.8025806 L14.4606452,32.3246452 C14.6425136,31.1475516 15.6559073,30.2791476 16.8469677,30.2797419 L21.8183226,30.2797419 C31.5821935,30.2797419 39.2270968,26.3145806 41.4616774,14.8436129 C41.5285161,14.504 41.5845161,14.1734194 41.6350968,13.8500645 C41.0454444,13.5408516 40.4309049,13.2816211 39.7979355,13.0750968 C39.6319914,13.0200358 39.4651742,12.967642 39.2975484,12.9179355 Z" id="Path" fill="#222D65"></path>
            <path d="M17.3672258,13.907871 C17.5262811,12.875436 18.4162932,12.1144333 19.4609032,12.1176774 L32.7419355,12.1176774 C34.3153548,12.1176774 35.784,12.2206452 37.1243871,12.4374194 C38.03142,12.5799705 38.9259275,12.7931786 39.7997419,13.0750968 C40.4590968,13.2936774 41.0714839,13.552 41.6369032,13.8500645 C42.3016774,9.61032258 41.6314839,6.7236129 39.3390968,4.10967742 C36.811871,1.232 32.2505806,0 26.4139355,0 L9.46941935,0 C8.27716129,0 7.26012903,0.867096774 7.07587097,2.04670968 L0.0180645161,46.7834839 C-0.0484642686,47.2038221 0.0722390847,47.6322264 0.348423464,47.9560048 C0.624607844,48.2797833 1.02862341,48.4665211 1.45419355,48.4670968 L11.9153548,48.4670968 L14.5419355,31.8025806 L17.3672258,13.907871 Z" id="Path" fill="#253B80"></path>
        </g>
    </g>
</svg>