<?xml version="1.0" encoding="UTF-8"?>
<svg width="320px" height="80px" viewBox="0 0 320 80" version="1.1" xmlns="http://www.w3.org/2000/svg" xmlns:xlink="http://www.w3.org/1999/xlink">
    <!-- Generator: Sketch 52.6 (67491) - http://www.bohemiancoding.com/sketch -->
    <title>logo-blablacar-color-2</title>
    <desc>Created with Sketch.</desc>
    <g id="logo-blablacar-color-2" stroke="none" stroke-width="1" fill="none" fill-rule="evenodd">
        <g id="logo" transform="translate(33.000000, 13.000000)">
            <path d="M49.1525424,25.4576271 C47.8983051,17.8983051 40.7457627,12.8135593 33.220339,14.1016949 L35.4237288,1.44067797 L27.3389831,0 C26.6610169,1.52542373 23.6101695,8.47457627 22.1355932,16.2711864 C25.1355932,18.3050847 27.3389831,21.5254237 28,25.4237288 C28.6779661,29.5423729 27.4915254,33.559322 25.0169492,36.5423729 C25.6271186,37.2881356 26.3220339,37.9661017 27.1016949,38.5762712 C30.2372881,41.0508475 34.0508475,42.0169492 37.779661,41.3898305 C45.3559322,40.1355932 50.440678,32.9830508 49.1355932,25.4576271 L49.1525424,25.4576271 Z" id="Path" fill="#054752"></path>
            <path d="M22,17.1525424 L22.1694915,16.3050847 C19.2881356,14.3389831 15.7288136,13.4576271 12.0338983,14.0677966 L14.2372881,1.42372881 L6.16949153,0 C5.45762712,1.57627119 2.20338983,8.98305085 0.813559322,17.1186441 C-0.305084746,23.6949153 -0.254237288,30.7457627 3.18644068,35.7118644 C3.94915254,36.779661 4.84745763,37.7457627 5.93220339,38.5932203 C9.08474576,41.0677966 12.9152542,42.0338983 16.6440678,41.4067797 C20.0677966,40.8474576 22.9661017,39.0338983 25.0169492,36.5762712 L24.3728814,35.7288136 C20.9152542,30.779661 20.8644068,23.7288136 22,17.1694915 L22,17.1525424 Z" id="Path" fill="#2DBEFF"></path>
            <path d="M28.0169492,25.4576271 C27.3389831,21.559322 25.1355932,18.3389831 22.1525424,16.3050847 L21.9830508,17.1525424 C20.8813559,23.7288136 20.9322034,30.779661 24.3898305,35.7457627 L25.0169492,36.5932203 C27.4915254,33.5423729 28.7118644,29.5423729 28,25.4067797 L28.0169492,25.4576271 Z" id="Path" fill="#9EF769"></path>
            <path d="M211.864407,38.6440678 L207.050847,38.6440678 C206.881356,38.6440678 206.762712,38.7288136 206.711864,38.8644068 C206.033898,40.6610169 205.084746,42.1525424 203.728814,43.2033898 C202.372881,44.220339 200.627119,44.8305085 198.355932,44.8305085 C195.254237,44.8305085 192.762712,43.4745763 191.067797,41.2033898 C189.372881,38.9152542 188.423729,35.7457627 188.423729,32.1186441 C188.423729,28.4576271 189.355932,25.2881356 191.067797,23.0338983 C192.762712,20.779661 195.271186,19.4237288 198.355932,19.4237288 C200.610169,19.4237288 202.338983,20.0169492 203.694915,21.0508475 C205.050847,22.1016949 205.983051,23.5932203 206.677966,25.3389831 C206.728814,25.4745763 206.847458,25.5762712 207.016949,25.5762712 L211.847458,25.5762712 C211.915254,25.5762712 212.016949,25.5423729 212.067797,25.4745763 C212.135593,25.4237288 212.169492,25.3389831 212.169492,25.2372881 L212.169492,25.1525424 C211.40678,21.8983051 209.830508,19.220339 207.491525,17.3559322 C205.152542,15.4915254 202.101695,14.4067797 198.305085,14.4067797 C193.898305,14.4067797 190,16.220339 187.20339,19.3220339 C184.40678,22.440678 182.711864,26.8644068 182.711864,32.1694915 C182.711864,37.4745763 184.40678,41.9152542 187.20339,45.0169492 C190,48.1525424 193.898305,49.9322034 198.322034,49.9322034 C202.118644,49.9322034 205.20339,48.8813559 207.559322,47 C209.898305,45.1355932 211.491525,42.4237288 212.220339,39.1186441 L212.220339,39.0338983 C212.220339,38.9322034 212.186441,38.8644068 212.118644,38.779661 C212.084746,38.7288136 211.983051,38.6949153 211.881356,38.6949153 L211.864407,38.6440678 Z M254.118644,24.3728814 C253.779661,24.3050847 253.305085,24.2372881 252.644068,24.2372881 C252.067797,24.2372881 251.355932,24.2881356 250.542373,24.440678 C249.864407,24.5762712 249.135593,24.8474576 248.457627,25.220339 C247.779661,25.5932203 247.101695,26.1016949 246.491525,26.7118644 C246.152542,27.0508475 245.813559,27.4745763 245.508475,27.9491525 L245.288136,28.2881356 L245.288136,25 C245.288136,24.7966102 245.118644,24.6271186 244.949153,24.6271186 L240.338983,24.6271186 C240.169492,24.6271186 240,24.7966102 240,25 L240,49.0677966 C240,49.2372881 240.169492,49.4067797 240.338983,49.4067797 L244.983051,49.4067797 C245.186441,49.4067797 245.355932,49.2372881 245.355932,49.0677966 L245.355932,37.3728814 C245.355932,36.0169492 245.525424,34.8644068 245.813559,33.9152542 C246.118644,32.9661017 246.576271,32.220339 247.169492,31.6440678 C247.79661,31.0677966 248.491525,30.6271186 249.305085,30.3389831 C250.254237,30 251.288136,29.8983051 252.186441,29.8983051 C252.864407,29.8983051 253.542373,29.9661017 253.932203,30.0338983 L253.983051,30.0338983 C254.186441,30.0338983 254.322034,29.8983051 254.322034,29.6949153 L254.322034,24.7457627 C254.372881,24.5762712 254.254237,24.4067797 254.067797,24.3728814 L254.118644,24.3728814 Z M154.237288,14.3728814 L154.152542,14.3728814 L149.491525,15.1864407 C149.322034,15.220339 149.152542,15.3559322 149.152542,15.5254237 L149.152542,49.0508475 C149.152542,49.2542373 149.322034,49.4237288 149.542373,49.4237288 L154.237288,49.4237288 C154.40678,49.4237288 154.576271,49.2542373 154.576271,49.0508475 L154.576271,14.7457627 C154.576271,14.5423729 154.40678,14.3728814 154.186441,14.3728814 L154.237288,14.3728814 Z M144.627119,34.2711864 C143.949153,32.8813559 143,31.6949153 141.830508,30.7118644 L141.491525,30.4576271 C140.983051,30.0677966 140.423729,29.7118644 139.830508,29.440678 L139.661017,29.3559322 L139.779661,29.2372881 C140.322034,28.6101695 140.79661,27.8813559 141.135593,27.1016949 C141.644068,25.9661017 141.898305,24.7966102 141.898305,23.5762712 C141.898305,22.2542373 141.627119,21.0338983 141.118644,19.8474576 C140.610169,18.6610169 139.881356,17.6779661 138.966102,16.8305085 C138.118644,16.0508475 137.101695,15.440678 135.949153,15 C134.79661,14.559322 133.355932,14.3220339 131.661017,14.3220339 L121.389831,14.3220339 C121.186441,14.3220339 121.016949,14.4915254 121.016949,14.7118644 L121.016949,49.0338983 C121.016949,49.2372881 121.186441,49.4067797 121.389831,49.4067797 L134.067797,49.4067797 C135.881356,49.4067797 137.389831,49.2033898 138.610169,48.7966102 C139.79661,48.3898305 140.898305,47.779661 141.830508,47.0169492 C142.983051,46.0508475 143.932203,44.8474576 144.627119,43.4576271 C144.79661,43.1186441 144.915254,42.8305085 145.033898,42.5254237 L145.084746,42.3898305 L145.169492,42.1525424 C145.508475,41.1016949 145.711864,40 145.711864,38.8474576 C145.677966,37.1864407 145.322034,35.6271186 144.610169,34.2372881 L144.627119,34.2711864 Z M126.491525,19.5254237 L130.79661,19.5254237 C132.152542,19.5254237 133.169492,19.6440678 133.847458,19.8644068 C134.491525,20.1186441 135,20.4576271 135.372881,20.8813559 C136.101695,21.6949153 136.474576,22.6440678 136.474576,23.7627119 C136.474576,24.8474576 136.135593,25.7966102 135.372881,26.6101695 C135,27.0338983 134.525424,27.3728814 133.847458,27.6271186 C133.372881,27.7966102 132.661017,27.8983051 131.813559,27.9661017 L126.440678,27.9661017 L126.440678,19.5254237 L126.491525,19.5254237 Z M139.711864,40.8135593 C139.440678,41.4915254 139.067797,42.0677966 138.59322,42.5762712 C138.050847,43.0847458 137.40678,43.5254237 136.610169,43.8305085 C135.813559,44.1186441 134.644068,44.2881356 133.084746,44.2881356 L126.474576,44.2881356 L126.474576,33.1525424 L133.084746,33.1525424 C134.644068,33.1525424 135.79661,33.3220339 136.59322,33.6101695 C137.355932,33.9152542 138.016949,34.3389831 138.542373,34.8644068 C139.016949,35.3728814 139.389831,35.9491525 139.677966,36.5932203 C139.966102,37.220339 140.101695,37.9491525 140.101695,38.6779661 C140.101695,39.440678 139.966102,40.1525424 139.677966,40.8135593 L139.711864,40.8135593 Z M176.661017,26.6440678 C174.864407,25 172.389831,24.1864407 169.305085,24.1864407 C166.525424,24.1864407 164.254237,24.8644068 162.525424,26.220339 C161,27.3559322 159.898305,28.8135593 159.305085,30.5423729 C159.237288,30.7118644 159.355932,30.9322034 159.559322,30.9661017 L163.932203,31.7288136 C164.101695,31.7627119 164.220339,31.6779661 164.271186,31.559322 C165.169492,29.5762712 166.847458,28.6101695 169.322034,28.6101695 C171.016949,28.6101695 172.305085,29.0677966 173.220339,30 C174.135593,30.9322034 174.576271,32.1694915 174.576271,33.7288136 L174.576271,34.6101695 C172.288136,33.9322034 170.101695,33.5932203 168.067797,33.5932203 C165.186441,33.5932203 162.779661,34.3050847 160.864407,35.7627119 C158.966102,37.220339 157.983051,39.2711864 157.983051,41.8983051 C157.983051,44.4067797 158.881356,46.3728814 160.627119,47.7966102 C162.372881,49.220339 164.474576,49.9322034 166.949153,49.9322034 C170.101695,49.9322034 172.711864,49.0169492 174.610169,47.1186441 L174.610169,49.0169492 C174.610169,49.2542373 174.813559,49.440678 175.033898,49.440678 L179.067797,49.440678 C179.288136,49.440678 179.474576,49.2711864 179.474576,49.0338983 L179.474576,33.3898305 C179.423729,30.5084746 178.508475,28.2711864 176.677966,26.6440678 L176.661017,26.6440678 Z M172.559322,43.5932203 C171.20339,44.7288136 169.559322,45.2881356 167.59322,45.2881356 C166.152542,45.2881356 165.050847,44.9491525 164.271186,44.3050847 C163.525424,43.6610169 163.135593,42.779661 163.135593,41.6610169 C163.135593,40.440678 163.644068,39.5254237 164.59322,38.9152542 C165.542373,38.3050847 166.79661,37.9830508 168.322034,37.9830508 C170.237288,37.9830508 172.338983,38.3220339 174.59322,39 C174.59322,40.9830508 173.915254,42.4915254 172.559322,43.5762712 L172.559322,43.5932203 Z M91.3559322,14.3728814 L91.2881356,14.3728814 L86.6101695,15.1864407 C86.440678,15.220339 86.2711864,15.3559322 86.2711864,15.5254237 L86.2711864,49.0508475 C86.2711864,49.2542373 86.440678,49.4237288 86.6610169,49.4237288 L91.3559322,49.4237288 C91.5254237,49.4237288 91.6949153,49.2542373 91.6949153,49.0508475 L91.6949153,14.7457627 C91.6949153,14.5423729 91.5254237,14.3728814 91.3220339,14.3728814 L91.3559322,14.3728814 Z M81.6949153,34.2711864 C81.0169492,32.8813559 80.1016949,31.6949153 78.9322034,30.7118644 L78.5932203,30.4576271 C78.0847458,30.0677966 77.5254237,29.7118644 76.9322034,29.440678 L76.7627119,29.3559322 L76.8813559,29.2372881 C77.4237288,28.6101695 77.8983051,27.8813559 78.2372881,27.1016949 C78.7457627,25.9661017 79,24.7966102 79,23.5762712 C79,22.2542373 78.7457627,21.0338983 78.2372881,19.8474576 C77.7288136,18.6610169 77,17.6779661 76.0847458,16.8305085 C75.2372881,16.0508475 74.220339,15.440678 73.1016949,15 C71.9491525,14.559322 70.5084746,14.3220339 68.8135593,14.3220339 L58.559322,14.3220339 C58.3559322,14.3220339 58.1864407,14.4915254 58.1864407,14.7118644 L58.1864407,49.0338983 C58.1864407,49.2372881 58.3559322,49.4067797 58.559322,49.4067797 L71.1864407,49.4067797 C73,49.4067797 74.5084746,49.2033898 75.7288136,48.7966102 C76.9152542,48.3898305 78.0169492,47.779661 78.9491525,47.0169492 C80.1016949,46.0508475 81.0508475,44.8474576 81.7457627,43.4576271 C81.9152542,43.1186441 82.0338983,42.8305085 82.1525424,42.5254237 L82.2033898,42.3898305 C82.2033898,42.3220339 82.2372881,42.220339 82.2711864,42.1525424 C82.6101695,41.1016949 82.8135593,40 82.8135593,38.8474576 C82.779661,37.1864407 82.4237288,35.6271186 81.7118644,34.2372881 L81.6949153,34.2711864 Z M63.559322,19.5254237 L67.8983051,19.5254237 C69.2542373,19.5254237 70.2711864,19.6440678 70.9491525,19.8644068 C71.5932203,20.1186441 72.1016949,20.4576271 72.4745763,20.8813559 C73.2033898,21.6949153 73.5762712,22.6440678 73.5762712,23.7627119 C73.5762712,24.8474576 73.2372881,25.7966102 72.4745763,26.6101695 C72.1016949,27.0338983 71.6271186,27.3728814 70.9491525,27.6271186 C70.4745763,27.7966102 69.7627119,27.8983051 68.9152542,27.9661017 L63.559322,27.9661017 L63.559322,19.5254237 Z M76.8305085,40.8135593 C76.5423729,41.4915254 76.1525424,42.0677966 75.6949153,42.5762712 C75.1525424,43.0847458 74.5084746,43.5254237 73.7118644,43.8305085 C72.9152542,44.1186441 71.7457627,44.2881356 70.1864407,44.2881356 L63.5762712,44.2881356 L63.5762712,33.1525424 L70.1864407,33.1525424 C71.7627119,33.1525424 72.9322034,33.3220339 73.7118644,33.6101695 C74.5084746,33.9152542 75.1694915,34.3389831 75.6949153,34.8644068 C76.1694915,35.3728814 76.5423729,35.9491525 76.8305085,36.5932203 C77.1186441,37.220339 77.2542373,37.9491525 77.2542373,38.6779661 C77.2542373,39.440678 77.0847458,40.1525424 76.8135593,40.8135593 L76.8305085,40.8135593 Z M113.779661,26.6440678 C111.966102,25 109.491525,24.1864407 106.40678,24.1864407 C103.644068,24.1864407 101.372881,24.8644068 99.6271186,26.220339 C98.1016949,27.3559322 97.0169492,28.8135593 96.4067797,30.5423729 C96.3559322,30.7118644 96.4745763,30.9322034 96.6779661,30.9661017 L101.033898,31.7288136 C101.20339,31.7627119 101.372881,31.6779661 101.423729,31.559322 C102.305085,29.5762712 103.966102,28.6101695 106.457627,28.6101695 C108.101695,28.6101695 109.40678,29.0677966 110.322034,30 C111.237288,30.9322034 111.711864,32.1694915 111.711864,33.7288136 L111.711864,34.6101695 C109.389831,33.9322034 107.20339,33.5932203 105.169492,33.5932203 C102.288136,33.5932203 99.8813559,34.3050847 97.9661017,35.7627119 C96.0169492,37.220339 95.0847458,39.2711864 95.0847458,41.8983051 C95.0847458,44.4067797 95.9322034,46.3728814 97.6779661,47.7966102 C99.4237288,49.220339 101.525424,49.9322034 104,49.9322034 C107.169492,49.9322034 109.762712,49.0169492 111.677966,47.1186441 L111.677966,49.0169492 C111.677966,49.2542373 111.847458,49.440678 112.067797,49.440678 L116.101695,49.440678 C116.338983,49.440678 116.525424,49.2711864 116.525424,49.0338983 L116.525424,33.3898305 C116.474576,30.5084746 115.576271,28.2711864 113.745763,26.6440678 L113.779661,26.6440678 Z M109.644068,43.5932203 C108.288136,44.7288136 106.59322,45.2881356 104.644068,45.2881356 C103.20339,45.2881356 102.101695,44.9491525 101.322034,44.3050847 C100.542373,43.6610169 100.135593,42.779661 100.135593,41.6610169 C100.135593,40.440678 100.644068,39.5254237 101.610169,38.9152542 C102.576271,38.3050847 103.813559,37.9830508 105.338983,37.9830508 C107.271186,37.9830508 109.372881,38.3220339 111.610169,39 C111.644068,40.9830508 110.966102,42.4915254 109.610169,43.5762712 L109.644068,43.5932203 Z M233.474576,26.6440678 C231.661017,25 229.186441,24.1864407 226.101695,24.1864407 C223.355932,24.1864407 221.084746,24.8644068 219.322034,26.220339 C217.79661,27.3559322 216.728814,28.8135593 216.101695,30.5423729 C216.067797,30.7118644 216.186441,30.9322034 216.389831,30.9661017 L220.762712,31.7288136 C220.932203,31.7627119 221.050847,31.6779661 221.101695,31.559322 C222,29.5762712 223.677966,28.6101695 226.152542,28.6101695 C227.813559,28.6101695 229.118644,29.0677966 230.050847,30 C230.949153,30.9322034 231.40678,32.1694915 231.40678,33.7288136 L231.40678,34.6101695 C229.101695,33.9322034 226.915254,33.5932203 224.881356,33.5932203 C222,33.5932203 219.59322,34.3050847 217.677966,35.7627119 C215.762712,37.220339 214.79661,39.2711864 214.79661,41.8983051 C214.79661,44.4067797 215.677966,46.3728814 217.423729,47.7966102 C219.169492,49.220339 221.271186,49.9322034 223.745763,49.9322034 C226.932203,49.9322034 229.508475,49.0169492 231.440678,47.1186441 L231.440678,49.0169492 C231.440678,49.2542373 231.610169,49.440678 231.847458,49.440678 L235.881356,49.440678 C236.101695,49.440678 236.288136,49.2711864 236.288136,49.0338983 L236.288136,33.3898305 C236.220339,30.5084746 235.305085,28.2711864 233.491525,26.6440678 L233.474576,26.6440678 Z M229.322034,43.5932203 C227.966102,44.7288136 226.338983,45.2881356 224.372881,45.2881356 C222.932203,45.2881356 221.830508,44.9491525 221.050847,44.3050847 C220.305085,43.6610169 219.915254,42.779661 219.915254,41.6610169 C219.915254,40.440678 220.423729,39.5254237 221.372881,38.9152542 C222.338983,38.3050847 223.576271,37.9830508 225.101695,37.9830508 C227.033898,37.9830508 229.169492,38.3220339 231.372881,39 C231.372881,40.9830508 230.694915,42.4915254 229.338983,43.5762712 L229.322034,43.5932203 Z" id="Shape" fill="#054752" fill-rule="nonzero"></path>
        </g>
    </g>
</svg>