<?xml version="1.0" encoding="UTF-8"?>
<svg width="60px" height="54px" viewBox="0 0 60 54" version="1.1" xmlns="http://www.w3.org/2000/svg" xmlns:xlink="http://www.w3.org/1999/xlink">
    <!-- Generator: Sketch 52.6 (67491) - http://www.bohemiancoding.com/sketch -->
    <title>logo-bayes-bw</title>
    <desc>Created with Sketch.</desc>
    <g id="Page-1" stroke="none" stroke-width="1" fill="none" fill-rule="evenodd">
        <g id="logo-bayes-bw" fill="#000000" fill-rule="nonzero">
            <path d="M29.2090172,0.0890000973 C27.5388807,0.439027726 27.013404,1.0220031 24.7728596,5.01144542 C24.673627,5.18791364 24.4148531,5.6460523 24.1976464,6.02953132 C23.9804397,6.41301034 23.6933137,6.92302289 23.5592414,7.16300029 C23.4254095,7.40297768 23.2144499,7.76197416 23.0907094,7.96098571 C22.9669689,8.15999726 22.865814,8.34179831 22.865814,8.36506885 C22.865814,8.38858179 22.6017542,8.85835571 22.279308,9.40933413 C21.7031337,10.3932414 21.5856403,10.600737 20.9438715,11.768627 C20.7679917,12.0885968 20.3715416,12.7799257 20.0630312,13.3047247 C19.7545209,13.8297661 19.5019941,14.2779663 19.5019941,14.3009944 C19.5019941,14.3240225 19.3357253,14.6144194 19.1326948,14.9465093 C18.7895851,15.5069414 18.5625273,15.9013285 18.0870273,16.7620959 C17.9839503,16.948745 17.7669839,17.3414353 17.60504,17.6347409 C17.2169993,18.3367355 16.7626434,19.1352056 16.1427394,20.2041959 C15.4908792,21.3279688 15.3659373,21.547342 15.0105737,22.1918873 C14.6986996,22.7576523 13.9901349,24.0067467 12.1510865,27.2338366 C10.8264623,29.5579813 10.7894603,29.6234296 10.3737883,30.3850548 C10.1991099,30.7050247 9.97565615,31.0826861 9.87738457,31.2242485 C9.77935325,31.3658109 9.69886182,31.5068885 9.69886182,31.5376736 C9.69886182,31.5684585 9.52586534,31.8787323 9.31442525,32.2273055 C9.10298516,32.5758787 8.92998871,32.8783957 8.92998871,32.899727 C8.92998871,32.9213007 8.67049403,33.3821058 8.35333387,33.9241154 C8.03617371,34.4661249 7.77667903,34.9286268 7.77667903,34.9521397 C7.77667903,34.9754102 7.67552416,35.1572113 7.55178364,35.3562228 C7.42804313,35.5552344 7.21780438,35.9142309 7.08469323,36.1542083 C6.95182234,36.3941857 6.59213388,37.0268533 6.285786,37.5601364 C5.97943812,38.0934195 5.61998993,38.7260871 5.48711904,38.9660646 C5.35424816,39.2060419 5.058232,39.722357 4.82925198,40.1133504 C4.60027196,40.5043439 4.41285913,40.843221 4.41285913,40.8664916 C4.41285913,40.8895197 4.22568658,41.2242761 3.99694683,41.6099367 C3.63173209,42.2253939 3.15503076,43.0597395 2.51614525,44.2019349 C2.41186684,44.388584 1.9661607,45.1739645 1.52598084,45.947225 C0.0631997259,48.5164375 -0.0792820743,48.9214903 0.0278796169,50.2033089 C0.178770967,52.0072601 1.57980195,53.5581443 3.36767224,53.9001727 C4.10723207,54.0417351 56.0477349,54.0286455 56.7154531,53.8868406 C59.742891,53.2435073 60.9185461,50.1024699 59.2152519,47.2077123 C59.1054472,47.0210632 58.8769477,46.6065568 58.707315,46.286587 C58.5379227,45.9666171 58.2620895,45.4866623 58.094379,45.2200208 C57.9269088,44.9533793 57.759679,44.6697696 57.7226769,44.5897771 C57.6859152,44.5097847 57.576591,44.3134395 57.4800013,44.1534546 C57.3834116,43.9934697 57.1719716,43.6225955 57.0097873,43.3292899 C56.8478435,43.0359842 56.3432705,42.1468558 55.8886743,41.353476 C55.4343183,40.5600962 55.0623759,39.9010068 55.0623759,39.8888867 C55.0623759,39.8765242 54.8398833,39.4785012 54.5678944,39.0041216 C53.7307838,37.5441379 51.6543459,33.8807255 51.193983,33.0514703 C51.0901852,32.8648212 50.691092,32.1667052 50.3066554,31.5001013 C49.5879993,30.2539157 48.2049888,27.8136608 47.7787447,27.0399155 C47.6465947,26.7999381 47.4642276,26.4945123 47.3736448,26.3611915 C47.2830619,26.2278707 47.1016558,25.9224449 46.9707072,25.6824676 C46.3423937,24.5317882 46.0595925,24.0271084 45.6756365,23.371655 C45.4466565,22.9806616 45.2592436,22.641542 45.2592436,22.6182714 C45.2592436,22.5950009 45.1578485,22.4131999 45.034108,22.2141883 C44.9103674,22.0151768 44.676582,21.612548 44.5148783,21.3192423 C44.3531747,21.0259366 43.8440366,20.1314754 43.3834335,19.3315508 C42.9225902,18.5316261 42.4497332,17.7026134 42.3327203,17.4893001 C41.8209391,16.5579939 41.5765817,16.1253074 41.5107469,16.0348917 C41.472063,15.9815633 41.2978651,15.6761376 41.1236673,15.3561677 C40.697183,14.5732112 40.572962,14.3523835 39.9220628,13.2230354 C39.2653971,12.0835064 38.7947027,11.2586144 38.4556776,10.6535805 C38.3211248,10.4136031 37.8910364,9.65706831 37.4996319,8.97228437 C37.1084678,8.2877428 36.6762169,7.52417838 36.5395016,7.27547454 C36.4025461,7.0270131 36.1891839,6.66098698 36.0654433,6.46197542 C35.9417028,6.26296387 35.8405479,6.08116281 35.8405479,6.05789228 C35.8405479,6.03462174 35.6531351,5.69550218 35.4241551,5.30450871 C35.0502905,4.66626582 34.7564369,4.14219398 34.1821847,3.09065669 C32.8789448,0.703245256 31.1775727,-0.323809494 29.2090172,0.0890000973 M30.6999103,4.20109753 C30.8841996,4.4917368 31.0350909,4.74795509 31.0350909,4.77049842 C31.0350909,4.79304176 31.4070333,5.46037282 31.8613892,6.25375262 C32.6703879,7.6659832 32.8138308,7.92050468 33.4121103,9.00525096 C33.5738139,9.29855664 33.9700238,9.98940069 34.2927102,10.5403791 C34.6153967,11.0913575 34.8794566,11.5594346 34.8794566,11.5810083 C34.8794566,11.6023397 35.052453,11.9048566 35.263893,12.2534298 C35.4753332,12.602003 35.6483296,12.90452 35.6483296,12.9258513 C35.6483296,12.947425 35.8991745,13.393686 36.2057627,13.9180002 C36.5123508,14.4423145 36.795152,14.9368134 36.8343165,15.0168058 C36.8732406,15.0967983 36.958057,15.2495112 37.0224501,15.3561677 C37.1788677,15.6152948 38.0433694,17.1356365 38.207716,17.4408198 C38.407623,17.8119364 38.3787904,17.9168962 37.8107853,18.8865018 C37.5200551,19.3829399 37.282185,19.8052032 37.282185,19.82508 C37.282185,19.844957 37.1373005,20.0909944 36.9602194,20.3719376 C36.7831384,20.6531232 36.4950511,21.1447133 36.3198922,21.4646831 C35.7069562,22.5840929 35.6243024,22.7314729 35.1206905,23.5978155 C34.8417337,24.0777703 34.4967019,24.682077 34.3537395,24.9407193 C34.2107772,25.1993616 33.9673808,25.613868 33.8128854,25.8618446 C33.6586302,26.1098213 33.5067777,26.3861589 33.4755423,26.475605 C33.3902454,26.7209152 33.1665514,26.7660019 32.8284875,26.6065017 C31.7686439,26.1061853 29.3032042,25.9437763 28.1037621,26.2952583 C22.1411511,28.0427301 20.2490024,34.9967416 24.4912599,39.5718257 L25.0873768,40.2146742 L24.2168683,41.735743 C23.7380044,42.5722703 23.3463597,43.27984 23.3463597,43.3079585 C23.3463597,43.3363195 23.2480881,43.4943652 23.1277114,43.6594406 C23.007575,43.8245159 22.7829199,44.1995108 22.6286647,44.4928166 C22.4741693,44.7861223 22.0320673,45.564958 21.6459487,46.223805 C21.25959,46.8824096 20.9436313,47.4324184 20.9436313,47.4459929 C20.9436313,47.4859891 20.0382831,49.0615982 19.7583653,49.5088288 C19.6173251,49.7342622 19.5019941,49.9490298 19.5019941,49.9858748 C19.5019941,50.0227198 19.4303928,50.1325277 19.3429335,50.2302155 C19.1367793,50.4597695 4.11612216,50.505341 3.81866438,50.2772413 C3.57670961,50.0915618 3.50222503,49.668329 3.66657166,49.4128379 C3.74345897,49.293334 3.94985335,48.9336103 4.12525253,48.6136405 C4.55341875,47.8328656 4.60147332,47.7477826 5.90447299,45.4624222 C7.5433741,42.5877839 7.66855625,42.3669562 7.99436624,41.7779209 C8.49869894,40.8657643 9.71736287,38.7413584 9.95403161,38.3620002 C10.0780124,38.1629887 10.1794076,37.9850661 10.1794076,37.9661587 C10.1794076,37.9474939 10.547025,37.2859804 10.9963352,36.4964791 C11.4456455,35.7067353 11.8132629,35.0493427 11.8132629,35.0355258 C11.8132629,35.0217089 12.1376312,34.4573985 12.5340815,33.7818257 C12.9305317,33.106253 13.2549,32.5353977 13.2549,32.5133392 C13.2549,32.4912806 13.4278965,32.1880365 13.6393366,31.8394633 C13.8507767,31.49089 14.0237731,31.1883731 14.0237731,31.1670418 C14.0237731,31.1457104 14.211186,30.8082877 14.440166,30.4172942 C14.669146,30.0263008 15.0007225,29.4445374 15.1768426,29.1245675 C15.3529625,28.8045977 15.5656041,28.4266939 15.6494593,28.2848891 C15.9260133,27.8170544 16.4529316,26.9002922 16.6437083,26.5551126 C16.7470256,26.3684635 17.0668288,25.8012443 17.3544354,25.2946254 C17.6422822,24.7880064 17.9260445,24.2862355 17.9849113,24.1795789 C18.1098532,23.9534184 18.8443673,22.6667517 19.8672089,20.8829198 C20.2646201,20.1896518 20.6983127,19.4260874 20.8309433,19.1861099 C20.9635738,18.9461326 21.2593497,18.4298176 21.4883298,18.0388241 C21.7173098,17.6478306 21.9047226,17.3147711 21.9047226,17.299015 C21.9047226,17.2832589 22.2074664,16.7414918 22.5774866,16.0950073 C22.9475068,15.4487651 23.5529944,14.3909254 23.9230145,13.7446832 C24.2930347,13.0981987 24.5957785,12.5537651 24.5957785,12.5346155 C24.5957785,12.5152233 24.7471504,12.2609443 24.9321605,11.9690929 C25.1171706,11.6772416 25.2685425,11.4137513 25.2685425,11.3834511 C25.2685425,11.353151 25.3701779,11.1657747 25.4946393,10.9667632 C25.6188604,10.7677516 25.858893,10.3433067 26.028045,10.0233369 C26.3500106,9.41442453 26.4648611,9.21347379 26.7205113,8.81181464 C26.8053277,8.67825147 26.9826491,8.3725833 27.1140783,8.1326059 C27.2457478,7.89262852 27.5977475,7.2694145 27.896647,6.74752428 C28.1955464,6.22563405 28.4401442,5.77428264 28.4401442,5.74446727 C28.4401442,5.71440949 28.5206355,5.57430148 28.6186668,5.43273906 C28.7169385,5.29117664 28.9387103,4.91351525 29.1117067,4.5935454 C29.7400203,3.43001866 30.1472827,3.32942207 30.6999103,4.20109753 M40.9636456,22.2646078 C41.1606694,22.6245739 41.4343401,23.1154367 41.5717762,23.3554141 C41.7094526,23.5953915 42.3629947,24.7516462 43.0244659,25.924869 C43.685937,27.0980918 44.3471679,28.2543465 44.4939746,28.4943239 C44.6410216,28.7343013 44.8445327,29.0833593 44.9464084,29.2700084 C45.0482841,29.4566575 45.2743808,29.8711639 45.4485786,30.1911337 C45.6227764,30.5111036 45.7969743,30.8165294 45.8356582,30.8698576 C45.8745824,30.923186 46.014181,31.1631633 46.1460907,31.4031407 C46.2780005,31.6431181 46.6014078,32.2156703 46.8647468,32.6755058 C47.1280859,33.1353411 47.3724433,33.5716637 47.4075232,33.6451113 C47.442603,33.718559 47.5538494,33.9153889 47.6545237,34.082161 C48.0586626,34.7526434 49.2958275,36.9393464 49.2958275,36.9834635 C49.2958275,37.0094004 49.3969824,37.1933831 49.5207229,37.3923947 C49.6444634,37.5914062 49.8561438,37.9504027 49.9906967,38.19038 C50.1254897,38.4303575 50.4493775,38.9975767 50.7103138,39.4508674 C50.9714904,39.904158 51.2953782,40.4713773 51.429931,40.7113547 C51.564724,40.9513321 51.8357518,41.4312869 52.0325353,41.7779209 C52.2293188,42.1245549 52.5226919,42.6481419 52.6848761,42.9414476 C52.8470602,43.2347533 53.0585003,43.6056275 53.15509,43.7656124 C53.2516797,43.9255973 53.3598025,44.1219425 53.3953629,44.2019349 C53.430683,44.2819274 53.5330393,44.4564563 53.622661,44.5897771 C53.7122828,44.7230979 53.9172356,45.072156 54.0782183,45.3654617 C54.2389608,45.6587673 54.7425728,46.5478957 55.197169,47.3412755 C55.651525,48.1346553 56.0234673,48.8007743 56.0234673,48.8218632 C56.0234673,48.8427098 56.1315901,49.0327525 56.2637402,49.2438841 C56.5583147,49.7146276 56.5643216,49.8937622 56.2949756,50.1829472 L56.0861785,50.4074109 L39.8122581,50.4074109 C25.3930039,50.4074109 23.538578,50.3906852 23.538578,50.2617276 C23.538578,50.1458597 25.949716,45.8160859 26.7241154,44.5412968 C26.8211857,44.3813119 26.929789,44.1849668 26.9653494,44.1049743 C27.0006695,44.0249819 27.1030257,43.8504529 27.1926475,43.7171321 C27.2822693,43.5838113 27.4975538,43.2129371 27.6707905,42.8929673 C28.2918958,41.7464087 28.1140939,41.8351276 29.7991273,41.8295524 C36.1550651,41.8087058 39.8917884,35.1882387 36.5858743,29.8049882 C36.2381995,29.2387386 36.1346419,28.9914891 36.2004767,28.8838629 C36.2499729,28.8029009 36.4020656,28.5338354 36.5387808,28.2858587 C36.6752559,28.0378821 36.8917417,27.6670079 37.0193266,27.4616939 C37.1471516,27.2563799 37.3682027,26.8767793 37.5104442,26.6183794 C37.652926,26.3599795 38.27283,25.2691732 38.888409,24.1943654 C39.5037478,23.1195576 40.0539726,22.1531031 40.1109173,22.0464465 C40.4345648,21.4404431 40.525388,21.4634712 40.9636456,22.2646078 M31.2229843,29.8578317 C35.1372693,31.1541945 35.2266508,36.5786531 31.3582579,38.0546353 C28.7498559,39.049693 25.7490882,36.8981382 25.7490882,34.0329536 C25.7490882,31.123652 28.5634041,28.9771875 31.2229843,29.8578317" id="path0"></path>
        </g>
    </g>
</svg>