<?xml version="1.0" encoding="UTF-8"?>
<svg width="320px" height="80px" viewBox="0 0 320 80" version="1.1" xmlns="http://www.w3.org/2000/svg" xmlns:xlink="http://www.w3.org/1999/xlink">
    <!-- Generator: Sketch 52.6 (67491) - http://www.bohemiancoding.com/sketch -->
    <title>logo-bandsintown-color-2</title>
    <desc>Created with Sketch.</desc>
    <g id="logo-bandsintown-color-2" stroke="none" stroke-width="1" fill="none" fill-rule="evenodd">
        <g id="logo" transform="translate(12.000000, 20.000000)">
            <g id="bitFist" fill="#00B4B3">
                <path d="M31.305,0 L40,0 L40,20 L31.305,20 L31.305,0 Z M20.87,8.33333333 L29.565,8.33333333 L29.565,20 L20.87,20 L20.87,8.33333333 Z M10.4333333,8.33333333 L19.1283333,8.33333333 L19.1283333,20 L10.435,20 L10.435,8.33333333 L10.4333333,8.33333333 Z M40,40 L0,40 L0,0 L8.695,0 L8.695,31.6666667 L31.305,31.6666667 L31.305,30 L10.4333333,30 L10.4333333,21.6666667 L40,21.6666667 L40,40 Z" id="Shape"></path>
            </g>
            <g id="bitText" transform="translate(53.333333, 3.333333)" fill="#2D2D2D">
                <path d="M16.89,22.4666667 C16.89,18.6433333 14.4233333,15.9483333 10.635,15.9483333 C6.84666667,15.9483333 4.37833333,18.6433333 4.37833333,22.4666667 C4.37833333,26.2916667 6.845,28.9866667 10.635,28.9866667 C14.4216667,28.9866667 16.89,26.2916667 16.89,22.4666667 Z M4.42166667,29.6583333 L4.33333333,29.6583333 L4.33333333,32.6683333 L0,32.6683333 L0,1.66666667 L4.33333333,1.66666667 L4.33333333,15.2183333 L4.42166667,15.2183333 C5.705,13.005 7.96,11.5433333 11.32,11.5433333 C16.7133333,11.5433333 21.2683333,15.6166667 21.2683333,22.4383333 C21.2683333,29.2583333 16.7133333,33.3333333 11.3183333,33.3333333 C7.96,33.3333333 5.70333333,31.8716667 4.42166667,29.6583333 Z M24.395,22.4666667 C24.395,15.665 28.95,11.6 34.345,11.6 C37.705,11.6 39.96,13.0583333 41.2416667,15.2666667 L41.3316667,15.2666667 L41.3316667,12.2633333 L45.665,12.2633333 L45.665,32.6716667 L41.3316667,32.6716667 L41.3316667,29.6666667 L41.2416667,29.6666667 C39.96,31.875 37.705,33.3333333 34.345,33.3333333 C28.95,33.3333333 24.395,29.27 24.395,22.4666667 Z M41.9116667,22.4666667 C41.9116667,18.6433333 39.445,15.9483333 35.655,15.9483333 C31.8666667,15.9483333 29.4,18.6433333 29.4,22.4666667 C29.4,26.2916667 31.8666667,28.9866667 35.655,28.9866667 C39.4433333,28.9866667 41.91,26.2916667 41.91,22.4666667 L41.9116667,22.4666667 Z M70.06,20.1433333 L70.06,32.7116667 L65.7333333,32.7116667 L65.7333333,20.895 C65.7333333,17.4 63.9666667,15.9383333 61.0516667,15.9383333 C57.8733333,15.9383333 55.6216667,17.8416667 55.6216667,22.9316667 L55.6216667,32.7116667 L51.2933333,32.7116667 L51.2933333,12.2666667 L55.6216667,12.2666667 L55.6216667,15.365 L55.71,15.365 C57.035,13.02 59.2433333,11.6033333 62.3766667,11.6033333 C66.7483333,11.6033333 70.06,13.9483333 70.06,20.145 L70.06,20.1433333 Z M74.4383333,22.4383333 C74.4383333,15.6166667 78.9933333,11.5433333 84.3883333,11.5433333 C87.7483333,11.5433333 90.0033333,13.005 91.2866667,15.2183333 L91.375,15.2183333 L91.375,1.66666667 L95.7083333,1.66666667 L95.7083333,32.6683333 L91.375,32.6683333 L91.375,29.6583333 L91.2866667,29.6583333 C90.0033333,31.8716667 87.7483333,33.3333333 84.3866667,33.3333333 C78.9933333,33.3333333 74.4383333,29.2583333 74.4383333,22.4383333 Z M91.955,22.4666667 C91.955,18.6433333 89.4866667,15.9483333 85.6983333,15.9483333 C81.91,15.9483333 79.4433333,18.6433333 79.4433333,22.4666667 C79.4433333,26.2916667 81.91,28.9866667 85.6983333,28.9866667 C89.4866667,28.9866667 91.9533333,26.2916667 91.9533333,22.4666667 L91.955,22.4666667 Z M99.46,31.1683333 L101.405,27.3266667 C103.305,28.43 105.471667,29.27 107.901667,29.27 C109.978333,29.27 111.085,28.6516667 111.085,27.37 C111.085,26.5316667 110.641667,25.9133333 108.918333,25.0733333 L105.206667,23.2616667 C102.111667,21.805 100.918333,19.7283333 100.918333,17.3883333 C100.918333,13.6333333 103.703333,11.6016667 108.166667,11.6016667 C110.51,11.6016667 113.071667,12.2183333 115.238333,13.1916667 L113.471667,16.9466667 C111.921667,16.2833333 110.021667,15.62 108.033333,15.62 C106.133333,15.62 105.515,16.24 105.515,17.1666667 C105.515,18.1383333 106.09,18.7566667 107.856667,19.5966667 L111.656667,21.4066667 C114.31,22.6433333 115.723333,24.41 115.723333,27.15 C115.723333,31.3016667 112.541667,33.3333333 107.768333,33.3333333 C104.851667,33.3333333 101.801667,32.5383333 99.46,31.1683333 Z M120.103333,32.7116667 L124.481667,32.7116667 L124.481667,12.2216667 L120.103333,12.2216667 L120.103333,32.7116667 Z M148.876667,20.1433333 L148.876667,32.7116667 L144.55,32.7116667 L144.55,20.895 C144.55,17.4 142.783333,15.9383333 139.87,15.9383333 C136.691667,15.9383333 134.436667,17.8416667 134.436667,22.9316667 L134.436667,32.7116667 L130.111667,32.7116667 L130.111667,12.2666667 L134.438333,12.2666667 L134.438333,15.365 L134.526667,15.365 C135.851667,13.02 138.06,11.6033333 141.195,11.6033333 C145.566667,11.6033333 148.878333,13.9483333 148.878333,20.145 L148.876667,20.1433333 Z M159.813333,15.9633333 L159.813333,26.63 C159.813333,28.085 160.42,28.7466667 161.895,28.7466667 L162.935,28.7466667 L162.935,32.7133333 L160.985,32.7133333 C157.47,32.7133333 155.561667,30.8166667 155.561667,27.4666667 L155.561667,15.9633333 L152.005,15.9633333 L152.005,12.305 L155.561667,12.305 L155.561667,4.15 L159.811667,4.15 L159.811667,12.305 L163.89,12.305 L163.89,15.9633333 L159.813333,15.9633333 Z M188.286667,22.4666667 C188.286667,28.74 183.48,33.3333333 177.026667,33.3333333 C170.573333,33.3333333 165.766667,28.74 165.766667,22.4666667 C165.766667,16.195 170.573333,11.6 177.026667,11.6 C183.48,11.6 188.286667,16.195 188.286667,22.4666667 Z M170.77,22.4666667 C170.77,26.4216667 173.46,28.9866667 177.34,28.9866667 C181.22,28.9866667 183.906667,26.4216667 183.906667,22.4666667 C183.906667,18.5116667 181.22,15.9483333 177.34,15.9483333 C173.46,15.9483333 170.771667,18.5116667 170.771667,22.4666667 L170.77,22.4666667 Z M220.813333,12.2216667 L213.996667,32.7116667 L210.036667,32.7116667 L205.196667,18.0333333 L200.315,32.7116667 L196.356667,32.7116667 L189.536667,12.2216667 L194.288333,12.2216667 L198.378333,26.9916667 L203.086667,12.2216667 L207.265,12.2216667 L211.971667,26.9916667 L216.063333,12.2216667 L220.813333,12.2216667 Z M243.333333,20.1433333 L243.333333,32.7116667 L239.006667,32.7116667 L239.006667,20.895 C239.006667,17.4 237.24,15.9383333 234.325,15.9383333 C231.146667,15.9383333 228.893333,17.8416667 228.893333,22.9316667 L228.893333,32.7116667 L224.566667,32.7116667 L224.566667,12.2666667 L228.893333,12.2666667 L228.893333,15.365 L228.983333,15.365 C230.308333,13.02 232.516667,11.6033333 235.65,11.6033333 C240.021667,11.6033333 243.333333,13.9483333 243.333333,20.145 L243.333333,20.1433333 Z M122.5,8.3216026 C124.340949,8.3216026 125.833333,6.82921843 125.833333,4.98826927 C125.833333,3.1473201 124.340949,1.65493593 122.5,1.65493593 C120.659051,1.65493593 119.166667,3.1473201 119.166667,4.98826927 C119.166667,6.82921843 120.659051,8.3216026 122.5,8.3216026 Z" id="a"></path>
            </g>
        </g>
    </g>
</svg>