<?xml version="1.0" encoding="UTF-8"?>
<svg width="320px" height="80px" viewBox="0 0 320 80" version="1.1" xmlns="http://www.w3.org/2000/svg" xmlns:xlink="http://www.w3.org/1999/xlink">
    <!-- Generator: Sketch 52.6 (67491) - http://www.bohemiancoding.com/sketch -->
    <title>logo-molotov-color-2</title>
    <desc>Created with Sketch.</desc>
    <g id="logo-molotov-color-2" stroke="none" stroke-width="1" fill="none" fill-rule="evenodd">
        <g id="logo-molotov-color" transform="translate(69.000000, 10.000000)" fill-rule="nonzero">
            <path d="M143.14,50.254 C131.848,43.678 100.956,42.518 70.68,45.142 C61.392,45.95 52.96,47.134 43.66,48.922 C43.66,48.934 43.656,48.942 43.654,48.954 C44.13,48.938 47.206,48.558 48.646,48.334 C47.366,48.68 43.712,49.374 43.554,49.414 C43.554,49.428 43.528,49.446 43.538,49.446 C43.604,49.446 46.53,49.026 48.248,48.818 C46.248,49.268 43.468,49.848 43.464,49.858 C43.464,49.87 43.464,49.87 43.46,49.878 C43.46,49.884 46.128,49.512 48.02,49.324 C46.276,49.694 43.444,50.392 43.444,50.398 L43.444,50.432 C43.44,50.438 46.04,50.066 47.944,49.864 C46.248,50.212 43.584,50.96 43.584,50.964 L43.584,51 C43.588,51.006 46.378,50.59 48.056,50.376 C46.34,50.784 43.816,51.47 43.82,51.49 L43.836,51.56 C52.48,50.04 62.836,48.864 72.356,48.452 C115.224,46.572 138.2,53.038 143.848,59.188 C145.228,57.42 147.474,52.788 143.138,50.258 L143.14,50.254 Z M32.952,52.102 C32.952,52.082 32.952,52.062 32.956,52.042 C32.956,52.03 30.584,52.342 28.716,52.862 C30.096,52.362 32.876,51.626 32.876,51.616 C32.876,51.592 32.876,51.572 32.872,51.55 C32.872,51.542 30.168,52.01 28.608,52.44 C30.208,51.886 32.736,51.244 32.732,51.226 C32.732,51.214 32.726,51.194 32.72,51.174 C25.44,52.814 19,54.566 13.554,56.368 C10.93,57.236 13.478,58.388 15.818,57.758 C21.53,56.222 27.198,54.866 32.782,53.69 C32.782,53.674 32.788,53.662 32.79,53.654 C32.69,53.65 29.52,54.066 28.084,54.5 C29.25,54.08 32.744,53.22 32.908,53.208 L32.924,53.144 C32.924,53.13 30.116,53.494 28.464,53.95 C30.37,53.278 32.968,52.658 32.972,52.644 L32.982,52.57 C32.982,52.562 30.542,52.894 28.656,53.378 C30.196,52.792 32.948,52.118 32.948,52.098 L32.952,52.102 Z" id="Shape" fill="#FFC107"></path>
            <path d="M177.24,42.09 L173.87,50.996 L170.41,42.09 L154.98,42.09 L154.98,46.558 L159.034,46.558 L159.034,59.386 L163.874,59.386 L163.874,46.56 L170.114,46.56 L167.658,47.536 L172.662,59.388 L175.058,59.388 L181.854,43.132 L181.854,42.092 L177.24,42.092 L177.24,42.09 Z M152.18,54.35 C150.62,54.35 149.49,55.418 149.49,56.89 C149.49,58.34 150.622,59.39 152.182,59.39 C153.714,59.39 154.826,58.34 154.826,56.89 C154.826,55.444 153.69,54.35 152.186,54.35 L152.18,54.35 Z M41.46,47.284 C41.652,43.604 42.516,35.496 43.66,29.024 C44.334,25.22 45.686,18.852 46.42,15.274 C46.504,14.882 46.7,13.514 46.014,12.688 C45.67,12.268 44.61,11.528 43.514,11.058 C43.494,11.044 43.464,11.034 43.434,11.026 C41.994,10.456 40.894,10.67 39.8,11.182 C37.82,12.11 36.14,13.976 34.924,15.496 C31.438,19.86 28.644,26.744 26.884,31.744 C27.544,28.296 29.892,18.24 30.29,15.65 C30.336,15.35 30.654,14.49 30.42,14.002 C30.096,13.332 28.848,12.358 27.964,11.992 C27.734,11.898 27.498,11.796 27.254,11.7 L27.234,11.694 C25.908,11.246 25.066,11.444 23.966,11.998 C22.002,12.99 20.312,14.89 19.15,16.47 C15.916,20.856 12.846,29.35 11.238,34.574 C11.438,33.314 12.364,27.354 12.472,26.714 C13.044,23.326 15.286,10.57 15.74,7.414 C15.786,7.114 15.98,6.214 15.796,5.918 C15.452,5.358 14.366,5.066 13.656,4.998 C12.726,4.906 11.004,4.834 10.184,5.212 L10.168,5.218 L10.148,5.224 C10.148,5.224 10.144,5.23 10.14,5.23 L10.13,5.23 C10.126,5.236 10.12,5.24 10.114,5.242 C10.062,5.268 10.014,5.298 9.968,5.326 C8.04,6.532 4.844,11.086 3.888,12.714 C1.93,16.04 1.126,17.454 0.186,19.26 C-0.442,20.46 0.616,23.716 1.892,21.7 C3.538,19.114 5.988,15.6 8.064,13.3 C7.024,20.096 4.134,42.286 3.712,45.1 C3.492,46.566 2.382,53.2 5.058,52.896 C5.118,52.896 5.194,52.884 5.278,52.862 C6.144,52.642 9.414,51.302 9.706,50.058 C11.218,43.606 16.174,26.238 23.17,19.118 C22.136,24.598 20.59,34.782 20.36,36.81 C19.996,40.046 19.086,46.618 21.232,46.52 C21.302,46.52 21.38,46.512 21.482,46.49 C22.352,46.3 25.666,45.078 25.97,43.838 C27.402,38.006 32.61,24.408 38.958,18.242 C38.558,20.39 38.408,21.102 37.986,23.23 C36.652,29.95 34.078,43.342 34.006,49.264 C33.946,54.064 36.14,57.884 40.486,59.116 C41.338,59.356 44.446,59.146 43.83,58.136 C41.81,54.828 41.27,51.11 41.464,47.28 L41.46,47.284 Z M55.428,41.76 C58.192,41.192 60.754,39.516 63.214,36.08 C65.328,33.124 66.42,30.126 67.206,26.416 C67.374,25.626 67.502,24.9 67.602,24.228 C69.094,23.558 70.482,22.468 71.572,20.868 C70.722,25.868 70.288,29.26 70.132,31.412 C69.918,34.532 70.212,36.704 70.962,38.402 C71.816,40.352 73.356,41.328 75.102,41.562 C77.592,41.902 79.262,40.696 81.254,38.788 C81.54,38.516 81.824,38.208 82.108,37.868 C83.382,40.532 86.088,42.108 89.78,41.374 C92.546,40.828 95.124,39.174 97.614,35.754 C99.754,32.814 100.874,29.828 101.69,26.124 C101.858,25.354 101.99,24.644 102.098,23.984 C103.714,23.364 105.252,22.324 106.45,20.774 C105.456,25.402 104.87,28.486 104.67,30.574 C104.37,33.678 104.61,35.868 105.316,37.618 C106.126,39.626 107.65,40.712 109.404,41.078 C111.898,41.598 113.784,40.446 115.664,38.752 C115.994,38.458 116.324,38.124 116.656,37.764 C117.806,40.708 120.604,42.524 124.528,41.764 C127.3,41.234 129.882,39.598 132.384,36.214 C134.538,33.302 135.664,30.338 136.5,26.662 C136.67,25.912 136.8,25.222 136.908,24.582 C138.922,23.738 140.256,22.222 141.124,19.926 C141.55,18.798 141.264,15.918 140.618,17.366 C139.262,20.406 137.578,21.716 135.782,22.152 C136.27,21.86 136.762,21.484 137.238,21.002 C137.238,19.07 136.87,17.888 136.512,17.068 C135.328,14.348 132.558,14.496 131.882,14.776 C131.902,13.116 131.112,12.1 128.402,12.584 C126.822,12.864 125.23,13.484 123.918,14.47 C121.478,16.304 119.322,19.398 118.248,22.006 C117.108,24.77 116.3,27.49 115.958,30.32 C115.778,31.792 115.778,33.52 116.004,35.12 C115.768,35.36 115.524,35.584 115.268,35.794 C114.524,36.414 113.302,37.164 112.428,37.034 C110.634,36.762 110.88,33.554 110.938,32.308 C111.062,29.678 111.968,25.978 112.342,23.988 C112.662,22.274 113.782,16.768 115.59,9.878 C123.254,9.426 129.69,10.364 133.636,11.204 C135.166,11.532 136.996,12.058 138.91,12.794 C143.624,14.79 143.464,21.2 142.938,24.986 C141.764,33.474 138.648,39.632 138.584,40.736 C138.564,41.11 138.464,42.304 139.238,43.252 C139.63,43.732 140.538,44.518 141.658,45.204 C143.166,46.096 144.21,46.112 145.214,45.844 C147.588,45.188 156.354,37.38 161.35,29.224 C164.08,24.724 165.87,19.714 165.862,18.034 C165.85,16.128 158.532,16.654 158.338,19.538 C158.01,24.198 155.478,29.928 151.87,34.374 C149.424,37.378 146.744,39.818 144.744,40.808 C146.654,35.444 149.07,27.452 149.596,19.848 C149.776,17.332 149.642,13.6 148.066,11.244 C145.35,7.184 137.272,5.238 126.87,5.28 C123.422,5.28 119.91,5.512 116.57,5.9 C117.21,3.174 117.64,1.506 117.706,1.166 C117.832,0.532 116.746,0.266 114.612,0.326 C112.418,0.386 110.944,0.722 110.572,2.234 C110.136,4.03 109.772,5.404 109.388,7.022 C108.396,7.222 107.442,7.428 106.538,7.646 C104.086,8.234 102.468,8.722 100.958,9.372 C99.548,9.868 98.546,13.356 99.798,12.908 C102.706,11.874 105.178,11.268 108.058,10.756 L108.584,10.672 C108.444,11.312 108.324,11.866 108.254,12.172 C106.814,18.552 103.528,20.924 100.874,21.424 C101.382,21.124 101.894,20.732 102.398,20.224 C102.364,18.398 102.006,17.268 101.658,16.472 C100.464,13.74 97.694,13.9 97.018,14.182 C97.034,12.514 96.238,11.49 93.528,11.986 C91.952,12.274 90.362,12.9 89.054,13.898 C86.62,15.752 84.48,18.878 83.414,21.504 C82.284,24.288 81.49,27.03 81.158,29.884 C80.964,31.55 80.998,33.544 81.322,35.314 C81.146,35.502 80.962,35.684 80.776,35.86 C80.056,36.532 78.86,37.372 77.99,37.304 C76.206,37.164 76.364,33.938 76.39,32.69 C76.446,30.05 77.25,26.422 77.57,24.41 C78.184,20.362 81.89,1.82 82.098,0.71 C82.208,0.062 81.122,-0.126 79.008,0.09 C76.834,0.314 75.384,0.754 75.056,2.29 C74.07,6.934 73.476,10.53 72.806,14.04 C71.296,18.86 68.786,20.98 66.618,21.648 C67.038,21.378 67.458,21.048 67.866,20.634 C67.83,18.738 67.454,17.574 67.092,16.764 C65.872,14.04 63.104,14.224 62.432,14.51 C62.432,12.842 61.632,11.824 58.922,12.342 C57.348,12.642 55.762,13.282 54.462,14.288 C52.046,16.16 49.934,19.302 48.89,21.938 C47.786,24.732 47.014,27.482 46.71,30.334 C46.454,32.694 46.656,35.71 47.49,37.798 C48.678,40.762 51.502,42.568 55.426,41.762 L55.428,41.76 Z M123.04,26.296 C123.93,23.552 124.74,21.996 126.232,20.252 C127.366,18.922 129.146,18.304 129.886,18.372 C129.426,19.078 129.766,19.526 130.486,19.672 C131.286,19.842 131.974,20.358 132.222,21.686 C131.112,20.982 129.818,25.066 131.332,25.3 C132.732,25.516 134.342,25.414 135.884,24.95 C134.656,25.59 133.3,25.934 131.984,26.016 C131.432,29.16 130.344,32.062 128.924,34.102 C126.972,36.902 124.858,38.078 123.564,37.114 C121.564,35.634 121.33,31.578 123.044,26.298 L123.04,26.296 Z M88.224,25.806 C89.104,23.04 89.908,21.474 91.39,19.71 C92.52,18.37 94.298,17.736 95.038,17.806 C94.578,18.514 94.918,18.966 95.638,19.114 C96.388,19.266 97.038,19.726 97.328,20.866 C96.348,20.54 95.228,24.406 96.638,24.606 C97.894,24.79 99.302,24.742 100.706,24.41 C99.572,24.974 98.372,25.264 97.186,25.33 C96.658,28.558 95.57,31.55 94.132,33.644 C92.192,36.468 90.084,37.658 88.784,36.694 C86.78,35.21 86.53,31.128 88.224,25.806 Z M53.738,26.206 C54.592,23.434 55.382,21.86 56.85,20.086 C57.97,18.734 59.74,18.086 60.482,18.152 C60.032,18.864 60.376,19.312 61.096,19.452 C61.856,19.604 62.512,20.068 62.806,21.238 C61.926,21.166 60.346,24.708 62.094,24.97 C63.48,25.18 65.006,25.096 66.484,24.642 C65.27,25.302 63.968,25.632 62.688,25.698 C62.182,28.918 61.124,31.898 59.708,33.994 C57.796,36.834 55.696,38.04 54.388,37.086 C52.372,35.618 52.088,31.538 53.732,26.206 L53.738,26.206 Z" id="Shape" fill="#000001"></path>
        </g>
    </g>
</svg>