<?xml version="1.0" encoding="UTF-8"?>
<svg width="72px" height="48px" viewBox="0 0 72 48" version="1.1" xmlns="http://www.w3.org/2000/svg" xmlns:xlink="http://www.w3.org/1999/xlink">
    <!-- Generator: Sketch 52.6 (67491) - http://www.bohemiancoding.com/sketch -->
    <title>logo-meetic-bw</title>
    <desc>Created with Sketch.</desc>
    <g id="Page-1" stroke="none" stroke-width="1" fill="none" fill-rule="evenodd">
        <g id="logo-meetic-bw" fill="#000000" fill-rule="nonzero">
            <path d="M35.0297143,17.1833239 C35.0297143,7.74895775 27.2451429,0.0736901408 17.6777143,0.0736901408 C11.8608,0.0736901408 6.45942857,2.92664789 3.22971429,7.704 C1.3296,10.5163944 0.325714286,13.7952676 0.325714286,17.1856901 L0.325714286,18.8352676 L0.390171429,20.5017465 C1.51954286,34.0668169 13.1478857,37.9541408 22.7238857,41.4223099 C27.1810286,43.0380845 31.3902857,44.5625915 34.0073143,46.9118873 L35.0290286,47.8313239 L35.0290286,39.9383662 L34.7300571,39.7625915 C32.8285714,38.6504789 30.1824,37.7445634 27.1169143,36.6966761 C18.8026286,33.8504789 7.70434286,30.3620282 7.0392,20.5051268 L35.0300571,20.5051268 L35.0300571,17.1890704 L35.0297143,17.1833239 Z M6.67885714,14.939493 L6.85954286,14.2353803 C7.16742857,13.0235493 7.68171429,11.8816901 8.38594286,10.8398873 C10.4568,7.77295775 13.9265143,5.94016901 17.6602286,5.94016901 C22.7688,5.94016901 27.2088,9.34985915 28.4602286,14.2333521 L28.6385143,14.939831 L6.67508571,14.939831 L6.67885714,14.939493 Z" id="Shape" fill-opacity="0.540647645"></path>
            <path d="M37.2812571,20.4980282 L65.2741714,20.4980282 C64.6104,30.3539155 53.5114286,33.8457465 45.1950857,36.6902535 C42.1265143,37.739493 39.4796571,38.6457465 37.5802286,39.7571831 L37.2785143,39.9329577 L37.2785143,47.8235493 L38.3002286,46.9041127 C40.9162286,44.5548169 45.1265143,43.0289577 49.5836571,41.4145352 C59.1596571,37.9487324 70.7859429,34.0617465 71.9173714,20.4966761 L71.9825143,18.8301972 L71.9825143,17.1806197 C71.9825143,13.7901972 70.9779429,10.5126761 69.0750857,7.7016338 C65.8419429,2.92428169 60.4419429,0.0713239437 54.6243429,0.0713239437 C45.0572571,0.0713239437 37.2723429,7.74794366 37.2723429,17.1823099 L37.2723429,20.5017465 L37.2812571,20.4980282 Z M43.6686857,14.939493 L43.8486857,14.2330141 C45.0987429,9.35019718 49.5401143,5.94016901 54.6500571,5.94016901 C58.3851429,5.94016901 61.8514286,7.77228169 63.9260571,10.8398873 C64.6323429,11.8830423 65.1466286,13.0245634 65.4552,14.2347042 L65.6369143,14.9411831 L43.6734857,14.9411831 L43.6686857,14.939493 Z" id="Shape"></path>
        </g>
    </g>
</svg>