<?xml version="1.0" encoding="UTF-8"?>
<svg width="320px" height="80px" viewBox="0 0 320 80" version="1.1" xmlns="http://www.w3.org/2000/svg" xmlns:xlink="http://www.w3.org/1999/xlink">
    <!-- Generator: Sketch 52.6 (67491) - http://www.bohemiancoding.com/sketch -->
    <title>logo-google-color-2</title>
    <desc>Created with Sketch.</desc>
    <g id="logo-google-color-2" stroke="none" stroke-width="1" fill="none" fill-rule="evenodd">
        <g id="logo" transform="translate(70.000000, 12.000000)">
            <path d="M77.1666667,31.4533333 C77.1666667,39.9666667 70.5066667,46.24 62.3333333,46.24 C54.16,46.24 47.5,39.9666667 47.5,31.4533333 C47.5,22.88 54.16,16.6666667 62.3333333,16.6666667 C70.5066667,16.6666667 77.1666667,22.88 77.1666667,31.4533333 Z M70.6733333,31.4533333 C70.6733333,26.1333333 66.8133333,22.4933333 62.3333333,22.4933333 C57.8533333,22.4933333 53.9933333,26.1333333 53.9933333,31.4533333 C53.9933333,36.72 57.8533333,40.4133333 62.3333333,40.4133333 C66.8133333,40.4133333 70.6733333,36.7133333 70.6733333,31.4533333 Z" id="Shape" fill="#EA4335" fill-rule="nonzero"></path>
            <path d="M109.166667,31.4533333 C109.166667,39.9666667 102.506667,46.24 94.3333333,46.24 C86.16,46.24 79.5,39.9666667 79.5,31.4533333 C79.5,22.8866667 86.16,16.6666667 94.3333333,16.6666667 C102.506667,16.6666667 109.166667,22.88 109.166667,31.4533333 Z M102.673333,31.4533333 C102.673333,26.1333333 98.8133333,22.4933333 94.3333333,22.4933333 C89.8533333,22.4933333 85.9933333,26.1333333 85.9933333,31.4533333 C85.9933333,36.72 89.8533333,40.4133333 94.3333333,40.4133333 C98.8133333,40.4133333 102.673333,36.7133333 102.673333,31.4533333 Z" id="Shape" fill="#FBBC05" fill-rule="nonzero"></path>
            <path d="M139.833333,17.56 L139.833333,44.1066667 C139.833333,55.0266667 133.393333,59.4866667 125.78,59.4866667 C118.613333,59.4866667 114.3,54.6933333 112.673333,50.7733333 L118.326667,48.42 C119.333333,50.8266667 121.8,53.6666667 125.773333,53.6666667 C130.646667,53.6666667 133.666667,50.66 133.666667,45 L133.666667,42.8733333 L133.44,42.8733333 C131.986667,44.6666667 129.186667,46.2333333 125.653333,46.2333333 C118.26,46.2333333 111.486667,39.7933333 111.486667,31.5066667 C111.486667,23.16 118.26,16.6666667 125.653333,16.6666667 C129.18,16.6666667 131.98,18.2333333 133.44,19.9733333 L133.666667,19.9733333 L133.666667,17.5666667 L139.833333,17.5666667 L139.833333,17.56 Z M134.126667,31.5066667 C134.126667,26.3 130.653333,22.4933333 126.233333,22.4933333 C121.753333,22.4933333 118,26.3 118,31.5066667 C118,36.66 121.753333,40.4133333 126.233333,40.4133333 C130.653333,40.4133333 134.126667,36.66 134.126667,31.5066667 Z" id="Shape" fill="#4285F4" fill-rule="nonzero"></path>
            <polygon id="Path" fill="#34A853" points="150 2 150 45.3333333 143.666667 45.3333333 143.666667 2"></polygon>
            <path d="M174.68,36.32 L179.72,39.68 C178.093333,42.0866667 174.173333,46.2333333 167.4,46.2333333 C159,46.2333333 152.726667,39.74 152.726667,31.4466667 C152.726667,22.6533333 159.053333,16.66 166.673333,16.66 C174.346667,16.66 178.1,22.7666667 179.326667,26.0666667 L180,27.7466667 L160.233333,35.9333333 C161.746667,38.9 164.1,40.4133333 167.4,40.4133333 C170.706667,40.4133333 173,38.7866667 174.68,36.32 Z M159.166667,31 L172.38,25.5133333 C171.653333,23.6666667 169.466667,22.38 166.893333,22.38 C163.593333,22.38 159,25.2933333 159.166667,31 Z" id="Shape" fill="#EA4335" fill-rule="nonzero"></path>
            <path d="M23.5266667,27.6066667 L23.5266667,21.3333333 L44.6666667,21.3333333 C44.8733333,22.4266667 44.98,23.72 44.98,25.12 C44.98,29.8266667 43.6933333,35.6466667 39.5466667,39.7933333 C35.5133333,43.9933333 30.36,46.2333333 23.5333333,46.2333333 C10.88,46.2333333 0.24,35.9266667 0.24,23.2733333 C0.24,10.62 10.88,0.313333333 23.5333333,0.313333333 C30.5333333,0.313333333 35.52,3.06 39.2666667,6.64 L34.84,11.0666667 C32.1533333,8.54666667 28.5133333,6.58666667 23.5266667,6.58666667 C14.2866667,6.58666667 7.06,14.0333333 7.06,23.2733333 C7.06,32.5133333 14.2866667,39.96 23.5266667,39.96 C29.52,39.96 32.9333333,37.5533333 35.12,35.3666667 C36.8933333,33.5933333 38.06,31.06 38.52,27.6 L23.5266667,27.6066667 Z" id="Path" fill="#4285F4"></path>
        </g>
    </g>
</svg>