<?xml version="1.0" encoding="UTF-8"?>
<svg width="320px" height="80px" viewBox="0 0 320 80" version="1.1" xmlns="http://www.w3.org/2000/svg" xmlns:xlink="http://www.w3.org/1999/xlink">
    <!-- Generator: Sketch 52.6 (67491) - http://www.bohemiancoding.com/sketch -->
    <title>logo-payfit-color-2</title>
    <desc>Created with Sketch.</desc>
    <g id="logo-payfit-color-2" stroke="none" stroke-width="1" fill="none" fill-rule="evenodd">
        <g id="logo" transform="translate(62.000000, 10.000000)" fill="#0F6FDE" fill-rule="nonzero">
            <path d="M145.377833,22.1915 L142.5895,22.1915 C142.445833,22.1911667 142.305833,22.2356667 142.188667,22.3186667 C142.0715,22.4018333 141.983333,22.5193333 141.936167,22.6548333 C141.802833,23.0431667 141.706167,23.3215 141.651167,23.4881667 L136.6545,38.5048333 C136.6145,38.6231667 136.466167,38.9848333 136.207833,39.5931667 C136.181333,39.6555 136.137,39.7086667 136.080667,39.746 C136.024167,39.7833333 135.958,39.8033333 135.890333,39.8033333 C135.822667,39.8033333 135.756333,39.7833333 135.7,39.746 C135.6435,39.7086667 135.599333,39.6555 135.572833,39.5931667 C135.416,39.235 135.271333,38.8713333 135.1395,38.5031667 L130.062833,23.0131667 L129.951167,22.6698333 C129.906333,22.5306667 129.818333,22.4093333 129.7,22.3233333 C129.581667,22.2373333 129.439,22.1911667 129.292833,22.1915 L126.5595,22.1915 C126.449167,22.1913333 126.3405,22.2175 126.2425,22.2678333 C126.1445,22.3181667 126.059833,22.3913333 125.996,22.4811667 C125.932,22.5708333 125.8905,22.6746667 125.874833,22.7838333 C125.859167,22.8928333 125.869833,23.0041667 125.906167,23.1081667 L125.9945,23.3598333 L133.727833,44.9548333 L133.746167,45.0015 C133.804,45.1595 133.802333,45.3331667 133.741167,45.4898333 L133.607833,45.9431667 C133.362667,46.5966667 132.923667,47.1595 132.349667,47.5563333 C131.775667,47.953 131.094,48.1648333 130.396167,48.1631667 L127.516167,48.1631667 C127.425333,48.1631667 127.3355,48.1811667 127.251667,48.216 C127.167833,48.2506667 127.091667,48.3016667 127.027667,48.366 C126.9635,48.4301667 126.912667,48.5065 126.878167,48.5903333 C126.843667,48.6743333 126.825833,48.7641667 126.826167,48.8548333 L126.826167,51.0865 C126.826167,51.4665 127.1345,51.7765 127.516167,51.7765 L130.3995,51.7765 C133.201167,51.7831667 135.7545,50.1465 136.8745,47.6115 L137.0045,47.2965 C137.037833,47.2098333 139.086167,41.5431667 145.842833,22.8515 C145.869833,22.7771667 145.878667,22.6973333 145.868333,22.6188333 C145.857833,22.5403333 145.828667,22.4655 145.783167,22.4006667 C145.737833,22.336 145.677333,22.2831667 145.607,22.2466667 C145.536667,22.2103333 145.458667,22.1913333 145.3795,22.1915 L145.377833,22.1915 Z M108.661167,41.4631667 C109.2445,41.6698333 109.927833,41.7731667 110.707833,41.7731667 C113.0195,41.7731667 114.8495,40.7731667 116.1795,39.5498333 C117.2545,38.4881667 117.791167,37.1531667 117.791167,35.5531667 L117.791167,33.8031667 C117.791333,33.7553333 117.7815,33.7078333 117.762333,33.6638333 C117.743167,33.62 117.715,33.5805 117.679667,33.548 C117.6445,33.5155 117.602833,33.4908333 117.557333,33.4753333 C117.512,33.4598333 117.463833,33.454 117.416167,33.4581667 L116.8895,33.5065 L114.7195,33.7915 L110.4295,34.4415 C108.1245,34.8148333 106.717833,35.7298333 106.271167,37.1598333 C106.1495,37.4931667 106.0845,37.8515 106.0845,38.2231667 C106.0845,39.7348333 107.1645,41.0165 108.661167,41.4631667 Z M121.627833,42.9631667 L121.627833,44.3131667 C121.628,44.4041667 121.610333,44.4941667 121.575667,44.5781667 C121.540833,44.6621667 121.49,44.7385 121.425667,44.8028333 C121.3615,44.867 121.285167,44.918 121.201,44.9526667 C121.117,44.9873333 121.027,45.0051667 120.936167,45.0048333 L118.701167,45.0048333 C118.5195,45.0053333 118.345167,44.9341667 118.215667,44.807 C118.086167,44.6796667 118.012167,44.5065 118.0095,44.3248333 L117.972833,42.0931667 C117.971833,42.0596667 117.961167,42.0271667 117.942,41.9995 C117.922833,41.972 117.896167,41.9505 117.865167,41.9378333 C117.834167,41.9251667 117.8,41.9216667 117.767,41.928 C117.734167,41.9343333 117.703667,41.95 117.6795,41.9731667 L117.286167,42.3581667 C115.4995,44.1231667 113.037833,45.0048333 109.877833,45.0048333 C107.6095,45.0048333 105.756167,44.4031667 104.301167,43.1981667 C102.862833,42.0098333 102.147833,40.3648333 102.147833,38.2348333 C102.147833,37.1165 102.3595,36.1481667 102.781167,35.3281667 C103.2045,34.5081667 103.7495,33.8765 104.421167,33.4248333 C105.121167,32.9548333 105.7845,32.6115 106.406167,32.3915 C107.0395,32.1698333 107.6945,32.0031667 108.3695,31.8915 C111.697833,31.4315 113.5095,31.1748333 113.837833,31.1148333 C114.126167,31.0815 115.2095,30.9398333 117.102833,30.6881667 L117.4845,30.6415 C117.568833,30.6321667 117.646833,30.5918333 117.7035,30.5285 C117.76,30.4651667 117.791167,30.3831667 117.791167,30.2981667 L117.791167,29.3481667 C117.791167,27.9281667 117.4145,26.8198333 116.6545,26.0365 C115.881167,25.2415 114.487833,24.8581667 112.4545,24.8581667 C111.366167,24.8581667 110.451167,24.9798333 109.707833,25.2248333 C108.936167,25.4781667 108.352833,25.8531667 107.966167,26.3498333 C107.649167,26.7391667 107.394,27.1748333 107.2095,27.6415 C107.157667,27.7881667 107.1175,27.9386667 107.0895,28.0915 C107.059833,28.2498333 106.975833,28.3928333 106.852,28.4956667 C106.728167,28.5986667 106.572167,28.655 106.411167,28.6548333 L103.847833,28.6548333 C103.753333,28.6551667 103.66,28.6358333 103.573333,28.5985 C103.486667,28.5611667 103.4085,28.5065 103.343833,28.4376667 C103.279167,28.369 103.229333,28.2876667 103.197333,28.199 C103.165333,28.1101667 103.151833,28.0158333 103.157833,27.9215 L103.1695,27.7898333 C103.1995,27.5348333 103.236167,27.3181667 103.2745,27.1498333 C103.411167,26.5581667 103.677833,25.9365 104.0795,25.2798333 C104.476167,24.6331667 104.996167,24.0648333 105.641167,23.5765 C106.282833,23.0931667 107.177833,22.6881667 108.3245,22.3715 C109.482833,22.0498333 110.831167,21.8881667 112.367833,21.8881667 C118.597833,21.8881667 121.627833,24.3181667 121.627833,29.2631667 L121.627833,42.9631667 Z M172.715,22.6965 L172.715,44.2231667 C172.715,44.6048333 173.025,44.9131667 173.406667,44.9131667 L176.191667,44.9131667 C176.373333,44.9131667 176.55,44.8405 176.678333,44.7111667 C176.808333,44.5816667 176.881667,44.4061667 176.881667,44.2231667 L176.881667,22.6965 C176.881667,22.5135 176.808333,22.338 176.678333,22.2086667 C176.55,22.0793333 176.373333,22.0065 176.191667,22.0065 L173.406667,22.0065 C173.315,22.0063333 173.225,22.024 173.141667,22.0586667 C173.058333,22.0931667 172.981667,22.144 172.916667,22.208 C172.853333,22.2721667 172.801667,22.3483333 172.766667,22.4321667 C172.731667,22.516 172.715,22.6058333 172.715,22.6965 Z M172.715,15.85825 L172.715,18.5781667 C172.715,18.9615 173.025,19.2698333 173.406667,19.2698333 L176.191667,19.2698333 C176.281667,19.2698333 176.371667,19.252 176.455,19.2171667 C176.54,19.1825 176.615,19.1315 176.68,19.0671667 C176.743333,19.003 176.795,18.9266667 176.828333,18.8428333 C176.863333,18.7588333 176.881667,18.669 176.881667,18.5781667 L176.881667,15.85825 C176.881667,15.7674833 176.863333,15.6775833 176.828333,15.5936833 C176.795,15.5097667 176.743333,15.4335167 176.68,15.3692667 C176.615,15.3050167 176.54,15.2540333 176.455,15.21925 C176.371667,15.1844833 176.281667,15.1665833 176.191667,15.1665833 L173.406667,15.1665833 C173.315,15.16635 173.225,15.1841 173.141667,15.2187833 C173.056667,15.2534667 172.98,15.3044 172.916667,15.3686667 C172.851667,15.4329333 172.801667,15.5092833 172.766667,15.5933 C172.731667,15.6773167 172.715,15.76735 172.715,15.85825 Z M189.898333,25.6181667 L195.781667,25.6181667 C195.963333,25.6181667 196.14,25.5455 196.268333,25.4161667 C196.398333,25.2866667 196.471667,25.1111667 196.471667,24.9281667 L196.471667,22.6965 C196.471667,22.5135 196.398333,22.338 196.268333,22.2086667 C196.14,22.0793333 195.963333,22.0065 195.781667,22.0065 L189.898333,22.0065 C189.851667,22.0065 189.806667,21.9976667 189.765,21.9801667 C189.723333,21.9626667 189.685,21.9371667 189.653333,21.905 C189.621667,21.8726667 189.595,21.8345 189.578333,21.7925 C189.561667,21.7503333 189.553333,21.7053333 189.553333,21.6598333 L189.553333,15.85825 C189.553333,15.7674833 189.535,15.6775833 189.5,15.5936833 C189.466667,15.5097667 189.415,15.4335167 189.351667,15.3692667 C189.286667,15.3050167 189.211667,15.2540333 189.126667,15.21925 C189.043333,15.1844833 188.953333,15.1665833 188.863333,15.1665833 L186.078333,15.1665833 C185.986667,15.16635 185.896667,15.1841 185.813333,15.2187833 C185.728333,15.2534667 185.651667,15.3044 185.588333,15.3686667 C185.523333,15.4329333 185.473333,15.5092833 185.438333,15.5933 C185.403333,15.6773167 185.386667,15.76735 185.386667,15.85825 L185.386667,21.6598333 C185.386667,21.7053333 185.378333,21.7503333 185.36,21.7925 C185.343333,21.8345 185.318333,21.8726667 185.285,21.905 C185.253333,21.9371667 185.215,21.9626667 185.173333,21.9801667 C185.131667,21.9976667 185.086667,22.0065 185.041667,22.0065 L182.48,22.0065 C182.388333,22.0063333 182.298333,22.024 182.215,22.0586667 C182.131667,22.0931667 182.055,22.144 181.99,22.208 C181.926667,22.2721667 181.875,22.3483333 181.84,22.4321667 C181.805,22.516 181.788333,22.6058333 181.788333,22.6965 L181.788333,24.9281667 C181.788333,25.3098333 182.098333,25.6181667 182.48,25.6181667 L185.041667,25.6181667 C185.231667,25.6181667 185.386667,25.7731667 185.386667,25.9631667 L185.39,38.2098333 C185.515,41.9431667 188.631667,44.9131667 192.433333,44.9131667 L195.563333,44.9131667 C195.653333,44.9135 195.743333,44.8958333 195.826667,44.8611667 C195.911667,44.8266667 195.988333,44.7758333 196.051667,44.7116667 C196.116667,44.6476667 196.166667,44.5715 196.201667,44.4876667 C196.236667,44.4038333 196.255,44.314 196.255,44.2231667 L196.255,41.9915 C196.255,41.9008333 196.236667,41.811 196.201667,41.7271667 C196.166667,41.6433333 196.116667,41.5671667 196.051667,41.503 C195.988333,41.439 195.911667,41.3881667 195.826667,41.3536667 C195.743333,41.319 195.653333,41.3013333 195.563333,41.3015 L192.433333,41.3015 C190.843333,41.3015 189.553333,40.0315 189.553333,38.4681667 L189.553333,25.9648333 C189.553333,25.7731667 189.708333,25.6181667 189.9,25.6181667 L189.898333,25.6181667 Z M99.0478333,24.4231667 C99.0478333,19.3865 94.9528333,15.27325 89.8461667,15.1665833 L76.5861667,15.1665833 C76.4951667,15.16635 76.4051667,15.1841 76.3211667,15.2187833 C76.2371667,15.2534667 76.1608333,15.3044 76.0965,15.3686667 C76.0323333,15.4329333 75.9813333,15.5092833 75.9466667,15.5933 C75.912,15.6773167 75.8941667,15.76735 75.8945,15.85825 L75.8945,44.2215 C75.8945,44.6048333 76.2045,44.9131667 76.5861667,44.9131667 L79.3711667,44.9131667 C79.462,44.9135 79.552,44.8956667 79.636,44.861 C79.7201667,44.8263333 79.7965,44.7755 79.8606667,44.7111667 C79.925,44.6468333 79.9758333,44.5705 80.0106667,44.4865 C80.0453333,44.4025 80.063,44.3125 80.0628333,44.2215 L80.0628333,34.0231667 C80.0628333,33.8331667 80.2178333,33.6781667 80.4078333,33.6781667 L89.8411667,33.6765 C94.9528333,33.5731667 99.0461667,29.4598333 99.0461667,24.4231667 L99.0478333,24.4231667 Z M95.3761667,24.4231667 C95.3761667,27.5398333 92.8095,30.0665 89.6428333,30.0665 L80.4078333,30.0665 C80.3623333,30.0665 80.3173333,30.0576667 80.2753333,30.0401667 C80.2333333,30.0226667 80.1953333,29.9971667 80.1631667,29.965 C80.1311667,29.9326667 80.1058333,29.8945 80.0885,29.8525 C80.0713333,29.8103333 80.0625,29.7653333 80.0628333,29.7198333 L80.0628333,19.1248333 C80.0628333,18.9348333 80.2161667,18.7798333 80.4078333,18.7798333 L89.6411667,18.7798333 C92.8078333,18.7798333 95.3745,21.3065 95.3745,24.4231667 L95.3761667,24.4231667 Z M154.4995,33.5931667 L164.972833,33.5931667 C165.0635,33.5931667 165.153333,33.5753333 165.237167,33.5405 C165.321,33.5058333 165.397167,33.4548333 165.461333,33.3905 C165.525333,33.3263333 165.576167,33.25 165.610667,33.1661667 C165.645333,33.0821667 165.663,32.9923333 165.662833,32.9015 L165.662833,30.6698333 C165.662833,30.4868333 165.590167,30.3113333 165.460667,30.182 C165.331333,30.0526667 165.155833,29.9798333 164.972833,29.9798333 L154.4995,29.9798333 C154.454167,29.9798333 154.409333,29.971 154.3675,29.9536667 C154.3255,29.9363333 154.2875,29.9108333 154.2555,29.8788333 C154.2235,29.8468333 154.198,29.8088333 154.180667,29.767 C154.163333,29.725 154.1545,29.6801667 154.1545,29.6348333 L154.1545,19.1248333 C154.1545,18.9348333 154.3095,18.7798333 154.4995,18.7798333 L167.361667,18.7798333 C167.543333,18.7798333 167.72,18.7071667 167.848333,18.5778333 C167.978333,18.4483333 168.051667,18.2728333 168.051667,18.0898333 L168.051667,15.8565833 C168.051667,15.6735833 167.978333,15.4980667 167.848333,15.3686667 C167.72,15.2392667 167.543333,15.1665833 167.361667,15.1665833 L150.677833,15.1665833 C150.587,15.1665833 150.497167,15.1844833 150.413333,15.21925 C150.3295,15.2540333 150.253333,15.3050167 150.189333,15.3692667 C150.125167,15.4335167 150.074333,15.5097667 150.039833,15.5936833 C150.005167,15.6775833 149.9875,15.7674833 149.987833,15.85825 L149.987833,44.2231667 C149.987833,44.6048333 150.296167,44.9131667 150.677833,44.9131667 L153.4645,44.9131667 C153.555,44.9131667 153.644833,44.8953333 153.7285,44.8606667 C153.812167,44.826 153.888333,44.7751667 153.952333,44.7111667 C154.0165,44.647 154.067333,44.571 154.102,44.4873333 C154.136667,44.4035 154.1545,44.3138333 154.1545,44.2231667 L154.1545,33.9381667 C154.1545,33.7465 154.3095,33.5931667 154.4995,33.5931667 Z M30.3328333,0.0732421667 C47.0711667,0.0732421667 60.6411667,13.4282333 60.6411667,29.9031667 C60.6411667,46.3781667 47.0711667,59.7331667 30.3311667,59.7331667 C13.5927833,59.7331667 0.0227865,46.3781667 0.0227865,29.9031667 C0.0227865,13.4282333 13.5927833,0.0732421667 30.3311667,0.0732421667 L30.3328333,0.0732421667 Z M24.6861667,16.02325 L20.1928333,16.02325 C19.8595,16.02325 19.5795,16.25825 19.5145,16.57325 L19.5011667,16.7131667 L19.5028333,40.4898333 L19.5011667,40.6248333 C19.5011667,43.5148333 21.8811667,45.8548333 24.8145,45.8548333 C27.7495,45.8548333 30.1295,43.5148333 30.1295,40.6248333 C30.1295,40.5748333 30.1295,40.5465 30.1261667,40.5215 L30.1228333,34.5881667 C30.1228333,34.4281667 30.2295,34.2948333 30.3761667,34.2548333 L30.4678333,34.2415 L37.5311667,34.2415 C42.4811667,34.0415 46.4045,30.0281667 46.4045,25.1365 C46.4045,20.2348333 42.4645,16.2149167 37.4711667,16.0265833 L37.4078333,16.0265833 C36.8445,16.0249167 32.6045,16.02325 24.6861667,16.02325 Z M30.7695,18.7065 L37.1495,18.7065 C40.7595,18.7065 43.6861667,21.5881667 43.6861667,25.1398333 C43.6861667,28.5981667 40.9095,31.4331667 37.3961667,31.5698333 L30.4678333,31.5698333 C30.4223333,31.5698333 30.3773333,31.561 30.3353333,31.5435 C30.2933333,31.526 30.2553333,31.5005 30.2231667,31.4683333 C30.1911667,31.436 30.1658333,31.3978333 30.1485,31.3558333 C30.1313333,31.3136667 30.1225,31.2686667 30.1228333,31.2231667 L30.1228333,26.8231667 C30.1228333,26.6315 30.2778333,26.4765 30.4678333,26.4765 L37.1511667,26.4765 C37.3283333,26.4778333 37.5041667,26.4443333 37.6685,26.3776667 C37.8328333,26.311 37.9823333,26.2126667 38.1086667,26.0883333 C38.235,25.9638333 38.3355,25.8156667 38.4045,25.6525 C38.4736667,25.4891667 38.5098333,25.3138333 38.5111667,25.1365 C38.5098333,24.9591667 38.4735,24.7836667 38.4043333,24.6203333 C38.3351667,24.457 38.2345,24.3088333 38.108,24.1843333 C37.9816667,24.0598333 37.8318333,23.9615 37.6673333,23.895 C37.5028333,23.8285 37.3268333,23.795 37.1495,23.7965 L28.0895,23.7965 C27.9065,23.7965 27.731,23.8693333 27.6015,23.9986667 C27.4721667,24.128 27.3995,24.3035 27.3995,24.4865 L27.3978333,40.4615 C27.4176667,40.812 27.3653333,41.1628333 27.2441667,41.4923333 C27.1231667,41.8218333 26.9356667,42.1228333 26.6935,42.377 C26.4515,42.6311667 26.1598333,42.833 25.8365,42.97 C25.5133333,43.1068333 25.1655,43.176 24.8145,43.1731667 C24.4773333,43.1758333 24.1428333,43.112 23.8303333,42.9853333 C23.5178333,42.8586667 23.2333333,42.6716667 22.993,42.435 C22.7528333,42.1983333 22.5616667,41.9166667 22.4303333,41.6061667 C22.299,41.2955 22.2301667,40.9621667 22.2278333,40.6248333 C22.2278333,40.5498333 22.2278333,40.5315 22.2245,40.4815 L22.2245,19.0515 C22.2245,18.8615 22.3795,18.7065 22.5695,18.7065 L30.7695,18.7065 Z" id="Shape"></path>
        </g>
    </g>
</svg>