<?xml version="1.0" encoding="UTF-8"?>
<svg width="320px" height="80px" viewBox="0 0 320 80" version="1.1" xmlns="http://www.w3.org/2000/svg" xmlns:xlink="http://www.w3.org/1999/xlink">
    <!-- Generator: Sketch 52.6 (67491) - http://www.bohemiancoding.com/sketch -->
    <title>logo-frichti-color-2</title>
    <desc>Created with Sketch.</desc>
    <g id="logo-frichti-color-2" stroke="none" stroke-width="1" fill="none" fill-rule="evenodd">
        <g id="logo" transform="translate(51.000000, 22.000000)" fill="#000000" fill-rule="nonzero">
            <path d="M80.7464789,0.177464789 L77.171831,0.177464789 C76.3605634,0.177464789 75.7267606,0.836619718 75.7267606,1.62253521 L75.7267606,34.3521127 C75.7267606,35.1633803 76.3859155,35.7971831 77.171831,35.7971831 L80.7464789,35.7971831 C81.5577465,35.7971831 82.1915493,35.1380282 82.1915493,34.3521127 L82.1915493,1.62253521 C82.2169014,0.811267606 81.5577465,0.177464789 80.7464789,0.177464789 M107.721127,7.75774648 C109.115493,6.89577465 110.585915,6.46478873 112.233803,6.46478873 C113.983099,6.46478873 115.630986,7.04788732 117.228169,8.26478873 L118.292958,9.07605634 C118.850704,9.48169014 119.63662,9.45633803 120.143662,8.97464789 L122.830986,6.51549296 C123.135211,6.23661972 123.312676,5.8056338 123.312676,5.37464789 C123.287324,4.94366197 123.084507,4.53802817 122.729577,4.28450704 L121.183099,3.11830986 C118.470423,1.03943662 115.453521,0 112.233803,0 C110.104225,0 108.050704,0.456338028 106.098592,1.31830986 C104.197183,2.18028169 102.523944,3.37183099 101.129577,4.84225352 C99.7352113,6.31267606 98.6450704,8.06197183 97.8338028,10.0647887 C97.0225352,12.0676056 96.6169014,14.7295775 96.6169014,18 C96.6169014,21.3464789 96.9971831,23.856338 97.8338028,25.9352113 C98.6450704,27.9380282 99.7352113,29.6873239 101.129577,31.1577465 C102.523944,32.628169 104.197183,33.8197183 106.098592,34.6816901 C108.050704,35.5690141 110.104225,36 112.233803,36 C115.580282,36 118.647887,34.9605634 121.360563,32.9070423 L122.628169,31.943662 C123.261972,31.4619718 123.388732,30.5492958 122.907042,29.915493 L120.777465,27.0507042 C120.549296,26.7464789 120.194366,26.543662 119.814085,26.4929577 C119.433803,26.4422535 119.053521,26.543662 118.723944,26.771831 L117.430986,27.7605634 C115.884507,28.9521127 114.160563,29.5098592 112.208451,29.5098592 C110.560563,29.5098592 109.090141,29.0788732 107.695775,28.2169014 C106.250704,27.3295775 105.160563,26.1633803 104.323944,24.6169014 C103.512676,23.1464789 103.056338,20.7380282 103.056338,17.9746479 C103.056338,15.084507 103.487324,12.8535211 104.323944,11.3323944 C105.185915,9.81126761 106.276056,8.64507042 107.721127,7.75774648 M21.9549296,0.177464789 L1.47042254,0.177464789 C0.65915493,0.177464789 0,0.811267606 0,1.62253521 L0,34.3521127 C0,34.7323944 0.152112676,35.1126761 0.430985915,35.3915493 C0.709859155,35.6704225 1.06478873,35.8225352 1.47042254,35.8225352 L5.04507042,35.8225352 C5.85633803,35.8225352 6.49014085,35.1633803 6.49014085,34.3774648 L6.49014085,20.1295775 L15.743662,20.1295775 C16.5549296,20.1295775 17.1887324,19.4704225 17.1887324,18.684507 L17.1887324,15.1098592 C17.1887324,14.2985915 16.5295775,13.6647887 15.743662,13.6647887 L6.46478873,13.6647887 L6.46478873,6.64225352 L20.0535211,6.64225352 L21.9802817,6.61690141 C22.7661972,6.5915493 23.4,5.95774648 23.4,5.17183099 L23.4,1.62253521 C23.4253521,0.811267606 22.7661972,0.177464789 21.9549296,0.177464789 M58.4873239,15.1352113 C58.9943662,13.9183099 59.2732394,12.1690141 59.2732394,10.8507042 C59.2732394,9.53239437 59.0197183,7.73239437 58.4873239,6.51549296 C57.9802817,5.32394366 57.2450704,4.23380282 56.3070423,3.29577465 C55.3183099,2.30704225 54.0760563,1.52112676 52.5802817,0.963380282 C51.1605634,0.430985915 49.5887324,0.177464789 47.8901408,0.177464789 L37.0140845,0.177464789 C36.6084507,0.177464789 36.228169,0.354929577 35.9492958,0.633802817 C35.6704225,0.938028169 35.543662,1.31830986 35.5690141,1.72394366 L35.6704225,3.34647887 L35.6957746,34.3774648 C35.6957746,35.1887324 36.3549296,35.8225352 37.1408451,35.8225352 L40.715493,35.8225352 C41.5267606,35.8225352 42.1605634,35.1633803 42.1605634,34.3774648 L42.1605634,21.4732394 L46.115493,21.4732394 L52.4028169,34.9352113 C52.6309859,35.4676056 53.1633803,35.7971831 53.7464789,35.7971831 L57.7774648,35.7971831 C58.2591549,35.7971831 58.715493,35.543662 58.9943662,35.1380282 C59.2732394,34.7323944 59.2985915,34.2 59.0957746,33.7690141 L52.7830986,20.5605634 C54.1774648,20.0028169 55.3690141,19.2676056 56.2816901,18.3295775 C57.2197183,17.4169014 57.9549296,16.3267606 58.4873239,15.1352113 M52.7830986,10.8507042 C52.7830986,11.3070423 52.7070423,12.1690141 52.5295775,12.6 C52.3267606,13.056338 52.0732394,13.4366197 51.6929577,13.8169014 C51.3887324,14.1464789 50.9070423,14.4253521 50.2985915,14.6535211 C49.6140845,14.9070423 48.8028169,15.0338028 47.8901408,15.0338028 L42.1859155,15.0338028 L42.1859155,6.66760563 L47.8901408,6.66760563 C48.8028169,6.66760563 49.6140845,6.7943662 50.2985915,7.04788732 C50.9070423,7.27605634 51.3887324,7.55492958 51.6929577,7.88450704 C52.0732394,8.26478873 52.3267606,8.64507042 52.5295775,9.10140845 C52.6816901,9.48169014 52.7830986,10.3943662 52.7830986,10.8507042 M158.75493,0.177464789 L155.180282,0.177464789 C154.369014,0.177464789 153.735211,0.836619718 153.735211,1.62253521 L153.735211,14.9323944 L142.55493,14.9323944 L142.55493,1.62253521 C142.55493,0.811267606 141.895775,0.177464789 141.109859,0.177464789 L137.535211,0.177464789 C136.723944,0.177464789 136.090141,0.836619718 136.090141,1.62253521 L136.090141,34.3521127 C136.090141,35.1633803 136.749296,35.7971831 137.535211,35.7971831 L141.109859,35.7971831 C141.921127,35.7971831 142.55493,35.1380282 142.55493,34.3521127 L142.55493,21.3971831 L153.735211,21.3971831 L153.735211,34.3521127 C153.735211,35.1633803 154.394366,35.7971831 155.180282,35.7971831 L158.75493,35.7971831 C159.566197,35.7971831 160.2,35.1380282 160.2,34.3521127 L160.2,1.62253521 C160.2,0.811267606 159.566197,0.177464789 158.75493,0.177464789 M196.732394,0.177464789 L173.788732,0.177464789 C172.977465,0.177464789 172.343662,0.836619718 172.343662,1.62253521 L172.343662,5.14647887 C172.343662,5.95774648 173.002817,6.5915493 173.788732,6.5915493 L182.028169,6.61690141 L182.028169,34.3521127 C182.028169,35.1633803 182.687324,35.7971831 183.473239,35.7971831 L187.047887,35.7971831 C187.859155,35.7971831 188.492958,35.1380282 188.492958,34.3521127 L188.492958,6.64225352 L194.830986,6.64225352 L196.757746,6.61690141 C197.543662,6.5915493 198.177465,5.95774648 198.177465,5.17183099 L198.177465,1.62253521 C198.202817,0.811267606 197.543662,0.177464789 196.732394,0.177464789 M216.811268,0.177464789 L213.23662,0.177464789 C212.425352,0.177464789 211.791549,0.836619718 211.791549,1.62253521 L211.791549,34.3521127 C211.791549,35.1633803 212.450704,35.7971831 213.23662,35.7971831 L216.811268,35.7971831 C217.622535,35.7971831 218.256338,35.1380282 218.256338,34.3521127 L218.256338,1.62253521 C218.256338,0.811267606 217.597183,0.177464789 216.811268,0.177464789" id="Shape"></path>
        </g>
    </g>
</svg>