<?xml version="1.0" encoding="UTF-8"?>
<svg width="320px" height="80px" viewBox="0 0 320 80" version="1.1" xmlns="http://www.w3.org/2000/svg" xmlns:xlink="http://www.w3.org/1999/xlink">
    <!-- Generator: Sketch 52.6 (67491) - http://www.bohemiancoding.com/sketch -->
    <title>logo-contentsquare-color-2</title>
    <desc>Created with Sketch.</desc>
    <g id="logo-contentsquare-color-2" stroke="none" stroke-width="1" fill="none" fill-rule="evenodd">
        <g id="contentsquare-vector-logo" transform="translate(17.000000, 10.000000)">
            <path d="M188.095238,33.7619048 L189.666667,31.4761905 C190.714286,32.7142857 192.619048,33.7619048 194.904762,33.7619048 C197.333333,33.7619048 198.238095,32.5238095 198.238095,31.4761905 C198.238095,28 188.47619,30.0952381 188.47619,24 C188.47619,21.1904762 190.904762,19.1428571 194.571429,19.1428571 C197.190476,19.1428571 199.285714,20 200.857143,21.5714286 L199.285714,23.8571429 C197.904762,22.4761905 196.142857,21.952381 194.428571,21.952381 C192.714286,21.952381 191.619048,22.8095238 191.619048,24.047619 C191.619048,27.1904762 201.380952,25.2857143 201.380952,31.5238095 C201.380952,34.3333333 199.47619,36.7619048 194.952381,36.7619048 C191.952381,36.3809524 189.666667,35.1428571 188.095238,33.7619048 Z" id="Path" fill="#495057"></path>
            <path d="M203.619048,27.6666667 C203.619048,22.6190476 207.095238,18.952381 212.142857,18.952381 C217.190476,18.952381 220.666667,22.6190476 220.666667,27.6666667 C220.666667,30.0952381 219.809524,32.1904762 218.380952,33.7619048 L219.761905,35.3333333 L217.666667,37.0952381 L216.285714,35.5238095 C215.047619,36.2380952 213.666667,36.5714286 212.095238,36.5714286 C207.095238,36.3809524 203.619048,32.7142857 203.619048,27.6666667 Z M214.428571,33.2380952 L212.333333,30.8095238 L214.428571,29.047619 L216.52381,31.4761905 C217.238095,30.4285714 217.571429,29.047619 217.571429,27.6666667 C217.571429,24.1904762 215.285714,21.5714286 212,21.5714286 C208.666667,21.5714286 206.428571,24.1904762 206.428571,27.6666667 C206.428571,31.1428571 208.52381,33.7619048 212,33.7619048 C213,33.7619048 213.714286,33.5714286 214.428571,33.2380952 Z" id="Shape" fill="#495057" fill-rule="nonzero"></path>
            <path d="M224,29.3809524 L224,19.2857143 L226.952381,19.2857143 L226.952381,29.3809524 C226.952381,32 228.333333,33.7142857 231.142857,33.7142857 C233.952381,33.7142857 235.333333,31.952381 235.333333,29.3809524 L235.333333,19.2857143 L238.285714,19.2857143 L238.285714,29.3809524 C238.285714,33.5714286 235.857143,36.3333333 230.952381,36.3333333 C226.238095,36.3809524 224,33.5714286 224,29.3809524 Z" id="Path" fill="#495057"></path>
            <path d="M253.095238,36.047619 L251.857143,32.7142857 L244.190476,32.7142857 L242.952381,36.047619 L239.619048,36.047619 L246.238095,19.3333333 L249.904762,19.3333333 L256.52381,36.047619 L253.095238,36.047619 Z M248.047619,22.2380952 L245.095238,30.2380952 L251.190476,30.2380952 L248.047619,22.2380952 Z" id="Shape" fill="#495057" fill-rule="nonzero"></path>
            <path d="M268.238095,36.047619 L264.571429,29.7619048 L261.619048,29.7619048 L261.619048,36.047619 L258.666667,36.047619 L258.666667,19.3333333 L266,19.3333333 C269.333333,19.3333333 271.380952,21.4285714 271.380952,24.5714286 C271.380952,27.5238095 269.47619,29.0952381 267.380952,29.4285714 L271.571429,36.047619 C271.571429,36.047619 268.238095,36.047619 268.238095,36.047619 Z M268.571429,24.5238095 C268.571429,22.952381 267.333333,21.9047619 265.761905,21.9047619 L261.761905,21.9047619 L261.761905,27.1428571 L265.761905,27.1428571 C267.380952,27.1428571 268.571429,26.0952381 268.571429,24.5238095 Z" id="Shape" fill="#495057" fill-rule="nonzero"></path>
            <polygon id="Path" fill="#495057" points="274.714286 36.047619 274.714286 19.3333333 286.190476 19.3333333 286.190476 21.952381 277.666667 21.952381 277.666667 26.2857143 286.047619 26.2857143 286.047619 28.9047619 277.666667 28.9047619 277.666667 33.4285714 286.190476 33.4285714 286.190476 36.047619"></polygon>
            <path d="M73.8095238,27.6666667 C73.8095238,22.6190476 77.4761905,18.952381 82.1904762,18.952381 C84.6190476,18.952381 86.5238095,19.8095238 87.952381,21.5714286 L87.2380952,22.0952381 C86,20.7142857 84.0952381,19.6666667 82,19.6666667 C77.8095238,19.6666667 74.5238095,22.8095238 74.5238095,27.5238095 C74.5238095,32.2380952 77.8571429,35.3809524 82,35.3809524 C84.0952381,35.3809524 86,34.5238095 87.2380952,32.952381 L87.952381,33.4761905 C86.3809524,35.2380952 84.4761905,36.0952381 82.1904762,36.0952381 C77.4761905,36.3809524 73.8095238,32.9047619 73.8095238,27.6666667 Z" id="Path" fill="#495057"></path>
            <path d="M90.5238095,27.6666667 C90.5238095,22.8095238 93.6666667,18.952381 98.5238095,18.952381 C103.380952,18.952381 106.52381,22.7619048 106.52381,27.6666667 C106.52381,32.5714286 103.380952,36.3809524 98.5238095,36.3809524 C93.5238095,36.3809524 90.5238095,32.5238095 90.5238095,27.6666667 Z M105.52381,27.6666667 C105.52381,23.1428571 102.714286,19.8095238 98.3809524,19.8095238 C94.047619,19.8095238 91.2380952,23.1428571 91.2380952,27.6666667 C91.2380952,32.1904762 94.047619,35.5238095 98.3809524,35.5238095 C102.761905,35.5238095 105.52381,32.1904762 105.52381,27.6666667 Z" id="Shape" fill="#495057" fill-rule="nonzero"></path>
            <polygon id="Path" fill="#495057" points="122.761905 36.047619 111.428571 20.7142857 111.428571 36.047619 110.571429 36.047619 110.571429 19.3333333 111.428571 19.3333333 122.761905 34.6666667 122.761905 19.3333333 123.619048 19.3333333 123.619048 36.047619"></polygon>
            <polygon id="Path" fill="#495057" points="132.714286 36.047619 132.714286 20 127.142857 20 127.142857 19.2857143 139.142857 19.2857143 139.142857 20 133.571429 20 133.571429 36.047619"></polygon>
            <polygon id="Path" fill="#495057" points="142.809524 36.047619 142.809524 19.3333333 153.095238 19.3333333 153.095238 20.047619 143.666667 20.047619 143.666667 27 152.904762 27 152.904762 27.7142857 143.666667 27.7142857 143.666667 35.1904762 153.095238 35.1904762 153.095238 35.9047619 142.809524 35.9047619"></polygon>
            <polygon id="Path" fill="#495057" points="169.285714 36.047619 157.952381 20.7142857 157.952381 36.047619 157.238095 36.047619 157.238095 19.3333333 158.095238 19.3333333 169.428571 34.6666667 169.428571 19.3333333 170.285714 19.3333333 170.285714 36.047619"></polygon>
            <polygon id="Path" fill="#495057" points="178.857143 36.047619 178.857143 20 173.285714 20 173.285714 19.2857143 185.285714 19.2857143 185.285714 20 179.714286 20 179.714286 36.047619"></polygon>
            <g id="Group">
                <path d="M54.6666667,32.3809524 C54.6666667,36.5714286 54.6666667,40.5714286 54.6666667,44.7619048 C54.6666667,45.8095238 54.1428571,46.6666667 53.2857143,47.1904762 C51.1904762,48.4285714 48.952381,49.6190476 46.8571429,50.8571429 C43.9047619,52.6190476 40.7619048,54.3333333 37.8095238,56.0952381 C35.9047619,57.3333333 33.8095238,58.3809524 31.9047619,59.5714286 C31.7142857,59.7619048 31.3809524,59.7619048 31.1904762,59.7619048 C30.8571429,59.7619048 30.4761905,59.4285714 30.4761905,58.9047619 C30.4761905,57.5238095 30.4761905,56.0952381 30.4761905,54.7142857 C30.4761905,52.952381 30.4761905,51.3809524 30.4761905,49.6666667 C30.4761905,48.6190476 31,47.9047619 31.8571429,47.3809524 C35.5238095,45.2857143 39.1904762,43.1904762 42.6666667,41.0952381 C43.5238095,40.5714286 44.047619,39.8571429 44.047619,38.8095238 C44.047619,34.6190476 44.047619,30.4285714 44.047619,26.2857143 C44.047619,25.2380952 44.5714286,24.5238095 45.4285714,24 C47.1904762,22.952381 49.0952381,21.9047619 50.8095238,20.8571429 C51.6666667,20.3333333 52.5714286,19.8095238 53.4285714,19.4761905 C53.952381,19.1428571 54.4761905,19.2857143 54.6666667,19.6666667 C54.6666667,19.8571429 54.8571429,20 54.8571429,20.1904762 C54.6666667,24.1904762 54.6666667,28.3809524 54.6666667,32.3809524 Z" id="Path" fill="#FF4B47"></path>
                <path d="M40.9047619,19.6666667 C40.3809524,19.6666667 39.8571429,19.4761905 39.3333333,19.3333333 C36.1904762,17.4285714 32.9047619,15.6666667 29.7619048,13.7619048 C29.4285714,13.5714286 29.047619,13.4285714 28.7142857,13.2380952 C27.6666667,12.7142857 26.8095238,12.7142857 25.7619048,13.2380952 C22.2857143,15.3333333 18.6190476,17.2380952 15.1428571,19.3333333 C14.0952381,19.8571429 13.2380952,19.8571429 12.1904762,19.3333333 C9.57142857,17.7619048 6.95238095,16.3809524 4.33333333,14.8095238 C4.33333333,14.8095238 4.14285714,14.8095238 4.14285714,14.6190476 C3.80952381,14.2857143 3.80952381,13.5714286 4.33333333,13.2380952 C5.04761905,12.9047619 5.57142857,12.5238095 6.23809524,12.1904762 C10.5714286,9.76190476 14.952381,7.14285714 19.1428571,4.71428571 C21.4285714,3.33333333 23.6666667,2.0952381 26.0952381,0.714285714 C26.952381,0.19047619 27.8571429,0.19047619 28.7142857,0.714285714 C30.4761905,1.57142857 32.047619,2.61904762 33.5714286,3.52380952 C36.9047619,5.42857143 40.1904762,7.33333333 43.5238095,9.28571429 C45.8095238,10.5238095 47.8571429,11.9047619 50.1428571,13.0952381 C50.3333333,13.2857143 50.4761905,13.2857143 50.6666667,13.4285714 C50.8571429,13.7619048 50.8571429,13.952381 50.6666667,14.2857143 C50.4761905,14.4761905 50.3333333,14.6190476 49.952381,14.8095238 C47.5238095,16.1904762 44.9047619,17.7619048 42.4761905,19.1428571 C41.952381,19.4761905 41.4285714,19.6666667 40.9047619,19.6666667 Z" id="Path" fill="#13B6FF"></path>
                <path d="M0.476190476,32.3809524 C0.476190476,28.1904762 0.476190476,24.1904762 0.476190476,20 C0.476190476,19.6666667 0.476190476,19.1428571 0.80952381,18.952381 C1.14285714,18.7619048 1.52380952,18.952381 1.85714286,19.1428571 C4.47619048,20.7142857 7.0952381,22.0952381 9.52380952,23.6666667 C10.5714286,24.1904762 10.9047619,25.047619 10.9047619,26.0952381 C10.9047619,30.2857143 10.9047619,34.2857143 10.9047619,38.4761905 C10.9047619,39.5238095 11.4285714,40.3809524 12.2857143,40.9047619 C15.7619048,43 19.4285714,45.0952381 22.9047619,47.1904762 C23.7619048,47.7142857 24.2857143,48.5714286 24.2857143,49.6190476 C24.2857143,52.5714286 24.2857143,55.7142857 24.2857143,58.6666667 C24.2857143,58.6666667 24.2857143,58.6666667 24.2857143,58.8571429 C24.2857143,59.7142857 23.7619048,60.0952381 22.9047619,59.5714286 C22.1904762,59.2380952 21.5238095,58.7142857 20.6190476,58.3333333 C14.1904762,54.6666667 7.9047619,51 1.47619048,47.1904762 C0.952380952,46.6666667 0.428571429,45.8095238 0.428571429,44.7619048 C0.476190476,40.5714286 0.476190476,36.5238095 0.476190476,32.3809524 Z" id="Path" fill="#FFC613"></path>
                <path d="M16.6666667,30.6190476 C16.6666667,29.047619 16.6666667,27.6666667 16.6666667,26.0952381 C16.6666667,25.047619 17.1904762,24.1904762 18.047619,23.6666667 C20.6666667,22.0952381 23.4285714,20.5238095 26.047619,18.952381 C26.9047619,18.4285714 27.8095238,18.4285714 28.6666667,18.952381 C30.5714286,20 32.4761905,21.047619 34.4285714,22.2857143 C35.2857143,22.8095238 36.1904762,23.3333333 37.047619,23.8571429 C37.7619048,24.3809524 38.0952381,25.0952381 38.0952381,25.952381 C38.0952381,29.0952381 38.0952381,32.2380952 38.0952381,35.3809524 C38.0952381,36.4285714 37.5714286,37.2857143 36.5238095,37.8095238 C33.9047619,39.3809524 31.2857143,40.7619048 28.6666667,42.3333333 C27.8095238,42.8571429 26.7619048,42.8571429 25.8571429,42.3333333 C23.2380952,40.7619048 20.4761905,39.1904762 17.8571429,37.8095238 C17,37.2857143 16.4761905,36.4285714 16.4761905,35.3809524 C16.6666667,33.5714286 16.6666667,32 16.6666667,30.6190476 Z" id="Path" fill="#495057"></path>
            </g>
        </g>
    </g>
</svg>