<svg width="71" height="277" viewBox="0 0 71 277" fill="none" xmlns="http://www.w3.org/2000/svg">
<path d="M66.873 242.44C50.7121 253.453 34.5508 264.467 18.3898 275.481C15.3675 277.541 7.32524 277.873 7.00132 272.488C5.82707 252.97 4.65272 233.451 3.47818 213.933C2.97169 205.513 18.7485 199.355 19.2974 208.478C20.0018 220.186 20.7063 231.894 21.4107 243.602C28.3457 231.231 32.3812 216.144 34.8039 202.973C46.5858 138.919 25.7549 72.0149 0.725403 13.7545C-2.28967 6.73604 9.24646 -5.10307 13.0307 3.70551C39.4606 65.2264 60.36 135.399 47.6703 202.85C44.8028 218.092 40.0938 235.496 31.9315 250.071C41.2595 243.714 50.5874 237.357 59.9154 231C68.7297 224.993 75.6038 236.49 66.873 242.44Z" fill="#00B3B1"/>
</svg>
