<svg width="48" height="48" viewBox="0 0 48 48" fill="none" xmlns="http://www.w3.org/2000/svg">
<path fill-rule="evenodd" clip-rule="evenodd" d="M25.5 6.56339L25.5001 3.00003L22.5001 2.99996L22.5 6.56338C18.7943 6.87796 15.4177 8.34734 12.7315 10.6102L8.06065 5.93934L5.93933 8.06066L10.6102 12.7316C8.5526 15.174 7.15106 18.1874 6.67722 21.5H3V24.5H6.50701C6.62196 28.5974 8.14535 32.3426 10.6102 35.2684L5.93935 39.9393L8.06067 42.0607L12.7316 37.3898C15.4177 39.6527 18.7943 41.1221 22.5001 41.4366L22.5 45L25.5 45L25.5001 41.4366C29.2058 41.122 32.5824 39.6526 35.2685 37.3898L39.9393 42.0607L42.0607 39.9393L37.3898 35.2684C39.8547 32.3426 41.378 28.5974 41.493 24.5H45V21.5H41.3228C40.8489 18.1874 39.4474 15.174 37.3898 12.7315L42.0607 8.06066L39.9393 5.93934L35.2684 10.6102C32.5823 8.34735 29.2058 6.87798 25.5 6.56339ZM9.5 24C9.5 15.9919 15.9919 9.5 24 9.5C32.0081 9.5 38.5 15.9919 38.5 24C38.5 32.0081 32.0081 38.5 24 38.5C15.9919 38.5 9.5 32.0081 9.5 24ZM24 29C26.7614 29 29 26.7614 29 24C29 21.2386 26.7614 19 24 19C21.2386 19 19 21.2386 19 24C19 26.7614 21.2386 29 24 29Z" fill="#1FCE6D"/>
</svg>
