<svg width="48" height="48" viewBox="0 0 48 48" fill="none" xmlns="http://www.w3.org/2000/svg">
<path fill-rule="evenodd" clip-rule="evenodd" d="M24 8.5C15.4396 8.5 8.5 15.4396 8.5 24H5.5C5.5 13.7827 13.7827 5.5 24 5.5C29.8779 5.5 35.1129 8.24635 38.5 12.5166V8H41.5V17.5H32V14.5H36.2435C33.4058 10.849 28.9753 8.5 24 8.5ZM9.5 35.4834L9.5 40H6.5L6.5 30.5H16V33.5H11.7565C14.5942 37.151 19.0247 39.5 24 39.5C32.5604 39.5 39.5 32.5604 39.5 24H42.5C42.5 34.2173 34.2173 42.5 24 42.5C18.1221 42.5 12.8871 39.7536 9.5 35.4834Z" fill="#1FCE6D"/>
</svg>
