<svg width="48" height="48" viewBox="0 0 48 48" fill="none" xmlns="http://www.w3.org/2000/svg">
<path fill-rule="evenodd" clip-rule="evenodd" d="M6.5 24C6.5 14.335 14.335 6.5 24 6.5C33.665 6.5 41.5 14.335 41.5 24C41.5 33.665 33.665 41.5 24 41.5C14.335 41.5 6.5 33.665 6.5 24ZM24 3.5C12.6782 3.5 3.5 12.6782 3.5 24C3.5 35.3218 12.6782 44.5 24 44.5C35.3218 44.5 44.5 35.3218 44.5 24C44.5 12.6782 35.3218 3.5 24 3.5ZM27.2328 19.5504L24 13L20.7672 19.5504L13.5384 20.6008L18.7692 25.6996L17.5344 32.8992L24 29.5L30.4656 32.8992L29.2308 25.6996L34.4616 20.6008L27.2328 19.5504Z" fill="#1FCE6D"/>
</svg>
