<svg width="48" height="48" viewBox="0 0 48 48" fill="none" xmlns="http://www.w3.org/2000/svg">
<path fill-rule="evenodd" clip-rule="evenodd" d="M6.5 24C6.5 14.335 14.335 6.5 24 6.5C33.665 6.5 41.5 14.335 41.5 24C41.5 33.665 33.665 41.5 24 41.5C14.335 41.5 6.5 33.665 6.5 24ZM24 3.5C12.6782 3.5 3.5 12.6782 3.5 24C3.5 35.3218 12.6782 44.5 24 44.5C35.3218 44.5 44.5 35.3218 44.5 24C44.5 12.6782 35.3218 3.5 24 3.5ZM18.5 21C18.5 17.9624 20.9624 15.5 24 15.5C27.0376 15.5 29.5 17.9624 29.5 21C29.5 23.306 28.0804 25.284 26.0618 26.1009L25.0651 26.5043L25.411 32.5H22.589L22.9349 26.5043L21.9382 26.1009C19.9196 25.284 18.5 23.306 18.5 21ZM24 12.5C19.3056 12.5 15.5 16.3056 15.5 21C15.5 24.1771 17.2427 26.9443 19.8204 28.4027L19.411 35.5H28.589L28.1796 28.4027C30.7573 26.9443 32.5 24.1771 32.5 21C32.5 16.3056 28.6944 12.5 24 12.5Z" fill="#1FCE6D"/>
</svg>
