<?xml version="1.0" encoding="UTF-8"?>
<svg width="9px" height="20px" viewBox="0 0 9 20" version="1.1" xmlns="http://www.w3.org/2000/svg" xmlns:xlink="http://www.w3.org/1999/xlink">
    <!-- Generator: Sketch 52.6 (67491) - http://www.bohemiancoding.com/sketch -->
    <title>icon-fb</title>
    <desc>Created with Sketch.</desc>
    <g id="Page-4" stroke="none" stroke-width="1" fill="none" fill-rule="evenodd">
        <g id="home-5-3" transform="translate(-986.000000, -4332.000000)" fill="#FFFFFF" fill-rule="nonzero">
            <path d="M991.988281,4338.5534 L995,4338.5534 L994.648438,4342 L991.988281,4342 L991.988281,4352 L987.992188,4352 L987.992188,4342 L986,4342 L986,4338.5534 L987.992188,4338.5534 L987.992188,4336.47816 C987.992188,4335.00566 988.328125,4333.89118 989,4333.13471 C989.671875,4332.37824 990.777344,4332 992.316406,4332 L994.976562,4332 L994.976562,4335.4466 L993.3125,4335.4466 C993.007812,4335.4466 992.763672,4335.4729 992.580078,4335.52549 C992.396484,4335.57807 992.263672,4335.67314 992.181641,4335.81068 C992.099609,4335.94822 992.046875,4336.08778 992.023438,4336.22937 C992,4336.37095 991.988281,4336.5712 991.988281,4336.8301 L991.988281,4338.5534 Z" id="icon-fb"></path>
        </g>
    </g>
</svg>