<svg width="48" height="48" viewBox="0 0 48 48" fill="none" xmlns="http://www.w3.org/2000/svg">
<circle cx="24" cy="24" r="21.3333" fill="#24CD6C"/>
<path d="M24.9307 13.8564C24.7803 13.4738 24.4111 13.2222 24 13.2222C23.5889 13.2222 23.2197 13.4738 23.0693 13.8564L20.8085 19.6072L14.6404 19.9803C14.2301 20.0052 13.8768 20.2785 13.7497 20.6695C13.6227 21.0604 13.7479 21.4893 14.0652 21.7506L18.836 25.6779L17.2848 31.6594C17.1816 32.0573 17.3324 32.4778 17.665 32.7194C17.9976 32.961 18.4441 32.9745 18.7906 32.7534L24 29.4298L29.2094 32.7534C29.5559 32.9745 30.0025 32.961 30.335 32.7194C30.6676 32.4778 30.8184 32.0573 30.7152 31.6594L29.164 25.6779L33.9348 21.7506C34.2522 21.4893 34.3773 21.0604 34.2503 20.6695C34.1233 20.2785 33.7699 20.0052 33.3596 19.9803L27.1915 19.6072L24.9307 13.8564Z" fill="white" stroke="black" stroke-width="2" stroke-linejoin="round"/>
</svg>
