<svg width="48" height="48" viewBox="0 0 48 48" fill="none" xmlns="http://www.w3.org/2000/svg">
<g clip-path="url(#clip0_1519_248)">
<circle cx="24" cy="24" r="21.3333" fill="#24CD6C"/>
<path d="M35.3962 19.6916C35.7658 19.2974 35.7554 18.6808 35.3726 18.2993L33.2466 16.1806C33.055 15.9896 32.7942 15.8844 32.5237 15.889C32.2533 15.8936 31.9962 16.0076 31.8112 16.2049L21.8272 26.8529L17.0309 21.9081C16.8425 21.714 16.5836 21.6044 16.3131 21.6044C16.0426 21.6044 15.7836 21.714 15.5953 21.9081L13.5044 24.0637C13.1282 24.4516 13.1282 25.0683 13.5044 25.4562L20.0941 32.2498C20.5615 32.7317 21.2038 33.0058 21.8786 32.9999C22.5533 32.994 23.1907 32.7088 23.6498 32.2191L35.3962 19.6916Z" fill="white" stroke="black" stroke-width="2" stroke-linecap="square" stroke-linejoin="round"/>
</g>
<defs>
<clipPath id="clip0_1519_248">
<rect width="48" height="48" fill="white"/>
</clipPath>
</defs>
</svg>
