<?xml version="1.0" encoding="UTF-8"?>
<svg width="66px" height="56px" viewBox="0 0 66 56" version="1.1" xmlns="http://www.w3.org/2000/svg" xmlns:xlink="http://www.w3.org/1999/xlink">
    <!-- Generator: Sketch 52.6 (67491) - http://www.bohemiancoding.com/sketch -->
    <title>logo-blablacar-bw</title>
    <desc>Created with Sketch.</desc>
    <g id="Page-1" stroke="none" stroke-width="1" fill="none" fill-rule="evenodd">
        <g id="logo-blablacar-bw" fill="#000000">
            <path d="M65.6820876,34.235146 C64.0013309,24.0694512 54.4164438,17.2315386 44.3318663,18.9638102 L47.2845506,1.93740837 L36.4504225,2.84217094e-14 C35.5419029,2.05137302 31.4535607,11.3965209 29.4775281,21.8813191 C33.4977308,24.6164819 36.4504225,28.9471609 37.3362297,34.1895609 C38.2447438,39.7282679 36.654839,45.1302195 33.3387413,49.1417953 C34.156409,50.1446902 35.0876412,51.0564112 36.1324397,51.8769619 C40.3343483,55.204746 45.4448006,56.5039498 50.441668,55.6606047 C60.5943775,53.97392 67.4082657,44.3552558 65.659377,34.235146 L65.6820876,34.235146 Z" id="path2-5-copy"></path>
            <path d="M29.2621627,23.0665563 L29.4892917,21.9269042 C25.6280804,19.2829116 20.8583457,18.0976744 15.9069107,18.9182233 L18.8596006,1.91461581 L8.04820915,0 C7.09426443,2.11975256 2.73336448,12.0803107 0.870900101,23.0209712 C-0.62815827,31.8646716 -0.560020685,41.346573 4.05072078,48.0249377 C5.07280493,49.4609005 6.27659488,50.7601023 7.73022819,51.8997544 C11.9548456,55.2275386 17.0879863,56.5267405 22.08485,55.6833991 C26.6728789,54.9312298 30.5568028,52.492374 33.305078,49.1873823 L32.4419834,48.0477302 C27.8085294,41.3921619 27.74039,31.9102567 29.2621627,23.0893507 L29.2621627,23.0665563 Z" id="path4-1-copy" fill-opacity="0.28294837"></path>
            <path d="M39.304227,32.2617302 C38.3957073,27.0193321 33.4430156,24.6886549 29.4455273,21.9534884 L29.2183964,23.0931405 C27.7420524,31.9368409 27.81019,41.418746 32.4436459,48.097107 L33.2840261,49.2367591 C36.6001238,45.1340112 39.6270526,40.4267292 38.6730986,34.8652278 L39.304227,32.2617302 Z" id="path6-2-copy" fill-opacity="0.575634058"></path>
        </g>
    </g>
</svg>