<?xml version="1.0" encoding="UTF-8"?>
<svg width="58px" height="58px" viewBox="0 0 58 58" version="1.1" xmlns="http://www.w3.org/2000/svg" xmlns:xlink="http://www.w3.org/1999/xlink">
    <!-- Generator: Sketch 52.6 (67491) - http://www.bohemiancoding.com/sketch -->
    <title>logo-magicplan-bw</title>
    <desc>Created with Sketch.</desc>
    <defs>
        <radialGradient cx="17.1423036%" cy="16.8034232%" fx="17.1423036%" fy="16.8034232%" r="103.124353%" gradientTransform="translate(0.171423,0.168034),translate(-0.171423,-0.168034)" id="radialGradient-1">
            <stop stop-color="#000000" stop-opacity="0.601024683" offset="0%"></stop>
            <stop stop-color="#000000" stop-opacity="0.797582654" offset="73%"></stop>
            <stop stop-color="#000000" offset="100%"></stop>
        </radialGradient>
    </defs>
    <g id="Page-1" stroke="none" stroke-width="1" fill="none" fill-rule="evenodd">
        <g id="logo-magicplan-bw">
            <polygon id="Path" fill="url(#radialGradient-1)" points="57.9316827 57.9651442 36.2081731 57.9651442 36.2081731 50.7987981 50.7653366 50.7987981 50.7653366 7.20120192 7.16634616 7.20120192 7.16634616 50.7987981 21.7249039 50.7987981 21.7249039 57.9651442 1.13686838e-13 57.9651442 1.13686838e-13 0.0334615384 57.9316827 0.0334615384"></polygon>
            <path d="M28.8605769,39.9767789 L24.6025961,39.9767789 L24.6025961,28.4506731 C24.6025961,26.8500961 23.8938622,26.0498077 22.4763942,26.0498077 C21.3786699,26.0498077 20.4807852,26.6902243 19.7827403,27.9710577 C19.0846955,29.251891 18.7361378,31.13875 18.7370673,33.6316347 L18.7370673,39.9781731 L14.4832692,39.9781731 L14.4832692,22.6897116 L18.7370673,22.6897116 L18.7370673,25.4684134 C20.0866827,23.4328366 21.7448878,22.4150481 23.7116827,22.4150481 C24.7749231,22.3977597 25.8175289,22.7093702 26.6967308,23.3073558 C27.5658013,23.9022276 28.1829808,24.7940706 28.5482692,25.9828847 C29.8978847,23.6043269 31.6587981,22.4150481 33.8310097,22.4150481 C35.4315866,22.4150481 36.6896474,22.8839743 37.6051923,23.8218269 C38.5207372,24.7596795 38.9780449,26.0632852 38.9771153,27.7326442 L38.9771168,39.9795673 L34.7163461,39.9795673 L34.7163461,28.4506731 C34.7163461,26.8500961 34.0076122,26.0498077 32.5901442,26.0498077 C31.4924199,26.0498077 30.5945352,26.6614102 29.8964903,27.8846153 C29.1984455,29.1078205 28.853141,30.8975481 28.8605769,33.2537981 L28.8605769,39.9767789 Z" id="Path" fill="#282825"></path>
            <path d="M41.7655769,23.2167308 L41.7655769,26.8040866 L40.3852884,26.8040866 L40.3852884,18.0204327 L43.5348558,18.0204327 C44.388125,18.0204327 45.0531731,18.2630289 45.53,18.7482211 C46.4998269,19.8054664 46.4998269,21.4289086 45.53,22.4861539 C45.0531731,22.9713461 44.388125,23.2139423 43.5348558,23.2139423 L41.7655769,23.2167308 Z M43.5975961,21.9117308 C43.9408558,21.9337597 44.2777019,21.8109278 44.5261539,21.5729327 C44.9614327,21.0117548 44.9614327,20.2268028 44.5261539,19.665625 C44.2777019,19.4276298 43.9408558,19.3047981 43.5975961,19.3268269 L41.7655769,19.3268269 L41.7655769,21.9117308 L43.5975961,21.9117308 Z" id="Shape" fill="#282825" fill-rule="nonzero"></path>
        </g>
    </g>
</svg>