<?xml version="1.0" encoding="UTF-8"?>
<svg width="64px" height="64px" viewBox="0 0 64 64" version="1.1" xmlns="http://www.w3.org/2000/svg" xmlns:xlink="http://www.w3.org/1999/xlink">
    <!-- Generator: Sketch 52.6 (67491) - http://www.bohemiancoding.com/sketch -->
    <title>logo-aircall-bw</title>
    <desc>Created with Sketch.</desc>
    <defs>
        <linearGradient x1="51.9455737%" y1="4.68937364%" x2="50%" y2="91.3941663%" id="linearGradient-1">
            <stop stop-color="#000000" stop-opacity="0.561112998" offset="0%"></stop>
            <stop stop-color="#000000" offset="100%"></stop>
        </linearGradient>
    </defs>
    <g id="Page-1" stroke="none" stroke-width="1" fill="none" fill-rule="evenodd">
        <g id="logo-aircall-bw" fill="url(#linearGradient-1)" fill-rule="nonzero">
            <path d="M32,4.57142857 C16.9142857,4.57142857 4.57142857,16.9142857 4.57142857,32 C4.57142857,47.0857143 16.9142857,59.4285714 32,59.4285714 C47.0857143,59.4285714 59.4285714,47.0857143 59.4285714,32 C59.4285714,16.9142857 47.0857143,4.57142857 32,4.57142857 Z M32,64 C14.4,64 0,49.6 0,32 C0,14.4 14.4,0 32,0 C49.6,0 64,14.4 64,32 C64,49.6 49.6,64 32,64 Z M48,41.3714286 C48,42.0571429 47.5428571,42.5142857 47.0857143,42.9714286 C46.4,43.8857143 45.7142857,44.5714286 45.0285714,45.2571429 C44.3428571,45.9428571 43.6571429,46.4 42.9714286,46.8571429 C41.1428571,47.7714286 39.0857143,48.2285714 37.0285714,48 C34.0571429,47.7714286 31.3142857,46.4 28.8,44.8 C26.9714286,43.6571429 25.1428571,42.0571429 23.5428571,40.4571429 C20.8,37.9428571 18.5142857,34.7428571 17.1428571,31.3142857 C16,28.3428571 15.3142857,24.6857143 16.6857143,21.7142857 C17.6,19.6571429 19.4285714,18.2857143 21.0285714,16.9142857 C21.4857143,16.6857143 21.7142857,16.2285714 22.1714286,16 C22.6285714,15.7714286 22.8571429,16 23.3142857,16 C24.2285714,16.4571429 24.9142857,17.1428571 25.3714286,17.8285714 C25.8285714,18.5142857 26.2857143,19.4285714 26.7428571,20.3428571 C27.2,21.2571429 27.6571429,22.1714286 27.6571429,23.0857143 C27.6571429,23.7714286 27.4285714,24.4571429 26.9714286,24.9142857 C26.5142857,25.3714286 25.8285714,26.0571429 25.3714286,26.5142857 C24.2285714,27.8857143 23.7714286,29.7142857 23.7714286,31.5428571 C23.7714286,33.8285714 24.6857143,36.1142857 26.2857143,37.7142857 C28.8,40.2285714 33.1428571,40.9142857 36.3428571,39.3142857 C37.0285714,38.8571429 37.7142857,38.4 38.4,37.7142857 C38.8571429,37.2571429 39.3142857,36.8 39.7714286,36.3428571 C41.1428571,35.4285714 43.2,36.3428571 44.5714286,37.0285714 C44.5714286,37.0285714 44.5714286,37.0285714 44.8,37.0285714 C46.4,37.7142857 47.5428571,39.0857143 48,40.6857143 C48,40.9142857 48,41.1428571 48,41.3714286 C48,41.6 48,41.3714286 48,41.3714286 Z" id="Shape"></path>
        </g>
    </g>
</svg>