<?xml version="1.0" encoding="UTF-8"?>
<svg width="58px" height="58px" viewBox="0 0 58 58" version="1.1" xmlns="http://www.w3.org/2000/svg" xmlns:xlink="http://www.w3.org/1999/xlink">
    <!-- Generator: Sketch 52.6 (67491) - http://www.bohemiancoding.com/sketch -->
    <title>logo-goodco-bw</title>
    <desc>Created with Sketch.</desc>
    <g id="Page-1" stroke="none" stroke-width="1" fill="none" fill-rule="evenodd">
        <g id="logo-goodco-bw" fill="#000000" fill-rule="nonzero">
            <path d="M2.47907599,0.0644966717 C2.36684124,0.093747166 2.27501282,0.187348748 2.27501282,0.272467686 C2.27501282,0.474588601 2.01235437,0.568775193 1.44914002,0.568775193 C1.06783341,0.568775193 0.99233004,0.607970855 0.99233004,0.806581711 C0.99233004,0.937038915 0.91361996,1.07451624 0.817418752,1.11137186 C0.721217543,1.14851999 0.642507464,1.28219475 0.642507464,1.40855688 C0.642507464,1.53521152 0.56729561,1.71393204 0.475175665,1.8063636 C0.330873853,1.95115355 0.306386272,5.65777618 0.296766152,28.7580615 L0.285396918,55.5415691 L0.522110194,55.6170354 C0.652419104,55.6585711 0.759114989,55.7907833 0.759114989,55.9107103 C0.759114989,56.0306373 0.865519356,56.1628496 0.995536746,56.2040928 C1.13109299,56.2473835 1.2179656,56.362923 1.19959992,56.4752449 C1.177736,56.6083346 1.28909619,56.7072013 1.54621578,56.7832526 C1.79138311,56.8555013 1.92519024,56.9692857 1.92519024,57.105008 C1.92519024,57.3059589 3.04520552,57.314734 29.0364399,57.314734 C55.4675761,57.314734 56.1476895,57.3091765 56.1476895,57.0953553 C56.1476895,56.9441303 56.2587581,56.8537463 56.5062576,56.8040204 C56.7674585,56.751662 56.853748,56.6761958 56.8243046,56.5261407 C56.8012746,56.4085537 56.8849405,56.2672738 57.0196222,56.1967802 C57.1493481,56.128919 57.240885,55.9879316 57.2231024,55.8837999 C57.2050282,55.7770356 57.2956905,55.6612036 57.4306638,55.6182054 L57.6702922,55.5418616 L57.6597975,28.6922479 C57.6507605,5.44512509 57.6268559,1.83444408 57.4816796,1.77828313 C57.3892681,1.74289003 57.3137647,1.59342001 57.3137647,1.44629002 C57.3137647,1.29916003 57.2350546,1.14851999 57.1388534,1.11137186 C57.0426522,1.07451624 56.9639421,0.937038915 56.9639421,0.806581711 C56.9639421,0.616746003 56.8875642,0.568482688 56.5849677,0.567312668 C56.0439088,0.564972628 55.6812594,0.448263156 55.6812594,0.27627025 C55.6812594,0.194661371 55.5631942,0.0963797105 55.4188924,0.0574765531 C55.117462,-0.023547316 2.78837745,-0.0168197023 2.47907599,0.0644966717 M0,29.8192694 C0,43.9443331 0.0137013842,49.7227683 0.0303179566,42.6602364 C0.0469345289,35.5977046 0.0469345289,24.0408343 0.0303179566,16.9783025 C0.0137013842,9.91577063 0,15.6942058 0,29.8192694 M57.95394,28.7077507 C57.95394,42.221479 57.9676414,47.7325646 57.984258,40.9543476 C58.0008746,34.1761306 58.0008746,23.1194437 57.984258,16.3839324 C57.9676414,9.64842111 57.95394,15.1940223 57.95394,28.7077507 M8.00248294,5.51210872 C8.01006243,5.59254758 8.01181154,5.73733753 8.00598116,5.83386416 C7.99898471,5.95174365 8.01676736,5.96139631 8.06020366,5.86311465 C8.13308336,5.69814187 49.7884981,5.63993338 49.8803265,5.80461366 C49.9071462,5.85287698 49.9164748,5.83503418 49.9007328,5.76483299 C49.8503001,5.53697164 50.0549463,5.32958564 50.2546367,5.40651444 C50.3613325,5.44746513 50.4175957,5.53170655 50.3794067,5.5937176 C50.3415093,5.65543614 50.5260407,5.76424798 50.7898652,5.83561919 C51.135898,5.92892826 51.2513395,6.01316969 51.2038219,6.13719178 C51.1615517,6.24805116 51.2414278,6.34867286 51.4274168,6.41975156 C51.5982469,6.48498016 51.7166035,6.62304249 51.7166035,6.75730226 C51.7166035,6.88220187 51.7746157,7.00388393 51.8454548,7.02757683 C52.0203661,7.08607782 52.0101629,18.5300412 51.8346686,18.9924915 C51.7145629,19.3092744 51.5693865,19.3396949 50.9586546,19.1755996 C50.3971894,19.0249596 27.2290232,19.1925649 27.2290232,19.3475925 C27.2290232,19.4449966 27.1252425,19.5230955 26.9958082,19.5230955 C26.691754,19.5230955 26.2827531,19.93699 26.3675851,20.1590012 C26.412479,20.2760032 26.335518,20.3570271 26.1308718,20.4085079 C25.9434252,20.4558937 25.8011641,20.591616 25.7577278,20.7644864 C25.7192473,20.918344 25.6411202,21.0441212 25.5839825,21.0441212 C25.5265533,21.0441212 25.4799103,21.1713608 25.4799103,21.3269735 C25.4799103,21.4822936 25.4195659,21.6297161 25.3461032,21.6542865 C25.2723489,21.6791494 25.1910152,21.9067182 25.16507,22.16032 C25.1391248,22.4139218 25.0417576,22.6640135 24.9490546,22.7160794 C24.7172971,22.8462441 24.6933926,32.2277551 24.924567,32.3049764 C25.0219343,32.337737 25.0936479,32.7846846 25.1443722,33.670097 C25.1857679,34.3943393 25.2781793,35.0457478 25.3496014,35.1174115 C25.4213151,35.1893677 25.4799103,35.4713425 25.4799103,35.7442496 C25.4799103,36.0171567 25.5323837,36.2730985 25.5965179,36.3128792 C25.660652,36.3526598 25.7131254,36.512075 25.7131254,36.6673952 C25.7131254,36.9198269 25.7588938,36.9467374 26.1504036,36.9236295 C26.5381236,36.9008141 26.5914716,36.9309421 26.6217895,37.190394 L26.6558972,37.4828989 L30.2366228,37.4510159 C32.2061239,37.4334656 33.9371626,37.4203029 34.0835051,37.4217654 C34.2321797,37.4232279 34.3826034,37.3340139 34.4245821,37.2196445 C34.5659687,36.835878 35.1562943,36.7048358 35.6209753,36.9543425 C35.8008424,37.0508691 35.82533,37.0321488 35.7746057,36.8373405 C35.732627,36.6767553 35.7722735,36.6053841 35.9025825,36.6053841 C36.0448436,36.6053841 36.0911951,36.4904297 36.0911951,36.1373762 C36.0911951,35.8799719 36.1436685,35.6693683 36.2078027,35.6693683 C36.2719368,35.6693683 36.3244102,35.5623115 36.3244102,35.4315618 C36.3244102,35.3011046 36.4031203,35.1636273 36.4993215,35.1267716 C36.6217594,35.0793858 36.6742328,34.8877951 36.6742328,34.4867708 C36.6742328,34.055911 36.631088,33.9143386 36.4993215,33.9143386 C36.4031203,33.9143386 36.3244102,33.815472 36.3244102,33.6946674 C36.3244102,33.5738629 36.2570693,33.4188353 36.1745695,33.3500966 C36.0827411,33.2737528 36.0366811,33.0186885 36.0556298,32.692253 L36.0868223,32.159309 L35.4448979,32.159309 C34.8691483,32.159309 34.7913127,32.1294735 34.6930709,31.8700216 C34.5849174,31.5842443 34.5653857,31.5807342 32.9760251,31.5482662 C31.7772997,31.5239883 31.3715055,31.47865 31.3802511,31.3695456 C31.3866645,31.2891068 31.3997829,30.0123227 31.409403,28.5322477 L31.4268941,25.8412022 L40.7554961,25.8412022 L50.0840982,25.8412022 L50.0840982,25.5486973 C50.0840982,25.1599582 50.5170036,25.1339253 50.5715176,25.5194468 C50.600378,25.7218602 50.6895827,25.7856263 50.9586546,25.795864 C51.151057,25.8028841 51.3883533,25.8160468 51.4860121,25.8251145 C51.8370008,25.8569975 52.3139256,27.1214964 52.0812935,27.4028861 C51.9909227,27.5119905 51.9515677,30.5982101 51.9471949,37.957927 C51.941073,48.080353 51.9215412,48.9593304 51.7046512,48.8247781 C51.6457644,48.788215 51.6221514,49.2176122 51.6504287,49.8198799 C51.6991124,50.862075 51.6950311,50.8805028 51.4166306,50.950704 C51.2609596,50.9898997 51.1335659,51.0934464 51.1335659,51.1806129 C51.1335659,51.5041234 50.1963329,51.7416374 50.0240453,51.4620027 C49.9741956,51.3809788 42.999608,51.3450007 28.4889675,51.3505583 L7.02735251,51.3584559 L6.86002071,51.1191869 C6.76819228,50.9872671 6.59823681,50.8796253 6.48250385,50.8796253 C6.29243358,50.8796253 6.27610853,50.7772486 6.31225686,49.8029146 C6.33412077,49.2108846 6.30292826,48.6957834 6.24258386,48.6583428 C6.1114004,48.5770264 6.02102956,7.00388393 6.15221303,7.00388393 C6.20031363,7.00388393 6.23966867,6.89741213 6.23966867,6.76695493 C6.23966867,6.61953243 6.35423557,6.48644269 6.54313976,6.41448647 C6.73204395,6.34223775 6.8227063,6.23664346 6.78364278,6.13455924 C6.71688497,5.96022629 6.93173434,5.83386416 7.29467526,5.83386416 C7.41536405,5.83386416 7.57045206,5.72856238 7.63895898,5.5998602 C7.77888801,5.33777578 7.98149358,5.28892745 8.00248294,5.51210872 M51.6530524,13.4389927 C51.6530524,15.9808606 51.6685029,17.0207157 51.6874516,15.7497817 C51.7061088,14.4788477 51.7061088,12.3991376 51.6874516,11.1282036 C51.6685029,9.85726964 51.6530524,10.8971247 51.6530524,13.4389927 M51.6556761,36.8978891 C51.6556761,42.045976 51.6699605,44.1350463 51.6874516,41.5399425 C51.7049428,38.9451311 51.7049428,34.73306 51.6874516,32.1797843 C51.6699605,29.6268012 51.6556761,31.7498021 51.6556761,36.8978891 M57.9285779,54.1556807 C57.9285779,54.4452606 57.9513164,54.5637251 57.9790106,54.4189351 C58.0069965,54.2741452 58.0069965,54.0372162 57.9790106,53.8924262 C57.9513164,53.7476363 57.9285779,53.8661008 57.9285779,54.1556807 M16.1221564,57.9874954 C23.1929452,58.0041682 34.7633269,58.0041682 41.8341157,57.9874954 C48.9049046,57.9708226 43.1197137,57.9570749 28.9781361,57.9570749 C14.8365585,57.9570749 9.05136763,57.9708226 16.1221564,57.9874954" id="path0"></path>
        </g>
    </g>
</svg>