<?xml version="1.0" encoding="UTF-8"?>
<svg width="58px" height="58px" viewBox="0 0 58 58" version="1.1" xmlns="http://www.w3.org/2000/svg" xmlns:xlink="http://www.w3.org/1999/xlink">
    <!-- Generator: Sketch 52.6 (67491) - http://www.bohemiancoding.com/sketch -->
    <title>logo-sos-bw</title>
    <desc>Created with Sketch.</desc>
    <defs>
        <linearGradient x1="62.0529235%" y1="3.78432081%" x2="11.0397593%" y2="97.8209825%" id="linearGradient-1">
            <stop stop-color="#000000" offset="0%"></stop>
            <stop stop-color="#000000" stop-opacity="0.672356205" offset="100%"></stop>
        </linearGradient>
    </defs>
    <g id="Page-1" stroke="none" stroke-width="1" fill="none" fill-rule="evenodd">
        <g id="logo-sos-bw" fill="url(#linearGradient-1)" fill-rule="nonzero">
            <path d="M11.4815459,0.0858562414 C10.8145434,0.165186553 10.3516573,0.244952746 9.96459011,0.347384742 C9.82614466,0.383998732 9.62159339,0.437176194 9.50996724,0.465363155 C9.03678839,0.585230384 8.43313742,0.775419721 8.38210832,0.820751328 C8.3518098,0.847775939 8.29280741,0.869715275 8.25091137,0.869715275 C8.10985652,0.869715275 6.67872243,1.56044111 6.27614348,1.82284136 C6.12407098,1.92193161 5.92836281,2.04005531 5.84123643,2.08553222 C5.75411006,2.13086382 5.68278531,2.18970773 5.68278531,2.21629647 C5.68278531,2.2427399 5.64857261,2.26453395 5.60667657,2.26453395 C5.56492549,2.26453395 5.48011862,2.31146378 5.41821686,2.36885475 C5.35646005,2.42610044 5.16234655,2.57996638 4.98693404,2.71058533 C4.81152154,2.84120429 4.55275185,3.05580295 4.41184197,3.18758425 C4.27107706,3.31922027 4.14538893,3.42688284 4.13263165,3.42688284 C4.07188963,3.42688284 3.0437694,4.5578483 2.72324291,4.97731096 C2.45476029,5.32863092 2.08755379,5.85822613 2.08755379,5.89425895 C2.08755379,5.91227535 2.00216703,6.05103075 1.89778935,6.20257199 C1.79341166,6.35411323 1.62626239,6.6480422 1.52652371,6.85581207 C1.06769678,7.81082698 0.927801686,8.12567823 0.927801686,8.20253855 C0.927801686,8.24816074 0.904026764,8.31034641 0.875032962,8.34071278 C0.822119272,8.39606964 0.668742057,8.85839391 0.576976671,9.23862731 C0.549867466,9.35050333 0.486371038,9.58587902 0.435631883,9.76168429 C0.325020527,10.1454047 0.176572258,10.9487331 0.174977598,11.1710324 C0.174397723,11.2739002 0.142939447,11.3308553 0.0869814077,11.3308553 C0.00985789285,11.3308553 0,13.3327107 0,28.9985585 C0,44.6644063 0.00985789285,46.6662616 0.0869814077,46.6662616 C0.148013362,46.6662616 0.173962816,46.7280114 0.173962816,46.8730144 C0.173962816,46.986634 0.200782083,47.202395 0.233545079,47.3524833 C0.266453046,47.5024263 0.320671457,47.7559637 0.354304268,47.9157866 C0.38779211,48.0756096 0.44940394,48.3240617 0.491155015,48.4679024 C0.532906092,48.6117431 0.623801663,48.9255772 0.693096851,49.1653117 C0.821394427,49.6084573 0.838355801,49.6558229 1.01739254,50.0661321 C1.18932579,50.4604589 1.73977313,51.5687587 1.84400584,51.7303251 C1.89822426,51.8144502 2.0060812,51.9909819 2.08378459,52.1226179 C2.16134302,52.2541086 2.24614989,52.3617711 2.27224431,52.3617711 C2.29819376,52.3617711 2.31950421,52.3944622 2.31964917,52.434418 C2.31979415,52.5849421 3.98983717,54.5702341 4.11625015,54.5702341 C4.1379955,54.5702341 4.27107706,54.6778966 4.41184197,54.8095326 C5.10827311,55.4601574 6.06289406,56.1071498 7.01650022,56.57485 C7.31948546,56.7234854 7.68480738,56.9033588 7.82832669,56.9744075 C8.09086558,57.1044452 9.02519086,57.4161 9.50996724,57.5352408 C9.65348658,57.5705471 9.90138355,57.6352027 10.0608495,57.6789361 C10.4377689,57.7823852 11.0161953,57.8718861 11.7630757,57.9424988 C12.5805559,58.0196497 45.3133993,58.0189232 46.2161213,57.9417723 C47.0143207,57.8734843 47.6111581,57.7829664 47.9267556,57.6822779 C48.0543284,57.6415957 48.3022254,57.5765042 48.4776379,57.5375654 C48.8087471,57.4640469 49.464587,57.2708064 49.6663838,57.1872626 C50.8916619,56.6800425 52.271187,55.9185588 52.7520492,55.4836949 C52.8226491,55.4199111 52.9310859,55.338692 52.9931327,55.303095 C53.2110211,55.1782878 54.250304,54.2362041 54.5083488,53.9296345 C54.6518682,53.7590598 54.8748305,53.5000013 55.0038529,53.353836 C55.2547943,53.0696416 55.2572588,53.0664452 55.6970947,52.4140769 C55.8565607,52.1775389 56.0147219,51.9545132 56.0484996,51.9183351 C56.1073571,51.8552776 56.9115002,50.2473133 57.0037005,50.0080147 C57.2141955,49.461856 57.3011769,49.2059939 57.3745312,48.9175861 C57.4213562,48.7334991 57.4790539,48.5513009 57.5028288,48.5129434 C57.5264587,48.4745859 57.5653104,48.337574 57.5890854,48.2085532 C57.6128602,48.0795325 57.6725875,47.7646813 57.7218769,47.5089645 C57.7710214,47.2532478 57.8119027,46.9712329 57.8124826,46.8823132 C57.8130625,46.7931029 57.852639,46.7057814 57.9006237,46.6873291 C58.0331255,46.6363311 58.0331255,11.3308553 57.9006237,11.3308553 C57.8411864,11.3308553 57.8136423,11.2711396 57.8136423,11.1419736 C57.8136423,11.0380886 57.7714563,10.7438691 57.7199924,10.4881523 C57.6685283,10.2324356 57.6080762,9.91860136 57.585751,9.79074303 C57.5634258,9.66288461 57.5179056,9.50596754 57.4845627,9.44203837 C57.4513647,9.37810912 57.4083089,9.24211431 57.3888831,9.13982763 C57.0177625,7.17502213 54.9418062,4.15276972 52.9493521,2.67644133 C52.8022086,2.56732583 52.6686921,2.46097091 52.6527455,2.44004863 C52.5982371,2.36885475 52.0811327,2.03206416 52.0260445,2.03206416 C51.9957459,2.03206416 51.9400778,1.99457841 51.9020959,1.94866563 C51.8342504,1.86672004 51.6627521,1.76762979 51.0290925,1.44406092 C50.5234406,1.18572888 49.8094682,0.869715275 49.7317648,0.869715275 C49.6926232,0.869715275 49.6357953,0.84821182 49.6054969,0.82205897 C49.5505536,0.774547959 48.9473375,0.582469805 48.5066317,0.47204666 C48.379059,0.440082066 48.1181148,0.373828179 47.9267556,0.324718938 C47.4683637,0.20688582 46.9648862,0.129299031 46.1916216,0.0570881063 C45.2009033,-0.0354639242 12.2730767,-0.0080034316 11.4815459,0.0858562414 M25.7641829,5.28852988 C26.2289535,5.33938264 26.6577719,5.4403617 27.0104815,5.58187768 C27.0836909,5.61122699 27.1842993,5.63534573 27.2340237,5.63534573 C27.2837481,5.63534573 27.3747886,5.69956551 27.4364005,5.77802406 C27.499317,5.85808083 27.5845588,5.90675419 27.6308039,5.88888309 C27.7528678,5.84195324 28.1138406,5.97228162 28.4429203,6.181795 C28.6023862,6.28335524 28.7748993,6.39159898 28.8262184,6.42225593 C28.8775374,6.45291288 28.9888737,6.52701262 29.0735355,6.58701888 C29.1581974,6.64687986 29.3456423,6.70921081 29.4900315,6.72562899 C29.7057454,6.75003832 29.768082,6.78505408 29.838682,6.92177537 C29.899424,7.03946319 29.9682843,7.08828184 30.0736768,7.08828184 C30.1655871,7.08828184 30.3260678,7.17938094 30.4919124,7.3258369 C30.6400707,7.45645585 30.839693,7.59927947 30.9358074,7.64330344 C31.2192219,7.77334122 31.6141174,8.01540038 31.8882539,8.22723846 C32.0290188,8.33591808 32.1934136,8.42498307 32.2535758,8.42498307 C32.4923397,8.42498307 32.991468,8.81262643 32.9140546,8.93801481 C32.8949187,8.96925294 32.9627642,9.02402863 33.0649674,9.05977086 C33.1673155,9.09551308 33.3041662,9.17440752 33.3694023,9.23514022 C33.4344934,9.29601831 33.5943942,9.40658675 33.7245763,9.480977 C34.2627013,9.78870889 34.5551038,10.0149311 34.6210648,10.1743181 C34.7218182,10.4184114 34.9969694,10.3550634 36.0482847,9.84595461 C36.3970801,9.67712342 36.6555598,9.58631494 36.7410916,9.60273308 C36.8385108,9.62133064 36.9033119,9.58965666 36.9672433,9.49187409 C37.0163878,9.41646663 37.089742,9.35486217 37.1301884,9.35486217 C37.1704898,9.35486217 37.3035714,9.30371887 37.4257802,9.24124256 C37.5481341,9.17876632 37.7884927,9.09841896 37.9599911,9.06282202 C38.1314894,9.0270798 38.2718194,8.97622703 38.2718194,8.9496383 C38.2718194,8.86202625 38.6862858,8.65440168 38.9889811,8.5903272 C39.1526512,8.55574732 39.3271938,8.48484404 39.3769182,8.43253834 C39.4264976,8.38037793 39.6352529,8.30293644 39.840819,8.2603654 C40.0462401,8.21779438 40.4623012,8.09516657 40.7652864,7.98808518 C41.4001058,7.76346126 41.7657176,7.65347399 42.2149766,7.55220434 C42.390389,7.51268449 42.6333571,7.44396061 42.7546962,7.39964605 C43.2464311,7.22006315 45.0315795,7.15656984 45.9901146,7.28442822 C46.5940555,7.36506617 46.8460116,7.48929221 46.9963445,7.78046061 C47.0417198,7.86850854 47.1746564,8.05550141 47.2917913,8.19600034 C47.5849187,8.54761087 47.602605,8.61473652 47.6339182,9.48751525 C47.648995,9.91002905 47.672625,10.5041347 47.686397,10.8077983 C47.7000242,11.1114619 47.6859621,11.4078609 47.6549387,11.4662689 C47.6240604,11.5248222 47.5886879,11.8778857 47.5763656,12.2508545 C47.5640432,12.6239685 47.5269312,13.0204747 47.4938782,13.1320602 C47.4608252,13.243791 47.433716,13.4137845 47.433716,13.5098236 C47.433571,13.606008 47.3789177,13.7741127 47.312377,13.8835187 C47.2342387,14.0121036 47.2024905,14.1376373 47.2224962,14.2380352 C47.2712058,14.4819832 47.1650885,15.0861139 47.0214242,15.3836753 C46.9495195,15.532456 46.8792095,15.7929674 46.8651476,15.9625251 C46.8487661,16.1595431 46.8131037,16.270838 46.7659887,16.270838 C46.6646555,16.270838 46.6220345,16.4061065 46.6220345,16.7279318 C46.6220345,16.8781653 46.5805734,17.1440527 46.5299792,17.3188409 C46.4793851,17.4936291 46.3760222,17.8652902 46.3002034,18.1446898 C46.2245295,18.4240894 46.1355185,18.7036343 46.1024656,18.7656747 C46.0692677,18.827715 46.0421585,18.9289847 46.0421585,18.9907345 C46.0421585,19.0524843 45.9899696,19.1694456 45.9261833,19.2506647 C45.6871294,19.5552002 45.7791847,19.847531 46.2591771,20.3085475 C46.4479268,20.4897287 46.5327336,20.6231082 46.5578133,20.7781365 C46.5937656,20.9988375 46.6313126,21.0350156 46.9448805,21.1505241 C47.064045,21.194548 47.2030703,21.3385339 47.3655806,21.5861143 C47.4989521,21.7895253 47.7320622,22.0818561 47.8834099,22.2354315 C48.2078506,22.5648121 48.5686785,23.0361445 48.664213,23.2556831 C48.701615,23.3414064 48.7827977,23.434249 48.8446994,23.4618548 C48.9066012,23.4896059 48.9863342,23.602499 49.0218516,23.7127769 C49.0638926,23.8433958 49.1279689,23.9192391 49.2055273,23.9304267 C49.2823609,23.9413237 49.4418268,24.1271542 49.6543514,24.4534837 C49.8357076,24.731721 50.0886786,25.071708 50.2166862,25.2088652 C50.372093,25.3758076 50.4492165,25.5118024 50.4492165,25.6193197 C50.4492165,25.7307598 50.50271,25.8199701 50.6231793,25.9091804 C50.7188589,25.9800837 50.7971421,26.0626104 50.7971421,26.0926862 C50.7971421,26.1226167 50.9109428,26.3245748 51.0499681,26.5413528 C51.1889933,26.7579857 51.3346872,27.0336077 51.3735389,27.1537655 C51.4125356,27.2739233 51.4957478,27.3997475 51.5586644,27.433601 C51.7137812,27.5167089 51.8984717,27.8318507 51.8987616,28.014049 C51.8987616,28.095704 51.9371784,28.2133918 51.9840034,28.2755774 C52.0308285,28.3376178 52.0699701,28.4333663 52.0709848,28.4884325 C52.0727244,28.5780787 52.2223325,28.9532269 52.3770144,29.2555828 C52.5872195,29.6661826 52.4984985,31.1063329 52.2363944,31.539889 C52.0499643,31.848202 51.4400797,32.3635585 51.1779757,32.4340259 C51.0482285,32.4688963 50.8391831,32.5732171 50.7132051,32.6659145 C50.587372,32.7584666 50.4486366,32.8343098 50.4051459,32.8343098 C50.3615102,32.8343098 50.1831983,32.8996919 50.0089456,32.9796034 C49.8036694,33.0737536 49.5883905,33.124897 49.3980461,33.124897 C49.2362608,33.124897 49.0088044,33.1667415 48.8922493,33.2180302 C48.5131553,33.384682 48.4554577,33.4026984 47.8977619,33.5288133 C46.7890389,33.7792994 45.0022957,33.9382506 42.8238464,33.9800952 C42.0903032,33.9941887 41.2515125,34.010171 40.9598349,34.0156921 C40.3431367,34.0273156 40.2673179,34.0714849 40.0685653,34.5346809 C39.8847446,34.9628611 39.7213645,35.1668534 39.5943717,35.1264618 C39.50884,35.0991466 39.4895591,35.1258806 39.4895591,35.2713195 C39.4895591,35.374478 39.438675,35.5005929 39.3687999,35.5706244 C39.3022591,35.6373141 39.2622477,35.706038 39.2797889,35.7236185 C39.3241494,35.7680784 39.2167274,35.9568148 38.9724546,36.263239 C38.7564509,36.5340663 38.7336906,36.5708256 38.4379539,37.1230866 C38.3403898,37.3054301 38.2168761,37.5069523 38.1636725,37.5708815 C37.9733282,37.7992831 37.8079186,38.0613928 37.8076286,38.1352019 C37.8067589,38.3492194 37.2999471,38.9299579 37.179188,38.8551318 C37.1517888,38.8381324 37.099455,38.9238556 37.0630678,39.045757 C37.0266806,39.1676583 36.9249123,39.3497112 36.8370611,39.4502544 C36.4753634,39.8641959 36.3000959,40.086931 36.2980663,40.1351685 C36.2967615,40.1632101 36.2138393,40.2384722 36.1136657,40.3024014 C35.9989952,40.3754841 35.9279604,40.4713779 35.9217267,40.5607334 C35.915638,40.6511061 35.7960386,40.8096214 35.593227,40.9966143 C35.4178144,41.1581808 35.2299346,41.3631901 35.1757162,41.452255 C35.1168588,41.5490206 35.0074072,41.6280603 34.9033195,41.6488373 C34.7914033,41.6713578 34.6990581,41.7426969 34.6441148,41.8493425 C34.5971448,41.9404416 34.4874033,42.0521723 34.400132,42.0979399 C34.3130056,42.143562 34.1633976,42.2640104 34.0677181,42.3655707 C33.8512793,42.5954252 33.6742721,42.688849 33.3537456,42.7421717 C33.169635,42.7728287 33.0906269,42.8183056 33.0540947,42.91449 C32.8892649,43.3490632 30.7334307,43.3566184 30.7334307,42.9224811 C30.7334307,42.8868842 30.6029586,42.8113315 30.4434927,42.7545217 C30.2840268,42.6978571 30.1535546,42.626518 30.1535546,42.5961517 C30.1535546,42.56564 30.0774459,42.4727974 29.9845208,42.3898347 C29.8914507,42.3067268 29.7838837,42.1627408 29.7454669,42.0697529 C29.7070501,41.976765 29.6445685,41.9006311 29.6065866,41.9006311 C29.5361317,41.9006311 29.2837406,41.5949334 29.2837406,41.509646 C29.2837406,41.4837837 29.1771883,41.3334048 29.0470062,41.1754708 C28.7888164,40.862363 28.6458769,40.6166715 28.6458769,40.4859073 C28.6458769,40.4397038 28.6055756,40.3865264 28.5562861,40.3674929 C28.5069966,40.3486048 28.4276986,40.2394893 28.3800038,40.1251432 C28.332309,40.0107971 28.2177835,39.8127619 28.1255832,39.6850489 C28.0332379,39.557481 27.9395879,39.369907 27.9172627,39.2683468 C27.8731921,39.0669699 27.761131,38.8644306 27.5809345,38.660293 C27.5172932,38.5880821 27.4427791,38.3919357 27.415235,38.2244122 C27.3062183,37.5586768 27.2991148,37.5344129 27.2244558,37.5631809 C27.1609594,37.5875903 26.8482612,37.0164411 26.8482612,36.8759422 C26.8482612,36.8532764 26.7699779,36.656113 26.6742983,36.4375913 C26.5786189,36.2190698 26.5003355,35.9501313 26.5003355,35.8399987 C26.5003355,35.7276868 26.4494515,35.5746926 26.3843604,35.4918752 C26.320574,35.4105108 26.2683851,35.3143264 26.2683851,35.2778578 C26.2683851,35.241389 26.2138767,35.1016166 26.147191,34.9673653 C26.0805053,34.8329687 25.9797518,34.5654832 25.923069,34.3729691 C25.866386,34.1803098 25.7640379,33.912679 25.6956126,33.7781371 C25.6271872,33.6437404 25.5349869,33.3607085 25.4907713,33.1493064 C25.3816097,32.6272664 25.1067484,32.3485933 24.6418328,32.2884417 C24.468015,32.2659212 24.1431394,32.1854285 23.9198872,32.1094399 C23.6966349,32.0335966 23.3234846,31.9323271 23.0908094,31.8846708 C22.8579891,31.8368691 22.6361865,31.7730852 22.5979147,31.7428642 C22.5594979,31.7126431 22.353352,31.6723968 22.1396677,31.6533633 C21.731,31.6168946 21.1279289,31.4652081 21.0071697,31.3682972 C20.9680281,31.3367685 20.7592727,31.2652841 20.5432688,31.209346 C20.32741,31.153408 20.1569264,31.0787271 20.1644649,31.0434207 C20.1857753,30.9431681 19.845533,30.820395 19.3481443,30.7490559 C19.0860404,30.7114249 18.7344905,30.6100098 18.5177618,30.509612 C18.311181,30.4137182 18.1082244,30.3352597 18.0669082,30.3352597 C18.0255921,30.3352597 17.9254184,30.2829539 17.8443808,30.2190248 C17.7631981,30.1550956 17.6618648,30.1027899 17.619099,30.1027899 C17.4939907,30.1026446 16.7526191,29.7065742 15.6131627,29.0312495 C15.4096262,28.9106558 15.3667154,28.8545725 15.3667154,28.7094241 C15.3667154,28.5918816 15.3378665,28.5336189 15.279734,28.5336189 C15.2318942,28.5336189 15.1927526,28.507466 15.1927526,28.4755014 C15.1927526,28.4435369 15.1193982,28.417384 15.0298074,28.417384 C14.8126438,28.417384 14.6978283,28.3169861 14.6149061,28.0542953 C14.5769242,27.9345733 14.4567449,27.7294188 14.3474383,27.5983639 C14.0848993,27.2835126 14.0762012,26.0506963 14.3351159,25.8451059 C14.3854201,25.8051502 14.4389137,25.6470707 14.4550053,25.4902989 C14.4718217,25.3266983 14.535608,25.1431925 14.6064979,25.0544181 C14.6737635,24.9701478 14.8204721,24.7247469 14.9325332,24.5089859 C15.0728631,24.2387398 15.1697024,24.1166931 15.2439266,24.1166931 C15.3222098,24.1166931 15.3717893,24.0446275 15.4254278,23.852404 C15.4853,23.6383866 15.5361842,23.5727138 15.6939104,23.5067505 C15.8145246,23.4561883 15.8886038,23.3847039 15.8886038,23.3185953 C15.8886038,23.1911728 17.5328424,21.5014081 17.6567909,21.5014081 C17.7040507,21.5014081 17.7791447,21.413796 17.8239401,21.3065694 C17.8843922,21.1615663 17.9516578,21.1024318 18.0870589,21.075262 C18.1889721,21.0547755 18.2874061,20.9901199 18.311036,20.9282248 C18.3340861,20.8674921 18.4705019,20.7207455 18.6140213,20.6021859 C18.7575405,20.4836263 19.0914042,20.1766209 19.3558277,19.9197419 C19.6960699,19.5893441 19.8791658,19.4527681 19.981514,19.4527681 C20.0827024,19.4527681 20.1525773,19.4017701 20.2137543,19.2832106 C20.2618841,19.189932 20.3646671,19.0845942 20.4423705,19.0491425 C20.5199289,19.0136909 20.5985021,18.9369759 20.6169131,18.8785679 C20.636484,18.816818 20.7457906,18.7467865 20.8787271,18.710899 C21.0042703,18.6770456 21.1396714,18.6097747 21.1796829,18.5615372 C21.3530658,18.3521691 21.5220997,18.1887137 21.5650105,18.1887137 C21.590525,18.1887137 21.7604287,18.0579495 21.9426547,17.8981266 C22.1248808,17.7383036 22.325373,17.6075393 22.3879995,17.6075393 C22.4554102,17.6075393 22.5239805,17.5498577 22.5555837,17.4664593 C22.6308226,17.2679881 22.5305041,14.6060639 22.4436677,14.5013072 C22.2325928,14.2463169 22.2247644,9.31200053 22.4351145,9.1155636 C22.5205013,9.0359427 22.5468856,8.8813503 22.5797936,8.27111713 C22.6232843,7.46255819 22.7440435,6.89663957 22.9138021,6.70674082 C22.9728045,6.64077752 23.0210792,6.52890144 23.0210792,6.45828874 C23.0210792,5.93595821 24.2634637,5.1335016 24.963664,5.20353312 C25.1231299,5.21951541 25.483378,5.25772764 25.7641829,5.28852988 M26.0654285,9.22467914 C25.9569917,9.30502645 25.6948877,9.96393296 25.6579206,10.2487085 C25.6376249,10.4047539 25.5926846,10.5947979 25.558037,10.6712223 C25.4814933,10.8394723 25.6051519,13.7585662 25.7003966,14.0333164 C25.7337394,14.1292102 25.7772301,14.3907388 25.7972359,14.6144909 C25.8459455,15.161376 25.9500332,15.1772131 26.5739798,14.7323241 C26.8217318,14.555647 27.0873151,14.4110798 27.1641486,14.4110798 C27.2866475,14.4110798 27.4975774,14.2232153 27.5546951,14.0632469 C27.564843,14.03506 27.7688144,13.960815 28.0080133,13.8981934 C28.3527496,13.8079661 28.4391511,13.7637968 28.4246543,13.6854835 C28.3918913,13.5083707 29.0125036,13.1595207 29.4729252,13.096318 C29.6664588,13.0697292 29.7445971,13.0252694 29.8154869,12.9016245 C29.8791284,12.7903296 29.9729233,12.7290158 30.1218064,12.700974 C30.3218637,12.663343 30.6680497,12.4995971 30.8349091,12.3636023 C30.9627717,12.259572 30.9129023,12.0965526 30.7044369,11.9371655 C30.5928108,11.8518782 30.5014803,11.7484292 30.5014803,11.7074563 C30.5014803,11.6660476 30.3711531,11.6016826 30.2073382,11.562308 C29.9619056,11.5033188 29.8979743,11.4595854 29.8208508,11.297583 C29.759384,11.1682718 29.674722,11.0915567 29.5673,11.0678738 C29.4787239,11.0484045 29.2888145,10.9426308 29.1454402,10.8329341 C29.0020658,10.7232374 28.8598512,10.6334459 28.8295526,10.6334459 C28.7991092,10.6334459 28.7614173,10.5997378 28.7456156,10.5586198 C28.729814,10.5173563 28.5509222,10.3973439 28.3479657,10.2917154 C28.145009,10.186087 27.9007362,10.0269905 27.8050567,9.93821604 C27.7093771,9.84944161 27.5403433,9.75979552 27.4295869,9.73901844 C27.3186856,9.71824146 27.1229775,9.6508253 26.9946799,9.58922074 C26.8662374,9.52747099 26.6879255,9.44959366 26.5983346,9.41603081 C26.5087438,9.38246796 26.451481,9.3288546 26.4713418,9.29689006 C26.4910575,9.26478016 26.4555401,9.23862731 26.3924786,9.23862731 C26.3294171,9.23862731 26.2431605,9.22584144 26.2006846,9.21014977 C26.1582087,9.19460333 26.0973217,9.20114154 26.0654285,9.22467914 M43.6646667,10.4633072 C43.457361,10.48452 43.1050863,10.5689356 42.881834,10.6508812 C42.6585818,10.7329721 42.3490729,10.8102683 42.194101,10.8226183 C41.997958,10.8383099 41.8832875,10.8814621 41.8171816,10.9644248 C41.7648478,11.0300975 41.6469879,11.101582 41.5550776,11.1232307 C41.4631672,11.1448794 41.1468449,11.2657638 40.8521229,11.3920239 C40.5574008,11.5181388 40.2502115,11.6214425 40.1693188,11.6214425 C40.0527637,11.6214425 40.0284089,11.6446895 40.051459,11.7333186 C40.0891509,11.8777405 39.8476326,12.0074877 39.4401247,12.0616821 C39.2752949,12.0836215 39.0298624,12.1710883 38.8946063,12.256085 C38.7593502,12.3410817 38.5313139,12.4452573 38.3879396,12.487683 C38.2444202,12.5299634 38.0429133,12.6386431 37.9401303,12.729161 C37.7531203,12.8936334 37.4318689,13.0153895 37.1826673,13.0159706 C37.1100377,13.0161159 37.0345088,13.0581057 37.0149381,13.1091038 C36.9953672,13.1601019 36.8721435,13.2527992 36.7412365,13.3148396 C36.6103295,13.3770253 36.2564602,13.5576252 35.9550696,13.7159952 C35.6535341,13.8745105 35.3476494,14.0042577 35.2754549,14.0042577 C35.1889084,14.0042577 35.1544058,14.0309917 35.1742665,14.0828616 C35.2064496,14.1669866 34.9681205,14.3529625 34.8283705,14.3529625 C34.7819803,14.3529625 34.5265449,14.4607703 34.2608167,14.5924062 C33.9952335,14.7241876 33.6865945,14.8745665 33.5749684,14.9265816 C33.4634872,14.978742 33.2151552,15.1158991 33.0232163,15.2316982 C32.8311324,15.3473519 32.5923684,15.4599544 32.4926297,15.4818938 C32.3927461,15.5039784 32.2651733,15.5727023 32.2090703,15.6348879 C32.1531123,15.6969283 32.070335,15.7477811 32.0252496,15.7477811 C31.9803092,15.7477811 31.8604199,15.810112 31.7587965,15.8863912 C31.4787164,16.0969216 31.0848356,16.2817351 30.7630044,16.3538007 C30.549465,16.4016024 30.4679924,16.4486775 30.4523358,16.5336743 C30.4166735,16.7258977 30.3246181,16.7963651 29.749671,17.0708247 C28.9229128,17.4654421 27.3453599,18.4251065 27.2912865,18.5663319 C27.2760647,18.6058517 27.1074658,18.685182 26.9163966,18.7424277 C26.7016975,18.806938 26.5791987,18.873192 26.5955802,18.9159083 C26.6108019,18.9555734 26.442058,19.0795089 26.1988,19.2073673 C25.9659798,19.3297045 25.7063403,19.503621 25.6218233,19.5938483 C25.5265787,19.6954085 25.408284,19.7578848 25.3111547,19.7578848 C25.2147503,19.7578848 25.1122572,19.8114981 25.0451366,19.8969307 C24.9851194,19.9735005 24.8265234,20.0932225 24.6927169,20.1631087 C24.5589105,20.2329949 24.3144927,20.405749 24.1493731,20.5471197 C23.9843984,20.6883451 23.8273969,20.8039987 23.8004327,20.8039987 C23.7734685,20.8039987 23.6719901,20.880859 23.5747159,20.9750093 C23.4535218,21.0922613 23.3069582,21.1611304 23.1080606,21.1942574 C22.8624832,21.2350849 22.8047855,21.270246 22.7311413,21.4233854 C22.6833015,21.5229116 22.5136877,21.7020586 22.3542218,21.8216352 C22.1947559,21.9412118 21.9990477,22.098129 21.9193147,22.1706305 C21.8395818,22.2429867 21.669968,22.3567516 21.5423954,22.423296 C21.4148226,22.4898405 21.1550381,22.6887475 20.9649837,22.8655698 C20.7501397,23.0653485 20.5680586,23.186814 20.4835416,23.186814 C20.3853976,23.186814 20.3311792,23.2340344 20.2884133,23.3569528 C20.2508664,23.464906 20.1672192,23.5487404 20.0595072,23.5863714 C19.9661472,23.6190625 19.8897486,23.6853164 19.8897486,23.7338444 C19.8897486,23.7822272 19.7918945,23.8884368 19.6722951,23.9696559 C19.3768482,24.1704518 18.526315,25.0186758 18.315675,25.3226301 C18.2114423,25.473009 18.0993812,25.5696292 18.0290713,25.5696292 C17.9215042,25.5696292 17.9148357,25.6034826 17.9303474,26.0719092 L17.9471638,26.5740439 L18.208108,26.6423319 C18.3516274,26.6798177 18.5611075,26.7741133 18.6734586,26.8519906 C18.9671658,27.0554017 19.7933441,27.37127 20.0312383,27.37127 C20.069945,27.37127 20.1573613,27.4309857 20.2257867,27.5037778 C20.3174072,27.6015603 20.4238144,27.6396273 20.6314101,27.6486355 C20.7862369,27.6554643 21.0674768,27.7151799 21.2566614,27.7814339 C21.445701,27.8476878 21.7178078,27.9287615 21.8613271,27.9615979 C22.0048465,27.9945796 22.1483658,28.0542953 22.180259,28.0943963 C22.2585423,28.1930507 22.5200664,28.2396899 23.3110172,28.2962091 C23.6777889,28.322362 24.056158,28.3752489 24.1518375,28.4137517 C24.388427,28.5090642 24.8101419,28.5854887 25.3049211,28.6228291 C25.5317976,28.6399738 25.8923355,28.7060824 26.1060198,28.769721 C26.3197042,28.8333596 26.7054667,28.9017929 26.9633665,28.9216982 C27.2211215,28.9416034 27.4437939,28.977055 27.4581459,29.000302 C27.4724977,29.0235489 27.5996356,29.0296513 27.7405455,29.0136689 C28.3027353,28.9501757 28.5625197,29.2345153 28.7093734,30.0737312 C28.8699991,30.992568 29.090062,31.9734451 29.1853067,32.1950179 C29.2332914,32.3068939 29.2915689,32.5291932 29.3144741,32.6890162 C29.3375241,32.8488391 29.3811598,33.0108415 29.4116033,33.0490537 C29.4419018,33.0874113 29.5022089,33.2574047 29.5455546,33.4268171 C29.5887554,33.5963748 29.6773315,33.8789709 29.7419876,34.0547761 C29.8067888,34.2305814 29.8607172,34.4819393 29.8617321,34.6132847 C29.8657912,35.1300941 29.9287078,35.3760763 30.0736768,35.4421848 C30.1494956,35.47691 30.2115423,35.5417109 30.2115423,35.5864614 C30.2115423,35.6310665 30.2730091,35.8081794 30.348248,35.9799165 C30.423487,36.1517988 30.5024951,36.3838327 30.5236606,36.4957088 C30.544971,36.6075849 30.6531179,36.8417982 30.7638742,37.0160052 C30.9130473,37.2507997 30.9653812,37.3974009 30.9653812,37.5811974 C30.9653812,37.798266 30.9872715,37.8406918 31.139344,37.9195862 C31.2350236,37.9691313 31.3133068,38.0430857 31.3133068,38.083768 C31.3133068,38.3791499 31.9737856,39.02745 32.3333088,39.0849862 C32.8012687,39.1598125 33.7208072,38.4209944 33.9417399,37.7925996 C34.0456827,37.4966364 34.273864,37.2662008 34.4301405,37.2991824 C34.4700071,37.3076095 34.5026251,37.2775337 34.5026251,37.2324927 C34.5026251,37.0857461 34.8975206,36.3552099 35.1138144,36.1019631 C35.2299346,35.9659683 35.3440252,35.7831889 35.3672203,35.6957222 C35.3904153,35.6082554 35.4729027,35.5048063 35.5504611,35.4658677 C35.6280195,35.426929 35.6918059,35.361111 35.6923858,35.3197023 C35.6945603,35.172084 36.7257248,33.1830144 36.800094,33.1830144 C36.9137497,33.1830144 36.9960921,32.9878851 36.9960921,32.7190919 C36.9960921,32.5390732 37.0317545,32.446957 37.1404812,32.3459779 C37.2199242,32.2721688 37.3503963,32.0376649 37.4302743,31.8246644 C37.5102972,31.6118093 37.6409143,31.3340079 37.7207922,31.2073119 C37.8006701,31.0806159 37.8659061,30.9453475 37.8659061,30.9068447 C37.8659061,30.8683419 37.9224441,30.7763711 37.9915943,30.7025619 C38.0607445,30.6288981 38.1272853,30.4709639 38.1396077,30.3518231 C38.151785,30.2325371 38.2218051,30.0558601 38.2951595,29.9590945 C38.4804298,29.7147106 38.6246739,29.4226705 38.7120903,29.1147933 C38.8776449,28.5312942 38.9505643,28.3893423 39.1268467,28.3084138 C39.2861676,28.2351859 39.3035638,28.1984266 39.3324127,27.8725329 C39.3572024,27.594441 39.4346159,27.3767912 39.686427,26.8772717 C39.8637242,26.5256612 40.0094179,26.1823324 40.0101429,26.1143349 C40.0108677,26.0463376 40.0505892,25.9581443 40.098429,25.9183339 C40.1462688,25.8785234 40.1865701,25.7641773 40.1880198,25.6642153 C40.1909192,25.448745 40.3151577,25.0785368 40.430408,24.941089 C40.5115907,24.8443235 40.9392493,23.7251268 40.9392493,23.6094731 C40.9392493,23.5766367 40.9752015,23.5198269 41.0191271,23.4833583 C41.0630528,23.4467442 41.1110375,23.2800925 41.1256794,23.1130048 C41.1609069,22.7108321 41.4965101,21.9031449 41.6101658,21.9468783 C41.6719226,21.9705612 41.6932331,21.9288619 41.693668,21.7837136 C41.6951177,21.3729685 41.7635431,21.144567 41.904453,21.0802019 C42.0127448,21.0306567 42.0410138,20.9723941 42.0410138,20.7984776 C42.0410138,20.6778839 42.1480009,20.2963429 42.278763,19.9506894 C42.40967,19.6048906 42.5475355,19.2173925 42.5852274,19.0895341 C42.6230643,18.9616758 42.6985932,18.7733753 42.7533915,18.6710885 C42.8080448,18.5688018 42.8528402,18.4306276 42.8528402,18.3640832 C42.8528402,18.2975387 42.9288039,18.0412407 43.0217291,17.7945322 C43.1146543,17.5478237 43.2367181,17.136788 43.2929661,16.8810712 C43.3492141,16.6253545 43.43837,16.3638259 43.4909938,16.2998968 C43.5436176,16.2359676 43.5913123,16.092127 43.5969661,15.9802509 C43.6219008,15.4913378 43.8531264,14.862943 43.9891074,14.9152487 C44.0339028,14.9323933 44.0724645,14.9110351 44.0746391,14.8677377 C44.0782633,14.7998856 44.1124759,14.4999995 44.2103301,13.6802529 C44.2220726,13.5820346 44.2990511,13.2007841 44.3813935,12.8329007 C44.6062404,11.82805 44.5859448,11.1055049 44.3260153,10.8608305 C44.2493267,10.7884742 44.1865551,10.6996999 44.1865551,10.6635218 C44.1865551,10.4789988 44.0446305,10.424659 43.6646667,10.4633072 M44.2800601,23.8115765 C44.2628088,23.8994792 44.2304807,24.0757203 44.2084454,24.2031428 C44.1865551,24.3305653 44.1075471,24.565941 44.0331779,24.7261998 C43.9586638,24.8864586 43.8974869,25.071708 43.897197,25.1379619 C43.8963272,25.3063572 43.7225094,25.8127055 43.6276996,25.922838 C43.5842089,25.9734002 43.5486915,26.0780116 43.5486915,26.1555983 C43.5486915,26.2330398 43.4593905,26.481056 43.3502289,26.7065518 C43.2410672,26.9320474 43.0540572,27.3766458 42.9346027,27.694403 C42.8151482,28.0121601 42.6826466,28.3133537 42.6401706,28.3637707 C42.5976947,28.4143328 42.5629022,28.5222859 42.5629022,28.6037957 C42.5629022,28.793985 42.4369241,29.0902387 42.2480295,29.3440667 C42.166122,29.4540539 42.0990013,29.5774082 42.0990013,29.6180904 C42.0990013,29.6586273 42.0515965,29.717326 41.9937538,29.7482735 C41.8006551,29.8518678 41.6765617,30.8171986 41.847915,30.8831619 C41.9722984,30.9309634 43.8610997,30.8128398 44.1285675,30.7404835 C44.2401937,30.7102625 44.8664598,30.6655121 45.5202701,30.6411027 C46.5046096,30.6044887 46.709016,30.5821135 46.709016,30.5117915 C46.709016,30.4597763 46.7991867,30.4070347 46.9409664,30.3760872 C47.0685391,30.3481908 47.4827156,30.2491005 47.8612296,30.1559673 C48.2398887,30.0628342 48.6207223,29.986555 48.7077037,29.986555 C48.907616,29.986555 49.0962207,29.6246286 49.0317095,29.3649889 C49.0095292,29.2753428 48.9627042,29.0383689 48.9277667,28.8384449 C48.8661548,28.4852361 48.8580366,28.4730314 48.6479765,28.4163669 C48.4353069,28.358976 48.3616627,28.2717998 48.3616627,28.0773969 C48.3616627,28.023493 48.2638086,27.8564053 48.1442091,27.7060264 C48.0246097,27.5556475 47.822378,27.2827862 47.6948053,27.0998615 C47.5672325,26.9169369 47.3389063,26.645819 47.1874137,26.4976196 C47.0359211,26.3494201 46.9119725,26.1832041 46.9119725,26.1282832 C46.9119725,26.069294 46.839633,26.0033307 46.7352554,25.9667166 C46.6066678,25.921821 46.5491151,25.8577464 46.5238905,25.731341 C46.5002605,25.6133626 46.4406783,25.5407158 46.3381853,25.5046829 C46.2551179,25.4754789 46.1260956,25.3618593 46.0514365,25.252308 C45.9767775,25.1427566 45.8535538,25.0122829 45.77759,24.9623019 C45.7016262,24.9124662 45.5375213,24.7333192 45.412993,24.5643427 C45.2709233,24.3716834 45.099425,24.2175269 44.9531512,24.1515636 C44.8086172,24.0861814 44.6797397,23.9712542 44.6140688,23.848917 C44.4843215,23.6075843 44.3239857,23.5895679 44.2800601,23.8115765 M20.9171439,33.2556613 C21.0834234,33.3435639 21.2556466,33.4154842 21.2997172,33.4154842 C21.3436428,33.4154842 21.6083562,33.5593249 21.8877115,33.7351302 C22.1670668,33.9109354 22.4167035,34.0547761 22.4423629,34.0547761 C22.4678775,34.0547761 22.5521045,34.1300382 22.629373,34.2221544 C22.7066414,34.3142705 22.8265308,34.407549 22.895826,34.4296336 C23.1832996,34.5210233 23.6009553,35.0323115 23.6009553,35.2926777 C23.6009553,35.3367016 23.6596678,35.3999044 23.7314274,35.4330313 C23.9124937,35.5165752 24.3975601,36.4692653 24.5683335,37.0768833 C24.7956449,37.8855875 24.8031833,40.2264129 24.5789162,40.3654589 C24.523828,40.3994575 24.4077079,40.6495079 24.2375142,41.1003539 C24.0216553,41.6717937 23.2338937,42.6833278 22.9558432,42.7459494 C22.7523067,42.7917169 22.7009877,42.8310914 22.6647454,42.9697015 C22.6106719,43.1760184 22.3684288,43.437547 22.0808102,43.5998399 C21.9623705,43.666675 21.7847835,43.8218485 21.6863495,43.9447669 C21.5877706,44.0676853 21.3682875,44.2709511 21.1985288,44.3966301 C21.0032555,44.5413425 20.8748131,44.6850379 20.8491535,44.7879057 C20.8016037,44.9775139 20.7263647,45.0367938 20.5321062,45.0381014 C20.3627824,45.0391185 20.1796865,45.1928391 20.1796865,45.3337738 C20.1796865,45.5002803 20.1151754,45.6201476 20.0255845,45.6201476 C19.8620595,45.6201476 19.6061892,45.7966793 19.2065096,46.1851944 C18.5953203,46.7794453 18.142437,47.1583711 18.0424085,47.1593881 C17.993119,47.159824 17.9373059,47.225642 17.9186049,47.3055534 C17.8951199,47.4056608 17.8227804,47.4710429 17.6863645,47.5157933 C17.5541528,47.5590909 17.4713755,47.6320283 17.4370178,47.7351867 C17.4072992,47.8246875 17.2962529,47.9362731 17.1734642,48.0002022 C17.0567641,48.060935 16.7198561,48.3478899 16.4245543,48.6378959 C15.9980554,49.0569226 15.8532313,49.1653117 15.7198599,49.1653117 C15.584024,49.1653117 15.5399533,49.1998915 15.4887793,49.347074 C15.4086114,49.5775097 15.1641936,49.8072188 14.9028145,49.8975915 C14.7911884,49.9362396 14.6607163,50.0354752 14.6128765,50.1180019 C14.5082088,50.2984566 13.3703471,51.3156572 13.2729279,51.3156572 C13.235236,51.3156572 13.1494143,51.3689799 13.0822937,51.4340714 C12.5183642,51.9808113 12.2424882,52.208777 12.0518539,52.2852014 C11.9225416,52.3370712 11.8286017,52.4143674 11.8275868,52.4697243 C11.8236727,52.6588966 11.1350699,53.2335328 10.9123975,53.2335328 C10.8546998,53.2335328 10.7519168,53.3087949 10.6840713,53.4007658 C10.6162258,53.4927366 10.4874933,53.5818016 10.3977575,53.5986556 C10.3081666,53.6155097 10.0575152,53.6971648 9.84078653,53.7801274 C9.18567156,54.0309041 7.75990132,53.9864443 7.17118216,53.6971648 C6.65320788,53.442465 6.30673193,53.2357123 6.18220356,53.1066915 C6.11073383,53.0325917 6.00621117,52.9458515 5.95010816,52.9138869 C5.89400516,52.8819223 5.82978388,52.7667045 5.80760363,52.6578795 C5.78542337,52.5490546 5.72221687,52.437905 5.66698368,52.4108804 C5.61189546,52.3838558 5.52114486,52.3396866 5.46533179,52.312662 C5.40951872,52.285492 5.33645433,52.1612659 5.30296649,52.0366041 C5.22961217,51.7630162 5.04013767,51.3737746 4.98026547,51.3737746 C4.89458878,51.3737746 4.80180861,50.7078939 4.8313823,50.3044136 C4.89893785,49.3832521 5.04521159,48.8068724 5.36950727,48.1834175 C5.47808906,47.9747759 5.5668101,47.7588696 5.5668101,47.7033673 C5.5668101,47.6480105 5.64509336,47.5563303 5.74077291,47.4996657 C5.87718875,47.4188825 5.91473573,47.3561156 5.91473573,47.2080614 C5.91473573,47.0188892 6.0692727,46.8148969 6.25845725,46.7547454 C6.30861654,46.7387631 6.51548732,46.4654658 6.71815399,46.1474181 C6.92067571,45.8293704 7.13885407,45.5217838 7.2027854,45.463957 C7.2668617,45.4059848 7.40661184,45.1848479 7.513454,44.9724287 C7.7010439,44.5993147 7.9377783,44.3415638 8.09260521,44.3415638 C8.13363144,44.3415638 8.19915743,44.2434906 8.23815409,44.1236234 C8.27715076,44.0037561 8.37181553,43.8272244 8.44850413,43.7313306 C8.85253277,43.2264354 9.08709264,42.9069347 9.12087042,42.815545 C9.14174595,42.7593163 9.22495818,42.6830372 9.30570588,42.6461327 C9.38659866,42.6092281 9.44951513,42.5506748 9.44545605,42.5159495 C9.42414556,42.3299737 9.47300016,42.2417805 9.67929106,42.0932905 C9.82397012,41.9892603 9.97444799,41.7974727 10.0927427,41.5664558 C10.2696048,41.2210929 10.3152701,41.1776501 10.4790851,41.1984272 C10.5182267,41.2033671 10.5905663,41.0583641 10.6424652,40.8710806 C10.6937842,40.6861218 10.7451032,40.5049407 10.7565558,40.4683267 C10.7680083,40.4315674 10.8844185,40.3542712 11.0151805,40.2965897 C11.1459426,40.2387628 11.2419121,40.1627743 11.2285749,40.1277585 C11.1917527,40.0317194 11.3141066,39.8416754 11.527211,39.6634001 C11.6320236,39.5756428 11.7537976,39.417418 11.7978682,39.3117895 C11.8419388,39.2061611 11.9779197,38.9882207 12.1001286,38.8276713 C12.2223375,38.6671218 12.4200752,38.3923716 12.5393847,38.2171475 C12.6759455,38.0167876 12.804968,37.8918351 12.8873104,37.8800663 C12.9851644,37.8661182 13.0224215,37.8174448 13.0350338,37.6871165 C13.0644624,37.3833075 13.1636213,37.2144763 13.3712169,37.1152408 C13.4819732,37.0622086 13.5891053,36.9731436 13.609256,36.9172056 C13.6292617,36.8611222 13.7524854,36.6662835 13.8828125,36.4839401 C14.6069328,35.47197 14.6475241,35.4102202 14.7632093,35.1437517 C14.8597587,34.9211619 15.1135995,34.694068 15.2658169,34.694068 C15.3120621,34.694068 15.3741088,34.6093618 15.4038274,34.5059127 C15.4334011,34.4024638 15.5170482,34.2881177 15.5898227,34.2516489 C15.6625971,34.2153256 15.7929243,34.1176883 15.8794708,34.034435 C15.9660173,33.9513271 16.1275128,33.8523821 16.2381241,33.8144605 C16.3488805,33.7765388 16.6090998,33.6366211 16.8164055,33.5033869 C17.3351046,33.169938 17.3348147,33.1700834 17.5361766,33.1193759 C17.6346106,33.0946759 18.367574,33.0791295 19.1649035,33.0850866 L20.6145937,33.0958383 L20.9171439,33.2556613 M18.5647318,36.9321708 C18.3941032,37.0117917 18.1917265,37.0768833 18.1148929,37.0768833 C18.0063112,37.0768833 17.9547021,37.1281719 17.8832324,37.3071736 C17.8327832,37.4338697 17.7429024,37.5528651 17.6837551,37.571608 C17.6246078,37.5904962 17.5596617,37.6579123 17.5395109,37.721551 C17.5195052,37.7850443 17.4000507,37.8783228 17.2742176,37.9287397 C17.0882224,38.0034206 17.0582138,38.0358211 17.113157,38.1022202 C17.1504141,38.147116 17.1638962,38.2008747 17.1433106,38.2216516 C17.12258,38.2422833 17.0209567,38.3617146 16.9175938,38.487103 C16.814086,38.6123461 16.598952,38.8526617 16.439486,39.0210571 C16.2800202,39.1895976 16.0518389,39.4610061 15.9325294,39.6243161 C15.7865456,39.8240949 15.686807,39.910254 15.6280945,39.8877335 C15.5444473,39.8554783 15.5111045,39.9487568 15.5366191,40.1437408 C15.5419829,40.1842777 15.4668889,40.2627363 15.3699047,40.3180931 C15.2729204,40.3733047 15.1933325,40.4506009 15.1931875,40.4898302 C15.1928976,40.5289142 15.04126,40.7381369 14.8559895,40.9547697 C14.6708641,41.1712572 14.3020629,41.6361968 14.0366247,41.9878073 C13.6759418,42.4653874 13.49705,42.652235 13.3294658,42.7264801 C13.1317281,42.8139468 13.1051988,42.8493984 13.1051988,43.0256395 C13.1051988,43.1934537 13.0547496,43.271767 12.7925006,43.5120826 C12.6205674,43.6695809 12.4276136,43.9010335 12.3638272,44.026422 C12.2998959,44.1518104 12.1895745,44.3066934 12.1186846,44.3706225 C12.0476498,44.4345517 11.9057252,44.6176217 11.8030871,44.7774447 C11.700594,44.9372676 11.5749059,45.1024664 11.5238767,45.1447469 C11.4728477,45.186882 11.415005,45.2943993 11.3954342,45.3834643 C11.3538281,45.573363 11.1139044,45.819781 10.8871729,45.9056495 C10.7994666,45.9387765 10.727707,46.0056115 10.727707,46.0541396 C10.727707,46.168631 10.2948295,46.7656424 9.69842701,47.4736582 C9.5947741,47.5967219 9.50996724,47.7266144 9.50996724,47.7623566 C9.50996724,47.7980988 9.38601875,47.9692547 9.23452616,48.1425899 C9.0830335,48.3159252 8.8870354,48.5653944 8.79903921,48.6970304 C8.71089804,48.8285211 8.57984606,48.9587042 8.50779646,48.9861647 C8.28599387,49.0705803 8.14812833,49.7910912 8.2709171,50.2236304 L8.36413216,50.5524298 L8.72684464,50.5912233 C9.16073689,50.6378624 9.22321855,50.6098208 9.72002731,50.1466248 C9.9313922,49.9496066 10.1397126,49.8046036 10.2114723,49.8046036 C10.3113559,49.8046036 10.3226635,49.7886213 10.26888,49.7235297 C10.189727,49.6279266 10.3349859,49.442532 10.4540054,49.4877182 C10.4928571,49.5025382 10.5753446,49.4387543 10.6371013,49.346057 C10.6988581,49.2533596 10.816283,49.1378512 10.8980455,49.0894685 C10.979808,49.0410857 11.1518863,48.9010226 11.2803289,48.7782495 C12.4406608,47.6703857 12.7276994,47.4217884 12.8462841,47.4217884 C12.9477624,47.4217884 12.9842946,47.3792173 13.0127086,47.2276761 C13.0514153,47.0204874 13.1850767,46.8783903 13.511112,46.6974997 C13.7317548,46.5750172 14.7532065,45.5724913 14.9171665,45.3173557 C14.9803729,45.2189919 15.1056261,45.1361746 15.2505952,45.0970906 C15.4348508,45.0474001 15.4826906,45.0072991 15.4826906,44.9025425 C15.4826906,44.7287712 15.559959,44.644501 15.9725408,44.3687337 C16.1621603,44.2418924 16.4657254,43.9877738 16.6470817,43.8039774 C16.8284379,43.6201811 17.0025457,43.4698022 17.033859,43.4698022 C17.0653173,43.4698022 17.1599821,43.3651908 17.244499,43.2373324 C17.3629386,43.0578947 17.4349883,43.0048626 17.5605315,43.0048626 C17.6883941,43.0048626 17.7410178,42.964471 17.8062539,42.8159809 C17.8596025,42.6945154 17.9373059,42.6202704 18.0241423,42.6079204 C18.1134433,42.5952799 18.1482358,42.5607 18.1270703,42.5054885 C18.0916979,42.4130817 18.8736608,41.6020527 19.1286613,41.4664939 C19.2689913,41.3919582 19.5029713,41.1475743 19.7647853,40.8019208 C19.8229179,40.7250605 19.9335292,40.6579349 20.0106527,40.6527043 C20.1140156,40.6457302 20.1651897,40.5950228 20.2060709,40.4587373 C20.2498516,40.3128625 20.3014606,40.2666592 20.4525183,40.2381816 C20.6014014,40.2102853 20.6435874,40.1733807 20.6435874,40.0715299 C20.6435874,39.9996095 20.7182465,39.773678 20.809432,39.5693951 C21.0460214,39.0399452 21.0625479,38.9242915 20.9633891,38.4953847 C20.9146795,38.2849996 20.8874253,38.0926309 20.9027921,38.0676404 C20.9181588,38.0426499 20.879162,37.9755242 20.8162456,37.9182786 C20.753184,37.8611781 20.7015751,37.7776343 20.7015751,37.7328839 C20.7015751,37.6879882 20.603721,37.5456004 20.4841216,37.4162891 C20.3645221,37.2871231 20.2210028,37.1316589 20.1651897,37.0710715 C20.1093766,37.0103388 19.9919517,36.9597766 19.9042455,36.9586143 C19.8165393,36.9574519 19.6795435,36.9190944 19.5998106,36.8734722 C19.3698897,36.7416909 18.9180213,36.7674079 18.5647318,36.9321708" id="path1"></path>
        </g>
    </g>
</svg>