<?xml version="1.0" encoding="UTF-8"?>
<svg width="56px" height="66px" viewBox="0 0 56 66" version="1.1" xmlns="http://www.w3.org/2000/svg" xmlns:xlink="http://www.w3.org/1999/xlink">
    <!-- Generator: Sketch 52.6 (67491) - http://www.bohemiancoding.com/sketch -->
    <title>logo-heetch-bw</title>
    <desc>Created with Sketch.</desc>
    <defs>
        <linearGradient x1="0%" y1="79.269929%" x2="82.3796028%" y2="11.0810683%" id="linearGradient-1">
            <stop stop-color="#000000" stop-opacity="0" offset="0%"></stop>
            <stop stop-color="#000000" stop-opacity="0.866196784" offset="100%"></stop>
        </linearGradient>
        <linearGradient x1="0%" y1="76.0428201%" x2="93.0357656%" y2="51.2711312%" id="linearGradient-2">
            <stop stop-color="#000000" stop-opacity="0" offset="0%"></stop>
            <stop stop-color="#000000" stop-opacity="0.847373188" offset="100%"></stop>
        </linearGradient>
    </defs>
    <g id="Page-1" stroke="none" stroke-width="1" fill="none" fill-rule="evenodd">
        <g id="logo-heetch-bw">
            <g id="Glyph" transform="translate(27.783465, 33.342857) rotate(90.000000) translate(-27.783465, -33.342857) translate(-5.216535, 5.842857)">
                <g id="Group">
                    <path d="M27.1031143,0 C12.2407714,0 0.1926,12.1746614 0.1926,27.1927795 C0.1926,42.2111575 12.2407714,54.3858189 27.1031143,54.3858189 C41.9652,54.3858189 54.0133714,42.2111575 54.0133714,27.1927795 C54.0133714,12.1746614 41.9652,0 27.1031143,0 Z" id="Circle-Big" fill="url(#linearGradient-1)"></path>
                    <path d="M27.1031143,0 C12.2407714,0 0.1926,12.1746614 0.1926,27.1927795 C0.1926,42.2111575 12.2407714,54.3858189 27.1031143,54.3858189 C41.9652,54.3858189 54.0133714,42.2111575 54.0133714,27.1927795 C54.0133714,12.1746614 41.9652,0 27.1031143,0 Z" id="Circle-Big-Copy" fill="url(#linearGradient-2)" opacity="0.7"></path>
                    <path d="M57.6843943,27.1928835 C57.6843943,25.066852 59.3900229,23.3433165 61.4939657,23.3433165 C63.5979086,23.3433165 65.3035371,25.066852 65.3035371,27.1928835 C65.3035371,29.318915 63.5979086,31.0424504 61.4939657,31.0424504 C59.3900229,31.0424504 57.6843943,29.318915 57.6843943,27.1928835" id="Circle-Small" fill="#000000"></path>
                </g>
            </g>
        </g>
    </g>
</svg>