<svg width="320" height="80" viewBox="0 0 320 80" fill="none" xmlns="http://www.w3.org/2000/svg">
<g id="500startups-long-color">
<g id="Group 462">
<g id="Group">
<path id="Vector" d="M141 10.1129H140.901V10H81.0706V10.1129H81V69.9153H81.0847V70H140.915V69.9153H141V10.1129ZM137.176 66.1759H84.8241V13.8241H137.176V66.1759Z" fill="black"/>
<g id="Group_2">
<path id="Vector_2" d="M91.7666 40.2963L92.2746 32.5353H103.07V35.2869H95.1956L94.9416 38.4901L95.111 38.5183C95.9435 37.7846 96.4092 37.6576 97.8203 37.6576H99.7676C101.193 37.6576 101.941 37.8975 102.519 38.476C103.267 39.2239 103.549 40.3951 103.549 42.3565C103.549 44.953 103.253 45.8561 102.505 46.6463C101.997 47.1825 101.207 47.4788 99.8805 47.4788H95.3085C93.9397 47.4788 93.0084 47.2389 92.4863 46.7592C91.809 46.0536 91.4985 45.08 91.4985 42.6811L94.8428 42.6529C94.8711 43.8664 95.0404 44.3321 95.2097 44.4873C95.3791 44.6707 95.6754 44.7413 96.3668 44.7413H98.6951C99.2737 44.7413 99.5418 44.6566 99.7111 44.5014C99.9087 44.3039 100.078 43.8664 100.078 42.54C100.078 41.2135 99.9087 40.7902 99.7111 40.5927C99.5418 40.4374 99.2878 40.3528 98.6951 40.3528H97.1994C96.1975 40.3528 95.5766 40.5644 94.6594 41.143L91.7666 40.2963Z" fill="black"/>
<path id="Vector_3" d="M112.397 32.5353C114.048 32.5353 114.824 32.7328 115.473 33.3255C116.348 34.1157 117.068 35.6679 117.068 40C117.068 44.3039 116.348 45.8702 115.473 46.6745C114.838 47.2531 114.048 47.4647 112.397 47.4647H108.926C107.275 47.4647 106.513 47.2531 105.878 46.6745C104.989 45.8702 104.283 44.3039 104.283 40C104.283 35.6679 104.989 34.1157 105.878 33.3255C106.513 32.7328 107.289 32.5353 108.926 32.5353H112.397ZM109.688 35.2869C108.897 35.2869 108.643 35.3716 108.474 35.5268C108.234 35.7385 107.895 36.317 107.895 40.0141C107.895 43.7112 108.234 44.2756 108.474 44.4732C108.643 44.6425 108.897 44.7131 109.688 44.7131H111.635C112.439 44.7131 112.679 44.6425 112.877 44.4732C113.117 44.2756 113.455 43.7112 113.455 40.0141C113.455 36.317 113.117 35.7526 112.877 35.5268C112.679 35.3716 112.453 35.2869 111.635 35.2869H109.688Z" fill="black"/>
<path id="Vector_4" d="M125.816 32.5353C127.467 32.5353 128.244 32.7328 128.893 33.3255C129.768 34.1157 130.487 35.6679 130.487 40C130.487 44.3039 129.768 45.8702 128.893 46.6745C128.258 47.2531 127.467 47.4647 125.816 47.4647H122.345C120.694 47.4647 119.932 47.2531 119.297 46.6745C118.408 45.8702 117.703 44.3039 117.703 40C117.703 35.6679 118.408 34.1157 119.297 33.3255C119.932 32.7328 120.708 32.5353 122.345 32.5353H125.816ZM123.107 35.2869C122.317 35.2869 122.063 35.3716 121.894 35.5268C121.654 35.7385 121.315 36.317 121.315 40.0141C121.315 43.7112 121.654 44.2756 121.894 44.4732C122.063 44.6425 122.317 44.7131 123.107 44.7131H125.054C125.859 44.7131 126.099 44.6425 126.282 44.4732C126.522 44.2756 126.861 43.7112 126.861 40.0141C126.861 36.317 126.522 35.7526 126.282 35.5268C126.099 35.3716 125.859 35.2869 125.054 35.2869H123.107Z" fill="black"/>
</g>
</g>
<g id="Startups">
<path d="M149.795 42.876L152.889 42.5752C153.075 43.6136 153.451 44.3763 154.017 44.8633C154.59 45.3503 155.359 45.5938 156.326 45.5938C157.35 45.5938 158.12 45.3789 158.636 44.9492C159.159 44.5124 159.42 44.0039 159.42 43.4238C159.42 43.0514 159.309 42.7363 159.087 42.4785C158.872 42.2135 158.493 41.9844 157.948 41.791C157.576 41.6621 156.727 41.4329 155.402 41.1035C153.698 40.681 152.502 40.1618 151.814 39.5459C150.848 38.6794 150.364 37.623 150.364 36.377C150.364 35.5749 150.59 34.8265 151.041 34.1318C151.499 33.43 152.155 32.8965 153.007 32.5312C153.866 32.166 154.901 31.9834 156.111 31.9834C158.088 31.9834 159.574 32.4167 160.569 33.2832C161.572 34.1497 162.098 35.3063 162.148 36.7529L158.969 36.8926C158.833 36.0833 158.539 35.5033 158.088 35.1523C157.644 34.7943 156.974 34.6152 156.079 34.6152C155.155 34.6152 154.432 34.805 153.909 35.1846C153.573 35.4281 153.404 35.7539 153.404 36.1621C153.404 36.5345 153.562 36.8532 153.877 37.1182C154.278 37.4548 155.252 37.8057 156.799 38.1709C158.346 38.5361 159.488 38.9157 160.226 39.3096C160.97 39.6963 161.55 40.2298 161.966 40.9102C162.388 41.5833 162.6 42.4176 162.6 43.4131C162.6 44.3154 162.349 45.1605 161.848 45.9482C161.346 46.736 160.637 47.3232 159.721 47.71C158.804 48.0895 157.662 48.2793 156.294 48.2793C154.303 48.2793 152.774 47.821 151.707 46.9043C150.64 45.9805 150.003 44.6377 149.795 42.876Z" fill="black"/>
<path d="M170.484 36.5918V38.998H168.422V43.5957C168.422 44.5267 168.44 45.071 168.476 45.2285C168.519 45.3789 168.608 45.5042 168.744 45.6045C168.887 45.7048 169.059 45.7549 169.26 45.7549C169.539 45.7549 169.944 45.6582 170.474 45.4648L170.731 47.8066C170.03 48.1074 169.235 48.2578 168.347 48.2578C167.802 48.2578 167.312 48.1683 166.875 47.9893C166.438 47.8031 166.116 47.5667 165.908 47.2803C165.708 46.9867 165.568 46.5928 165.489 46.0986C165.425 45.7477 165.393 45.0387 165.393 43.9717V38.998H164.007V36.5918H165.393V34.3252L168.422 32.5635V36.5918H170.484Z" fill="black"/>
<path d="M174.835 40.0723L172.096 39.5781C172.404 38.4753 172.934 37.6589 173.686 37.1289C174.438 36.599 175.555 36.334 177.037 36.334C178.383 36.334 179.386 36.4951 180.045 36.8174C180.704 37.1325 181.166 37.5371 181.431 38.0312C181.703 38.5182 181.839 39.417 181.839 40.7275L181.807 44.251C181.807 45.2536 181.853 45.9948 181.946 46.4746C182.047 46.9473 182.229 47.4557 182.494 48H179.508C179.429 47.7995 179.332 47.5023 179.218 47.1084C179.168 46.9294 179.132 46.8112 179.11 46.7539C178.595 47.2552 178.043 47.6312 177.456 47.8818C176.869 48.1325 176.242 48.2578 175.576 48.2578C174.402 48.2578 173.474 47.9391 172.794 47.3018C172.121 46.6644 171.784 45.8587 171.784 44.8848C171.784 44.2402 171.938 43.6673 172.246 43.166C172.554 42.6576 172.984 42.2708 173.535 42.0059C174.094 41.7337 174.896 41.4974 175.941 41.2969C177.352 41.0319 178.33 40.7848 178.874 40.5557V40.2549C178.874 39.6748 178.731 39.263 178.444 39.0195C178.158 38.7689 177.617 38.6436 176.822 38.6436C176.285 38.6436 175.866 38.751 175.565 38.9658C175.265 39.1735 175.021 39.5423 174.835 40.0723ZM178.874 42.5215C178.487 42.6504 177.875 42.8044 177.037 42.9834C176.199 43.1624 175.651 43.3379 175.394 43.5098C175 43.7891 174.803 44.1436 174.803 44.5732C174.803 44.9958 174.96 45.361 175.275 45.6689C175.59 45.9769 175.992 46.1309 176.479 46.1309C177.023 46.1309 177.542 45.9518 178.036 45.5938C178.401 45.3216 178.641 44.9886 178.756 44.5947C178.835 44.3369 178.874 43.8464 178.874 43.123V42.5215Z" fill="black"/>
<path d="M187.715 48H184.696V36.5918H187.5V38.2139C187.98 37.4476 188.41 36.9427 188.789 36.6992C189.176 36.4557 189.613 36.334 190.1 36.334C190.787 36.334 191.45 36.5238 192.087 36.9033L191.152 39.5352C190.644 39.2057 190.171 39.041 189.734 39.041C189.312 39.041 188.954 39.1592 188.66 39.3955C188.367 39.6247 188.134 40.0436 187.962 40.6523C187.797 41.2611 187.715 42.5358 187.715 44.4766V48Z" fill="black"/>
<path d="M198.629 36.5918V38.998H196.566V43.5957C196.566 44.5267 196.584 45.071 196.62 45.2285C196.663 45.3789 196.753 45.5042 196.889 45.6045C197.032 45.7048 197.204 45.7549 197.404 45.7549C197.684 45.7549 198.088 45.6582 198.618 45.4648L198.876 47.8066C198.174 48.1074 197.379 48.2578 196.491 48.2578C195.947 48.2578 195.456 48.1683 195.02 47.9893C194.583 47.8031 194.26 47.5667 194.053 47.2803C193.852 46.9867 193.713 46.5928 193.634 46.0986C193.569 45.7477 193.537 45.0387 193.537 43.9717V38.998H192.151V36.5918H193.537V34.3252L196.566 32.5635V36.5918H198.629Z" fill="black"/>
<path d="M208.232 48V46.292C207.817 46.9007 207.269 47.3805 206.589 47.7314C205.916 48.0824 205.203 48.2578 204.451 48.2578C203.685 48.2578 202.997 48.0895 202.389 47.7529C201.78 47.4163 201.34 46.9437 201.067 46.335C200.795 45.7262 200.659 44.8848 200.659 43.8105V36.5918H203.678V41.834C203.678 43.4382 203.731 44.4229 203.839 44.7881C203.953 45.1462 204.158 45.4326 204.451 45.6475C204.745 45.8551 205.117 45.959 205.568 45.959C206.084 45.959 206.546 45.8193 206.954 45.54C207.362 45.2536 207.642 44.9027 207.792 44.4873C207.942 44.0648 208.018 43.0371 208.018 41.4043V36.5918H211.036V48H208.232Z" fill="black"/>
<path d="M214.087 36.5918H216.901V38.2676C217.267 37.6947 217.761 37.2292 218.384 36.8711C219.007 36.513 219.698 36.334 220.457 36.334C221.782 36.334 222.906 36.8532 223.83 37.8916C224.754 38.93 225.216 40.3766 225.216 42.2314C225.216 44.1364 224.75 45.6188 223.819 46.6787C222.888 47.7314 221.76 48.2578 220.436 48.2578C219.805 48.2578 219.232 48.1325 218.717 47.8818C218.208 47.6312 217.671 47.2015 217.105 46.5928V52.3398H214.087V36.5918ZM217.073 42.1025C217.073 43.3844 217.327 44.3333 217.836 44.9492C218.344 45.5579 218.964 45.8623 219.694 45.8623C220.396 45.8623 220.98 45.583 221.445 45.0244C221.911 44.4587 222.144 43.5348 222.144 42.2529C222.144 41.057 221.904 40.1689 221.424 39.5889C220.944 39.0088 220.35 38.7188 219.641 38.7188C218.903 38.7188 218.291 39.0052 217.804 39.5781C217.317 40.1439 217.073 40.9854 217.073 42.1025Z" fill="black"/>
<path d="M226.559 44.7451L229.588 44.2832C229.717 44.8704 229.978 45.318 230.372 45.626C230.766 45.9268 231.317 46.0771 232.026 46.0771C232.807 46.0771 233.394 45.9339 233.788 45.6475C234.053 45.4469 234.186 45.1784 234.186 44.8418C234.186 44.6126 234.114 44.4229 233.971 44.2725C233.82 44.1292 233.484 43.9967 232.961 43.875C230.526 43.3379 228.983 42.8473 228.331 42.4033C227.429 41.7874 226.978 40.9316 226.978 39.8359C226.978 38.8477 227.368 38.0169 228.148 37.3438C228.929 36.6706 230.139 36.334 231.779 36.334C233.34 36.334 234.501 36.5882 235.26 37.0967C236.019 37.6051 236.542 38.3571 236.828 39.3525L233.981 39.8789C233.86 39.4349 233.627 39.0947 233.283 38.8584C232.947 38.6221 232.463 38.5039 231.833 38.5039C231.038 38.5039 230.469 38.6149 230.125 38.8369C229.896 38.9945 229.781 39.1986 229.781 39.4492C229.781 39.6641 229.882 39.8467 230.082 39.9971C230.354 40.1976 231.292 40.4805 232.896 40.8457C234.508 41.2109 235.632 41.6585 236.27 42.1885C236.9 42.7256 237.215 43.474 237.215 44.4336C237.215 45.4792 236.778 46.3779 235.904 47.1299C235.031 47.8818 233.738 48.2578 232.026 48.2578C230.472 48.2578 229.241 47.9427 228.331 47.3125C227.429 46.6823 226.838 45.8265 226.559 44.7451Z" fill="black"/>
</g>
</g>
</g>
</svg>
