<svg width="320" height="80" viewBox="0 0 320 80" fill="none" xmlns="http://www.w3.org/2000/svg">
<g id="airbnb-long-color">
<g id="logo">
<path id="Shape" fill-rule="evenodd" clip-rule="evenodd" d="M121.52 51.0756C121.613 51.3058 121.707 51.536 121.8 51.76C122.528 53.832 122.752 55.792 122.304 57.752C121.688 61.896 118.944 65.48 115.024 67.048C113.624 67.664 112.056 67.944 110.488 67.944C110.04 67.944 109.48 67.888 109.032 67.832C107.184 67.608 105.28 66.992 103.432 65.928C101.192 64.64 98.952 62.792 96.488 60.104C94.024 62.792 91.84 64.64 89.544 65.928C87.696 66.992 85.792 67.608 83.944 67.832C83.496 67.888 82.936 67.944 82.488 67.944C80.92 67.944 79.408 67.664 77.952 67.048C74.088 65.48 71.288 61.952 70.672 57.752C70.392 55.736 70.616 53.776 71.344 51.704C71.624 50.976 71.904 50.304 72.184 49.688C72.3882 49.2284 72.5925 48.7804 72.7915 48.3441L72.7915 48.344C73.0289 47.8234 73.2587 47.3194 73.472 46.832L73.528 46.72C77.392 38.32 81.592 29.808 85.904 21.408L86.072 21.072C86.52 20.232 86.968 19.336 87.416 18.44C87.976 17.432 88.592 16.368 89.432 15.36C91.28 13.232 93.8 12 96.6 12C99.344 12 101.92 13.232 103.712 15.472C104.538 16.4015 105.079 17.3787 105.597 18.3156L105.598 18.3181L105.602 18.3244C105.644 18.4006 105.686 18.4764 105.728 18.552L105.728 18.5527C106.176 19.4485 106.624 20.3442 107.072 21.184L107.24 21.52C111.608 29.92 115.752 38.432 119.616 46.832L119.672 46.888C119.885 47.3754 120.115 47.8794 120.352 48.3999L120.352 48.4001C120.551 48.8364 120.756 49.2844 120.96 49.744C121.147 50.1547 121.333 50.6151 121.52 51.0756ZM165.032 26.056C165.032 28.072 163.408 29.696 161.392 29.696C159.376 29.696 157.752 28.072 157.752 26.056C157.752 24.04 159.32 22.416 161.392 22.416C163.464 22.472 165.032 24.096 165.032 26.056ZM150.024 33.392V34.288C150.024 34.288 148.288 32.048 144.592 32.048C138.488 32.048 133.728 36.696 133.728 43.136C133.728 49.52 138.432 54.224 144.592 54.224C148.344 54.224 150.024 51.928 150.024 51.928V52.88C150.024 53.328 150.36 53.664 150.808 53.664H155.344V32.608H150.808C150.36 32.608 150.024 33 150.024 33.392ZM145.488 49.184C147.504 49.184 149.184 48.12 150.024 46.888V39.384C149.24 38.208 147.448 37.088 145.488 37.088C141.904 37.088 139.16 39.328 139.16 43.136C139.16 46.944 141.904 49.184 145.488 49.184ZM158.704 32.608H164.08V53.664H158.704V32.608ZM233.576 34.288C233.576 34.288 235.312 32.048 239.008 32.048C245.056 32.048 249.816 36.752 249.816 43.136C249.816 49.52 245.056 54.224 238.952 54.224C235.256 54.224 233.52 51.928 233.52 51.928V52.88C233.52 53.272 233.184 53.664 232.736 53.664H228.2V22.472H233.576V34.288ZM238.112 49.128C236.04 49.128 234.416 48.064 233.576 46.832V39.328C234.416 38.208 236.208 37.032 238.112 37.032C241.696 37.032 244.44 39.272 244.44 43.08C244.44 46.888 241.696 49.128 238.112 49.128ZM225.4 53.72V41.176C225.4 37.648 224.672 35.632 222.768 34.064C221.2 32.72 219.24 32.048 216.888 32.048C214.816 32.048 212.744 32.664 211.176 34.288V33.392C211.176 33 210.84 32.608 210.392 32.608H206.136V53.664H211.512V38.992C212.576 37.76 214.256 36.92 215.88 36.92C218.904 36.92 220.024 38.32 220.024 41.792V53.72H225.4ZM193.088 32.048C189.392 32.048 187.656 34.288 187.656 34.288V22.472H182.28V53.664H186.816C187.264 53.664 187.6 53.272 187.6 52.88V51.928C187.6 51.928 189.336 54.224 193.032 54.224C199.136 54.224 203.896 49.52 203.896 43.136C203.952 36.752 199.192 32.048 193.088 32.048ZM187.656 46.832C188.496 48.064 190.12 49.128 192.192 49.128C195.776 49.128 198.52 46.888 198.52 43.08C198.52 39.272 195.776 37.032 192.192 37.032C190.288 37.032 188.496 38.208 187.656 39.328V46.832ZM177.632 32.048C179.256 32.048 180.096 32.328 180.096 32.328V37.312C180.096 37.312 175.616 35.8 172.816 38.992V53.72H167.44V32.608H171.976C172.424 32.608 172.76 33 172.76 33.392V34.288C173.768 33.112 175.952 32.048 177.632 32.048ZM96.544 54.672C93.52 50.864 91.56 47.28 90.888 44.256C90.608 42.968 90.552 41.848 90.72 40.84C90.832 39.944 91.168 39.16 91.616 38.488C92.68 36.976 94.472 36.024 96.544 36.024C98.616 36.024 100.464 36.92 101.472 38.488C101.92 39.16 102.256 39.944 102.368 40.84C102.536 41.848 102.48 43.024 102.2 44.256C101.528 47.224 99.568 50.808 96.544 54.672ZM113.792 63.856C116.536 62.736 118.496 60.216 118.888 57.304C119.112 55.848 118.944 54.448 118.496 52.992C118.379 52.6028 118.208 52.2137 118.021 51.7869C117.939 51.5996 117.853 51.405 117.768 51.2C117.544 50.752 117.334 50.276 117.124 49.8C116.914 49.324 116.704 48.848 116.48 48.4V48.344C112.616 40 108.472 31.488 104.216 23.144L104.048 22.808C103.824 22.388 103.6 21.954 103.376 21.52C103.152 21.086 102.928 20.652 102.704 20.232C102.256 19.336 101.752 18.496 101.136 17.768C99.96 16.424 98.392 15.696 96.656 15.696C94.92 15.696 93.352 16.424 92.176 17.768C91.56 18.496 91.056 19.336 90.608 20.232C90.384 20.652 90.16 21.086 89.936 21.52C89.712 21.954 89.488 22.388 89.264 22.808L89.096 23.144C84.784 31.432 80.64 39.944 76.776 48.288L76.72 48.4C76.272 49.352 75.824 50.304 75.432 51.2C75.3465 51.405 75.2611 51.5996 75.1789 51.7869C74.9915 52.2137 74.8207 52.6028 74.704 52.992C74.144 54.56 74.032 55.96 74.2 57.36C74.592 60.272 76.552 62.792 79.296 63.912C80.584 64.416 82.04 64.64 83.552 64.472C84.952 64.304 86.352 63.856 87.808 63.016C89.824 61.896 91.896 60.16 94.192 57.584C90.552 53.048 88.256 48.848 87.416 45.152C86.968 43.472 86.912 41.848 87.136 40.392C87.36 38.992 87.864 37.704 88.648 36.584C90.384 34.12 93.296 32.608 96.544 32.608C99.792 32.608 102.704 34.064 104.44 36.584C105.224 37.704 105.728 38.992 105.952 40.392C106.12 41.848 106.064 43.416 105.672 45.152C104.832 48.848 102.592 52.992 98.896 57.528C101.248 60.104 103.264 61.84 105.28 62.96C106.736 63.8 108.136 64.248 109.536 64.416C110.992 64.584 112.448 64.416 113.792 63.856Z" fill="#FF5A5F"/>
</g>
</g>
</svg>
