<svg width="80" height="80" viewBox="0 0 80 80" fill="none" xmlns="http://www.w3.org/2000/svg">
<g id="aircall-short-black">
<path id="Subtract" fill-rule="evenodd" clip-rule="evenodd" d="M39.7626 8C46.4186 8 52.3086 8.54297 55.8906 9.37703C63.0338 10.8883 68.6575 16.5533 70.1564 23.7502C70.9843 27.359 71.5231 33.2924 71.5231 40C71.5231 46.7076 70.9822 52.641 70.1564 56.2498C68.6575 63.4467 63.0338 69.1138 55.8906 70.623C52.3086 71.457 46.4206 72 39.7626 72C33.1045 72 27.2145 71.457 23.6325 70.623C16.4893 69.1117 10.8655 63.4467 9.36671 56.2498C8.53884 52.641 8 46.7076 8 40C8 33.2924 8.5409 27.359 9.36671 23.7502C10.8655 16.5533 16.4893 10.8862 23.6325 9.37703C27.2145 8.54297 33.1066 8 39.7626 8ZM43.9556 54.2658C45.5013 54.5982 46.7858 55.6674 47.393 57.1272H47.3951C47.5934 57.604 48.0783 57.8966 48.5925 57.8498L48.9806 57.8126C51.4684 57.5628 53.4255 57.2139 54.561 56.8072C55.3524 56.508 55.8754 55.7497 55.8741 54.9037C55.8719 54.8466 55.8692 54.7895 55.8658 54.7324C55.8623 54.7022 55.8602 54.6719 55.8596 54.6416C55.6655 52.0299 54.0924 45.9148 51.7409 38.9368C49.0529 30.9574 46.241 24.4975 44.9734 23.2382C44.6756 22.9251 44.3076 22.6874 43.8999 22.5445L43.8854 22.5404C43.0555 22.2575 41.5195 22.0655 39.7605 22.0655C38.0036 22.0655 36.4697 22.2575 35.6356 22.5404C35.2229 22.6826 34.8505 22.9219 34.5497 23.2382C33.2821 24.4975 30.4723 30.9574 27.7822 38.9368C25.4307 45.9148 23.8575 52.0299 23.6635 54.6395C23.5399 55.5767 24.079 56.4753 24.9641 56.8072C26.1017 57.2139 28.0588 57.5649 30.5486 57.8126C30.6621 57.8241 30.7757 57.8351 30.8893 57.8457C31.4255 57.8948 31.932 57.5919 32.1424 57.0963C32.7553 55.6515 34.0331 54.5955 35.5675 54.2658C36.5006 54.049 38.0325 53.9066 39.7626 53.9066C41.4926 53.9066 43.0245 54.049 43.9556 54.2658Z" fill="black"/>
</g>
</svg>
