<svg width="80" height="80" viewBox="0 0 80 80" fill="none" xmlns="http://www.w3.org/2000/svg">
<g id="blablacar-short-black">
<g id="Group 450">
<path id="Path" fill-rule="evenodd" clip-rule="evenodd" d="M72.7485 46.1669C71.0652 36.0215 61.4657 29.1972 51.3657 30.926L54.3229 13.9335L43.4723 12C42.5624 14.0473 38.4678 23.3738 36.4888 33.8377C40.5151 36.5674 43.4723 40.8895 44.3594 46.1214C45.2694 51.6491 43.677 57.0403 40.3559 61.0439C41.1748 62.0448 42.1074 62.9547 43.1538 63.7736C47.3621 67.0948 52.4804 68.3914 57.4848 67.5497C67.653 65.8664 74.4773 56.2669 72.7257 46.1669H72.7485Z" fill="black"/>
<path id="Path_2" fill-rule="evenodd" clip-rule="evenodd" d="M36.3068 35.0206L36.5342 33.8832C32.6671 31.2445 27.8901 30.0616 22.9312 30.8805L25.8884 13.9108L15.0605 12C14.1051 14.1155 9.73753 24.0562 7.87223 34.9751C6.37088 43.8012 6.43913 53.2642 11.0569 59.9293C12.0805 61.3624 13.2862 62.659 14.742 63.7964C18.9731 67.1175 24.114 68.4141 29.1185 67.5725C33.7135 66.8218 37.6034 64.3878 40.3558 61.0894L39.4914 59.952C34.8509 53.3097 34.7827 43.8467 36.3068 35.0433V35.0206Z" fill="black"/>
<path id="Path_3" opacity="0.3" fill-rule="evenodd" clip-rule="evenodd" d="M44.3824 46.1669C43.4725 40.9349 40.5153 36.6129 36.5117 33.8832L36.2842 35.0206C34.8056 43.8466 34.8739 53.3097 39.5144 59.9747L40.356 61.1121C43.6772 57.0175 45.315 51.6491 44.3596 46.0987L44.3824 46.1669Z" fill="black"/>
</g>
</g>
</svg>
