<svg width="320" height="80" viewBox="0 0 320 80" fill="none" xmlns="http://www.w3.org/2000/svg">
<g id="contentsquare-long-color">
<g id="Group 455">
<g id="Group 454">
<path id="Path" fill-rule="evenodd" clip-rule="evenodd" d="M197.667 45.8095L199.238 43.5238C200.286 44.7619 202.19 45.8095 204.476 45.8095C206.905 45.8095 207.809 44.5714 207.809 43.5238C207.809 40.0476 198.048 42.1429 198.048 36.0476C198.048 33.2381 200.476 31.1905 204.143 31.1905C206.762 31.1905 208.857 32.0476 210.429 33.6191L208.857 35.9048C207.476 34.5238 205.714 34 204 34C202.286 34 201.19 34.8572 201.19 36.0953C201.19 39.2381 210.952 37.3333 210.952 43.5714C210.952 46.381 209.048 48.8095 204.524 48.8095C201.524 48.4286 199.238 47.1905 197.667 45.8095Z" fill="#495057"/>
<path id="Shape" fill-rule="evenodd" clip-rule="evenodd" d="M221.714 31C216.667 31 213.19 34.6667 213.19 39.7143C213.19 44.7619 216.667 48.4286 221.667 48.619C223.238 48.619 224.619 48.2857 225.857 47.5714L227.238 49.1429L229.333 47.381L227.952 45.8095C229.381 44.2381 230.238 42.1429 230.238 39.7143C230.238 34.6667 226.762 31 221.714 31ZM221.905 42.8571L224 45.2857C223.286 45.619 222.571 45.8095 221.571 45.8095C218.095 45.8095 216 43.1905 216 39.7143C216 36.2381 218.238 33.619 221.571 33.619C224.857 33.619 227.143 36.2381 227.143 39.7143C227.143 41.0952 226.809 42.4762 226.095 43.5238L224 41.0952L221.905 42.8571Z" fill="#495057"/>
<path id="Path_2" fill-rule="evenodd" clip-rule="evenodd" d="M233.571 41.4286V31.3333H236.524V41.4286C236.524 44.0476 237.905 45.7619 240.714 45.7619C243.524 45.7619 244.905 44 244.905 41.4286V31.3333H247.857V41.4286C247.857 45.619 245.429 48.3809 240.524 48.3809C235.81 48.4286 233.571 45.619 233.571 41.4286Z" fill="#495057"/>
<path id="Shape_2" fill-rule="evenodd" clip-rule="evenodd" d="M261.429 44.7619L262.667 48.0952H266.095L259.476 31.3809H255.809L249.19 48.0952H252.524L253.762 44.7619H261.429ZM254.667 42.2857L257.619 34.2857L260.762 42.2857H254.667Z" fill="#495057"/>
<path id="Shape_3" fill-rule="evenodd" clip-rule="evenodd" d="M274.143 41.8095L277.809 48.0952H281.143L276.952 41.4762C279.048 41.1428 280.952 39.5714 280.952 36.619C280.952 33.4762 278.905 31.3809 275.571 31.3809H268.238V48.0952H271.19V41.8095H274.143ZM275.333 33.9523C276.905 33.9523 278.143 35 278.143 36.5714C278.143 38.1428 276.952 39.1904 275.333 39.1904H271.333V33.9523H275.333Z" fill="#495057"/>
<path id="Path_3" fill-rule="evenodd" clip-rule="evenodd" d="M284.286 48.0952V31.3809H295.762V34H287.238V38.3333H295.619V40.9523H287.238V45.4762H295.762V48.0952H284.286Z" fill="#495057"/>
<path id="Path_4" fill-rule="evenodd" clip-rule="evenodd" d="M83.381 39.7143C83.381 34.6667 87.0476 31 91.7619 31C94.1905 31 96.0953 31.8571 97.5238 33.619L96.8096 34.1429C95.5715 32.7619 93.6667 31.7143 91.5715 31.7143C87.381 31.7143 84.0953 34.8571 84.0953 39.5714C84.0953 44.2857 87.4286 47.4286 91.5715 47.4286C93.6667 47.4286 95.5715 46.5714 96.8096 45L97.5238 45.5238C95.9524 47.2857 94.0476 48.1429 91.7619 48.1429C87.0476 48.4286 83.381 44.9524 83.381 39.7143Z" fill="#495057"/>
<path id="Shape_4" fill-rule="evenodd" clip-rule="evenodd" d="M108.095 31C103.238 31 100.095 34.8571 100.095 39.7143C100.095 44.5714 103.095 48.4286 108.095 48.4286C112.952 48.4286 116.095 44.619 116.095 39.7143C116.095 34.8095 112.952 31 108.095 31ZM107.952 31.8571C112.286 31.8571 115.095 35.1905 115.095 39.7143C115.095 44.2381 112.333 47.5714 107.952 47.5714C103.619 47.5714 100.81 44.2381 100.81 39.7143C100.81 35.1905 103.619 31.8571 107.952 31.8571Z" fill="#495057"/>
<path id="Path_5" fill-rule="evenodd" clip-rule="evenodd" d="M132.333 48.0952L121 32.7619V48.0952H120.143V31.3809H121L132.333 46.7143V31.3809H133.19V48.0952H132.333Z" fill="#495057"/>
<path id="Path_6" fill-rule="evenodd" clip-rule="evenodd" d="M142.286 48.0952V32.0476H136.714V31.3333H148.714V32.0476H143.143V48.0952H142.286Z" fill="#495057"/>
<path id="Path_7" fill-rule="evenodd" clip-rule="evenodd" d="M152.381 48.0952V31.3809H162.667V32.0952H153.238V39.0476H162.476V39.7619H153.238V47.2381H162.667V47.9523H152.381V48.0952Z" fill="#495057"/>
<path id="Path_8" fill-rule="evenodd" clip-rule="evenodd" d="M178.857 48.0952L167.524 32.7619V48.0952H166.809V31.3809H167.667L179 46.7143V31.3809H179.857V48.0952H178.857Z" fill="#495057"/>
<path id="Path_9" fill-rule="evenodd" clip-rule="evenodd" d="M188.429 48.0952V32.0476H182.857V31.3333H194.857V32.0476H189.286V48.0952H188.429Z" fill="#495057"/>
</g>
<g id="Group">
<path id="Path_10" fill-rule="evenodd" clip-rule="evenodd" d="M70.5866 41.9457C70.5866 45.4677 70.5866 48.8297 70.5866 52.3518C70.5866 53.2323 70.1464 53.9527 69.4259 54.393C67.6649 55.4336 65.7838 56.4341 64.0228 57.4748C61.5413 58.9556 58.8998 60.3965 56.4184 61.8773C54.8174 62.9179 53.0564 63.7984 51.4555 64.799C51.2954 64.9591 51.0152 64.9591 50.8551 64.9591C50.5749 64.9591 50.2548 64.679 50.2548 64.2387C50.2548 63.078 50.2548 61.8773 50.2548 60.7166C50.2548 59.2358 50.2548 57.915 50.2548 56.4742C50.2548 55.5937 50.695 54.9933 51.4154 54.553C54.4972 52.792 57.579 51.031 60.5007 49.27C61.2212 48.8297 61.6614 48.2294 61.6614 47.3488C61.6614 43.8268 61.6614 40.3047 61.6614 36.8227C61.6614 35.9422 62.1017 35.3418 62.8221 34.9016C64.303 34.0211 65.9039 33.1406 67.3447 32.26C68.0652 31.8198 68.8256 31.3795 69.546 31.0994C69.9863 30.8192 70.4265 30.9393 70.5866 31.2595C70.5866 31.4195 70.7467 31.5396 70.7467 31.6997C70.5866 35.0617 70.5866 38.5837 70.5866 41.9457Z" fill="#FF4B47"/>
<path id="Path_11" fill-rule="evenodd" clip-rule="evenodd" d="M59.0198 31.2595C58.5796 31.2595 58.1393 31.0994 57.6991 30.9793C55.0575 29.3784 52.2959 27.8975 49.6544 26.2966C49.3742 26.1365 49.054 26.0164 48.7739 25.8563C47.8934 25.4161 47.1729 25.4161 46.2924 25.8563C43.3707 27.6174 40.2889 29.2183 37.3672 30.9793C36.4867 31.4196 35.7663 31.4196 34.8858 30.9793C32.6845 29.6586 30.4832 28.4979 28.2819 27.1771C28.2819 27.1771 28.1218 27.1771 28.1218 27.017C27.8417 26.7368 27.8417 26.1365 28.2819 25.8563C28.8823 25.5762 29.3225 25.256 29.8828 24.9758C33.525 22.9346 37.2071 20.7333 40.7292 18.6922C42.6503 17.5315 44.5314 16.4909 46.5726 15.3302C47.293 14.8899 48.0534 14.8899 48.7739 15.3302C50.2547 16.0506 51.5755 16.9311 52.8562 17.6916C55.6579 19.2925 58.4195 20.8934 61.2211 22.5344C63.1423 23.575 64.8633 24.7357 66.7844 25.7363C66.9445 25.8964 67.0645 25.8964 67.2246 26.0164C67.3847 26.2966 67.3847 26.4567 67.2246 26.7368C67.0645 26.8969 66.9445 27.017 66.6243 27.1771C64.5831 28.3378 62.3818 29.6586 60.3406 30.8192C59.9004 31.0994 59.4601 31.2595 59.0198 31.2595Z" fill="#13B6FF"/>
<path id="Path_12" fill-rule="evenodd" clip-rule="evenodd" d="M25.04 41.9457C25.04 38.4237 25.04 35.0617 25.04 31.5397C25.04 31.2595 25.04 30.8192 25.3202 30.6591C25.6004 30.4991 25.9205 30.6591 26.2007 30.8192C28.402 32.14 30.6033 33.3007 32.6445 34.6215C33.525 35.0617 33.8051 35.7821 33.8051 36.6626C33.8051 40.1847 33.8051 43.5467 33.8051 47.0687C33.8051 47.9492 34.2454 48.6697 34.9658 49.1099C37.8875 50.8709 40.9693 52.632 43.891 54.393C44.6114 54.8333 45.0517 55.5537 45.0517 56.4342C45.0517 58.9156 45.0517 61.5572 45.0517 64.0386C45.0517 64.0386 45.0517 64.0386 45.0517 64.1987C45.0517 64.9191 44.6114 65.2393 43.891 64.7991C43.2907 64.5189 42.7303 64.0786 41.9699 63.7585C36.5667 60.6767 31.2837 57.5949 25.8805 54.393C25.4403 53.9527 25 53.2323 25 52.3518C25.04 48.8297 25.04 45.4278 25.04 41.9457Z" fill="#FFC613"/>
<path id="Path_13" fill-rule="evenodd" clip-rule="evenodd" d="M38.6479 40.4648C38.6479 39.1441 38.6479 37.9834 38.6479 36.6626C38.6479 35.7821 39.0882 35.0617 39.8086 34.6214C42.0099 33.3007 44.3313 31.9799 46.5325 30.6591C47.253 30.2189 48.0134 30.2189 48.7338 30.6591C50.3348 31.5396 51.9357 32.4201 53.5767 33.4607C54.2971 33.901 55.0575 34.3413 55.7779 34.7815C56.3783 35.2218 56.6585 35.8221 56.6585 36.5425C56.6585 39.1841 56.6585 41.8256 56.6585 44.4672C56.6585 45.3477 56.2182 46.0681 55.3377 46.5084C53.1364 47.8291 50.9351 48.9898 48.7338 50.3106C48.0134 50.7508 47.1329 50.7508 46.3725 50.3106C44.1712 48.9898 41.8498 47.669 39.6485 46.5084C38.9281 46.0681 38.4879 45.3477 38.4879 44.4672C38.6479 42.9463 38.6479 41.6255 38.6479 40.4648Z" fill="#495057"/>
</g>
</g>
</g>
</svg>
