<svg width="320" height="80" viewBox="0 0 320 80" fill="none" xmlns="http://www.w3.org/2000/svg">
<g id="deezer-long-white">
<path id="path8175" d="M103.975 46.5481C103.975 54.9372 109.142 59.9582 116.82 59.9582C120.648 59.9582 123.87 58.8912 125.669 56.0879V59.9582H132.678V20H125.397V36.9874C123.745 34.1841 120.69 32.9289 116.862 32.9289C109.372 32.9079 103.975 38.0335 103.975 46.5481ZM125.628 46.5481C125.628 51.3389 122.364 54.3305 118.452 54.3305C114.393 54.3305 111.276 51.3389 111.276 46.5481C111.276 41.6736 114.414 38.6192 118.452 38.6192C122.364 38.6192 125.628 41.7155 125.628 46.5481Z" fill="white"/>
<path id="path8177" d="M155.335 49.6443C154.498 52.7405 152.385 54.2886 149.059 54.2886C145.188 54.2886 142.008 51.9455 141.925 47.8033H160.272C160.502 46.7782 160.607 45.6903 160.607 44.4978C160.607 37.0711 155.544 32.887 148.075 32.887C140.105 32.887 134.623 38.5564 134.623 46.2552C134.623 54.8326 140.669 59.979 149.038 59.979C155.356 59.979 159.644 57.343 161.527 52.092L155.335 49.6443ZM141.925 42.9497C142.615 39.9581 145.105 38.2008 148.096 38.2008C151.36 38.2008 153.577 39.9581 153.577 42.7196L153.536 42.9497H141.925Z" fill="white"/>
<path id="path8179" d="M182.343 49.6443C181.506 52.7405 179.393 54.2886 176.067 54.2886C172.197 54.2886 169.017 51.9455 168.933 47.8033H187.28C187.51 46.7782 187.615 45.6903 187.615 44.4978C187.615 37.0711 182.552 32.887 175.084 32.887C167.113 32.887 161.632 38.5564 161.632 46.2552C161.632 54.8326 167.678 59.979 176.046 59.979C182.364 59.979 186.653 57.343 188.535 52.092L182.343 49.6443ZM168.933 42.9497C169.623 39.9581 172.113 38.2008 175.105 38.2008C178.368 38.2008 180.586 39.9581 180.586 42.7196L180.544 42.9497H168.933Z" fill="white"/>
<path id="path8181" d="M213.305 60V53.41H198.013L212.887 38.9331V32.908H189.351V39.1841H203.724L188.891 53.7239V60H213.305Z" fill="white"/>
<path id="path8183" d="M234.582 49.6443C233.745 52.7405 231.632 54.2886 228.306 54.2886C224.435 54.2886 221.255 51.9455 221.172 47.8033H239.519C239.749 46.7782 239.854 45.6903 239.854 44.4978C239.854 37.0711 234.791 32.887 227.322 32.887C219.352 32.887 213.87 38.5564 213.87 46.2552C213.87 54.8326 219.916 59.979 228.285 59.979C234.603 59.979 238.891 57.343 240.774 52.092L234.582 49.6443ZM221.172 42.9497C221.862 39.9581 224.352 38.2008 227.343 38.2008C230.607 38.2008 232.824 39.9581 232.824 42.7196L232.782 42.9497H221.172Z" fill="white"/>
<path id="Union" fill-rule="evenodd" clip-rule="evenodd" d="M87.5315 32.908H96.5064V38.159H87.5315V32.908ZM87.5315 40.1882H96.5064V45.4393H87.5315V40.1882ZM96.5064 47.4685H87.5315V52.7196H96.5064V47.4685ZM55 54.7489H63.9749V59.9999H55V54.7489ZM74.8117 54.7489H65.8368V59.9999H74.8117V54.7489ZM76.6946 54.7489H85.6695V59.9999H76.6946V54.7489ZM96.5064 54.7489H87.5315V59.9999H96.5064V54.7489ZM76.6946 47.4685H85.6695V52.7196H76.6946V47.4685ZM74.8117 47.4685H65.8368V52.7196H74.8117V47.4685ZM65.8368 40.1882H74.8117V45.4393H65.8368V40.1882Z" fill="white"/>
<path id="path8250" d="M257.113 42.2595C257.113 42.5314 257.113 43.0335 257.113 43.0335H264.205C264.205 43.0335 264.205 41.6946 264.205 40.9624C264.205 36.318 261.297 32.9498 256.422 32.9498C253.284 32.9498 251.067 34.477 249.916 37.0084V32.9498H242.594V60H249.916V42.5733C249.916 39.8118 251.402 38.2846 253.682 38.2846C255.774 38.3055 257.113 40.272 257.113 42.2595Z" fill="white"/>
</g>
</svg>
