<svg width="80" height="80" viewBox="0 0 80 80" fill="none" xmlns="http://www.w3.org/2000/svg">
<g id="deezer-short-white">
<path id="Union" fill-rule="evenodd" clip-rule="evenodd" d="M57.1611 20H70.9998V28.0967H57.1611V20ZM57.1611 31.2257H70.9998V39.3224H57.1611V31.2257ZM70.9998 42.4513H57.1611V50.548H70.9998V42.4513ZM7 53.6772H20.8386V61.774H7V53.6772ZM37.5481 53.6772H23.7095V61.774H37.5481V53.6772ZM40.4517 53.6772H54.2903V61.774H40.4517V53.6772ZM70.9998 53.6772H57.1611V61.774H70.9998V53.6772ZM40.4517 42.4513H54.2903V50.548H40.4517V42.4513ZM37.5481 42.4513H23.7095V50.548H37.5481V42.4513ZM23.7095 31.2257H37.5481V39.3224H23.7095V31.2257Z" fill="white"/>
</g>
</svg>
