<svg width="80" height="80" viewBox="0 0 80 80" fill="none" xmlns="http://www.w3.org/2000/svg">
<g id="frichti-short-white">
<g id="Group 19">
<path id="Fill 16" fill-rule="evenodd" clip-rule="evenodd" d="M67.2574 64.4553H12.7712C12.7407 64.4553 12.703 64.4473 12.6634 64.4336L14.8217 58.9461C15.1753 58.1196 15.2789 58.1196 15.4513 58.1196L64.513 58.115C64.7047 58.161 65.0784 58.5203 65.1473 58.7681L67.3636 64.4301C67.3251 64.4455 67.2871 64.4553 67.2574 64.4553ZM38.6962 52.4216L41.3037 52.4239V54.5937H38.6962V52.4216ZM16.3833 48.8102C16.3449 48.763 16.3316 48.7086 16.3442 48.6493C18.984 36.2035 28.7161 27.511 40.0099 27.511C51.3212 27.511 61.0567 36.2198 63.6844 48.6884C63.697 48.7475 63.6839 48.8022 63.6448 48.8491C63.5908 48.9157 63.5288 48.9157 63.5082 48.9157L16.5204 48.8772C16.4998 48.8772 16.4378 48.8772 16.3833 48.8102ZM35.8998 18.5884H44.1282V15.5261H35.8998V18.5884ZM70.8993 63.8144L68.5153 57.7249C67.9828 55.9894 66.2352 54.5937 64.5693 54.5937H46.0051V52.4274L63.5082 52.4415C64.6283 52.4415 65.6764 51.9425 66.3832 51.0713C67.0926 50.1967 67.3663 49.0626 67.1345 47.9614C64.34 34.7005 54.3269 25.1994 42.3507 24.0964V22.1142H44.4168C46.2017 22.1142 47.6541 20.6618 47.6541 18.8765V15.2369C47.6541 13.4519 46.2017 12 44.4168 12H35.611C33.8264 12 32.374 13.4519 32.374 15.2369V18.8765C32.374 20.6618 33.8264 22.1142 35.611 22.1142H37.6493V24.0971C25.6998 25.2085 15.7009 34.6891 12.8952 47.9177C12.6615 49.0191 12.9341 50.153 13.6423 51.0287C14.3487 51.901 15.3968 52.402 16.5169 52.4031L33.9948 52.4175V54.5937H15.4513C12.8469 54.5937 11.9258 56.7498 11.5414 57.6519L9.18259 63.6507C8.84803 64.5299 8.97732 65.4997 9.53682 66.3112C10.2254 67.3105 11.5254 67.9812 12.7712 67.9812H67.2574C68.4402 67.9812 69.6212 67.397 70.3398 66.4569C70.9393 65.6725 71.1432 64.7089 70.8993 63.8144Z" fill="white"/>
</g>
</g>
</svg>
