<svg width="320" height="80" viewBox="0 0 320 80" fill="none" xmlns="http://www.w3.org/2000/svg">
<g id="frichti-long-white">
<g id="logo">
<path id="Shape" fill-rule="evenodd" clip-rule="evenodd" d="M163.234 28.4648C161.586 28.4648 160.115 28.8958 158.721 29.7577C157.276 30.6451 156.186 31.8113 155.324 33.3324C154.487 34.8535 154.056 37.0845 154.056 39.9746C154.056 42.738 154.513 45.1465 155.324 46.6169C156.161 48.1634 157.251 49.3296 158.696 50.2169C160.09 51.0789 161.561 51.5099 163.208 51.5099C165.161 51.5099 166.885 50.9521 168.431 49.7606L169.724 48.7718C170.054 48.5437 170.434 48.4423 170.814 48.493C171.194 48.5437 171.549 48.7465 171.777 49.0507L173.907 51.9155C174.389 52.5493 174.262 53.462 173.628 53.9437L172.361 54.907C169.648 56.9606 166.58 58 163.234 58C161.104 58 159.051 57.569 157.099 56.6817C155.197 55.8197 153.524 54.6282 152.13 53.1577C150.735 51.6873 149.645 49.938 148.834 47.9352C147.997 45.8563 147.617 43.3465 147.617 40C147.617 36.7296 148.023 34.0676 148.834 32.0648C149.645 30.062 150.735 28.3127 152.13 26.8423C153.524 25.3718 155.197 24.1803 157.099 23.3183C159.051 22.4563 161.104 22 163.234 22C166.454 22 169.47 23.0394 172.183 25.1183L173.73 26.2845C174.085 26.538 174.287 26.9437 174.313 27.3746C174.313 27.8056 174.135 28.2366 173.831 28.5155L171.144 30.9746C170.637 31.4563 169.851 31.4817 169.293 31.0761L168.228 30.2648C166.631 29.0479 164.983 28.4648 163.234 28.4648ZM128.172 22.1775H131.746C132.558 22.1775 133.217 22.8113 133.192 23.6225V56.3521C133.192 57.138 132.558 57.7972 131.746 57.7972H128.172C127.386 57.7972 126.727 57.1634 126.727 56.3521V23.6225C126.727 22.8366 127.361 22.1775 128.172 22.1775ZM72.9549 22.1775H52.4704C51.6592 22.1775 51 22.8113 51 23.6225V56.3521C51 56.7324 51.1521 57.1127 51.431 57.3915C51.7099 57.6704 52.0648 57.8225 52.4704 57.8225H56.0451C56.8563 57.8225 57.4901 57.1634 57.4901 56.3775V42.1296H66.7437C67.5549 42.1296 68.1887 41.4704 68.1887 40.6845V37.1099C68.1887 36.2986 67.5296 35.6648 66.7437 35.6648H57.4648V28.6423H71.0535L72.9803 28.6169C73.7662 28.5915 74.4 27.9577 74.4 27.1718V23.6225C74.4254 22.8113 73.7662 22.1775 72.9549 22.1775ZM110.273 32.8507C110.273 34.169 109.994 35.9183 109.487 37.1352C108.955 38.3268 108.22 39.4169 107.282 40.3296C106.369 41.2676 105.177 42.0028 103.783 42.5606L110.096 55.769C110.299 56.2 110.273 56.7324 109.994 57.138C109.715 57.5437 109.259 57.7972 108.777 57.7972H104.746C104.163 57.7972 103.631 57.4676 103.403 56.9352L97.1155 43.4732H93.1606V56.3775C93.1606 57.1634 92.5268 57.8225 91.7155 57.8225H88.1408C87.3549 57.8225 86.6958 57.1887 86.6958 56.3775L86.6704 25.3465L86.569 23.7239C86.5437 23.3183 86.6704 22.938 86.9493 22.6338C87.2282 22.3549 87.6085 22.1775 88.0141 22.1775H98.8901C100.589 22.1775 102.161 22.431 103.58 22.9634C105.076 23.5211 106.318 24.307 107.307 25.2958C108.245 26.2338 108.98 27.3239 109.487 28.5155C110.02 29.7324 110.273 31.5324 110.273 32.8507ZM103.783 32.8507C103.783 33.307 103.707 34.169 103.53 34.6C103.327 35.0563 103.073 35.4366 102.693 35.8169C102.389 36.1465 101.907 36.4254 101.299 36.6535C100.614 36.907 99.8028 37.0338 98.8901 37.0338H93.1859V28.6676H98.8901C99.8028 28.6676 100.614 28.7944 101.299 29.0479C101.907 29.2761 102.389 29.5549 102.693 29.8845C103.073 30.2648 103.327 30.6451 103.53 31.1014C103.682 31.4817 103.783 32.3944 103.783 32.8507ZM206.18 22.1775H209.755C210.566 22.1775 211.2 22.8113 211.2 23.6225V56.3521C211.2 57.138 210.566 57.7972 209.755 57.7972H206.18C205.394 57.7972 204.735 57.1634 204.735 56.3521V43.3972H193.555V56.3521C193.555 57.138 192.921 57.7972 192.11 57.7972H188.535C187.749 57.7972 187.09 57.1634 187.09 56.3521V23.6225C187.09 22.8366 187.724 22.1775 188.535 22.1775H192.11C192.896 22.1775 193.555 22.8113 193.555 23.6225V36.9324H204.735V23.6225C204.735 22.8366 205.369 22.1775 206.18 22.1775ZM247.732 22.1775H224.789C223.977 22.1775 223.344 22.8366 223.344 23.6225V27.1465C223.344 27.9577 224.003 28.5915 224.789 28.5915L233.028 28.6169V56.3521C233.028 57.1634 233.687 57.7972 234.473 57.7972H238.048C238.859 57.7972 239.493 57.138 239.493 56.3521V28.6423H245.831L247.758 28.6169C248.544 28.5915 249.177 27.9577 249.177 27.1718V23.6225C249.203 22.8113 248.544 22.1775 247.732 22.1775ZM264.237 22.1775H267.811C268.597 22.1775 269.256 22.8113 269.256 23.6225V56.3521C269.256 57.138 268.623 57.7972 267.811 57.7972H264.237C263.451 57.7972 262.792 57.1634 262.792 56.3521V23.6225C262.792 22.8366 263.425 22.1775 264.237 22.1775Z" fill="white"/>
</g>
</g>
</svg>
