<svg width="320" height="80" viewBox="0 0 320 80" fill="none" xmlns="http://www.w3.org/2000/svg">
<g id="google-long-black">
<path id="Shape" fill-rule="evenodd" clip-rule="evenodd" d="M132.333 58.24C140.507 58.24 147.167 51.9667 147.167 43.4533C147.167 34.88 140.507 28.6667 132.333 28.6667C124.16 28.6667 117.5 34.88 117.5 43.4533C117.5 51.9667 124.16 58.24 132.333 58.24ZM132.333 34.4933C136.813 34.4933 140.673 38.1333 140.673 43.4533C140.673 48.7133 136.813 52.4133 132.333 52.4133C127.853 52.4133 123.993 48.72 123.993 43.4533C123.993 38.1333 127.853 34.4933 132.333 34.4933Z" fill="black"/>
<path id="Shape_2" fill-rule="evenodd" clip-rule="evenodd" d="M164.333 58.24C172.507 58.24 179.167 51.9667 179.167 43.4533C179.167 34.88 172.507 28.6667 164.333 28.6667C156.16 28.6667 149.5 34.8867 149.5 43.4533C149.5 51.9667 156.16 58.24 164.333 58.24ZM164.333 34.4933C168.813 34.4933 172.673 38.1333 172.673 43.4533C172.673 48.7133 168.813 52.4133 164.333 52.4133C159.853 52.4133 155.993 48.72 155.993 43.4533C155.993 38.1333 159.853 34.4933 164.333 34.4933Z" fill="black"/>
<path id="Shape_3" fill-rule="evenodd" clip-rule="evenodd" d="M209.833 56.1067V29.5667H203.667V31.9733H203.44C201.98 30.2333 199.18 28.6667 195.653 28.6667C188.26 28.6667 181.487 35.16 181.487 43.5067C181.487 51.7933 188.26 58.2333 195.653 58.2333C199.187 58.2333 201.987 56.6667 203.44 54.8733H203.667V57C203.667 62.66 200.647 65.6667 195.773 65.6667C191.8 65.6667 189.333 62.8267 188.327 60.42L182.673 62.7733C184.3 66.6933 188.613 71.4867 195.78 71.4867C203.393 71.4867 209.833 67.0267 209.833 56.1067ZM196.233 34.4933C200.653 34.4933 204.127 38.3 204.127 43.5067C204.127 48.66 200.653 52.4133 196.233 52.4133C191.753 52.4133 188 48.66 188 43.5067C188 38.3 191.753 34.4933 196.233 34.4933Z" fill="black"/>
<path id="Path" fill-rule="evenodd" clip-rule="evenodd" d="M220 14V57.3333H213.667V14H220Z" fill="black"/>
<path id="Shape_4" fill-rule="evenodd" clip-rule="evenodd" d="M249.72 51.68L244.68 48.32C243 50.7867 240.707 52.4133 237.4 52.4133C234.1 52.4133 231.747 50.9 230.233 47.9333L250 39.7467L249.327 38.0667C248.1 34.7667 244.347 28.66 236.673 28.66C229.053 28.66 222.727 34.6533 222.727 43.4467C222.727 51.74 229 58.2333 237.4 58.2333C244.173 58.2333 248.093 54.0867 249.72 51.68ZM242.38 37.5133L229.167 43C229 37.2933 233.593 34.38 236.893 34.38C239.467 34.38 241.653 35.6667 242.38 37.5133Z" fill="black"/>
<path id="Path_2" fill-rule="evenodd" clip-rule="evenodd" d="M93.5267 39.6067V33.3333H114.667C114.873 34.4267 114.98 35.72 114.98 37.12C114.98 41.8267 113.693 47.6467 109.547 51.7933C105.513 55.9933 100.36 58.2333 93.5333 58.2333C80.88 58.2333 70.24 47.9267 70.24 35.2733C70.24 22.62 80.88 12.3133 93.5333 12.3133C100.533 12.3133 105.52 15.06 109.267 18.64L104.84 23.0667C102.153 20.5467 98.5133 18.5867 93.5267 18.5867C84.2867 18.5867 77.06 26.0333 77.06 35.2733C77.06 44.5133 84.2867 51.96 93.5267 51.96C99.52 51.96 102.933 49.5533 105.12 47.3667C106.893 45.5933 108.06 43.06 108.52 39.6L93.5267 39.6067Z" fill="black"/>
</g>
</svg>
