<svg width="80" height="80" viewBox="0 0 80 80" fill="none" xmlns="http://www.w3.org/2000/svg">
<g id="meetic-short-white">
<g id="logo-meetic-bw">
<path id="Shape" fill-rule="evenodd" clip-rule="evenodd" d="M21.9508 17.0025C31.297 17.0025 38.9016 24.5496 38.9016 33.8265L38.9019 33.8321V37.0928H11.5583C12.1885 46.4939 22.4071 50.0035 30.4323 52.7598C30.681 52.8453 30.9276 52.93 31.1718 53.0141C34.1664 54.0445 36.7513 54.9353 38.6089 56.0288L38.9009 56.2017V63.9628L37.9028 63.0588C35.3489 60.751 31.2426 59.2526 26.8934 57.6656L26.8803 57.6608C26.6616 57.5811 26.4418 57.5011 26.221 57.4208C17.0001 54.0666 6.14043 50.1163 5.06297 37.0895L5 35.4509V33.8288C5 30.495 5.98067 27.2709 7.83686 24.5054C10.9919 19.8078 16.2684 17.0025 21.9508 17.0025ZM11.3828 30.9276L11.2063 31.6199L11.2026 31.6203H32.6582L32.484 30.9256C31.2615 26.1236 26.9242 22.7708 21.9337 22.7708C18.2864 22.7708 14.8969 24.573 12.8739 27.5888C12.186 28.6132 11.6836 29.736 11.3828 30.9276Z" fill="white"/>
<path id="Shape_2" opacity="0.74" fill-rule="evenodd" clip-rule="evenodd" d="M68.4469 37.0857H41.1012L41.0925 37.0893V33.8253C41.0925 24.5485 48.6974 17 58.0433 17C63.7264 17 69.0016 19.8053 72.1599 24.5029C74.0188 27.267 75.0002 30.4898 75.0002 33.8237V35.4457L74.9365 37.0844C73.8568 50.1141 62.9943 54.0629 53.7721 57.4155C53.5535 57.4949 53.3358 57.5741 53.1192 57.653C48.7651 59.2405 44.6522 60.7409 42.0966 63.0509L41.0986 63.955V56.1962L41.3933 56.0233C43.2488 54.9304 45.8345 54.0393 48.8321 53.0076C49.0716 52.9251 49.3136 52.8421 49.5575 52.7584C57.5867 50.0026 67.8176 46.4913 68.4469 37.0857ZM47.5167 30.9253L47.3409 31.62L47.3456 31.6216H68.8012L68.6237 30.9269C68.3222 29.737 67.8198 28.6145 67.1299 27.5888C65.1032 24.5724 61.7171 22.7709 58.0683 22.7709C53.0766 22.7709 48.7379 26.124 47.5167 30.9253Z" fill="white"/>
</g>
</g>
</svg>
