<svg width="320" height="80" viewBox="0 0 320 80" fill="none" xmlns="http://www.w3.org/2000/svg">
<g id="meetic-long-white">
<g id="logo">
<path id="Path" fill-rule="evenodd" clip-rule="evenodd" d="M112.348 30.3551C109.915 26.7043 105.846 24.5262 101.463 24.5262C97.3458 24.5262 93.6704 26.44 91.272 29.4246C88.7994 26.34 85.0707 24.5262 81.0769 24.5262C73.8671 24.5262 68.0024 30.3908 68.0024 37.5991V59.3314H73.7631V37.5991C73.7631 33.5677 77.0431 30.2871 81.076 30.2871C83.5274 30.2871 85.8046 31.5065 87.1671 33.5508C87.9664 34.7495 88.3892 36.1495 88.3892 37.5985V59.3308H94.1507V37.5991C94.1507 33.5677 97.4307 30.2871 101.462 30.2871C103.915 30.2871 106.192 31.5065 107.554 33.5508C108.354 34.7495 108.775 36.1495 108.775 37.5985V59.3308H114.535V37.5991C114.535 35.0098 113.778 32.5037 112.344 30.356" fill="white"/>
<path id="Shape" fill-rule="evenodd" clip-rule="evenodd" d="M214.071 15.7591C214.071 17.5766 212.597 19.0474 210.782 19.0474C208.965 19.0474 207.492 17.5766 207.492 15.7591C207.492 13.9428 208.965 12.4698 210.782 12.4698C212.597 12.4698 214.071 13.9437 214.071 15.7597V15.7591ZM207.901 24.3382H213.662V59.172H207.901V24.3385V24.3382ZM223.547 41.7289C223.547 48.2735 228.874 53.5997 235.421 53.5997L235.413 53.5935C239.115 53.5935 242.564 51.8797 244.807 48.9751H251.484C251.096 49.8305 250.642 50.6612 250.116 51.4551C246.838 56.3997 241.341 59.3535 235.413 59.3535C225.692 59.3535 217.781 51.4459 217.781 41.7258C217.781 32.0028 225.692 24.0951 235.415 24.0951C241.326 24.0951 246.812 27.0335 250.095 31.9566C250.634 32.7628 251.095 33.6028 251.489 34.4766H244.812C242.569 31.572 239.114 29.8582 235.418 29.8582C228.874 29.8582 223.547 35.1843 223.547 41.7289Z" fill="white"/>
<path id="Shape_2" fill-rule="evenodd" clip-rule="evenodd" d="M133.711 24.3748C142.297 24.3748 149.283 31.3612 149.283 39.9489L149.283 39.9542V42.9726H124.163C124.742 51.6752 134.13 54.9242 141.503 57.4757C141.731 57.5548 141.958 57.6332 142.182 57.7111C144.933 58.6649 147.308 59.4896 149.014 60.5019L149.282 60.6619V67.8465L148.366 67.0096C146.019 64.8732 142.247 63.4862 138.251 62.0171L138.239 62.0126C138.038 61.9388 137.836 61.8648 137.634 61.7905C129.163 58.6854 119.186 55.0285 118.196 42.9696L118.138 41.4526V39.9511C118.138 36.8649 119.039 33.8803 120.745 31.3203C123.643 26.9717 128.49 24.3748 133.711 24.3748ZM124.002 37.2656L123.84 37.9065L123.837 37.9068H143.547L143.387 37.2637C142.264 32.8185 138.28 29.7148 133.695 29.7148C130.344 29.7148 127.23 31.3831 125.372 34.1748C124.74 35.1231 124.278 36.1625 124.002 37.2656Z" fill="white"/>
<path id="Shape_3" fill-rule="evenodd" clip-rule="evenodd" d="M194.594 24.3379H204.204V30.1231H194.594V59.1751L188.807 59.172V30.1249H183.577V24.3379H188.807V12.2111H194.594V24.3379ZM151.304 42.9662H176.426C175.847 51.673 166.448 54.9235 159.072 57.4745C158.848 57.552 158.626 57.6289 158.406 57.7052C155.652 58.6603 153.277 59.4852 151.572 60.4969L151.301 60.6569V67.8394L152.218 67.0025C154.566 64.864 158.344 63.4751 162.344 62.0056L162.944 61.7857C171.416 58.6822 181.395 55.0267 182.387 42.9649L182.446 41.448V39.9465C182.446 36.8603 181.544 33.8769 179.837 31.3182C176.935 26.9696 172.089 24.3726 166.868 24.3726C158.282 24.3726 151.296 31.3603 151.296 39.948V42.9696L151.304 42.9662ZM157.036 37.9065L157.198 37.2634C158.319 32.8188 162.305 29.7148 166.891 29.7148C170.243 29.7148 173.354 31.3825 175.216 34.1748C175.85 35.1243 176.311 36.1634 176.588 37.2649L176.751 37.908H157.04L157.036 37.9065Z" fill="white"/>
</g>
</g>
</svg>
