<svg width="320" height="80" viewBox="0 0 320 80" fill="none" xmlns="http://www.w3.org/2000/svg">
<g id="payfit-long-white">
<g id="logo">
<path id="Shape" fill-rule="evenodd" clip-rule="evenodd" d="M122.641 39.9032C122.641 23.4282 109.071 10.0732 92.3329 10.0732H92.3312C75.5928 10.0732 62.0228 23.4282 62.0228 39.9032C62.0228 56.3782 75.5928 69.7332 92.3312 69.7332C109.071 69.7332 122.641 56.3782 122.641 39.9032ZM161.048 34.4232C161.048 29.3865 156.953 25.2732 151.846 25.1666H138.586C138.495 25.1664 138.405 25.1841 138.321 25.2188C138.237 25.2535 138.161 25.3044 138.097 25.3687C138.032 25.4329 137.981 25.5093 137.947 25.5933C137.912 25.6773 137.894 25.7674 137.895 25.8582V54.2215C137.895 54.6048 138.205 54.9132 138.586 54.9132H141.371C141.462 54.9135 141.552 54.8957 141.636 54.861C141.72 54.8263 141.797 54.7755 141.861 54.7112C141.925 54.6468 141.976 54.5705 142.011 54.4865C142.045 54.4025 142.063 54.3125 142.063 54.2215V44.0232C142.063 43.8332 142.218 43.6782 142.408 43.6782L151.841 43.6765C156.953 43.5732 161.046 39.4598 161.046 34.4232H161.048ZM234.715 25.8582V28.5782C234.715 28.9615 235.025 29.2698 235.407 29.2698H238.192C238.282 29.2698 238.372 29.252 238.455 29.2172C238.54 29.1825 238.615 29.1315 238.68 29.0672C238.743 29.003 238.795 28.9267 238.828 28.8428C238.863 28.7588 238.882 28.669 238.882 28.5782V25.8582C238.882 25.7675 238.863 25.6776 238.828 25.5937C238.795 25.5098 238.743 25.4335 238.68 25.3693C238.615 25.305 238.54 25.254 238.455 25.2192C238.372 25.1845 238.282 25.1666 238.192 25.1666H235.407C235.315 25.1664 235.225 25.1841 235.142 25.2188C235.057 25.2535 234.98 25.3044 234.917 25.3687C234.852 25.4329 234.802 25.5093 234.767 25.5933C234.732 25.6773 234.715 25.7674 234.715 25.8582ZM183.628 52.9632V54.3132C183.628 54.4042 183.61 54.4942 183.576 54.5782C183.541 54.6622 183.49 54.7385 183.426 54.8028C183.362 54.867 183.285 54.918 183.201 54.9527C183.117 54.9873 183.027 55.0052 182.936 55.0048H180.701C180.52 55.0053 180.345 54.9342 180.216 54.807C180.086 54.6797 180.012 54.5065 180.01 54.3248L179.973 52.0932C179.972 52.0597 179.961 52.0272 179.942 51.9995C179.923 51.972 179.896 51.9505 179.865 51.9378C179.834 51.9252 179.8 51.9217 179.767 51.928C179.734 51.9343 179.704 51.95 179.68 51.9732L179.286 52.3582C177.5 54.1232 175.038 55.0048 171.878 55.0048C169.61 55.0048 167.756 54.4032 166.301 53.1982C164.863 52.0098 164.148 50.3648 164.148 48.2348C164.148 47.1165 164.36 46.1482 164.781 45.3282C165.205 44.5082 165.75 43.8765 166.421 43.4248C167.121 42.9548 167.785 42.6115 168.406 42.3915C169.04 42.1698 169.695 42.0032 170.37 41.8915C173.698 41.4315 175.51 41.1748 175.838 41.1148C176.126 41.0815 177.21 40.9398 179.103 40.6882L179.485 40.6415C179.569 40.6322 179.647 40.5918 179.704 40.5285C179.76 40.4652 179.791 40.3832 179.791 40.2982V39.3482C179.791 37.9282 179.415 36.8198 178.655 36.0365C177.881 35.2415 176.488 34.8582 174.455 34.8582C173.366 34.8582 172.451 34.9798 171.708 35.2248C170.936 35.4782 170.353 35.8532 169.966 36.3498C169.649 36.7392 169.394 37.1748 169.21 37.6415C169.158 37.7882 169.118 37.9387 169.09 38.0915C169.06 38.2498 168.976 38.3928 168.852 38.4957C168.728 38.5987 168.572 38.655 168.411 38.6548H165.848C165.753 38.6552 165.66 38.6358 165.573 38.5985C165.487 38.5612 165.409 38.5065 165.344 38.4377C165.279 38.369 165.229 38.2877 165.197 38.199C165.165 38.1102 165.152 38.0158 165.158 37.9215L165.17 37.7898C165.2 37.5348 165.236 37.3182 165.275 37.1498C165.411 36.5582 165.678 35.9365 166.08 35.2798C166.476 34.6332 166.996 34.0648 167.641 33.5765C168.283 33.0932 169.178 32.6882 170.325 32.3715C171.483 32.0498 172.831 31.8882 174.368 31.8882C180.598 31.8882 183.628 34.3182 183.628 39.2632V52.9632ZM204.59 32.1915H207.378H207.38C207.459 32.1913 207.537 32.2103 207.607 32.2467C207.677 32.2832 207.738 32.336 207.783 32.4007C207.829 32.4655 207.858 32.5403 207.868 32.6188C207.879 32.6973 207.87 32.7772 207.843 32.8515L207.386 34.1163C200.993 51.8 199.037 57.2118 199.005 57.2965L198.875 57.6115C197.755 60.1465 195.201 61.7832 192.4 61.7765H189.516C189.135 61.7765 188.826 61.4665 188.826 61.0865V58.8548C188.826 58.7642 188.844 58.6743 188.878 58.5903C188.913 58.5065 188.964 58.4302 189.028 58.366C189.092 58.3017 189.168 58.2507 189.252 58.216C189.336 58.1812 189.425 58.1632 189.516 58.1632H192.396C193.094 58.1648 193.776 57.953 194.35 57.5563C194.924 57.1595 195.363 56.5967 195.608 55.9432L195.741 55.4898C195.802 55.3332 195.804 55.1595 195.746 55.0015L195.728 54.9548L187.995 33.3598L187.906 33.1082C187.87 33.0042 187.859 32.8928 187.875 32.7838C187.891 32.6747 187.932 32.5708 187.996 32.4812C188.06 32.3913 188.145 32.3182 188.243 32.2678C188.341 32.2175 188.449 32.1913 188.56 32.1915H191.293C191.439 32.1912 191.582 32.2373 191.7 32.3233C191.818 32.4093 191.906 32.5307 191.951 32.6698L192.063 33.0132L197.14 48.5032C197.271 48.8713 197.416 49.235 197.573 49.5932C197.599 49.6555 197.644 49.7087 197.7 49.746C197.756 49.7833 197.823 49.8033 197.89 49.8033C197.958 49.8033 198.024 49.7833 198.081 49.746C198.137 49.7087 198.181 49.6555 198.208 49.5932C198.466 48.9848 198.615 48.6232 198.655 48.5048L203.651 33.4882C203.691 33.367 203.753 33.1869 203.835 32.9484L203.836 32.9458L203.837 32.9443L203.936 32.6548C203.983 32.5193 204.072 32.4018 204.189 32.3187C204.306 32.2357 204.446 32.1912 204.59 32.1915ZM172.708 51.7732C171.928 51.7732 171.245 51.6698 170.661 51.4632C169.165 51.0165 168.085 49.7348 168.085 48.2232C168.085 47.8515 168.15 47.4932 168.271 47.1598C168.718 45.7298 170.125 44.8148 172.43 44.4415L176.72 43.7915L178.89 43.5065L179.416 43.4582C179.464 43.454 179.512 43.4598 179.557 43.4753C179.603 43.4908 179.645 43.5155 179.68 43.548C179.715 43.5805 179.743 43.62 179.762 43.6638C179.782 43.7078 179.791 43.7553 179.791 43.8032V45.5532C179.791 47.1532 179.255 48.4882 178.18 49.5498C176.85 50.7732 175.02 51.7732 172.708 51.7732ZM234.715 54.2232V32.6965C234.715 32.6058 234.732 32.516 234.767 32.4322C234.802 32.3483 234.853 32.2722 234.917 32.208C234.982 32.144 235.058 32.0932 235.142 32.0587C235.225 32.024 235.315 32.0063 235.407 32.0065H238.192C238.373 32.0065 238.55 32.0793 238.678 32.2087C238.808 32.338 238.882 32.5135 238.882 32.6965V54.2232C238.882 54.4062 238.808 54.5817 238.678 54.7112C238.55 54.8405 238.373 54.9132 238.192 54.9132H235.407C235.025 54.9132 234.715 54.6048 234.715 54.2232ZM257.782 35.6182H251.9C251.708 35.6182 251.553 35.7732 251.553 35.9648V48.4682C251.553 50.0315 252.843 51.3015 254.433 51.3015H257.563C257.653 51.3013 257.743 51.319 257.827 51.3537C257.912 51.3882 257.988 51.439 258.052 51.503C258.117 51.5672 258.167 51.6433 258.202 51.7272C258.237 51.811 258.255 51.9008 258.255 51.9915V54.2232C258.255 54.314 258.237 54.4038 258.202 54.4877C258.167 54.5715 258.117 54.6477 258.052 54.7117C257.988 54.7758 257.912 54.8267 257.827 54.8612C257.743 54.8958 257.653 54.9135 257.563 54.9132H254.433C250.632 54.9132 247.515 51.9432 247.39 48.2098L247.387 35.9632C247.387 35.7732 247.232 35.6182 247.042 35.6182H244.48C244.098 35.6182 243.788 35.3098 243.788 34.9282V32.6965C243.788 32.6058 243.805 32.516 243.84 32.4322C243.875 32.3483 243.927 32.2722 243.99 32.208C244.055 32.144 244.132 32.0932 244.215 32.0587C244.298 32.024 244.388 32.0063 244.48 32.0065H247.042C247.087 32.0065 247.132 31.9977 247.173 31.9802C247.215 31.9627 247.253 31.9372 247.285 31.905C247.318 31.8727 247.343 31.8345 247.36 31.7925C247.378 31.7503 247.387 31.7053 247.387 31.6598V25.8582C247.387 25.7674 247.403 25.6773 247.438 25.5933C247.473 25.5093 247.523 25.4329 247.588 25.3687C247.652 25.3044 247.728 25.2535 247.813 25.2188C247.897 25.1841 247.987 25.1664 248.078 25.1666H250.863C250.953 25.1666 251.043 25.1845 251.127 25.2192C251.212 25.254 251.287 25.305 251.352 25.3693C251.415 25.4335 251.467 25.5098 251.5 25.5937C251.535 25.6776 251.553 25.7675 251.553 25.8582V31.6598C251.553 31.7053 251.562 31.7503 251.578 31.7925C251.595 31.8345 251.622 31.8727 251.653 31.905C251.685 31.9372 251.723 31.9627 251.765 31.9802C251.807 31.9977 251.852 32.0065 251.898 32.0065H257.782C257.963 32.0065 258.14 32.0793 258.268 32.2087C258.398 32.338 258.472 32.5135 258.472 32.6965V34.9282C258.472 35.1112 258.398 35.2867 258.268 35.4162C258.14 35.5455 257.963 35.6182 257.782 35.6182ZM151.643 40.0665C154.81 40.0665 157.376 37.5398 157.376 34.4232H157.375C157.375 31.3065 154.808 28.7798 151.641 28.7798H142.408C142.216 28.7798 142.063 28.9348 142.063 29.1248V39.7198C142.063 39.7653 142.071 39.8103 142.089 39.8525C142.106 39.8945 142.131 39.9327 142.163 39.965C142.195 39.9972 142.233 40.0227 142.275 40.0402C142.317 40.0577 142.362 40.0665 142.408 40.0665H151.643ZM216.5 43.5932H226.973C227.064 43.5932 227.153 43.5753 227.237 43.5405C227.321 43.5058 227.397 43.4548 227.461 43.3905C227.525 43.3263 227.576 43.25 227.611 43.1662C227.645 43.0822 227.663 42.9923 227.663 42.9015V40.6698C227.663 40.4868 227.59 40.3113 227.461 40.182C227.331 40.0527 227.156 39.9798 226.973 39.9798H216.5C216.454 39.9798 216.409 39.971 216.368 39.9537C216.326 39.9363 216.288 39.9108 216.256 39.8788C216.224 39.8468 216.198 39.8088 216.181 39.767C216.163 39.725 216.155 39.6802 216.155 39.6348V29.1248C216.155 28.9348 216.31 28.7798 216.5 28.7798H229.362C229.543 28.7798 229.72 28.7072 229.848 28.5778C229.978 28.4483 230.052 28.2728 230.052 28.0898V25.8566C230.052 25.6736 229.978 25.4981 229.848 25.3687C229.72 25.2393 229.543 25.1666 229.362 25.1666H212.678C212.587 25.1666 212.497 25.1845 212.413 25.2192C212.33 25.254 212.253 25.305 212.189 25.3693C212.125 25.4335 212.074 25.5098 212.04 25.5937C212.005 25.6776 211.988 25.7675 211.988 25.8582V54.2232C211.988 54.6048 212.296 54.9132 212.678 54.9132H215.465C215.555 54.9132 215.645 54.8953 215.729 54.8607C215.812 54.826 215.888 54.7752 215.952 54.7112C216.017 54.647 216.067 54.571 216.102 54.4873C216.137 54.4035 216.155 54.3138 216.155 54.2232V43.9382C216.155 43.7465 216.31 43.5932 216.5 43.5932ZM86.6862 26.0232H82.1929C81.8595 26.0232 81.5795 26.2582 81.5145 26.5732L81.5012 26.7132L81.5029 50.4898L81.5012 50.6248C81.5012 53.5148 83.8812 55.8548 86.8145 55.8548C89.7495 55.8548 92.1295 53.5148 92.1295 50.6248V50.6248C92.1295 50.5748 92.1295 50.5465 92.1262 50.5215L92.1229 44.5882C92.1229 44.4282 92.2295 44.2948 92.3762 44.2548L92.4679 44.2415H99.5312C104.481 44.0415 108.405 40.0282 108.405 35.1365C108.405 30.2348 104.465 26.2149 99.4712 26.0266H99.4079C98.8445 26.0249 94.6045 26.0232 86.6862 26.0232ZM99.1495 28.7065H92.7695H84.5695C84.3795 28.7065 84.2245 28.8615 84.2245 29.0515V50.4815C84.2279 50.5315 84.2279 50.5498 84.2279 50.6248C84.2302 50.9622 84.299 51.2955 84.4304 51.6062C84.5617 51.9167 84.7529 52.1983 84.993 52.435C85.2334 52.6717 85.5179 52.8587 85.8304 52.9853C86.1429 53.112 86.4774 53.1758 86.8145 53.1732C87.1655 53.176 87.5134 53.1068 87.8365 52.97C88.1599 52.833 88.4515 52.6312 88.6935 52.377C88.9357 52.1228 89.1232 51.8218 89.2442 51.4923C89.3654 51.1628 89.4177 50.812 89.3979 50.4615L89.3995 34.4865C89.3995 34.3035 89.4722 34.128 89.6015 33.9987C89.731 33.8693 89.9065 33.7965 90.0895 33.7965H99.1495C99.3269 33.795 99.5029 33.8285 99.6674 33.895C99.8319 33.9615 99.9817 34.0598 100.108 34.1843C100.235 34.3088 100.335 34.457 100.404 34.6203C100.474 34.7837 100.51 34.9592 100.511 35.1365C100.51 35.3138 100.474 35.4892 100.405 35.6525C100.336 35.8157 100.235 35.9638 100.109 36.0883C99.9824 36.2127 99.8329 36.311 99.6685 36.3777C99.5042 36.4443 99.3284 36.4778 99.1512 36.4765H92.4679C92.2779 36.4765 92.1229 36.6315 92.1229 36.8232V41.2232C92.1225 41.2687 92.1314 41.3137 92.1485 41.3558C92.1659 41.3978 92.1912 41.436 92.2232 41.4683C92.2554 41.5005 92.2934 41.526 92.3354 41.5435C92.3774 41.561 92.4224 41.5698 92.4679 41.5698H99.3962C102.91 41.4332 105.686 38.5982 105.686 35.1398C105.686 31.5882 102.76 28.7065 99.1495 28.7065Z" fill="white"/>
</g>
</g>
</svg>
