<svg width="80" height="80" viewBox="0 0 80 80" fill="none" xmlns="http://www.w3.org/2000/svg">
<g id="uber-short-black">
<g id="Group">
<path id="Vector" d="M9.91228 45.8594C10.1996 46.622 10.5975 47.274 11.1059 47.8155C11.6143 48.3571 12.2166 48.7715 12.9128 49.0589C13.6091 49.3462 14.3661 49.4899 15.184 49.4899C15.9797 49.4899 16.7257 49.3407 17.422 49.0422C18.1183 48.7438 18.7261 48.3239 19.2455 47.7824C19.7649 47.2408 20.1683 46.5943 20.4557 45.8428C20.743 45.0913 20.8867 44.2514 20.8867 43.323V29H24.3679V52.2086H20.9198V50.0535C20.1462 50.8712 19.2344 51.5012 18.1845 51.9434C17.1345 52.3854 16.0018 52.6064 14.7861 52.6064C13.5483 52.6064 12.3934 52.3909 11.3214 51.9599C10.2494 51.5289 9.32098 50.9155 8.53637 50.1198C7.75175 49.324 7.13279 48.3682 6.6797 47.2519C6.22654 46.1357 6 44.8924 6 43.5219V29H9.48128V43.323C9.48128 44.2514 9.62492 45.0968 9.91228 45.8594Z" fill="black"/>
<path id="Vector_2" d="M30.3689 29V37.4545C31.1425 36.6809 32.0378 36.0676 33.0545 35.6144C34.0712 35.1613 35.1764 34.9347 36.37 34.9347C37.6078 34.9347 38.7681 35.1668 39.8512 35.631C40.9343 36.0951 41.8736 36.7251 42.6694 37.5209C43.4652 38.3166 44.0951 39.2559 44.5593 40.339C45.0235 41.4221 45.2555 42.5715 45.2555 43.7872C45.2555 45.0028 45.0235 46.1467 44.5593 47.2187C44.0951 48.2907 43.4652 49.2246 42.6694 50.0202C41.8736 50.816 40.9343 51.446 39.8512 51.9101C38.7681 52.3743 37.6077 52.6063 36.37 52.6063C35.1764 52.6063 34.0657 52.3798 33.0379 51.9266C32.0101 51.4735 31.1094 50.8602 30.3357 50.0865V52.2085H27.0203V29H30.3689ZM30.7502 46.0749C31.0485 46.7822 31.463 47.4011 31.9935 47.9316C32.524 48.4621 33.1429 48.8821 33.8502 49.1915C34.5575 49.501 35.3201 49.6557 36.1379 49.6557C36.9337 49.6557 37.6851 49.501 38.3924 49.1915C39.0997 48.8821 39.713 48.4622 40.2326 47.9316C40.752 47.4012 41.1664 46.7822 41.4759 46.0749C41.7853 45.3676 41.94 44.605 41.94 43.7872C41.94 42.9693 41.7853 42.2012 41.4759 41.4829C41.1664 40.7645 40.752 40.1401 40.2326 39.6096C39.7131 39.0792 39.0998 38.6647 38.3924 38.3664C37.6851 38.068 36.9336 37.9187 36.1379 37.9187C35.3422 37.9187 34.5907 38.0679 33.8834 38.3664C33.1761 38.6648 32.5572 39.0792 32.0267 39.6096C31.4963 40.1401 31.0763 40.7645 30.7668 41.4829C30.4574 42.2012 30.3027 42.9693 30.3027 43.7872C30.3026 44.605 30.4518 45.3676 30.7502 46.0749Z" fill="black"/>
<path id="Vector_3" d="M47.1449 40.3723C47.5869 39.3114 48.1949 38.3775 48.9684 37.5708C49.7419 36.764 50.6593 36.1285 51.7203 35.6644C52.7813 35.2002 53.9307 34.9681 55.1684 34.9681C56.3841 34.9681 57.5114 35.1892 58.5503 35.6312C59.5891 36.0733 60.4843 36.6867 61.2358 37.4713C61.9873 38.256 62.5731 39.1844 62.993 40.2563C63.413 41.3284 63.623 42.4943 63.623 43.7543V44.8484H49.8637C49.9742 45.5336 50.1953 46.1691 50.5268 46.7547C50.8584 47.3405 51.2727 47.8489 51.7701 48.2799C52.2674 48.7109 52.831 49.048 53.461 49.2911C54.091 49.5342 54.7595 49.6559 55.4669 49.6559C57.4783 49.6559 59.1029 48.8269 60.3407 47.1692L62.761 48.9595C61.9211 50.0868 60.8823 50.971 59.6445 51.6119C58.4067 52.2529 57.0142 52.5734 55.4669 52.5734C54.207 52.5734 53.0301 52.3523 51.9359 51.9103C50.8418 51.4683 49.8914 50.8493 49.0846 50.0536C48.2778 49.2578 47.6424 48.324 47.1782 47.252C46.7141 46.18 46.4819 45.014 46.4819 43.7541C46.4818 42.5606 46.7029 41.4333 47.1449 40.3723ZM51.8032 39.0627C50.8638 39.8473 50.2394 40.8917 49.93 42.1958H60.2412C59.9539 40.8917 59.3405 39.8473 58.4011 39.0627C57.4617 38.278 56.362 37.8857 55.1022 37.8857C53.8423 37.8857 52.7426 38.278 51.8032 39.0627Z" fill="black"/>
<path id="Vector_4" d="M69.8889 39.4439C69.1816 40.2175 68.828 41.2674 68.828 42.5937V52.2087H65.4792V35.2996H68.7947V37.3884C69.2147 36.7032 69.7618 36.1616 70.4359 35.7637C71.1101 35.3658 71.9113 35.1669 72.8397 35.1669H74.0001V38.2835H72.6076C71.5025 38.2835 70.5962 38.6703 69.8889 39.4439Z" fill="black"/>
</g>
</g>
</svg>
