<svg width="320" height="80" viewBox="0 0 320 80" fill="none" xmlns="http://www.w3.org/2000/svg">
<g id="uber-long-color">
<g id="Group">
<path id="Vector" d="M106.961 48.9959C107.472 50.3527 108.18 51.5128 109.084 52.4762C109.989 53.4397 111.06 54.1771 112.299 54.6883C113.538 55.1996 114.885 55.4552 116.34 55.4552C117.756 55.4552 119.083 55.1897 120.322 54.6587C121.561 54.1277 122.642 53.3806 123.566 52.4172C124.49 51.4536 125.208 50.3035 125.719 48.9664C126.23 47.6293 126.486 46.135 126.486 44.4832V19H132.68V60.2922H126.545V56.4579C125.169 57.9128 123.546 59.0336 121.678 59.8203C119.81 60.6067 117.795 61 115.632 61C113.43 61 111.375 60.6165 109.468 59.8497C107.56 59.0828 105.909 57.9917 104.513 56.5758C103.117 55.16 102.015 53.4594 101.209 51.4734C100.403 49.4874 100 47.2754 100 44.8371V19H106.194V44.4832C106.194 46.135 106.449 47.6391 106.961 48.9959Z" fill="#010202"/>
<path id="Vector_2" d="M143.356 19V34.0421C144.733 32.6657 146.325 31.5745 148.134 30.7683C149.943 29.962 151.91 29.559 154.033 29.559C156.236 29.559 158.3 29.9718 160.227 30.7976C162.154 31.6235 163.825 32.7443 165.241 34.1601C166.657 35.5759 167.778 37.2472 168.603 39.1741C169.429 41.1012 169.842 43.1461 169.842 45.309C169.842 47.4718 169.429 49.507 168.603 51.4142C167.778 53.3216 166.657 54.9832 165.241 56.3987C163.825 57.8145 162.154 58.9354 160.227 59.7612C158.3 60.587 156.235 60.9999 154.033 60.9999C151.91 60.9999 149.934 60.5968 148.105 59.7906C146.276 58.9844 144.674 57.8931 143.297 56.5167V60.292H137.398V19H143.356ZM144.035 49.3792C144.565 50.6377 145.303 51.7388 146.247 52.6827C147.191 53.6265 148.292 54.3738 149.55 54.9243C150.809 55.4749 152.165 55.7501 153.62 55.7501C155.036 55.7501 156.373 55.4749 157.632 54.9243C158.89 54.3738 159.981 53.6266 160.906 52.6827C161.83 51.739 162.567 50.6377 163.118 49.3792C163.668 48.1208 163.943 46.7641 163.943 45.309C163.943 43.854 163.668 42.4874 163.118 41.2092C162.567 39.9311 161.83 38.8202 160.906 37.8764C159.981 36.9327 158.89 36.1953 157.632 35.6644C156.373 35.1336 155.036 34.8679 153.62 34.8679C152.205 34.8679 150.868 35.1334 149.609 35.6644C148.351 36.1954 147.25 36.9327 146.306 37.8764C145.362 38.8202 144.615 39.9311 144.064 41.2092C143.514 42.4874 143.238 43.854 143.238 45.309C143.238 46.7641 143.504 48.1208 144.035 49.3792Z" fill="#010202"/>
<path id="Vector_3" d="M173.204 39.2333C173.99 37.3456 175.072 35.6842 176.448 34.2488C177.825 32.8134 179.457 31.6828 181.344 30.857C183.232 30.0311 185.277 29.6183 187.479 29.6183C189.642 29.6183 191.648 30.0116 193.496 30.798C195.344 31.5845 196.937 32.6758 198.274 34.0719C199.611 35.4679 200.654 37.1197 201.401 39.0269C202.148 40.9343 202.521 43.0087 202.521 45.2504V47.197H178.041C178.238 48.4161 178.631 49.5467 179.221 50.5887C179.811 51.6308 180.548 52.5354 181.433 53.3022C182.318 54.0692 183.321 54.6689 184.441 55.1014C185.562 55.5339 186.752 55.7503 188.01 55.7503C191.589 55.7503 194.479 54.2755 196.682 51.3261L200.988 54.5114C199.493 56.517 197.645 58.0901 195.443 59.2305C193.241 60.3709 190.763 60.9412 188.01 60.9412C185.769 60.9412 183.675 60.5478 181.728 59.7614C179.781 58.975 178.09 57.8737 176.655 56.4579C175.22 55.0421 174.089 53.3807 173.263 51.4734C172.437 49.5662 172.024 47.4916 172.024 45.2501C172.024 43.1266 172.418 41.121 173.204 39.2333ZM181.492 36.9032C179.821 38.2993 178.71 40.1574 178.159 42.4776H196.505C195.993 40.1574 194.902 38.2993 193.231 36.9032C191.559 35.5072 189.603 34.8091 187.361 34.8091C185.12 34.8091 183.163 35.5072 181.492 36.9032Z" fill="#010202"/>
<path id="Vector_4" d="M213.67 37.5815C212.412 38.9579 211.782 40.8259 211.782 43.1855V60.2924H205.824V30.208H211.723V33.9244C212.47 32.7053 213.444 31.7417 214.643 31.0339C215.843 30.3259 217.268 29.9719 218.92 29.9719H220.984V35.5169H218.507C216.541 35.517 214.928 36.2052 213.67 37.5815Z" fill="#010202"/>
</g>
</g>
</svg>
