<svg width="80" height="80" viewBox="0 0 80 80" fill="none" xmlns="http://www.w3.org/2000/svg">
<g id="zenly-short-color">
<g id="Group 461">
<path id="Vector" d="M39.0215 69.0557H40.6782C43.0495 69.0557 44.9661 67.1391 44.9661 64.7678V57.329H34.7336V64.7678C34.7336 67.1391 36.6502 69.0557 39.0215 69.0557Z" fill="#51BAF9"/>
<path id="Vector_2" d="M39.8661 10C29.991 10 22 16.9191 22 25.4948V46.7393L47.5648 11.5267C45.226 10.5522 42.6273 10 39.8661 10Z" fill="#FFDD00"/>
<path id="Vector_3" d="M34.7336 57.329H53.5743C55.8482 57.329 57.6997 55.4774 57.6997 53.1711V25.6897L34.7336 57.329Z" fill="#66FF33"/>
<path id="Vector_4" d="M57.7323 25.4948C57.7323 19.3229 53.5743 14.028 47.5648 11.5267L22 46.7068V53.1386C22 55.4449 23.8516 57.2965 26.1255 57.2965H34.7337L57.7323 25.6572V25.4948Z" fill="#FF0096"/>
</g>
</g>
</svg>
