<svg width="320" height="80" viewBox="0 0 320 80" fill="none" xmlns="http://www.w3.org/2000/svg">
<g id="zenly-long-color">
<path id="Vector" fill-rule="evenodd" clip-rule="evenodd" d="M221.034 10.942H212.848V57.329H221.034V10.942ZM158.308 50.7997C161.491 50.7997 164.025 49.4679 165.422 47.6163L172.016 51.4169C169.027 55.7373 164.285 58.2061 158.178 58.2061C147.523 58.2061 140.766 50.9297 140.766 41.4769C140.766 32.0241 147.556 24.7477 157.528 24.7477C166.916 24.7477 173.608 32.154 173.608 41.4769C173.608 42.6788 173.478 43.7507 173.283 44.8227H149.342C150.512 49.0131 153.987 50.7997 158.308 50.7997ZM165.422 38.5208C164.415 33.9731 160.971 32.1215 157.561 32.1215C153.175 32.1215 150.187 34.4603 149.245 38.5208H165.422ZM207.423 37.8712V57.329H199.237V38.8782C199.237 34.5578 196.639 32.3489 192.935 32.3489C188.94 32.3489 185.951 34.6877 185.951 40.21V57.329H177.766V25.6572H185.951V29.198C187.868 26.3394 191.149 24.7477 195.404 24.7477C202.128 24.7477 207.423 29.4578 207.423 37.8712ZM257.903 25.6247L246.339 57.2965C243.026 66.4245 237.633 70.42 229.577 69.9652V62.364C234.093 62.429 236.366 60.5124 237.893 56.2895L224.867 25.6247H233.833L242.084 46.9341L249.133 25.6247H257.903ZM138.298 25.6572V32.6737L125.629 49.6628H138.33V57.329H115.137V51.1246L128.098 33.3234H115.137V25.6572H138.298Z" fill="#51BAF9"/>
<path id="Vector_2" d="M80.0215 69.0557H81.6782C84.0495 69.0557 85.9661 67.1391 85.9661 64.7678V57.329H75.7336V64.7678C75.7336 67.1391 77.6502 69.0557 80.0215 69.0557Z" fill="#51BAF9"/>
<path id="Vector_3" d="M80.8661 10C70.991 10 63 16.9191 63 25.4948V46.7393L88.5648 11.5267C86.226 10.5522 83.6273 10 80.8661 10Z" fill="#FFDD00"/>
<path id="Vector_4" d="M75.7336 57.329H94.5743C96.8482 57.329 98.6997 55.4774 98.6997 53.1711V25.6897L75.7336 57.329Z" fill="#66FF33"/>
<path id="Vector_5" d="M98.7323 25.4948C98.7323 19.3229 94.5743 14.028 88.5648 11.5267L63 46.7068V53.1386C63 55.4449 64.8516 57.2965 67.1255 57.2965H75.7337L98.7323 25.6572V25.4948Z" fill="#FF0096"/>
</g>
</svg>
