<svg width="320" height="80" viewBox="0 0 320 80" fill="none" xmlns="http://www.w3.org/2000/svg">
<g id="zenly-long-white">
<path id="Vector" fill-rule="evenodd" clip-rule="evenodd" d="M63 25.5806C63 17.0645 70.9355 10.1935 80.7419 10.1935C82.4516 10.1935 84.129 10.3871 85.7097 10.8064L63 42.0645V25.5806ZM75.6452 64.5806V57.1935L98.4516 25.7742V53.0645C98.4516 55.3548 96.6129 57.1935 94.3548 57.1935H85.8064V64.5806C85.8064 66.9355 83.9032 68.8387 81.5484 68.8387H79.9032C77.5484 68.8387 75.6452 66.9355 75.6452 64.5806ZM88.3871 11.6774L63 46.6452V53.0323C63 55.3226 64.8387 57.1613 67.0968 57.1613H72.2903L97.9355 21.871C96.6774 17.3871 93.129 13.6452 88.3871 11.6774ZM211.806 11.129H219.935V57.1935H211.806V11.129ZM164.71 47.5484C163.323 49.3871 160.806 50.7097 157.645 50.7097C153.355 50.7097 149.903 48.9355 148.742 44.7742H172.516C172.71 43.7097 172.839 42.6452 172.839 41.4516C172.839 32.1935 166.194 24.8387 156.871 24.8387C146.968 24.8387 140.226 32.0645 140.226 41.4516C140.226 50.8387 146.935 58.0645 157.516 58.0645C163.581 58.0645 168.29 55.6129 171.258 51.3226L164.71 47.5484ZM156.903 32.1613C160.29 32.1613 163.71 34 164.71 38.5161H148.645C149.581 34.4839 152.548 32.1613 156.903 32.1613ZM206.419 57.1935V37.871C206.419 29.5161 201.161 24.8387 194.484 24.8387C190.258 24.8387 187 26.4193 185.097 29.2581V25.7419H176.968V57.1935H185.097V40.1935C185.097 34.7097 188.065 32.3871 192.032 32.3871C195.71 32.3871 198.29 34.5806 198.29 38.871V57.1935H206.419ZM245.065 57.1613L256.548 25.7097H247.839L240.839 46.871L232.645 25.7097H223.742L236.677 56.1613C235.161 60.3548 232.903 62.2581 228.419 62.1935V69.7419C236.419 70.1935 241.774 66.2258 245.065 57.1613ZM137.774 32.7097V25.7419H114.774V33.3548H127.645L114.774 51.0323V57.1935H137.806V49.5806H125.194L137.774 32.7097Z" fill="white"/>
</g>
</svg>
