<svg width="80" height="80" viewBox="0 0 80 80" fill="none" xmlns="http://www.w3.org/2000/svg">
<g id="zenly-short-white">
<path id="Vector" fill-rule="evenodd" clip-rule="evenodd" d="M22 25.5806C22 17.0645 29.9355 10.1935 39.7419 10.1935C41.4516 10.1935 43.129 10.3871 44.7097 10.8064L22 42.0645V25.5806ZM34.6452 64.5806V57.1935L57.4516 25.7742V53.0645C57.4516 55.3548 55.6129 57.1935 53.3548 57.1935H44.8064V64.5806C44.8064 66.9355 42.9032 68.8387 40.5484 68.8387H38.9032C36.5484 68.8387 34.6452 66.9355 34.6452 64.5806ZM47.3871 11.6774L22 46.6452V53.0322C22 55.3226 23.8387 57.1613 26.0968 57.1613H31.2903L56.9355 21.871C55.6774 17.3871 52.129 13.6452 47.3871 11.6774Z" fill="white"/>
</g>
</svg>
