<svg width="48" height="48" viewBox="0 0 48 48" fill="none" xmlns="http://www.w3.org/2000/svg">
<circle cx="24" cy="24" r="19" stroke="#1FCE6D" stroke-width="3"/>
<path d="M26.6245 27.4914L26.0618 26.1009L25.0651 26.5043L25.127 27.5778L26.6245 27.4914ZM21.3755 27.4914L22.873 27.5778L22.9349 26.5043L21.9382 26.1009L21.3755 27.4914ZM21 34L19.5025 33.9136L19.411 35.5H21V34ZM27 34V35.5H28.589L28.4975 33.9136L27 34ZM29.5 21C29.5 23.306 28.0804 25.284 26.0618 26.1009L27.1872 28.8818C30.2998 27.6221 32.5 24.5698 32.5 21H29.5ZM24 15.5C27.0376 15.5 29.5 17.9624 29.5 21H32.5C32.5 16.3056 28.6944 12.5 24 12.5V15.5ZM18.5 21C18.5 17.9624 20.9624 15.5 24 15.5V12.5C19.3056 12.5 15.5 16.3056 15.5 21H18.5ZM21.9382 26.1009C19.9196 25.284 18.5 23.306 18.5 21H15.5C15.5 24.5698 17.7002 27.6221 20.8128 28.8818L21.9382 26.1009ZM19.878 27.405L19.5025 33.9136L22.4975 34.0864L22.873 27.5778L19.878 27.405ZM21 35.5H27V32.5H21V35.5ZM28.4975 33.9136L28.122 27.405L25.127 27.5778L25.5025 34.0864L28.4975 33.9136Z" fill="#1FCE6D"/>
</svg>
