<?xml version="1.0" encoding="UTF-8"?>
<svg width="588px" height="225px" viewBox="0 0 588 225" version="1.1" xmlns="http://www.w3.org/2000/svg" xmlns:xlink="http://www.w3.org/1999/xlink">
    <!-- Generator: Sketch 52.6 (67491) - http://www.bohemiancoding.com/sketch -->
    <title>Group 3</title>
    <desc>Created with Sketch.</desc>
    <defs>
        <path d="M53.7582885,81.8942821 C88.6016791,81.8942821 107.485725,66.9838 107.485725,43.8942532 C107.485725,20.8047063 97.882324,8.82165923 61.6194898,1.30573564 C25.3566556,-6.21018795 2.49035031,21.6862635 0.173423256,43.8942532 C-2.1435038,66.1022429 18.914898,81.8942821 53.7582885,81.8942821 Z" id="path-1"></path>
        <filter x="-17.2%" y="-21.4%" width="134.4%" height="145.2%" filterUnits="objectBoundingBox" id="filter-2">
            <feOffset dx="0" dy="1" in="SourceAlpha" result="shadowOffsetOuter1"></feOffset>
            <feGaussianBlur stdDeviation="6" in="shadowOffsetOuter1" result="shadowBlurOuter1"></feGaussianBlur>
            <feColorMatrix values="0 0 0 0 0   0 0 0 0 0   0 0 0 0 0  0 0 0 0.2 0" type="matrix" in="shadowBlurOuter1"></feColorMatrix>
        </filter>
        <path d="M0.344841908,3.81412813 C0.292935297,3.59365316 0.265476083,3.36386727 0.265476083,3.12780988 C0.265476083,1.47494067 1.59704355,0.135025434 3.26021366,0.135025434 L30.1979524,0.135025434 C31.8519003,0.135025434 33.1926899,1.47830393 33.1926899,3.12780988 L33.2331853,3.12780988 C32.7558297,11.540161 25.5639305,18.2190846 16.7619445,18.2190846 C8.20071961,18.2190846 1.16270464,11.9005417 0.344841908,3.81412813 Z" id="path-3"></path>
        <path d="M53.7582885,80.8942821 C88.6016791,80.8942821 107.485725,65.9838 107.485725,42.8942532 C107.485725,19.8047063 97.4647053,3.49045034 61.6194898,0.305735637 C25.7742743,-2.87897907 2.49035031,20.6862635 0.173423256,42.8942532 C-2.1435038,65.1022429 18.914898,80.8942821 53.7582885,80.8942821 Z" id="path-5"></path>
        <filter x="-17.2%" y="-21.6%" width="134.4%" height="145.7%" filterUnits="objectBoundingBox" id="filter-6">
            <feOffset dx="0" dy="1" in="SourceAlpha" result="shadowOffsetOuter1"></feOffset>
            <feGaussianBlur stdDeviation="6" in="shadowOffsetOuter1" result="shadowBlurOuter1"></feGaussianBlur>
            <feColorMatrix values="0 0 0 0 0   0 0 0 0 0   0 0 0 0 0  0 0 0 0.2 0" type="matrix" in="shadowBlurOuter1"></feColorMatrix>
        </filter>
        <path d="M0.344841908,3.81412813 C0.292935297,3.59365316 0.265476083,3.36386727 0.265476083,3.12780988 C0.265476083,1.47494067 1.59704355,0.135025434 3.26021366,0.135025434 L30.1979524,0.135025434 C31.8519003,0.135025434 33.1926899,1.47830393 33.1926899,3.12780988 L33.2331853,3.12780988 C32.7558297,11.540161 25.5639305,18.2190846 16.7619445,18.2190846 C8.20071961,18.2190846 1.16270464,11.9005417 0.344841908,3.81412813 Z" id="path-7"></path>
        <path d="M66.0189442,98.0048655 C108.809069,98.0048655 132,79.9833995 132,52.0763553 C132,24.1693112 110.639789,10.6302586 66.106488,1.54618198 C21.5731873,-7.53789459 3.05832463,25.2348 0.212975908,52.0763553 C-2.63237282,78.9179107 23.2288197,98.0048655 66.0189442,98.0048655 Z" id="path-9"></path>
        <filter x="-66.7%" y="-84.7%" width="233.3%" height="279.6%" filterUnits="objectBoundingBox" id="filter-10">
            <feOffset dx="0" dy="5" in="SourceAlpha" result="shadowOffsetOuter1"></feOffset>
            <feGaussianBlur stdDeviation="28.5" in="shadowOffsetOuter1" result="shadowBlurOuter1"></feGaussianBlur>
            <feColorMatrix values="0 0 0 0 0   0 0 0 0 0   0 0 0 0 0  0 0 0 0.2 0" type="matrix" in="shadowBlurOuter1"></feColorMatrix>
        </filter>
        <path d="M0.423388961,4.62051316 C0.359128388,4.35080842 0.325107618,4.0694998 0.325107618,3.7804089 C0.325107618,1.78267831 1.94322204,0.163197692 3.93902367,0.163197692 L37.0345531,0.163197692 C39.0304639,0.163197692 40.6484692,1.78674329 40.6484692,3.7804089 L40.6980606,3.7804089 C40.1134809,13.9479474 31.3061293,22.0203888 20.5270313,22.0203888 C10.0465613,22.0203888 1.43009915,14.3890352 0.423388961,4.62051316 Z" id="path-11"></path>
        <path d="M61.8126177,89.8481558 C101.458137,89.8481558 125.571625,75.4287307 122.944788,41.4995569 C119.612746,-1.5383102 90,1.88552129 61.7950657,0.523033888 C33.5901313,-0.839453512 7.31318789,-2.58821719 0.842667423,41.4995569 C-4.18735125,75.7722754 22.1670988,89.8481558 61.8126177,89.8481558 Z" id="path-13"></path>
        <filter x="-57.4%" y="-75.1%" width="214.7%" height="257.0%" filterUnits="objectBoundingBox" id="filter-14">
            <feOffset dx="0" dy="3" in="SourceAlpha" result="shadowOffsetOuter1"></feOffset>
            <feGaussianBlur stdDeviation="23" in="shadowOffsetOuter1" result="shadowBlurOuter1"></feGaussianBlur>
            <feColorMatrix values="0 0 0 0 0   0 0 0 0 0   0 0 0 0 0  0 0 0 0.2 0" type="matrix" in="shadowBlurOuter1"></feColorMatrix>
        </filter>
        <path d="M0.389821312,4.48152895 C0.332387856,4.22900976 0.30206409,3.96632723 0.30206409,3.69672299 C0.30206409,1.74321563 1.88796936,0.159585028 3.84357591,0.159585028 L34.2258063,0.159585028 C36.1817293,0.159585028 37.7673181,1.74719063 37.7673181,3.69672299 L37.8133945,3.69672299 C37.2702497,13.6391853 29.0871604,21.5329293 19.0720816,21.5329293 C9.32199656,21.5329293 1.30823669,14.0513876 0.389821312,4.48152895 Z" id="path-15"></path>
    </defs>
    <g id="Page-4" stroke="none" stroke-width="1" fill="none" fill-rule="evenodd">
        <g id="illu-2-copy-10" transform="translate(-346.000000, -392.000000)">
            <g id="Group-3" transform="translate(346.000000, 420.000000)">
                <path d="M294,197 C444.773737,197 567,176.867532 567,154.5 C567,132.132468 444.773737,114 294,114 C143.226263,114 21,132.132468 21,154.5 C21,176.867532 143.226263,197 294,197 Z" id="Oval-Copy-19" fill="#10733D" opacity="0.699999988"></path>
                <path d="M295,172 C451.85366,172 527,143.158452 527,118.121951 C527,93.0854508 423.130062,78 295,78 C166.869938,78 63,93.0854508 63,118.121951 C63,143.158452 138.14634,172 295,172 Z" id="Oval-Copy-18" fill="#CED1A3"></path>
                <ellipse id="Oval" fill="#FFFFD9" cx="294" cy="95.5" rx="294" ry="49.5"></ellipse>
                <path d="M42.4881724,107 C35.0188975,104.061951 31,100.942525 31,97.7101374 C31,80.1971121 148.972968,66 294.5,66 C440.027032,66 558,80.1971121 558,97.7101374 C558,100.942525 553.981102,104.061951 546.511828,107 C546.84946,106.424732 547.020833,105.844605 547.020833,105.26017 C547.020833,90.2490055 433.963405,78.0800523 294.5,78.0800523 C155.036595,78.0800523 41.9791667,90.2490055 41.9791667,105.26017 C41.9791667,105.844605 42.1505398,106.424732 42.4881724,107 Z" id="Combined-Shape" fill="#E7EABF"></path>
                <g id="Group-9-Copy-2" transform="translate(86.520846, 68.975816) scale(-1, 1) rotate(-32.000000) translate(-86.520846, -68.975816) translate(62.020846, 52.475816)">
                    <path d="M24.7790821,32.5078299 C33.6156381,32.5078299 41.6156381,27.1744965 48.7790821,16.5078299 C41.6156381,5.84116319 33.6156381,0.507829859 24.7790821,0.507829859 C15.9425261,0.507829859 7.94252606,5.84116319 0.779082054,16.5078299 C7.94252606,27.1744965 15.9425261,32.5078299 24.7790821,32.5078299 Z" id="Oval" fill="#518332"></path>
                    <path d="M48.6403813,16.2627852 C41.4769373,5.59611849 33.4769373,0.262785159 24.6403813,0.262785159 C15.8038253,0.262785159 7.80382535,5.59611849 0.640381346,16.2627852 L48.6403813,16.2627852 Z" id="Oval-Copy-2" fill="#699A2F"></path>
                </g>
                <g id="Group-9-Copy-5" transform="translate(277.884422, 29.665802) scale(-1, 1) rotate(-60.000000) translate(-277.884422, -29.665802) translate(253.384422, 13.165802)">
                    <path d="M24.7790821,32.5078299 C33.6156381,32.5078299 41.6156381,27.1744965 48.7790821,16.5078299 C41.6156381,5.84116319 33.6156381,0.507829859 24.7790821,0.507829859 C15.9425261,0.507829859 7.94252606,5.84116319 0.779082054,16.5078299 C7.94252606,27.1744965 15.9425261,32.5078299 24.7790821,32.5078299 Z" id="Oval" fill="#518332"></path>
                    <path d="M48.6403813,16.2627852 C41.4769373,5.59611849 33.4769373,0.262785159 24.6403813,0.262785159 C15.8038253,0.262785159 7.80382535,5.59611849 0.640381346,16.2627852 L48.6403813,16.2627852 Z" id="Oval-Copy-2" fill="#699A2F"></path>
                </g>
                <g id="Group-9-Copy-6" transform="translate(373.308226, 39.177742) scale(-1, 1) rotate(-115.000000) translate(-373.308226, -39.177742) translate(348.808226, 22.677742)">
                    <path d="M24.7790821,32.5078299 C33.6156381,32.5078299 41.6156381,27.1744965 48.7790821,16.5078299 C41.6156381,5.84116319 33.6156381,0.507829859 24.7790821,0.507829859 C15.9425261,0.507829859 7.94252606,5.84116319 0.779082054,16.5078299 C7.94252606,27.1744965 15.9425261,32.5078299 24.7790821,32.5078299 Z" id="Oval" fill="#518332"></path>
                    <path d="M48.6403813,16.2627852 C41.4769373,5.59611849 33.4769373,0.262785159 24.6403813,0.262785159 C15.8038253,0.262785159 7.80382535,5.59611849 0.640381346,16.2627852 L48.6403813,16.2627852 Z" id="Oval-Copy-2" fill="#699A2F"></path>
                </g>
                <g id="Group-20" transform="translate(90.000000, 25.000000)">
                    <g id="Group-2">
                        <g id="Oval-2-Copy">
                            <use fill="black" fill-opacity="1" filter="url(#filter-2)" xlink:href="#path-1"></use>
                            <use fill="#FFFFFF" fill-rule="evenodd" xlink:href="#path-1"></use>
                        </g>
                        <path d="M0.115882029,44.4999698 C14.2754424,63.1037916 37.0669652,75.1737432 62.770968,75.1737432 C76.0537244,75.1737432 88.5587346,71.9505939 99.4967406,66.2682451 C90.8664819,76.1489115 75.3871466,81.8942821 53.7582885,81.8942821 C19.2325193,81.8942821 -1.75843481,66.3888412 0.115882029,44.4999698 Z" id="Combined-Shape-Copy" fill="#EDEDED" opacity="0.5"></path>
                        <g id="Group-Copy" transform="translate(57.749633, 37.890471) rotate(-3.000000) translate(-57.749633, -37.890471) translate(35.249633, 23.390471)">
                            <ellipse id="Oval-10" fill="#343434" cx="4.46916276" cy="4.329986" rx="4.46916276" ry="4.329986"></ellipse>
                            <ellipse id="Oval-10" fill="#343434" cx="40.2825884" cy="4.329986" rx="4.46916276" ry="4.329986"></ellipse>
                            <g id="Group-4" transform="translate(5.510883, 9.938628)">
                                <mask id="mask-4" fill="white">
                                    <use xlink:href="#path-3"></use>
                                </mask>
                                <use id="Combined-Shape" fill="#D91E18" xlink:href="#path-3"></use>
                                <path d="M2.80631953,-0.224385504 L30.566678,-0.224385504 C30.5701478,-0.1553122 30.5719036,-0.0857952769 30.5719036,-0.0158768029 C30.5719036,2.24886132 28.728276,4.08479431 26.4742242,4.08479431 L6.89876838,4.08479431 C4.63568258,4.08479431 2.80108906,2.24425303 2.80108906,-0.0158768029 C2.80108906,-0.0858022941 2.80284661,-0.155319 2.80631953,-0.224385504 Z" id="Combined-Shape" fill="#EDEDED" mask="url(#mask-4)"></path>
                                <path d="M6.27067087,15.1058717 C8.97162145,12.4904294 12.7067634,10.8721503 16.8331558,10.8721503 C20.9595483,10.8721503 24.6946902,12.4904294 27.3956408,15.1058717 C24.4447729,17.2216483 20.790264,18.4732506 16.8331558,18.4732506 C12.8760477,18.4732506 9.22153883,17.2216483 6.27067087,15.1058717 Z" id="Combined-Shape" fill="#FF6B69" mask="url(#mask-4)"></path>
                            </g>
                        </g>
                    </g>
                </g>
                <g id="Group-20-Copy" transform="translate(273.000000, 16.000000)">
                    <g id="Group-2">
                        <g id="Oval-2-Copy">
                            <use fill="black" fill-opacity="1" filter="url(#filter-6)" xlink:href="#path-5"></use>
                            <use fill="#FFFFFF" fill-rule="evenodd" xlink:href="#path-5"></use>
                        </g>
                        <path d="M1.41155661,52.386442 C15.2170538,64.5110891 33.5441453,71.8989512 53.6539282,71.8989512 C74.5975839,71.8989512 93.6076406,63.8856957 107.590158,50.8539147 C103.819064,69.5943802 85.4735594,81.308244 54.5901917,81.308244 C24.713304,81.308244 4.97170938,69.6972847 1.41155661,52.386442 Z" id="Combined-Shape-Copy" fill="#EDEDED" opacity="0.5"></path>
                        <g id="Group-Copy" transform="translate(37.249633, 15.390471)">
                            <ellipse id="Oval-10" fill="#343434" cx="4.46916276" cy="4.329986" rx="4.46916276" ry="4.329986"></ellipse>
                            <ellipse id="Oval-10" fill="#343434" cx="40.2825884" cy="4.329986" rx="4.46916276" ry="4.329986"></ellipse>
                            <g id="Group-4" transform="translate(5.510883, 9.938628)">
                                <mask id="mask-8" fill="white">
                                    <use xlink:href="#path-7"></use>
                                </mask>
                                <use id="Combined-Shape" fill="#D91E18" xlink:href="#path-7"></use>
                                <path d="M2.80631953,-0.224385504 L30.566678,-0.224385504 C30.5701478,-0.1553122 30.5719036,-0.0857952769 30.5719036,-0.0158768029 C30.5719036,2.24886132 28.728276,4.08479431 26.4742242,4.08479431 L6.89876838,4.08479431 C4.63568258,4.08479431 2.80108906,2.24425303 2.80108906,-0.0158768029 C2.80108906,-0.0858022941 2.80284661,-0.155319 2.80631953,-0.224385504 Z" id="Combined-Shape" fill="#EDEDED" mask="url(#mask-8)"></path>
                                <path d="M6.27067087,15.1058717 C8.97162145,12.4904294 12.7067634,10.8721503 16.8331558,10.8721503 C20.9595483,10.8721503 24.6946902,12.4904294 27.3956408,15.1058717 C24.4447729,17.2216483 20.790264,18.4732506 16.8331558,18.4732506 C12.8760477,18.4732506 9.22153883,17.2216483 6.27067087,15.1058717 Z" id="Combined-Shape" fill="#FF6B69" mask="url(#mask-8)"></path>
                            </g>
                        </g>
                    </g>
                </g>
                <g id="Group-9-Copy-4" transform="translate(164.897013, 97.476395) rotate(2.000000) translate(-164.897013, -97.476395) translate(140.397013, 80.976395)">
                    <path d="M24.7790821,32.5078299 C33.6156381,32.5078299 41.6156381,27.1744965 48.7790821,16.5078299 C41.6156381,5.84116319 33.6156381,0.507829859 24.7790821,0.507829859 C15.9425261,0.507829859 7.94252606,5.84116319 0.779082054,16.5078299 C7.94252606,27.1744965 15.9425261,32.5078299 24.7790821,32.5078299 Z" id="Oval" fill="#518332"></path>
                    <path d="M48.6403813,16.2627852 C41.4769373,5.59611849 33.4769373,0.262785159 24.6403813,0.262785159 C15.8038253,0.262785159 7.80382535,5.59611849 0.640381346,16.2627852 L48.6403813,16.2627852 Z" id="Oval-Copy-2" fill="#699A2F"></path>
                </g>
                <g id="Group-22" transform="translate(174.000000, 22.000000)">
                    <g id="Group-6">
                        <g id="Oval-2">
                            <use fill="black" fill-opacity="1" filter="url(#filter-10)" xlink:href="#path-9"></use>
                            <use fill="#FFFFFF" fill-rule="evenodd" xlink:href="#path-9"></use>
                        </g>
                        <path d="M6.6252145,76.0825218 C20.0984224,83.056201 35.5304024,87.0162001 51.9305619,87.0162001 C85.2668677,87.0162001 114.602855,70.6542941 131.618904,45.8782614 C131.873244,47.8620513 132,49.9265721 132,52.0763553 C132,79.9833995 108.809069,98.0048655 66.0189442,98.0048655 C37.6106118,98.0048655 16.6639134,89.5920565 6.62523332,76.0825317 Z" id="Combined-Shape" fill="#EDEDED" opacity="0.5"></path>
                        <g id="Group" transform="translate(48.107074, 43.083655) rotate(12.000000) translate(-48.107074, -43.083655) translate(20.607074, 25.083655)">
                            <ellipse id="Oval-10" fill="#343434" cx="5.47303111" cy="5.23341196" rx="5.47303111" ry="5.23341196"></ellipse>
                            <ellipse id="Oval-10" fill="#343434" cx="49.3309086" cy="5.23341196" rx="5.47303111" ry="5.23341196"></ellipse>
                            <g id="Group-4" transform="translate(6.748744, 12.012264)">
                                <mask id="mask-12" fill="white">
                                    <use xlink:href="#path-11"></use>
                                </mask>
                                <use id="Combined-Shape" fill="#D91E18" xlink:href="#path-11"></use>
                                <path d="M3.4365672,-0.271202211 L37.4326693,-0.271202211 C37.4368722,-0.187717171 37.4389988,-0.103695954 37.4389988,-0.0191894039 C37.4389988,2.71807292 35.22071,4.93706247 32.4756399,4.93706247 L8.39363175,4.93706247 C5.65244431,4.93706247 3.43027283,2.71250315 3.43027283,-0.0191894039 C3.43027283,-0.103704435 3.43238755,-0.187725391 3.4365672,-0.271202211 Z" id="Combined-Shape" fill="#EDEDED" mask="url(#mask-12)"></path>
                                <path d="M7.67919599,18.2576225 C10.9868371,15.0964836 15.5609708,13.1405601 20.6142382,13.1405601 C25.6675056,13.1405601 30.2416393,15.0964836 33.5492804,18.2576225 C29.9355852,20.8148433 25.4601964,22.327585 20.6142382,22.327585 C15.76828,22.327585 11.2928912,20.8148433 7.67919599,18.2576225 Z" id="Combined-Shape" fill="#FF6B69" mask="url(#mask-12)"></path>
                            </g>
                        </g>
                    </g>
                </g>
                <g id="Group-9-Copy" transform="translate(495.227989, 89.856540) rotate(15.000000) translate(-495.227989, -89.856540) translate(472.227989, 74.356540)">
                    <path d="M23.2998724,30.5681701 C31.5841437,30.5681701 39.0841437,25.5681701 45.7998724,15.5681701 C39.0841437,5.56817015 31.5841437,0.568170147 23.2998724,0.568170147 C15.0156012,0.568170147 7.51560119,5.56817015 0.799872434,15.5681701 C7.51560119,25.5681701 15.0156012,30.5681701 23.2998724,30.5681701 Z" id="Oval" fill="#518332"></path>
                    <path d="M45.7905812,15.3060884 C39.0748525,5.30608836 31.5748525,0.30608836 23.2905812,0.30608836 C15.00631,0.30608836 7.50631,5.30608836 0.790581248,15.3060884 L45.7905812,15.3060884 Z" id="Oval-Copy-2" fill="#699A2F"></path>
                </g>
                <g id="Group-9-Copy-2" transform="translate(489.307648, 68.781875) rotate(-22.000000) translate(-489.307648, -68.781875) translate(459.307648, 48.781875)">
                    <path d="M30.1684135,39.9229727 C40.8459187,39.9229727 50.5125854,33.4229727 59.1684135,20.4229727 C50.5125854,7.42297267 40.8459187,0.922972671 30.1684135,0.922972671 C19.4909084,0.922972671 9.82424169,7.42297267 1.16841352,20.4229727 C9.82424169,33.4229727 19.4909084,39.9229727 30.1684135,39.9229727 Z" id="Oval" fill="#518332"></path>
                    <path d="M58.8311374,20.0798916 C50.1753093,7.41322494 40.5086426,1.07989161 29.8311374,1.07989161 C19.1536323,1.07989161 9.48696561,7.41322494 0.831137443,20.0798916 L58.8311374,20.0798916 Z" id="Oval-Copy-2" fill="#699A2F"></path>
                </g>
                <g id="Group-9-Copy" transform="translate(335.808970, 103.605446) rotate(-35.000000) translate(-335.808970, -103.605446) translate(311.308970, 87.105446)">
                    <path d="M24.7790821,32.5078299 C33.6156381,32.5078299 41.6156381,27.1744965 48.7790821,16.5078299 C41.6156381,5.84116319 33.6156381,0.507829859 24.7790821,0.507829859 C15.9425261,0.507829859 7.94252606,5.84116319 0.779082054,16.5078299 C7.94252606,27.1744965 15.9425261,32.5078299 24.7790821,32.5078299 Z" id="Oval" fill="#518332"></path>
                    <path d="M48.6403813,16.2627852 C41.4769373,5.59611849 33.4769373,0.262785159 24.6403813,0.262785159 C15.8038253,0.262785159 7.80382535,5.59611849 0.640381346,16.2627852 L48.6403813,16.2627852 Z" id="Oval-Copy-2" fill="#699A2F"></path>
                </g>
                <g id="Group-9-Copy-3" transform="translate(138.423863, 103.241258) rotate(39.000000) translate(-138.423863, -103.241258) translate(113.923863, 86.741258)">
                    <path d="M24.7790821,32.5078299 C33.6156381,32.5078299 41.6156381,27.1744965 48.7790821,16.5078299 C41.6156381,5.84116319 33.6156381,0.507829859 24.7790821,0.507829859 C15.9425261,0.507829859 7.94252606,5.84116319 0.779082054,16.5078299 C7.94252606,27.1744965 15.9425261,32.5078299 24.7790821,32.5078299 Z" id="Oval" fill="#518332"></path>
                    <path d="M48.6403813,16.2627852 C41.4769373,5.59611849 33.4769373,0.262785159 24.6403813,0.262785159 C15.8038253,0.262785159 7.80382535,5.59611849 0.640381346,16.2627852 L48.6403813,16.2627852 Z" id="Oval-Copy-2" fill="#699A2F"></path>
                </g>
                <g id="Group-23" transform="translate(360.000000, 27.000000)">
                    <g id="Group-12">
                        <g id="Oval-2">
                            <use fill="black" fill-opacity="1" filter="url(#filter-14)" xlink:href="#path-13"></use>
                            <use fill="#FFFFFF" fill-rule="evenodd" xlink:href="#path-13"></use>
                        </g>
                        <path d="M2.61133053,63.3552332 C17.4769308,74.730649 36.0310962,81.4839778 56.1540792,81.4839778 C82.8240971,81.4839778 106.7384,69.6213803 122.962103,50.8578293 C120.72996,78.0993221 97.5989765,89.8481558 61.8126177,89.8481558 C31.9938098,89.8481558 9.69386628,81.8853173 2.61133277,63.355239 Z" id="Combined-Shape" fill="#EDEDED" opacity="0.5"></path>
                        <g id="Group" transform="translate(53.521368, 45.000000) rotate(-2.000000) translate(-53.521368, -45.000000) translate(27.555556, 27.529412)">
                            <ellipse id="Oval-10" fill="#343434" cx="5.08510434" cy="5.1175613" rx="5.08510434" ry="5.1175613"></ellipse>
                            <ellipse id="Oval-10" fill="#343434" cx="45.8343489" cy="5.1175613" rx="5.08510434" ry="5.1175613"></ellipse>
                            <g id="Group-4" transform="translate(6.270395, 11.746351)">
                                <mask id="mask-16" fill="white">
                                    <use xlink:href="#path-15"></use>
                                </mask>
                                <use id="Combined-Shape" fill="#D91E18" xlink:href="#path-15"></use>
                                <path d="M3.19329855,-0.265198679 L34.7791482,-0.265198679 C34.7832557,-0.183561726 34.7853341,-0.101400464 34.7853341,-0.0187646131 C34.7853341,2.65790366 32.6134619,4.82777202 29.9346192,4.82777202 L8.03785095,4.82777202 C5.35887513,4.82777202 3.18713614,2.65245718 3.18713614,-0.0187646131 C3.18713614,-0.101408757 3.18920661,-0.183569763 3.19329855,-0.265198679 Z" id="Combined-Shape" fill="#EDEDED" mask="url(#mask-16)"></path>
                                <path d="M7.13489693,17.8534583 C10.2080935,14.7622967 14.458014,12.849671 19.1531073,12.849671 C23.8482006,12.849671 28.0981211,14.7622967 31.1713177,17.8534583 C27.8137601,20.3540706 23.6555855,21.8333251 19.1531073,21.8333251 C14.6506291,21.8333251 10.4924546,20.3540706 7.13489693,17.8534583 Z" id="Combined-Shape" fill="#FF6B69" mask="url(#mask-16)"></path>
                            </g>
                        </g>
                    </g>
                </g>
                <g id="Group-9-Copy-2" transform="translate(312.043569, 97.179886) rotate(-72.000000) translate(-312.043569, -97.179886) translate(284.543569, 78.679886)">
                    <path d="M27.3686376,36.4681587 C37.3097631,36.4681587 46.3097631,30.4681587 54.3686376,18.4681587 C46.3097631,6.46815872 37.3097631,0.468158724 27.3686376,0.468158724 C17.4275121,0.468158724 8.42751213,6.46815872 0.36863763,18.4681587 C8.42751213,30.4681587 17.4275121,36.4681587 27.3686376,36.4681587 Z" id="Oval" fill="#518332"></path>
                    <path d="M54.3686376,18.4681587 C46.3097631,6.46815872 37.3097631,0.468158724 27.3686376,0.468158724 C17.4275121,0.468158724 8.42751213,6.46815872 0.36863763,18.4681587 L54.3686376,18.4681587 Z" id="Oval-Copy" fill="#699A2F"></path>
                </g>
            </g>
        </g>
    </g>
</svg>