<?xml version="1.0" encoding="UTF-8"?>
<svg width="1500px" height="1500px" viewBox="0 0 1500 1500" version="1.1" xmlns="http://www.w3.org/2000/svg" xmlns:xlink="http://www.w3.org/1999/xlink">
    <!-- Generator: Sketch 52.6 (67491) - http://www.bohemiancoding.com/sketch -->
    <title>mozza-scale</title>
    <desc>Created with Sketch.</desc>
    <g id="mozza-scale" stroke="none" stroke-width="1" fill="none" fill-rule="evenodd">
        <g id="Group" transform="translate(89.000000, 0.000000)">
            <path d="M117.9,1250.7 C117.9,1250.7 -5.5,1270.4 0.8,1271.8 C7.1,1273.2 589.4,1504 609.3,1499.9 C629.2,1495.8 1288.9,1287.1 1288.9,1287.1" id="Path" fill="#D6D8D7"></path>
            <g transform="translate(117.000000, 0.000000)" id="Path">
                <polyline fill="#76F5FF" points="1171.4 530.7 1173.3 4 800.4 15.7 790.1 497.5"></polyline>
                <path d="M803.5,112.7 C796.2,83.4 853.3,71.7 850.4,112.7 C869.4,102.4 887,118.6 881.2,139.1 C891.5,139.1 917.8,137.6 925.1,146.4 C939.7,162.5 906.1,159.6 894.3,159.6 C862.1,162.5 826.9,158.1 794.7,168.4" fill="#FFFFFF"></path>
                <path d="M1063.5,220.3 C1065.3,200.4 1034.3,192.8 1020.2,200.4 C1009.1,206.8 1000.9,225 1000.9,237.8 C991,223.2 968.2,240.1 973.4,255.3 C963.5,253.5 921.4,260.6 933.1,274 C939.5,281.6 961.2,279.8 969.9,279.8 C1002.1,278.6 1034.8,282.7 1066.9,280.4 C1069.2,280.4 1071.6,279.8 1073.9,279.8" fill="#FFFFFF"></path>
                <path d="M824.3,316.2 L832.1,51.3 L1172.8,32.2 C1172.8,32.2 1173.8,25.9 1172.8,23.9 C1171.8,21.9 811.6,24.9 811.6,28.8 C811.6,32.7 807.7,332.8 807.7,332.8" fill="#775335"></path>
                <polyline fill="#896440" points="785 366.1 794.7 9.8 1203.1 0 1171.9 530.7 1139.6 526.7 1172.3 27.8 819.4 42.2 815.7 366.1"></polyline>
                <g transform="translate(0.000000, 478.000000)">
                    <path d="M1171.9,52.7 L1171.9,809.1 L519.2,942.3 C519.2,942.3 404.6,741.2 393.7,731.5 C382.8,721.8 431.9,574 431.9,574 C431.9,574 608.2,275.7 681,220 C753.7,164.2 848.3,110 848.3,110" fill="#C97A24"></path>
                    <g>
                        <polygon fill="#FFD345" points="1046.4 235.5 906.4 267.3 919.2 418.2 777.3 447.3 786.1 589.7 786.4 594.5 646.4 620 646.7 624 655.5 772.7 508.2 789.1 519.2 942.3 1 772.7 1 645.5 157.3 630.9 157.3 503.6 310 483.6 310 350.9 457.3 325.4 448.2 200 597.3 165.4 588.2 34.5 742.8 0 813.4 8.7 846.2 12.7 966.5 27.5 1030.1 35.3 1171.9 52.7 1035.5 89.1"></polygon>
                        <path d="M427.9,724.8 C425.4,739.4 365.8,741.6 294.7,729.6 C223.6,717.6 168,696 170.5,681.3 C173,666.6 232.6,664.5 303.7,676.5 C374.7,688.5 430.4,710.1 427.9,724.8 Z" fill="#EFB635"></path>
                        <path d="M754.3,398.8 C752.9,416 688.1,424.7 609.6,418.3 C531.1,411.9 468.5,392.8 469.9,375.7 C471.3,358.5 536.1,349.8 614.6,356.2 C693.1,362.6 755.7,381.7 754.3,398.8 Z" fill="#EFB635" opacity="0.8"></path>
                        <path d="M1066.3,58.4 C1065,76.2 990.5,85.4 899.7,79 C808.9,72.6 736.4,53.1 737.6,35.3 C738.6,21.5 783.6,12.9 846.1,12.7 L966.4,27.5 L1030,35.3 C1053.2,42.5 1066.8,50.6 1066.3,58.4 Z" fill="#EFB635" opacity="0.8"></path>
                        <polygon fill="#E0A52F" points="519.2 942.3 0.9 772.7 0.9 645.5 508.2 789.1"></polygon>
                        <polygon fill="#E0A52F" points="157.3 503.6 646.4 620 655.5 772.7 157.3 630.9"></polygon>
                        <polygon fill="#E0A52F" points="310 350.9 310 483.6 786.4 594.5 777.3 447.3"></polygon>
                        <polygon fill="#E0A52F" points="457.3 325.4 448.2 200 906.4 267.3 919.2 418.2"></polygon>
                        <polygon fill="#E0A52F" points="597.3 165.4 588.2 34.5 1035.5 89.1 1046.4 235.4"></polygon>
                    </g>
                </g>
                <g transform="translate(1046.000000, 38.000000)">
                    <polygon fill="#896440" points="116.1 0.1 88.3 481.4 81 481.4 108.8 0.1"></polygon>
                    <polygon fill="#AA6F3F" points="108.8 0.1 81 481.4 5 435.2 0.4 432.4 13.6 41.5 92.6 7.1"></polygon>
                </g>
                <path d="M1164.3,151 C1164.1,153.6 1161.6,155.5 1158.7,155.3 C1155.8,155.1 1153.5,152.9 1153.7,150.3 L1156,117.3 C1156.2,114.7 1158.7,112.8 1161.6,113 C1164.5,113.2 1166.8,115.4 1166.6,118 L1164.3,151 Z" fill="#AA6F3F"></path>
                <path d="M1072.2,280.7 C1072.2,285.5 1069.4,288.4 1060.9,288.4 C1056.8,288.4 1057.3,285.5 1057.3,280.7 L1057.3,277.6 C1057.3,272.8 1057.9,268.1 1062,268.1 C1068.3,268 1072.2,270.2 1072.2,277.6 L1072.2,280.7 Z" fill="#775335"></path>
                <path d="M1142.3,489.3 C1142.1,491.9 1139.6,493.8 1136.7,493.6 C1133.8,493.4 1131.5,491.2 1131.7,488.6 L1134,455.6 C1134.2,453 1136.7,451.1 1139.6,451.3 C1142.5,451.5 1144.8,453.7 1144.6,456.3 L1142.3,489.3 Z" fill="#AA6F3F"></path>
                <path d="M1068.4,279.7 C1068.4,284.5 1065.1,288.3 1061,288.3 C1056.9,288.3 1053.6,284.4 1053.6,279.7 L1053.6,276.6 C1053.6,271.8 1056.9,268 1061,268 C1065.1,268 1068.4,271.9 1068.4,276.6 L1068.4,279.7 Z" fill="#896440"></path>
                <path d="M1070.1,274.7 C1070.1,274.7 1073.4,274.3 1074.4,274.7 C1075.4,275.1 1075.5,281.2 1074.4,281.5 C1073.3,281.9 1070.9,281.5 1070.9,281.5" fill="#775335"></path>
            </g>
            <g transform="translate(756.000000, 254.000000)" id="Path">
                <path d="M374.1,196 C372.5,198.4 370.8,200.8 369,203.2 C355.4,220.9 333.7,238.7 300.3,255.3 C295,258 289.3,260.6 283.4,263.2 C156.8,318.2 88.9,295.3 58,280.5 C27.2,265.7 3.1,234.8 0.7,177.9 C0.7,177.9 2.1,129 31,81.7 C34.5,76 38.3,70.4 42.6,64.9 C42.9,64.5 43.2,64.1 43.6,63.7 C54.7,49.6 68.7,36.3 86.3,25.2 C107,12.1 155.5,5.2 188.7,1.6 C307.5,-11.1 364.5,71.2 379.4,103.7 C388.6,123.9 398.2,159.1 374.1,196 Z" fill="#FFFFFF"></path>
                <g transform="translate(138.000000, 41.000000)">
                    <g transform="translate(36.000000, 35.000000)">
                        <path d="M24.3,78.9 C28.6,81.7 32.9,84.1 37.8,85.9 C49.3,90 63.5,90 86.2,79.7 C96.9,74.8 104,66.2 108.5,56.8 C115,43.4 116.3,28.4 115.3,20 C114.1,9.1 109.8,2.6 105.7,0.8 C105,0.5 103.3,0.7 100.9,1.2 C89.6,3.8 63.2,14.3 52.4,18.4 C40.8,22.8 14.7,32.1 4.5,40.7 C2.8,42.1 1.6,43.5 0.9,44.9 C-2.4,51.6 9.8,69.6 24.3,78.9 Z" fill="#DA1E19"></path>
                        <path d="M37.8,85.8 C49.3,89.9 63.5,89.9 86.2,79.6 C96.9,74.7 104,66.1 108.5,56.7 C100.6,53.8 84.3,49.8 66.7,56.7 C53.9,61.8 44.2,74.7 37.8,85.8 Z" fill="#FF6B69"></path>
                        <path d="M4.5,40.7 C10.1,48.7 17.6,50.2 21.5,49.5 C25.9,48.8 85.4,25.6 95,18.6 C102.1,13.5 101.6,5.2 100.9,1.2 C89.6,3.8 63.2,14.3 52.4,18.4 C40.8,22.8 14.7,32.1 4.5,40.7 Z" fill="#FFFFFF"></path>
                    </g>
                    <path d="M9.8,74.2 C9.8,65.9 16.8,56.7 25.4,62.5 C26.9,63.5 28.9,64.1 30.6,63.2 C32.5,62.2 33.2,61.3 33.7,59.2 C34.1,57.6 33.2,55.3 31.7,54.4 C16.2,44.4 -1.8,57.6 0.8,75.4 C1.7,81.3 9.7,79.9 9.8,74.2 Z" fill="#2F2F2F"></path>
                    <path d="M158.3,8.2 C146.6,-4.7 124.4,-1 122.2,17.7 C121.9,20.1 123.2,22.2 125.3,23.2 C126.7,23.9 127.9,23.8 129.3,23.2 C130.9,22.5 132.2,20.9 132.4,19.2 C133.5,8 145.1,8.8 152,14.5 C155.8,17.7 161.7,12.1 158.3,8.2 Z" fill="#2F2F2F"></path>
                </g>
                <path d="M300.3,255.3 C295,258 289.3,260.6 283.4,263.2 C156.8,318.2 88.9,295.3 58,280.5 C27.2,265.7 3.1,234.8 0.7,177.9 C0.7,177.9 2.1,129 31,81.7 C7.4,169.2 73.4,240.1 164,258.9 C211,268.2 255.6,263.8 300.3,255.3 Z" fill="#F6F6F6"></path>
            </g>
            <g transform="translate(476.000000, 600.000000)" id="Path">
                <path d="M359.9,201.6 C358.2,203.8 356.4,206 354.4,208.2 C340.2,224.1 318.3,239.7 285.5,253.2 C279.8,255.5 273.8,257.8 267.5,260.1 C141.2,304.2 77.3,277.4 48.5,260.9 C19.7,244.4 -1.3,212.8 0.4,157.7 C0.4,157.7 6.4,98.7 48.9,51.5 C49.2,51.2 49.5,50.9 49.8,50.6 C49.8,50.5 49.9,50.5 50,50.4 C61.7,37.6 76.2,25.8 94,16.3 C114.9,5.1 162.3,1.8 194.7,0.8 C310.4,-3 359.6,80.5 371.7,112.9 C379,133 385.7,167.6 359.9,201.6 Z" fill="#FFFFFF"></path>
                <g transform="translate(144.000000, 32.000000)">
                    <path d="M116.9,17.3 C117.9,25.7 125.6,31.7 134,30.7 C142.4,29.7 148.4,22 147.4,13.6 C146.4,5.2 138.7,-0.8 130.3,0.2 C121.9,1.2 115.9,8.8 116.9,17.3 Z" fill="#2F2F2F"></path>
                    <path d="M1.1,52.3 C2.1,60.7 9.8,66.7 18.2,65.7 C26.6,64.7 32.6,57 31.6,48.6 C30.6,40.2 22.9,34.2 14.5,35.2 C6,36.2 0,43.8 1.1,52.3 Z" fill="#2F2F2F"></path>
                    <g transform="translate(30.000000, 39.000000)">
                        <path d="M19.4,64.1 C23.1,67 26.8,69.6 31,71.6 C41.1,76.4 54,77.6 75.5,70.2 C85.6,66.7 92.8,59.5 97.8,51.4 C104.9,39.8 107.4,26.3 107.2,18.6 C107,8.6 103.7,2.3 100.1,0.4 C99.5,1.13686838e-13 97.9,0.1 95.7,0.4 C85.2,1.7 60.3,9 50.2,11.8 C39.3,14.8 14.7,21 4.7,27.9 C3,29 1.8,30.2 1.1,31.4 C-2.5,36.9 7,54.4 19.4,64.1 Z" fill="#DA1E19"></path>
                        <path d="M31,71.6 C41.1,76.4 54,77.6 75.5,70.2 C85.6,66.7 92.8,59.5 97.8,51.4 C90.9,48.1 76.4,43 59.8,47.8 C47.8,51.2 37.8,62 31,71.6 Z" fill="#FF6B69"></path>
                        <path d="M4.8,27.7 C9.1,35.5 15.8,37.5 19.5,37.2 C23.6,36.9 79.6,21 89,15.6 C95.9,11.6 96.2,4 95.8,0.3 C85.3,1.6 60.4,8.9 50.3,11.7 C39.3,14.6 14.8,20.8 4.8,27.7 Z" fill="#FFFFFF"></path>
                    </g>
                </g>
                <path d="M285.4,253.2 C279.7,255.5 273.7,257.8 267.4,260.1 C141.1,304.2 77.2,277.4 48.4,260.9 C19.6,244.4 -1.4,212.8 0.3,157.7 C0.3,157.7 6.3,98.7 48.8,51.5 C49.1,51.2 49.4,50.9 49.7,50.6 C39.1,71.5 32.5,94.1 30.9,114.1 C26.3,173 69.7,204.7 118.8,226.8 C169.4,248.8 225.4,256.6 280.9,253.6 C282.4,253.5 283.9,253.4 285.4,253.2 Z" fill="#F6F6F6"></path>
            </g>
            <g transform="translate(160.000000, 908.000000)" id="Path">
                <path d="M354.2,222.5 C352.3,224.5 350.2,226.5 348,228.4 C331.9,242.5 308.3,255.2 274.1,264.7 C268.2,266.3 261.9,267.9 255.4,269.3 C124.7,297.8 64.5,263.3 37.9,243.4 C11.4,223.5 -5.7,189.6 2.7,135.1 C2.7,135.1 15.8,77.2 63.8,35.6 C64.1,35.3 64.4,35.1 64.8,34.8 C64.8,34.7 64.9,34.7 65,34.6 C78.2,23.3 94,13.3 112.8,6.1 C134.9,-2.4 182.4,0.1 214.6,2.9 C329.9,13.2 368.6,102 376.7,135.7 C381.5,156.7 384,191.9 354.2,222.5 Z" fill="#FFFFFF"></path>
                <g transform="translate(155.000000, 43.000000)">
                    <path d="M119.5,16.3 C119.5,24.8 126.4,31.7 134.8,31.7 C143.3,31.7 150.2,24.8 150.2,16.4 C150.2,7.9 143.3,1 134.9,1 C126.4,0.9 119.5,7.8 119.5,16.3 Z" fill="#2F2F2F"></path>
                    <path d="M0.2,36.9 C0.2,45.4 7.1,52.3 15.5,52.3 C24,52.3 30.9,45.4 30.9,37 C30.9,28.5 24,21.6 15.6,21.6 C7.1,21.6 0.2,28.4 0.2,36.9 Z" fill="#2F2F2F"></path>
                    <g transform="translate(26.000000, 39.000000)">
                        <path d="M16,54.3 C19.3,57.6 22.7,60.7 26.6,63.2 C36,69.2 48.7,71.9 71,67.2 C81.5,65 89.5,58.7 95.4,51.2 C103.8,40.6 107.9,27.5 108.7,19.8 C109.7,9.9 107.2,3.2 103.9,0.8 C103.3,0.4 101.8,0.2 99.5,0.2 C88.9,0.3 63.3,4.4 52.9,5.9 C41.7,7.5 16.6,10.7 5.8,16.3 C4,17.2 2.6,18.2 1.8,19.3 C-2.4,24.7 4.9,43.1 16,54.3 Z" fill="#DA1E19"></path>
                        <path d="M26.7,63.1 C36.1,69.1 48.8,71.8 71.1,67.1 C81.6,64.9 89.6,58.6 95.5,51.1 C89,47 75.3,40.2 58.2,42.9 C45.8,44.9 34.6,54.4 26.7,63.1 Z" fill="#FF6B69"></path>
                        <path d="M5.9,16.3 C9.3,24.6 15.7,27.3 19.3,27.5 C23.4,27.7 81,18.8 90.9,14.5 C98.2,11.3 99.4,3.8 99.5,0.2 C88.9,0.3 63.3,4.4 52.9,5.9 C41.8,7.5 16.7,10.7 5.9,16.3 Z" fill="#FFFFFF"></path>
                    </g>
                </g>
                <path d="M274,264.7 C268.1,266.3 261.8,267.9 255.3,269.3 C124.6,297.8 64.4,263.3 37.8,243.4 C11.3,223.5 -5.8,189.6 2.6,135.1 C2.6,135.1 15.7,77.2 63.7,35.6 C64,35.3 64.3,35.1 64.7,34.8 C51.6,54.3 42.3,75.9 38.3,95.6 C26.6,153.5 65.8,190.2 111.9,218.1 C159.5,246.1 214.1,260.6 269.5,264.4 C271,264.6 272.5,264.7 274,264.7 Z" fill="#F6F6F6"></path>
            </g>
        </g>
    </g>
</svg>