<?xml version="1.0" encoding="UTF-8"?>
<svg width="520px" height="199px" viewBox="0 0 520 199" version="1.1" xmlns="http://www.w3.org/2000/svg" xmlns:xlink="http://www.w3.org/1999/xlink">
    <!-- Generator: Sketch 52.6 (67491) - http://www.bohemiancoding.com/sketch -->
    <title>Group 3</title>
    <desc>Created with Sketch.</desc>
    <defs>
        <path d="M47.5413436,72.3330207 C78.3552265,72.3330207 95.0554031,59.1633563 95.0554031,38.7695434 C95.0554031,18.3757305 86.5625994,7.79171932 54.4934263,1.15328934 C22.4242532,-5.48514063 2.20235061,19.1543647 0.153367506,38.7695434 C-1.8956156,58.3847222 16.7274608,72.3330207 47.5413436,72.3330207 Z" id="path-1"></path>
        <filter x="-17.9%" y="-22.1%" width="135.8%" height="147.0%" filterUnits="objectBoundingBox" id="filter-2">
            <feOffset dx="0" dy="1" in="SourceAlpha" result="shadowOffsetOuter1"></feOffset>
            <feGaussianBlur stdDeviation="5.5" in="shadowOffsetOuter1" result="shadowBlurOuter1"></feGaussianBlur>
            <feColorMatrix values="0 0 0 0 0   0 0 0 0 0   0 0 0 0 0  0 0 0 0.2 0" type="matrix" in="shadowBlurOuter1"></feColorMatrix>
        </filter>
        <path d="M0.305221435,3.37138105 C0.259152156,3.17586663 0.234774767,2.97204432 0.234774767,2.76263411 C0.234774767,1.30273948 1.41235144,0.119261044 2.87027701,0.119261044 L26.7185773,0.119261044 C28.174125,0.119261044 29.3540795,1.30571007 29.3540795,2.76263411 L29.3898917,2.76263411 C28.9677406,10.1928326 22.6075576,16.0919834 14.8234883,16.0919834 C7.25324068,16.0919834 1.0297279,10.5124705 0.305221435,3.37138105 Z" id="path-3"></path>
        <path d="M47.5413436,71.449772 C78.3552265,71.449772 95.0554031,58.2801076 95.0554031,37.8862947 C95.0554031,17.4924817 86.1932768,3.08293583 54.4934263,0.270040613 C22.7935759,-2.54285461 2.20235061,18.2711159 0.153367506,37.8862947 C-1.8956156,57.5014734 16.7274608,71.449772 47.5413436,71.449772 Z" id="path-5"></path>
        <filter x="-17.9%" y="-22.4%" width="135.8%" height="147.6%" filterUnits="objectBoundingBox" id="filter-6">
            <feOffset dx="0" dy="1" in="SourceAlpha" result="shadowOffsetOuter1"></feOffset>
            <feGaussianBlur stdDeviation="5.5" in="shadowOffsetOuter1" result="shadowBlurOuter1"></feGaussianBlur>
            <feColorMatrix values="0 0 0 0 0   0 0 0 0 0   0 0 0 0 0  0 0 0 0.2 0" type="matrix" in="shadowBlurOuter1"></feColorMatrix>
        </filter>
        <path d="M0.305221435,3.37138105 C0.259152156,3.17586663 0.234774767,2.97204432 0.234774767,2.76263411 C0.234774767,1.30273948 1.41235144,0.119261044 2.87027701,0.119261044 L26.7185773,0.119261044 C28.174125,0.119261044 29.3540795,1.30571007 29.3540795,2.76263411 L29.3898917,2.76263411 C28.9677406,10.1928326 22.6075576,16.0919834 14.8234883,16.0919834 C7.25324068,16.0919834 1.0297279,10.5124705 0.305221435,3.37138105 Z" id="path-7"></path>
        <path d="M58.3841003,86.562673 C96.225707,86.562673 116.734694,70.6452361 116.734694,45.9963748 C116.734694,21.3475134 97.844711,9.38916238 58.46152,1.36566327 C19.0783289,-6.65783583 2.70464083,22.2886051 0.188346041,45.9963748 C-2.32794875,69.7041445 20.5424936,86.562673 58.3841003,86.562673 Z" id="path-9"></path>
        <filter x="-66.0%" y="-84.3%" width="231.9%" height="277.9%" filterUnits="objectBoundingBox" id="filter-10">
            <feOffset dx="0" dy="4" in="SourceAlpha" result="shadowOffsetOuter1"></feOffset>
            <feGaussianBlur stdDeviation="25" in="shadowOffsetOuter1" result="shadowBlurOuter1"></feGaussianBlur>
            <feColorMatrix values="0 0 0 0 0   0 0 0 0 0   0 0 0 0 0  0 0 0 0.2 0" type="matrix" in="shadowBlurOuter1"></feColorMatrix>
        </filter>
        <path d="M0.374425612,4.08106238 C0.317596534,3.84284601 0.287510138,3.59438053 0.287510138,3.33904137 C0.287510138,1.57454836 1.71849568,0.144144155 3.48349032,0.144144155 L32.7516456,0.144144155 C34.5167367,0.144144155 35.9476258,1.57813875 35.9476258,3.33904137 L35.9914822,3.33904137 C35.4745069,12.3195068 27.6856925,19.4494805 18.1531569,19.4494805 C8.88471411,19.4494805 1.26471354,12.7090971 0.374425612,4.08106238 Z" id="path-11"></path>
        <path d="M54.6642197,79.3582696 C89.7248827,79.3582696 111.049737,66.6223306 108.726684,36.6544309 C105.779979,-1.35871054 79.5918367,1.66538429 54.6486975,0.461969018 C29.7055583,-0.741446249 6.46744507,-2.28603955 0.745216088,36.6544309 C-3.70309975,66.9257661 19.6035567,79.3582696 54.6642197,79.3582696 Z" id="path-13"></path>
        <filter x="-58.0%" y="-75.6%" width="215.9%" height="258.8%" filterUnits="objectBoundingBox" id="filter-14">
            <feOffset dx="0" dy="3" in="SourceAlpha" result="shadowOffsetOuter1"></feOffset>
            <feGaussianBlur stdDeviation="20.5" in="shadowOffsetOuter1" result="shadowBlurOuter1"></feGaussianBlur>
            <feColorMatrix values="0 0 0 0 0   0 0 0 0 0   0 0 0 0 0  0 0 0 0.2 0" type="matrix" in="shadowBlurOuter1"></feColorMatrix>
        </filter>
        <path d="M0.345011461,3.96112801 C0.294046427,3.73722565 0.267131508,3.50425842 0.267131508,3.26512589 C0.267131508,1.539693 1.66963277,0.140953273 3.38416021,0.140953273 L30.2826404,0.140953273 C32.0041278,0.140953273 33.3996691,1.54320391 33.3996691,3.26512589 L33.4404169,3.26512589 C32.9600847,12.0467931 25.7233391,19.0189325 16.8664667,19.0189325 C8.24490257,19.0189325 1.15852216,12.4123417 0.345011461,3.96112801 Z" id="path-15"></path>
    </defs>
    <g id="Page-4" stroke="none" stroke-width="1" fill="none" fill-rule="evenodd">
        <g id="Group-3" transform="translate(0.000000, 25.000000)">
            <path d="M260,174 C393.337318,174 501.428571,156.218024 501.428571,136.461929 C501.428571,116.705834 393.337318,100.690355 260,100.690355 C126.662682,100.690355 18.5714286,116.705834 18.5714286,136.461929 C18.5714286,156.218024 126.662682,174 260,174 Z" id="Oval-Copy-19" fill="#10733D" opacity="0.699999988"></path>
            <path d="M260.884354,151.918782 C399.598475,151.918782 466.054422,126.444521 466.054422,104.331064 C466.054422,82.2176063 374.196653,68.893401 260.884354,68.893401 C147.572054,68.893401 55.7142857,82.2176063 55.7142857,104.331064 C55.7142857,126.444521 122.170232,151.918782 260.884354,151.918782 Z" id="Oval-Copy-18" fill="#CED1A3"></path>
            <ellipse id="Oval" fill="#FFFFD9" cx="260" cy="84.3502538" rx="260" ry="43.7208122"></ellipse>
            <path d="M37.5745742,94.5076142 C30.969093,91.9125863 27.414966,89.1573568 27.414966,86.3023548 C27.414966,70.8339975 131.744802,58.2944162 260.442177,58.2944162 C389.139552,58.2944162 493.469388,70.8339975 493.469388,86.3023548 C493.469388,89.1573568 489.915261,91.9125863 483.30978,94.5076142 C483.608366,93.9995094 483.759921,93.4871131 483.759921,92.9709116 C483.759921,79.7123196 383.777161,68.9641071 260.442177,68.9641071 C137.107193,68.9641071 37.1244331,79.7123196 37.1244331,92.9709116 C37.1244331,93.4871131 37.2759876,93.9995094 37.5745742,94.5076142 Z" id="Combined-Shape" fill="#E7EABF"></path>
            <g id="Group-9-Copy-2" transform="translate(76.515034, 60.922802) scale(-1, 1) rotate(-32.000000) translate(-76.515034, -60.922802) translate(54.848367, 46.349197)">
                <path d="M21.9134739,28.7124995 C29.7281153,28.7124995 36.8029452,24.0018396 43.1379637,14.5805198 C36.8029452,5.15919998 29.7281153,0.448540079 21.9134739,0.448540079 C14.0988326,0.448540079 7.02400264,5.15919998 0.68898413,14.5805198 C7.02400264,24.0018396 14.0988326,28.7124995 21.9134739,28.7124995 Z" id="Oval" fill="#518332"></path>
                <path d="M43.0153032,14.3640844 C36.6802847,4.94276456 29.6054548,0.232104658 21.7908134,0.232104658 C13.9761721,0.232104658 6.90134215,4.94276456 0.566323639,14.3640844 L43.0153032,14.3640844 Z" id="Oval-Copy-2" fill="#699A2F"></path>
            </g>
            <g id="Group-9-Copy-5" transform="translate(245.748128, 26.202282) scale(-1, 1) rotate(-60.000000) translate(-245.748128, -26.202282) translate(224.081461, 11.628678)">
                <path d="M21.9134739,28.7124995 C29.7281153,28.7124995 36.8029452,24.0018396 43.1379637,14.5805198 C36.8029452,5.15919998 29.7281153,0.448540079 21.9134739,0.448540079 C14.0988326,0.448540079 7.02400264,5.15919998 0.68898413,14.5805198 C7.02400264,24.0018396 14.0988326,28.7124995 21.9134739,28.7124995 Z" id="Oval" fill="#518332"></path>
                <path d="M43.0153032,14.3640844 C36.6802847,4.94276456 29.6054548,0.232104658 21.7908134,0.232104658 C13.9761721,0.232104658 6.90134215,4.94276456 0.566323639,14.3640844 L43.0153032,14.3640844 Z" id="Oval-Copy-2" fill="#699A2F"></path>
            </g>
            <g id="Group-9-Copy-6" transform="translate(330.136526, 34.603691) scale(-1, 1) rotate(-115.000000) translate(-330.136526, -34.603691) translate(308.469860, 20.030087)">
                <path d="M21.9134739,28.7124995 C29.7281153,28.7124995 36.8029452,24.0018396 43.1379637,14.5805198 C36.8029452,5.15919998 29.7281153,0.448540079 21.9134739,0.448540079 C14.0988326,0.448540079 7.02400264,5.15919998 0.68898413,14.5805198 C7.02400264,24.0018396 14.0988326,28.7124995 21.9134739,28.7124995 Z" id="Oval" fill="#518332"></path>
                <path d="M43.0153032,14.3640844 C36.6802847,4.94276456 29.6054548,0.232104658 21.7908134,0.232104658 C13.9761721,0.232104658 6.90134215,4.94276456 0.566323639,14.3640844 L43.0153032,14.3640844 Z" id="Oval-Copy-2" fill="#699A2F"></path>
            </g>
            <g id="Group-20" transform="translate(79.591837, 22.081218)">
                <g id="Group-2">
                    <g id="Oval-2-Copy">
                        <use fill="black" fill-opacity="1" filter="url(#filter-2)" xlink:href="#path-1"></use>
                        <use fill="#FFFFFF" fill-rule="evenodd" xlink:href="#path-1"></use>
                    </g>
                    <path d="M0.102480706,39.3045418 C12.6245409,55.7363439 32.7803094,66.3971133 55.5117404,66.3971133 C67.2583957,66.3971133 78.3172483,63.5502708 87.9903149,58.5313434 C80.3581132,67.2584294 66.6689052,72.3330207 47.5413436,72.3330207 C17.0083504,72.3330207 -1.5550784,58.6378597 0.102480706,39.3045418 Z" id="Combined-Shape-Copy" fill="#EDEDED" opacity="0.5"></path>
                    <g id="Group-Copy" transform="translate(51.071104, 33.466710) rotate(-3.000000) translate(-51.071104, -33.466710) translate(31.173145, 20.659604)">
                        <ellipse id="Oval-10" fill="#343434" cx="3.95232081" cy="3.82445464" rx="3.95232081" ry="3.82445464"></ellipse>
                        <ellipse id="Oval-10" fill="#343434" cx="35.6240578" cy="3.82445464" rx="3.95232081" ry="3.82445464"></ellipse>
                        <g id="Group-4" transform="translate(4.873570, 8.778280)">
                            <mask id="mask-4" fill="white">
                                <use xlink:href="#path-3"></use>
                            </mask>
                            <use id="Combined-Shape" fill="#D91E18" xlink:href="#path-3"></use>
                            <path d="M2.48177918,-0.198188211 L27.0317561,-0.198188211 C27.0348246,-0.137179303 27.0363773,-0.0757785695 27.0363773,-0.014023166 C27.0363773,1.9863039 25.4059584,3.60788939 23.4125793,3.60788939 L6.10095163,3.60788939 C4.09958323,3.60788939 2.47715359,1.98223364 2.47715359,-0.014023166 C2.47715359,-0.0757847674 2.47870789,-0.13718531 2.48177918,-0.198188211 Z" id="Combined-Shape" fill="#EDEDED" mask="url(#mask-4)"></path>
                            <path d="M5.54549124,13.342242 C7.934087,11.0321559 11.2372737,9.60281295 14.8864644,9.60281295 C18.535655,9.60281295 21.8388417,11.0321559 24.2274375,13.342242 C21.6178263,15.210999 18.3859477,16.3164751 14.8864644,16.3164751 C11.386981,16.3164751 8.15510237,15.210999 5.54549124,13.342242 Z" id="Combined-Shape" fill="#FF6B69" mask="url(#mask-4)"></path>
                        </g>
                    </g>
                </g>
            </g>
            <g id="Group-20-Copy" transform="translate(241.428571, 14.131980)">
                <g id="Group-2">
                    <g id="Oval-2-Copy">
                        <use fill="black" fill-opacity="1" filter="url(#filter-6)" xlink:href="#path-5"></use>
                        <use fill="#FFFFFF" fill-rule="evenodd" xlink:href="#path-5"></use>
                    </g>
                    <path d="M1.24831537,46.2702585 C13.4572585,56.9793376 29.6648904,63.5046574 47.4490522,63.5046574 C65.9706524,63.5046574 82.7822672,56.4269597 95.1477588,44.9166556 C91.8127773,61.469148 75.5888621,71.8154033 48.2770403,71.8154033 C21.8553029,71.8154033 4.39674979,61.5600383 1.24831537,46.2702585 Z" id="Combined-Shape-Copy" fill="#EDEDED" opacity="0.5"></path>
                    <g id="Group-Copy" transform="translate(32.941852, 13.593614)">
                        <ellipse id="Oval-10" fill="#343434" cx="3.95232081" cy="3.82445464" rx="3.95232081" ry="3.82445464"></ellipse>
                        <ellipse id="Oval-10" fill="#343434" cx="35.6240578" cy="3.82445464" rx="3.95232081" ry="3.82445464"></ellipse>
                        <g id="Group-4" transform="translate(4.873570, 8.778280)">
                            <mask id="mask-8" fill="white">
                                <use xlink:href="#path-7"></use>
                            </mask>
                            <use id="Combined-Shape" fill="#D91E18" xlink:href="#path-7"></use>
                            <path d="M2.48177918,-0.198188211 L27.0317561,-0.198188211 C27.0348246,-0.137179303 27.0363773,-0.0757785695 27.0363773,-0.014023166 C27.0363773,1.9863039 25.4059584,3.60788939 23.4125793,3.60788939 L6.10095163,3.60788939 C4.09958323,3.60788939 2.47715359,1.98223364 2.47715359,-0.014023166 C2.47715359,-0.0757847674 2.47870789,-0.13718531 2.48177918,-0.198188211 Z" id="Combined-Shape" fill="#EDEDED" mask="url(#mask-8)"></path>
                            <path d="M5.54549124,13.342242 C7.934087,11.0321559 11.2372737,9.60281295 14.8864644,9.60281295 C18.535655,9.60281295 21.8388417,11.0321559 24.2274375,13.342242 C21.6178263,15.210999 18.3859477,16.3164751 14.8864644,16.3164751 C11.386981,16.3164751 8.15510237,15.210999 5.54549124,13.342242 Z" id="Combined-Shape" fill="#FF6B69" mask="url(#mask-8)"></path>
                        </g>
                    </g>
                </g>
            </g>
            <g id="Group-9-Copy-4" transform="translate(145.827291, 86.095902) rotate(2.000000) translate(-145.827291, -86.095902) translate(124.160624, 71.522298)">
                <path d="M21.9134739,28.7124995 C29.7281153,28.7124995 36.8029452,24.0018396 43.1379637,14.5805198 C36.8029452,5.15919998 29.7281153,0.448540079 21.9134739,0.448540079 C14.0988326,0.448540079 7.02400264,5.15919998 0.68898413,14.5805198 C7.02400264,24.0018396 14.0988326,28.7124995 21.9134739,28.7124995 Z" id="Oval" fill="#518332"></path>
                <path d="M43.0153032,14.3640844 C36.6802847,4.94276456 29.6054548,0.232104658 21.7908134,0.232104658 C13.9761721,0.232104658 6.90134215,4.94276456 0.566323639,14.3640844 L43.0153032,14.3640844 Z" id="Oval-Copy-2" fill="#699A2F"></path>
            </g>
            <g id="Group-22" transform="translate(153.877551, 19.431472)">
                <g id="Group-6">
                    <g id="Oval-2">
                        <use fill="black" fill-opacity="1" filter="url(#filter-10)" xlink:href="#path-9"></use>
                        <use fill="#FFFFFF" fill-rule="evenodd" xlink:href="#path-9"></use>
                    </g>
                    <path d="M5.85903327,67.1997908 C17.7741151,73.3592841 31.4214444,76.8569483 45.9249867,76.8569483 C75.4060735,76.8569483 101.349463,62.4053156 116.397671,40.5219162 C116.622597,42.2740961 116.734694,44.0975815 116.734694,45.9963748 C116.734694,70.6452361 96.225707,86.562673 58.3841003,86.562673 C33.2610853,86.562673 14.7367941,79.1320702 5.85904987,67.1997996 Z" id="Combined-Shape" fill="#EDEDED" opacity="0.5"></path>
                    <g id="Group" transform="translate(42.543671, 38.053584) rotate(12.000000) translate(-42.543671, -38.053584) translate(18.223943, 22.155107)">
                        <ellipse id="Oval-10" fill="#343434" cx="4.84009554" cy="4.62240448" rx="4.84009554" ry="4.62240448"></ellipse>
                        <ellipse id="Oval-10" fill="#343434" cx="43.6259736" cy="4.62240448" rx="4.84009554" ry="4.62240448"></ellipse>
                        <g id="Group-4" transform="translate(5.968277, 10.609817)">
                            <mask id="mask-12" fill="white">
                                <use xlink:href="#path-11"></use>
                            </mask>
                            <use id="Combined-Shape" fill="#D91E18" xlink:href="#path-11"></use>
                            <path d="M3.03910852,-0.239539009 L33.1037417,-0.239539009 C33.1074449,-0.165800953 33.1093187,-0.0915893196 33.1093187,-0.0169490166 C33.1093187,2.40073446 31.1591387,4.36065416 28.7360473,4.36065416 L7.40684602,4.36065416 C4.99155491,4.36065416 3.03357461,2.39581496 3.03357461,-0.0169490166 C3.03357461,-0.0915968107 3.03543374,-0.165808213 3.03910852,-0.239539009 Z" id="Combined-Shape" fill="#EDEDED" mask="url(#mask-12)"></path>
                            <path d="M6.79112571,16.1260219 C9.71625052,13.33395 13.7614028,11.6063831 18.2302787,11.6063831 C22.6991546,11.6063831 26.7443068,13.33395 29.6694316,16.1260219 C26.4736467,18.3846839 22.5158199,19.7208111 18.2302787,19.7208111 C13.9447374,19.7208111 9.98691061,18.3846839 6.79112571,16.1260219 Z" id="Combined-Shape" fill="#FF6B69" mask="url(#mask-12)"></path>
                        </g>
                    </g>
                </g>
            </g>
            <g id="Group-9-Copy" transform="translate(437.956725, 79.365675) rotate(15.000000) translate(-437.956725, -79.365675) translate(417.616589, 65.675320)">
                <path d="M20.6053294,26.9992975 C27.9315556,26.9992975 34.5642087,22.5830538 40.5032885,13.7505665 C34.5642087,4.91807922 27.9315556,0.501835561 20.6053294,0.501835561 C13.2791031,0.501835561 6.64645003,4.91807922 0.70737018,13.7505665 C6.64645003,22.5830538 13.2791031,26.9992975 20.6053294,26.9992975 Z" id="Oval" fill="#518332"></path>
                <path d="M40.4950719,13.5190831 C34.555992,4.68659581 27.9233389,0.270352155 20.5971127,0.270352155 C13.2708864,0.270352155 6.63823333,4.68659581 0.699153485,13.5190831 L40.4950719,13.5190831 Z" id="Oval-Copy-2" fill="#699A2F"></path>
            </g>
            <g id="Group-9-Copy-2" transform="translate(432.721049, 60.751504) rotate(-22.000000) translate(-432.721049, -60.751504) translate(406.190437, 43.086529)">
                <path d="M26.6795494,35.2619149 C36.122241,35.2619149 44.6709938,29.5207982 52.3258079,18.0385647 C44.6709938,6.55633119 36.122241,0.81521444 26.6795494,0.81521444 C17.2368577,0.81521444 8.6881049,6.55633119 1.03329087,18.0385647 C8.6881049,29.5207982 17.2368577,35.2619149 26.6795494,35.2619149 Z" id="Oval" fill="#518332"></path>
                <path d="M52.0275365,17.7355388 C44.3727225,6.54772152 35.8239697,0.95381289 26.381278,0.95381289 C16.9385864,0.95381289 8.38983354,6.54772152 0.735019508,17.7355388 L52.0275365,17.7355388 Z" id="Oval-Copy-2" fill="#699A2F"></path>
            </g>
            <g id="Group-9-Copy" transform="translate(296.973919, 91.509378) rotate(-35.000000) translate(-296.973919, -91.509378) translate(275.307252, 76.935774)">
                <path d="M21.9134739,28.7124995 C29.7281153,28.7124995 36.8029452,24.0018396 43.1379637,14.5805198 C36.8029452,5.15919998 29.7281153,0.448540079 21.9134739,0.448540079 C14.0988326,0.448540079 7.02400264,5.15919998 0.68898413,14.5805198 C7.02400264,24.0018396 14.0988326,28.7124995 21.9134739,28.7124995 Z" id="Oval" fill="#518332"></path>
                <path d="M43.0153032,14.3640844 C36.6802847,4.94276456 29.6054548,0.232104658 21.7908134,0.232104658 C13.9761721,0.232104658 6.90134215,4.94276456 0.566323639,14.3640844 L43.0153032,14.3640844 Z" id="Oval-Copy-2" fill="#699A2F"></path>
            </g>
            <g id="Group-9-Copy-3" transform="translate(122.415661, 91.187710) rotate(39.000000) translate(-122.415661, -91.187710) translate(100.748994, 76.614106)">
                <path d="M21.9134739,28.7124995 C29.7281153,28.7124995 36.8029452,24.0018396 43.1379637,14.5805198 C36.8029452,5.15919998 29.7281153,0.448540079 21.9134739,0.448540079 C14.0988326,0.448540079 7.02400264,5.15919998 0.68898413,14.5805198 C7.02400264,24.0018396 14.0988326,28.7124995 21.9134739,28.7124995 Z" id="Oval" fill="#518332"></path>
                <path d="M43.0153032,14.3640844 C36.6802847,4.94276456 29.6054548,0.232104658 21.7908134,0.232104658 C13.9761721,0.232104658 6.90134215,4.94276456 0.566323639,14.3640844 L43.0153032,14.3640844 Z" id="Oval-Copy-2" fill="#699A2F"></path>
            </g>
            <g id="Group-23" transform="translate(318.367347, 23.847716)">
                <g id="Group-12">
                    <g id="Oval-2">
                        <use fill="black" fill-opacity="1" filter="url(#filter-14)" xlink:href="#path-13"></use>
                        <use fill="#FFFFFF" fill-rule="evenodd" xlink:href="#path-13"></use>
                    </g>
                    <path d="M2.30933992,55.9584293 C15.4557891,66.0057509 31.8642347,71.97062 49.66007,71.97062 C73.2458002,71.97062 94.3945032,61.4929958 108.741996,44.9201132 C106.767992,68.9811272 86.31202,79.3582696 54.6642197,79.3582696 C28.2938454,79.3582696 8.57280691,72.3251026 2.3093419,55.9584345 Z" id="Combined-Shape" fill="#EDEDED" opacity="0.5"></path>
                    <g id="Group" transform="translate(47.331822, 39.746193) rotate(-2.000000) translate(-47.331822, -39.746193) translate(24.368859, 24.315318)">
                        <ellipse id="Oval-10" fill="#343434" cx="4.49703105" cy="4.52007952" rx="4.49703105" ry="4.52007952"></ellipse>
                        <ellipse id="Oval-10" fill="#343434" cx="40.5337779" cy="4.52007952" rx="4.49703105" ry="4.52007952"></ellipse>
                        <g id="Group-4" transform="translate(5.545247, 10.374950)">
                            <mask id="mask-16" fill="white">
                                <use xlink:href="#path-15"></use>
                            </mask>
                            <use id="Combined-Shape" fill="#D91E18" xlink:href="#path-15"></use>
                            <path d="M2.82400507,-0.234236397 L30.7570893,-0.234236397 C30.7607088,-0.162130661 30.7625403,-0.0895618309 30.7625403,-0.0165738207 C30.7625403,2.34759003 28.8418371,4.26412351 26.4880321,4.26412351 L7.09306399,4.26412351 C4.73231829,4.26412351 2.81855577,2.34277943 2.81855577,-0.0165738207 C2.81855577,-0.0895691562 2.8203868,-0.16213776 2.82400507,-0.234236397 Z" id="Combined-Shape" fill="#EDEDED" mask="url(#mask-16)"></path>
                            <path d="M6.3097728,15.7690444 C9.02756566,13.0387798 12.7859988,11.3494556 16.9381221,11.3494556 C21.0902455,11.3494556 24.8486786,13.0387798 27.5664714,15.7690444 C24.5972028,17.977707 20.9199055,19.2842567 16.9381221,19.2842567 C12.9563387,19.2842567 9.27904144,17.977707 6.3097728,15.7690444 Z" id="Combined-Shape" fill="#FF6B69" mask="url(#mask-16)"></path>
                        </g>
                    </g>
                </g>
            </g>
            <g id="Group-9-Copy-2" transform="translate(275.956898, 85.834011) rotate(-72.000000) translate(-275.956898, -85.834011) translate(251.637170, 69.493909)">
                <path d="M24.2035571,32.2104549 C32.9950286,32.2104549 40.9542123,26.9109625 48.0811081,16.3119778 C40.9542123,5.71299298 32.9950286,0.413500599 24.2035571,0.413500599 C15.4120856,0.413500599 7.45290189,5.71299298 0.326006068,16.3119778 C7.45290189,26.9109625 15.4120856,32.2104549 24.2035571,32.2104549 Z" id="Oval" fill="#518332"></path>
                <path d="M48.0811081,16.3119778 C40.9542123,5.71299298 32.9950286,0.413500599 24.2035571,0.413500599 C15.4120856,0.413500599 7.45290189,5.71299298 0.326006068,16.3119778 L48.0811081,16.3119778 Z" id="Oval-Copy" fill="#699A2F"></path>
            </g>
        </g>
    </g>
</svg>