<?xml version="1.0" encoding="UTF-8"?>
<svg width="22px" height="18px" viewBox="0 0 22 18" version="1.1" xmlns="http://www.w3.org/2000/svg" xmlns:xlink="http://www.w3.org/1999/xlink">
    <!-- Generator: Sketch 52.6 (67491) - http://www.bohemiancoding.com/sketch -->
    <title>icon-twitter</title>
    <desc>Created with Sketch.</desc>
    <g id="Page-4" stroke="none" stroke-width="1" fill="none" fill-rule="evenodd">
        <g id="home-5-3" transform="translate(-1022.000000, -4333.000000)" fill="#FFFFFF" fill-rule="nonzero">
            <path d="M1044,4335.13281 C1043.18881,4335.49375 1042.32168,4335.7375 1041.40793,4335.85 C1042.34033,4335.2875 1043.05828,4334.39688 1043.39394,4333.3375 C1042.52214,4333.85781 1041.55711,4334.2375 1040.52681,4334.43906 C1039.70163,4333.55313 1038.52681,4333 1037.23077,4333 C1034.7366,4333 1032.71795,4335.03438 1032.71795,4337.54219 C1032.71795,4337.89844 1032.75524,4338.24531 1032.8345,4338.57812 C1029.08159,4338.39062 1025.75291,4336.58125 1023.52914,4333.82969 C1023.14219,4334.5 1022.91841,4335.28281 1022.91841,4336.1125 C1022.91841,4337.6875 1023.72028,4339.07969 1024.9324,4339.89531 C1024.18648,4339.87656 1023.48718,4339.67031 1022.88112,4339.32812 C1022.88112,4339.34688 1022.88112,4339.36563 1022.88112,4339.38437 C1022.88112,4341.5875 1024.43823,4343.42031 1026.5035,4343.8375 C1026.12587,4343.94063 1025.72494,4343.99687 1025.31469,4343.99687 C1025.02564,4343.99687 1024.74126,4343.96875 1024.4662,4343.9125 C1025.03963,4345.71719 1026.70862,4347.02969 1028.68531,4347.06719 C1027.14219,4348.28594 1025.19347,4349.0125 1023.07692,4349.0125 C1022.71329,4349.0125 1022.35431,4348.98906 1022,4348.94687 C1023.99068,4350.25 1026.36364,4351 1028.90909,4351 C1037.22145,4351 1041.76224,4344.07656 1041.76224,4338.07187 C1041.76224,4337.875 1041.75758,4337.67813 1041.74825,4337.48594 C1042.62937,4336.84375 1043.39394,4336.04688 1044,4335.13281 Z" id="icon-twitter"></path>
        </g>
    </g>
</svg>