<svg width="48" height="48" viewBox="0 0 48 48" fill="none" xmlns="http://www.w3.org/2000/svg">
<path d="M40 15.8438C38.8938 16.325 37.7114 16.6501 36.4654 16.8001C37.7369 16.0501 38.7158 14.8624 39.1735 13.4499C37.9847 14.1436 36.6688 14.6499 35.2639 14.9186C34.1386 13.7374 32.5365 13 30.7692 13C27.368 13 24.6153 15.7122 24.6153 19.056C24.6153 19.531 24.6662 19.9938 24.7743 20.4375C19.6567 20.1875 15.1176 17.7749 12.0852 14.1061C11.5575 14.9999 11.2524 16.0435 11.2524 17.1497C11.2524 19.2497 12.3458 21.1065 13.9987 22.194C12.9815 22.169 12.028 21.8938 11.2015 21.4375C11.2015 21.4625 11.2015 21.4874 11.2015 21.5124C11.2015 24.4499 13.3249 26.8936 16.1412 27.4499C15.6262 27.5874 15.0795 27.6628 14.52 27.6628C14.1259 27.6628 13.7381 27.6251 13.363 27.5501C14.1449 29.9564 16.4208 31.7065 19.1163 31.7565C17.0121 33.3815 14.3547 34.3503 11.4685 34.3503C10.9726 34.3503 10.4832 34.3186 10 34.2624C12.7146 35.9999 15.9504 37 19.4214 37C30.7565 37 36.9485 27.7686 36.9485 19.7624C36.9485 19.4999 36.9422 19.2374 36.9295 18.9811C38.131 18.1249 39.1736 17.0625 40 15.8438Z" fill="white"/>
</svg>
