<svg width="48" height="48" viewBox="0 0 48 48" fill="none" xmlns="http://www.w3.org/2000/svg">
<path fill-rule="evenodd" clip-rule="evenodd" d="M24 6.5C14.335 6.5 6.5 14.335 6.5 24C6.5 33.665 14.335 41.5 24 41.5C33.665 41.5 41.5 33.665 41.5 24C41.5 14.335 33.665 6.5 24 6.5ZM3.5 24C3.5 12.6782 12.6782 3.5 24 3.5C35.3218 3.5 44.5 12.6782 44.5 24C44.5 35.3218 35.3218 44.5 24 44.5C12.6782 44.5 3.5 35.3218 3.5 24ZM24 14.5C18.7533 14.5 14.5 18.7533 14.5 24C14.5 29.2467 18.7533 33.5 24 33.5C29.2467 33.5 33.5 29.2467 33.5 24C33.5 18.7533 29.2467 14.5 24 14.5ZM11.5 24C11.5 17.0964 17.0964 11.5 24 11.5C30.9036 11.5 36.5 17.0964 36.5 24C36.5 30.9036 30.9036 36.5 24 36.5C17.0964 36.5 11.5 30.9036 11.5 24ZM24 29C26.7614 29 29 26.7614 29 24C29 21.2386 26.7614 19 24 19C21.2386 19 19 21.2386 19 24C19 26.7614 21.2386 29 24 29Z" fill="#1FCE6D"/>
</svg>
