<svg width="48" height="48" viewBox="0 0 48 48" fill="none" xmlns="http://www.w3.org/2000/svg">
<path fill-rule="evenodd" clip-rule="evenodd" d="M12.5575 16.8962C12.595 16.5246 12.4537 16.1581 12.1787 15.9087L9.37875 12.5076V12H18.0763L24.7987 26.8575L30.7088 12H39V12.5076L36.605 14.8216C36.3987 14.9803 36.2963 15.2411 36.3388 15.4993V32.502C36.2963 32.7589 36.3987 33.0197 36.605 33.1784L38.9437 35.4924V36H27.1788V35.4924L29.6025 33.1217C29.84 32.8824 29.84 32.8118 29.84 32.4453V18.7026L23.1037 35.9446H22.1938L14.35 18.7026V30.2585C14.285 30.7435 14.445 31.2335 14.7837 31.5837L17.935 35.4357V35.9446H9V35.4357L12.1512 31.5837C12.4887 31.2322 12.6387 30.7397 12.5575 30.2585V16.8962Z" fill="white"/>
</svg>
