<svg width="48" height="48" viewBox="0 0 48 48" fill="none" xmlns="http://www.w3.org/2000/svg">
<path fill-rule="evenodd" clip-rule="evenodd" d="M6.56339 22.5C7.32423 13.5372 14.8403 6.5 24 6.5C33.1597 6.5 40.6758 13.5372 41.4366 22.5H36C35.5922 22.5 35.2316 22.3295 34.8048 21.8041C34.3406 21.2327 33.9426 20.4121 33.4992 19.3988C33.4422 19.2684 33.3838 19.1333 33.3241 18.995C32.9607 18.1538 32.5456 17.1928 32.0569 16.4362C31.4901 15.5585 30.5353 14.5 29 14.5C27.8994 14.5 27.1657 15.2345 26.7506 15.8014C26.3092 16.4043 25.9553 17.1805 25.658 17.9733C25.0654 19.5537 24.5488 21.6201 24.0608 23.5723L24.0448 23.6362C23.5375 25.6652 23.0589 27.571 22.533 28.9733C22.3058 29.5792 22.0972 30.0138 21.9168 30.297C21.7779 30.1179 21.6118 29.849 21.4272 29.4692C20.9435 28.4742 20.5058 27.0912 20.065 25.58C19.9818 25.2948 19.8983 25.004 19.8143 24.7118C19.4724 23.5215 19.1235 22.3074 18.7639 21.3483C18.5411 20.7542 18.2757 20.1489 17.9468 19.6683C17.6691 19.2628 17.0431 18.5 16 18.5C14.9069 18.5 14.1547 19.081 13.668 19.6372C13.3121 20.044 12.9915 20.5698 12.7488 20.9677C12.6964 21.0536 12.6477 21.1335 12.603 21.205C11.9915 22.1834 11.6322 22.5 11 22.5H6.56339ZM6.56339 25.5C7.32423 34.4628 14.8403 41.5 24 41.5C33.1597 41.5 40.6758 34.4628 41.4366 25.5H36C34.4078 25.5 33.2684 24.6705 32.4765 23.6959C31.7219 22.7673 31.1824 21.5879 30.7508 20.6012C30.6826 20.4454 30.6171 20.2944 30.5537 20.1484C30.1792 19.2856 29.8787 18.5931 29.5368 18.0638C29.3797 17.8205 29.2518 17.6752 29.1579 17.5921C28.9613 17.8669 28.7263 18.3353 28.467 19.0267C27.9411 20.429 27.4625 22.3348 26.9552 24.3638L26.9393 24.4277C26.4512 26.3799 25.9346 28.4463 25.342 30.0267C25.0447 30.8195 24.6908 31.5957 24.2494 32.1986C23.8343 32.7655 23.1006 33.5 22 33.5C21.0787 33.5 20.3714 33.0288 19.8863 32.5289C19.4087 32.0366 19.0333 31.4067 18.7291 30.7808C18.119 29.5258 17.6192 27.9088 17.185 26.42C17.0911 26.0981 17.0003 25.7823 16.9118 25.4746C16.5733 24.2978 16.2686 23.2383 15.9549 22.4017C15.8758 22.1908 15.8022 22.0113 15.7347 21.8604C15.6312 22.0093 15.5219 22.1872 15.3821 22.4147C15.3124 22.5283 15.235 22.6542 15.147 22.795C14.5085 23.8166 13.3678 25.5 11 25.5H6.56339ZM24 3.5C12.6782 3.5 3.5 12.6782 3.5 24C3.5 35.3218 12.6782 44.5 24 44.5C35.3218 44.5 44.5 35.3218 44.5 24C44.5 12.6782 35.3218 3.5 24 3.5ZM21.6906 30.5854C21.6906 30.5854 21.6948 30.581 21.7034 30.5751C21.6949 30.5829 21.6906 30.5854 21.6906 30.5854Z" fill="#1FCE6D"/>
</svg>
