<?xml version="1.0" encoding="UTF-8"?>
<svg width="21px" height="18px" viewBox="0 0 21 18" version="1.1" xmlns="http://www.w3.org/2000/svg" xmlns:xlink="http://www.w3.org/1999/xlink">
    <!-- Generator: Sketch 52.6 (67491) - http://www.bohemiancoding.com/sketch -->
    <title>icon-medium</title>
    <desc>Created with Sketch.</desc>
    <g id="Page-4" stroke="none" stroke-width="1" fill="none" fill-rule="evenodd">
        <g id="home-5-3" transform="translate(-1071.000000, -4333.000000)" fill="#FFFFFF" fill-rule="nonzero">
            <path d="M1078.014,4336.3617 L1078.014,4350.2766 C1078.014,4350.48936 1077.972,4350.65957 1077.888,4350.78723 C1077.804,4350.91489 1077.636,4351 1077.468,4351 C1077.342,4351 1077.216,4350.95745 1077.09,4350.91489 L1071.588,4348.14894 C1071.42,4348.06383 1071.294,4347.93617 1071.168,4347.76596 C1071.042,4347.59574 1071,4347.38298 1071,4347.21277 L1071,4333.6383 C1071,4333.46809 1071.042,4333.34043 1071.126,4333.25532 C1071.21,4333.12766 1071.336,4333.08511 1071.462,4333.08511 C1071.588,4333.08511 1071.756,4333.12766 1072.008,4333.25532 L1078.014,4336.2766 C1078.014,4336.31915 1078.014,4336.3617 1078.014,4336.3617 Z M1078.77,4337.55319 L1085.028,4347.85106 L1078.77,4344.70213 L1078.77,4337.55319 Z M1092,4336.3617 C1092,4336.40426 1090.992,4338.06383 1088.976,4341.34043 C1086.96,4344.61702 1085.784,4346.57447 1085.448,4347.12766 L1080.87,4339.59574 L1084.65,4333.34043 C1084.776,4333.12766 1084.986,4333 1085.28,4333 C1085.406,4333 1085.49,4333.04255 1085.574,4333.08511 L1091.916,4336.2766 C1091.958,4336.2766 1092,4336.31915 1092,4336.3617 Z M1092,4337.76596 L1092,4350.2766 C1092,4350.48936 1091.958,4350.61702 1091.832,4350.74468 C1091.706,4350.87234 1091.58,4350.91489 1091.37,4350.91489 C1091.202,4350.91489 1090.992,4350.87234 1090.824,4350.74468 L1085.658,4348.14894 L1092,4337.76596 Z" id="icon-medium"></path>
        </g>
    </g>
</svg>