<svg width="48" height="48" viewBox="0 0 48 48" fill="none" xmlns="http://www.w3.org/2000/svg">
<path fill-rule="evenodd" clip-rule="evenodd" d="M24 6.5C20.6706 6.5 17.5583 7.42977 14.9087 9.04384C14.7099 8.01752 14.1973 7.10317 13.4747 6.40466C16.5514 4.56029 20.1519 3.5 24 3.5C27.8481 3.5 31.4486 4.56029 34.5253 6.40466C33.8027 7.10317 33.2901 8.01752 33.0913 9.04384C30.4417 7.42977 27.3294 6.5 24 6.5ZM35.028 10.4113C35.21 11.7391 36.2609 12.79 37.5887 12.972C37.7232 12.9905 37.8605 13 38 13C39.0044 13 39.8934 12.5064 40.4379 11.7487C40.7917 11.2563 41 10.6525 41 10C41 8.34315 39.6569 7 38 7C37.3475 7 36.7437 7.20831 36.2513 7.56206C35.4935 8.10657 35 8.99565 35 10C35 10.1395 35.0095 10.2768 35.028 10.4113ZM38.9562 14.9087C40.5702 17.5583 41.5 20.6706 41.5 24C41.5 27.3294 40.5702 30.4417 38.9562 33.0913C39.9825 33.2901 40.8968 33.8027 41.5953 34.5253C43.4397 31.4486 44.5 27.8481 44.5 24C44.5 20.1519 43.4397 16.5514 41.5953 13.4747C40.8968 14.1973 39.9825 14.7099 38.9562 14.9087ZM38 35C39.0044 35 39.8934 35.4936 40.4379 36.2513C40.7917 36.7437 41 37.3475 41 38C41 39.6569 39.6569 41 38 41C37.3475 41 36.7437 40.7917 36.2513 40.4379C35.4935 39.8934 35 39.0044 35 38C35 37.8605 35.0095 37.7232 35.028 37.5887C35.21 36.2609 36.2609 35.21 37.5887 35.028C37.7232 35.0095 37.8605 35 38 35ZM33.0913 38.9562C33.2901 39.9825 33.8027 40.8968 34.5253 41.5953C31.4486 43.4397 27.8481 44.5 24 44.5C20.1519 44.5 16.5514 43.4397 13.4747 41.5953C14.1973 40.8968 14.7099 39.9825 14.9087 38.9562C17.5583 40.5702 20.6706 41.5 24 41.5C27.3294 41.5 30.4417 40.5702 33.0913 38.9562ZM13 38C13 37.8605 12.9905 37.7232 12.972 37.5887C12.79 36.2609 11.7391 35.21 10.4113 35.028C10.2768 35.0095 10.1395 35 10 35C8.99565 35 8.10657 35.4936 7.56206 36.2513C7.20832 36.7437 7 37.3475 7 38C7 39.6569 8.34315 41 10 41C10.6525 41 11.2563 40.7917 11.7487 40.4379C12.5065 39.8934 13 39.0044 13 38ZM6.5 24C6.5 27.3294 7.42977 30.4417 9.04384 33.0913C8.01752 33.2901 7.10317 33.8027 6.40466 34.5253C4.56029 31.4486 3.5 27.8481 3.5 24C3.5 20.1519 4.56029 16.5514 6.40466 13.4747C7.10317 14.1973 8.01752 14.7099 9.04384 14.9087C7.42977 17.5583 6.5 20.6706 6.5 24ZM13 10C13 10.1395 12.9905 10.2768 12.972 10.4113C12.79 11.7391 11.7391 12.79 10.4113 12.972C10.2768 12.9905 10.1395 13 10 13C8.99565 13 8.10657 12.5064 7.56206 11.7487C7.20831 11.2563 7 10.6525 7 10C7 8.34315 8.34315 7 10 7C10.6525 7 11.2563 7.20831 11.7487 7.56206C12.5064 8.10657 13 8.99565 13 10ZM24 29C26.7614 29 29 26.7614 29 24C29 21.2386 26.7614 19 24 19C21.2386 19 19 21.2386 19 24C19 26.7614 21.2386 29 24 29Z" fill="#1FCE6D"/>
</svg>
