<svg width="48" height="48" viewBox="0 0 48 48" fill="none" xmlns="http://www.w3.org/2000/svg">
<path fill-rule="evenodd" clip-rule="evenodd" d="M24 6.5C14.335 6.5 6.5 14.335 6.5 24C6.5 33.665 14.335 41.5 24 41.5C33.665 41.5 41.5 33.665 41.5 24C41.5 14.335 33.665 6.5 24 6.5ZM3.5 24C3.5 12.6782 12.6782 3.5 24 3.5C35.3218 3.5 44.5 12.6782 44.5 24C44.5 35.3218 35.3218 44.5 24 44.5C12.6782 44.5 3.5 35.3218 3.5 24ZM34.9121 13.0879L31.2747 31.2748L13.0879 34.9121L16.7252 16.7252L34.9121 13.0879ZM18.9212 21.0425L16.9121 31.0879L26.9575 29.0788L18.9212 21.0425ZM21.0425 18.9212L31.0879 16.9121L29.0788 26.9575L21.0425 18.9212Z" fill="#1FCE6D"/>
</svg>
