<?xml version="1.0" encoding="UTF-8"?>
<svg width="21px" height="20px" viewBox="0 0 21 20" version="1.1" xmlns="http://www.w3.org/2000/svg" xmlns:xlink="http://www.w3.org/1999/xlink">
    <!-- Generator: Sketch 52.6 (67491) - http://www.bohemiancoding.com/sketch -->
    <title>icon-linkedin</title>
    <desc>Created with Sketch.</desc>
    <g id="Page-4" stroke="none" stroke-width="1" fill="none" fill-rule="evenodd">
        <g id="home-5-3" transform="translate(-1119.000000, -4332.000000)" fill="#FFFFFF" fill-rule="nonzero">
            <path d="M1123.3575,4334.17391 C1123.3575,4335.37478 1122.38625,4336.34783 1121.1875,4336.34783 C1119.98875,4336.34783 1119.0175,4335.37478 1119.0175,4334.17391 C1119.0175,4332.97391 1119.98875,4332 1121.1875,4332 C1122.38625,4332 1123.3575,4332.97391 1123.3575,4334.17391 Z M1123.375,4338.08696 L1119,4338.08696 L1119,4352 L1123.375,4352 L1123.375,4338.08696 Z M1130.35925,4338.08696 L1126.01225,4338.08696 L1126.01225,4352 L1130.36012,4352 L1130.36012,4344.69652 C1130.36012,4340.63565 1135.6355,4340.30348 1135.6355,4344.69652 L1135.6355,4352 L1140,4352 L1140,4343.19043 C1140,4336.33826 1132.19325,4336.58783 1130.35925,4339.96087 L1130.35925,4338.08696 Z" id="icon-linkedin"></path>
        </g>
    </g>
</svg>