<svg width="48" height="48" viewBox="0 0 48 48" fill="none" xmlns="http://www.w3.org/2000/svg">
<path fill-rule="evenodd" clip-rule="evenodd" d="M22.5 4L22.5 24L25.5 24L25.5 4H22.5ZM6.5 24C6.5 15.8908 12.0156 9.0698 19.5 7.08399L19.5 10.2118C13.6948 12.1052 9.5 17.5627 9.5 24C9.5 32.0081 15.9919 38.5 24 38.5C32.0081 38.5 38.5 32.0081 38.5 24C38.5 17.5627 34.3052 12.1052 28.5 10.2118L28.5 7.084C35.9844 9.06981 41.5 15.8908 41.5 24C41.5 33.665 33.665 41.5 24 41.5C14.335 41.5 6.5 33.665 6.5 24Z" fill="#1FCE6D"/>
</svg>
