<svg width="48" height="48" viewBox="0 0 48 48" fill="none" xmlns="http://www.w3.org/2000/svg">
<path fill-rule="evenodd" clip-rule="evenodd" d="M6.5 24C6.5 14.335 14.335 6.5 24 6.5C33.665 6.5 41.5 14.335 41.5 24C41.5 33.665 33.665 41.5 24 41.5C14.335 41.5 6.5 33.665 6.5 24ZM24 3.5C12.6782 3.5 3.5 12.6782 3.5 24C3.5 35.3218 12.6782 44.5 24 44.5C35.3218 44.5 44.5 35.3218 44.5 24C44.5 12.6782 35.3218 3.5 24 3.5ZM17.3787 19.5L12.8787 24L17.3787 28.5L14.9393 30.9393L17.0607 33.0607L19.5 30.6213L24.0001 35.1214L28.5001 30.6214L30.9393 33.0607L33.0607 30.9393L30.6214 28.5001L35.1215 24L30.6214 19.4999L33.0607 17.0607L30.9393 14.9393L28.5001 17.3786L24.0001 12.8786L19.5 17.3787L17.0607 14.9393L14.9393 17.0607L17.3787 19.5ZM19.5 21.6213L17.1213 24L19.5 26.3787L21.6213 28.5L24.0001 30.8788L26.3788 28.5001L28.5001 26.3788L30.8788 24L28.5001 21.6212L26.3788 19.4999L24.0001 17.1212L21.6213 19.5L19.5 21.6213Z" fill="#1FCE6D"/>
</svg>
