<svg width="48" height="48" viewBox="0 0 48 48" fill="none" xmlns="http://www.w3.org/2000/svg">
<path fill-rule="evenodd" clip-rule="evenodd" d="M29 6.5C24.0503 6.5 19.7725 9.37694 17.7476 13.5499C18.1607 13.5168 18.5784 13.5 19 13.5C27.5604 13.5 34.5 20.4396 34.5 29C34.5 29.4216 34.4832 29.8393 34.4501 30.2524C38.6231 28.2275 41.5 23.9497 41.5 19C41.5 12.0964 35.9036 6.5 29 6.5ZM29 3.5C22.0989 3.5 16.2512 8.01004 14.2435 14.2435C8.01004 16.2512 3.5 22.0989 3.5 29C3.5 37.5604 10.4396 44.5 19 44.5C25.9011 44.5 31.7488 39.99 33.7565 33.7565C39.99 31.7488 44.5 25.9011 44.5 19C44.5 10.4396 37.5604 3.5 29 3.5ZM19 41.5C23.9497 41.5 28.2275 38.6231 30.2524 34.4501C29.8393 34.4832 29.4216 34.5 29 34.5C20.4396 34.5 13.5 27.5604 13.5 19C13.5 18.5784 13.5168 18.1607 13.5499 17.7476C9.37694 19.7725 6.5 24.0503 6.5 29C6.5 35.9036 12.0964 41.5 19 41.5ZM29 31.5C29.7824 31.5 30.548 31.4281 31.2906 31.2906C31.4281 30.548 31.5 29.7824 31.5 29C31.5 28.2536 31.4346 27.5225 31.3092 26.8121L26.8121 31.3092C27.5225 31.4346 28.2536 31.5 29 31.5ZM30.2773 23.6014L23.6014 30.2773C22.775 29.881 21.9989 29.3965 21.2853 28.836L28.836 21.2853C29.3965 21.9989 29.881 22.775 30.2773 23.6014ZM19.164 26.7147L26.7147 19.164C26.0011 18.6035 25.225 18.119 24.3986 17.7227L17.7227 24.3986C18.119 25.225 18.6035 26.0011 19.164 26.7147ZM16.6908 21.1879L21.1879 16.6908C20.4775 16.5654 19.7464 16.5 19 16.5C18.2176 16.5 17.452 16.5719 16.7094 16.7094C16.5719 17.452 16.5 18.2176 16.5 19C16.5 19.7464 16.5654 20.4775 16.6908 21.1879Z" fill="#1FCE6D"/>
</svg>
