<svg width="1400" height="500" viewBox="0 0 1400 500" fill="none" xmlns="http://www.w3.org/2000/svg">
<g opacity="0.5">
<path d="M1229.81 117.869C1229.81 120.006 1228.07 121.739 1225.94 121.739C1223.8 121.739 1187 125.125 1187 125.125C1187 125.125 1223.8 114 1225.94 114C1228.07 114 1229.81 115.732 1229.81 117.869Z" fill="#FFFFFD" fill-opacity="0.6"/>
<circle cx="1225.94" cy="117.869" r="3.86944" fill="#FFFFFD"/>
<path d="M553.806 201.869C553.806 204.006 552.073 205.739 549.936 205.739C547.799 205.739 511 209.125 511 209.125C511 209.125 547.799 198 549.936 198C552.073 198 553.806 199.732 553.806 201.869Z" fill="#FFFFFD" fill-opacity="0.6"/>
<circle cx="549.936" cy="201.869" r="3.86944" fill="#FFFFFD"/>
<path d="M280 322.869C280 325.006 281.732 326.739 283.869 326.739C286.006 326.739 322.806 330.125 322.806 330.125C322.806 330.125 286.006 319 283.869 319C281.732 319 280 320.732 280 322.869Z" fill="#FFFFFD" fill-opacity="0.6"/>
<circle r="3.86944" transform="matrix(-1 0 0 1 283.87 322.869)" fill="#FFFFFD"/>
<path d="M892 464.869C892 467.006 893.732 468.739 895.869 468.739C898.006 468.739 934.806 472.125 934.806 472.125C934.806 472.125 898.006 461 895.869 461C893.732 461 892 462.732 892 464.869Z" fill="#FFFFFD" fill-opacity="0.6"/>
<circle r="3.86944" transform="matrix(-1 0 0 1 895.87 464.869)" fill="#FFFFFD"/>
<circle cx="1234.35" cy="240.353" r="4.35313" fill="white"/>
<circle cx="887.353" cy="115.353" r="4.35313" fill="white"/>
<circle cx="391.353" cy="167.353" r="4.35313" fill="white"/>
<circle cx="761.353" cy="210.353" r="4.35313" fill="white"/>
<circle cx="37.3531" cy="197.353" r="4.35313" fill="white"/>
<circle cx="125.353" cy="369.353" r="4.35313" fill="white"/>
<circle cx="497.353" cy="369.353" r="4.35313" fill="white"/>
<circle cx="167.353" cy="27.3531" r="4.35313" fill="white"/>
<circle cx="1131.35" cy="176.353" r="4.35313" fill="white"/>
<circle cx="1323.35" cy="403.353" r="4.35313" fill="white"/>
<circle cx="1125" cy="425" r="2" fill="white"/>
<circle cx="933" cy="355" r="2" fill="white"/>
<circle cx="1083" cy="315" r="2" fill="white"/>
<circle cx="1189" cy="170" r="2" fill="white"/>
<circle cx="1380" cy="132" r="2" fill="white"/>
<circle cx="1299" cy="36" r="2" fill="white"/>
<circle cx="929" cy="58" r="2" fill="white"/>
<circle cx="958" cy="92" r="2" fill="white"/>
<circle cx="777" cy="319" r="2" fill="white"/>
<circle cx="810" cy="294" r="2" fill="white"/>
<circle cx="718" cy="23" r="2" fill="white"/>
<circle cx="626" cy="150" r="2" fill="white"/>
<circle cx="472" cy="60" r="2" fill="white"/>
<circle cx="504" cy="70" r="2" fill="white"/>
<circle cx="482" cy="96" r="2" fill="white"/>
<circle cx="121" cy="122" r="2" fill="white"/>
<circle cx="123" cy="19" r="2" fill="white"/>
<circle cx="271" cy="223" r="2" fill="white"/>
<circle cx="217" cy="438" r="2" fill="white"/>
<circle cx="262" cy="413" r="2" fill="white"/>
<circle cx="405" cy="436" r="2" fill="white"/>
<circle cx="419" cy="266" r="2" fill="white"/>
<circle cx="578" cy="336" r="2" fill="white"/>
</g>
</svg>
