<svg width="60" height="60" viewBox="0 0 60 60" fill="none" xmlns="http://www.w3.org/2000/svg">
<path fill-rule="evenodd" clip-rule="evenodd" d="M38 10C38 11.5609 36.8079 12.8434 35.2845 12.9867L33.6281 19.6124C37.6194 21.0063 40.5619 24.6356 40.9552 29H46.1707C46.5825 27.8348 47.6938 27 49 27C50.6569 27 52 28.3431 52 30C52 31.6569 50.6569 33 49 33C47.6938 33 46.5825 32.1652 46.1707 31H40.9552C40.6444 34.4488 38.7417 37.4387 35.9876 39.2291L39.5675 46.0309C39.7088 46.0106 39.8531 46 40 46C41.6569 46 43 47.3431 43 49C43 50.6569 41.6569 52 40 52C38.3431 52 37 50.6569 37 49C37 48.2135 37.3027 47.4977 37.7978 46.9627L34.2186 40.162C32.9194 40.7019 31.4945 41 30 41C26.9147 41 24.1261 39.7298 22.1286 37.6838L16.8264 41.9918C16.9388 42.3069 17 42.6463 17 43C17 44.6569 15.6569 46 14 46C12.3431 46 11 44.6569 11 43C11 41.3431 12.3431 40 14 40C14.5734 40 15.1092 40.1609 15.5648 40.4399L20.8665 36.1323C19.6878 34.3802 19 32.2704 19 30C19 28.5055 19.298 27.0807 19.8379 25.7816L13.0371 22.2023C12.5022 22.6974 11.7864 23 11 23C9.34315 23 8 21.6569 8 20C8 18.3431 9.34315 17 11 17C12.6569 17 14 18.3431 14 20C14 20.1469 13.9894 20.2914 13.969 20.4327L20.7708 24.0125C22.7322 20.9953 26.1331 19 30 19C30.5738 19 31.1374 19.0439 31.6875 19.1286L33.3441 12.502C32.5341 11.9648 32 11.0448 32 10C32 8.34315 33.3431 7 35 7C36.6569 7 38 8.34315 38 10ZM37 30C37 33.866 33.866 37 30 37C26.134 37 23 33.866 23 30C23 26.134 26.134 23 30 23C33.866 23 37 26.134 37 30Z" fill="white"/>
</svg>
