<svg width="1201" height="500" viewBox="0 0 1201 500" fill="none" xmlns="http://www.w3.org/2000/svg">
<mask id="mask0_1521_1213" style="mask-type:alpha" maskUnits="userSpaceOnUse" x="0" y="0" width="1201" height="500">
<path d="M1197.23 0H4.4378C2.44639 0 0.832031 1.61436 0.832031 3.60577V496.394C0.832031 498.386 2.44639 500 4.4378 500H1197.23C1199.22 500 1200.83 498.386 1200.83 496.394V3.60577C1200.83 1.61436 1199.22 0 1197.23 0Z" fill="#68C67C"/>
</mask>
<g mask="url(#mask0_1521_1213)">
<path opacity="0.2" d="M760.149 -21.4665C515.203 138.377 455.162 442.331 439.262 566.995C574.927 587.786 883.286 626.066 1090.1 480.886C1296.91 335.706 1407.3 48.8634 1405.48 -50.7484C1319.32 -108.811 1005.09 -181.31 760.149 -21.4665Z" fill="url(#paint0_linear_1521_1213)"/>
</g>
<defs>
<linearGradient id="paint0_linear_1521_1213" x1="1301.81" y1="20" x2="415.806" y2="422" gradientUnits="userSpaceOnUse">
<stop stop-color="#00692C"/>
<stop offset="1" stop-color="#00692C" stop-opacity="0"/>
</linearGradient>
</defs>
</svg>
