<svg width="370" height="260" viewBox="0 0 370 260" fill="none" xmlns="http://www.w3.org/2000/svg">
<g clip-path="url(#clip0)">
<path fill-rule="evenodd" clip-rule="evenodd" d="M234 217.261C292.542 217.261 340 213.679 340 209.261C340 204.842 292.542 201.261 234 201.261C175.458 201.261 128 204.842 128 209.261C128 209.693 128.454 210.117 129.328 210.53C123.222 210.355 116.73 210.261 110 210.261C74.1015 210.261 45 212.947 45 216.261C45 219.574 74.1015 222.261 110 222.261C145.899 222.261 175 219.574 175 216.261C175 216.14 174.962 216.021 174.886 215.902C191.774 216.76 212.112 217.261 234 217.261Z" fill="#1C1D1E" fill-opacity="0.1"/>
<g filter="url(#filter0_d)">
<path fill-rule="evenodd" clip-rule="evenodd" d="M216.154 204.608C146.039 209.542 101.598 187.029 102.019 126.667C102.554 50.1006 155.092 46.5776 205.064 44.553C255.552 42.5076 306.675 60.0003 317.964 111.472C331.127 171.489 286.27 199.675 216.154 204.608Z" fill="white"/>
</g>
<path opacity="0.5" fill-rule="evenodd" clip-rule="evenodd" d="M103.155 143.231C134.184 174.41 177.953 192.423 225.119 189.104C260.71 186.6 292.684 172.34 317.559 150.361C307.342 184.032 268.894 200.897 216.156 204.608C152.867 209.061 110.496 191.152 103.155 143.231Z" fill="#EDEDED"/>
<path fill-rule="evenodd" clip-rule="evenodd" d="M254.274 116.468C257.731 116.226 260.729 118.832 260.971 122.289C261.005 122.777 260.982 123.255 260.909 123.718C260.453 140.751 247.211 154.965 229.978 156.17C212.265 157.408 196.815 144.452 194.625 126.927L194.709 126.921C194.468 123.465 197.074 120.468 200.53 120.226L254.274 116.468Z" fill="#D91E18"/>
<mask id="mask0" mask-type="alpha" maskUnits="userSpaceOnUse" x="194" y="116" width="67" height="41">
<path fill-rule="evenodd" clip-rule="evenodd" d="M254.274 116.468C257.731 116.226 260.729 118.832 260.971 122.289C261.005 122.777 260.982 123.255 260.909 123.718C260.453 140.751 247.211 154.965 229.978 156.17C212.265 157.408 196.815 144.452 194.625 126.927L194.709 126.921C194.468 123.465 197.074 120.468 200.53 120.226L254.274 116.468Z" fill="white"/>
</mask>
<g mask="url(#mask0)">
<path fill-rule="evenodd" clip-rule="evenodd" d="M255.369 115.636C255.386 115.779 255.4 115.924 255.41 116.07C255.742 120.807 252.171 124.915 247.434 125.246L208.701 127.954C203.965 128.286 199.857 124.715 199.525 119.978C199.515 119.832 199.509 119.687 199.506 119.542L255.369 115.636Z" fill="#EDEDED"/>
<path fill-rule="evenodd" clip-rule="evenodd" d="M229.876 156.711C221.912 157.267 214.374 155.164 208.127 151.154C213.179 145.305 220.459 141.395 228.762 140.815C237.066 140.234 244.82 143.093 250.638 148.183C245.009 153.022 237.838 156.154 229.876 156.711Z" fill="#FF6B69"/>
</g>
<g filter="url(#filter1_d)">
<path fill-rule="evenodd" clip-rule="evenodd" d="M120.121 215.6C75.2944 215.6 49.5 196 50.9997 166.688C52.9538 128.494 75.5044 115.843 110.008 111.871C161 106.001 186.078 138.104 189.059 166.688C192.04 195.273 164.948 215.6 120.121 215.6Z" fill="white"/>
</g>
<path opacity="0.5" fill-rule="evenodd" clip-rule="evenodd" d="M61.2779 195.487C75.3498 202.801 91.4377 206.949 108.526 206.949C141.595 206.949 170.917 191.413 189.133 167.468C191.544 195.642 164.539 215.599 120.121 215.599C92.2953 215.599 72.3809 208.204 61.2779 195.487Z" fill="#EDEDED"/>
<path fill-rule="evenodd" clip-rule="evenodd" d="M259.984 104.443C256.127 104.18 253.213 100.841 253.475 96.9842C253.737 93.1271 257.076 90.2127 260.933 90.4747C264.79 90.7368 267.705 94.076 267.443 97.9331C267.18 101.79 263.841 104.705 259.984 104.443Z" fill="black"/>
<path fill-rule="evenodd" clip-rule="evenodd" d="M189.722 108.171C185.865 107.909 182.951 104.57 183.213 100.713C183.475 96.8556 186.814 93.9412 190.671 94.2033C194.528 94.4653 197.443 97.8045 197.181 101.662C196.919 105.519 193.58 108.433 189.722 108.171Z" fill="black"/>
<path fill-rule="evenodd" clip-rule="evenodd" d="M132.841 157.535C134.964 157.679 136.568 159.517 136.423 161.639C136.403 161.943 136.347 162.237 136.261 162.516C134.505 172.828 124.921 180.327 113.933 179.581C102.635 178.813 93.9862 169.609 94.1074 158.764L94.1594 158.768C94.1594 158.768 94.1594 158.768 94.1594 158.768C94.3036 156.645 96.1412 155.041 98.2637 155.186L132.841 157.535Z" fill="#D91E18"/>
<mask id="mask1" mask-type="alpha" maskUnits="userSpaceOnUse" x="94" y="155" width="43" height="25">
<path fill-rule="evenodd" clip-rule="evenodd" d="M132.841 157.535C134.964 157.679 136.568 159.517 136.423 161.639C136.403 161.943 136.347 162.237 136.261 162.516C134.505 172.828 124.921 180.327 113.933 179.581C102.635 178.813 93.9862 169.609 94.1074 158.764L94.1594 158.768C94.1594 158.768 94.1594 158.768 94.1594 158.768C94.3036 156.645 96.1412 155.041 98.2637 155.186L132.841 157.535Z" fill="white"/>
</mask>
<g mask="url(#mask1)">
<path fill-rule="evenodd" clip-rule="evenodd" d="M133.452 157.113C133.451 157.202 133.447 157.291 133.441 157.381C133.243 160.289 130.725 162.487 127.817 162.289L102.703 160.583C99.7952 160.386 97.5977 157.868 97.7953 154.959C97.8014 154.87 97.8097 154.78 97.8201 154.692L133.452 157.113Z" fill="#EDEDED"/>
</g>
<path d="M104.177 170.717C106.702 168.982 109.12 169.04 111.208 171.467C111.208 171.467 108.334 175.072 111.456 178.463C112.565 167.417 125.093 167.972 127.376 175.897C124.073 181.517 127.326 188.181 119.521 194.187C116.112 196.809 105.247 196.837 100.961 192.845C94.2337 186.58 98.8051 174.41 104.177 170.717Z" fill="#FF6B69"/>
<path d="M131.841 145.167C132.279 141.92 135.117 139.471 138.461 139.587C141.805 139.704 144.466 142.345 144.675 145.615" stroke="black" stroke-width="3.87171" stroke-linecap="round" stroke-linejoin="round"/>
<path d="M90.9663 140.867C91.4036 137.619 94.242 135.17 97.586 135.287C100.93 135.403 103.591 138.045 103.8 141.315" stroke="black" stroke-width="3.87171" stroke-linecap="round" stroke-linejoin="round"/>
</g>
<defs>
<filter id="filter0_d" x="46.4082" y="-7.84452" width="328.662" height="275.687" filterUnits="userSpaceOnUse" color-interpolation-filters="sRGB">
<feFlood flood-opacity="0" result="BackgroundImageFix"/>
<feColorMatrix in="SourceAlpha" type="matrix" values="0 0 0 0 0 0 0 0 0 0 0 0 0 0 0 0 0 0 127 0"/>
<feOffset dy="5.60275"/>
<feGaussianBlur stdDeviation="25"/>
<feColorMatrix type="matrix" values="0 0 0 0 0 0 0 0 0 0 0 0 0 0 0 0 0 0 0.1 0"/>
<feBlend mode="normal" in2="BackgroundImageFix" result="effect1_dropShadow"/>
<feBlend mode="normal" in="SourceGraphic" in2="effect1_dropShadow" result="shape"/>
</filter>
<filter id="filter1_d" x="30.9375" y="93.1699" width="178.345" height="144.43" filterUnits="userSpaceOnUse" color-interpolation-filters="sRGB">
<feFlood flood-opacity="0" result="BackgroundImageFix"/>
<feColorMatrix in="SourceAlpha" type="matrix" values="0 0 0 0 0 0 0 0 0 0 0 0 0 0 0 0 0 0 127 0"/>
<feOffset dy="2"/>
<feGaussianBlur stdDeviation="10"/>
<feColorMatrix type="matrix" values="0 0 0 0 0 0 0 0 0 0 0 0 0 0 0 0 0 0 0.12 0"/>
<feBlend mode="normal" in2="BackgroundImageFix" result="effect1_dropShadow"/>
<feBlend mode="normal" in="SourceGraphic" in2="effect1_dropShadow" result="shape"/>
</filter>
<clipPath id="clip0">
<rect width="370" height="260" fill="white"/>
</clipPath>
</defs>
</svg>
