<svg width="370" height="260" viewBox="0 0 370 260" fill="none" xmlns="http://www.w3.org/2000/svg">
<path d="M105.995 214.502C157.688 213.929 170.611 189.481 170.611 170.823C170.611 158.65 161.581 104.254 105.995 104.947C60.0462 105.52 42.8153 152.206 42.8153 170.823C42.3367 185.621 54.3025 215.074 105.995 214.502Z" fill="white" stroke="black" stroke-width="4.52288"/>
<ellipse rx="7.38919" ry="3.19436" transform="matrix(-0.859701 -0.510798 -0.512033 0.858966 128.696 130.625)" fill="black"/>
<ellipse rx="6.25238" ry="2.8936" transform="matrix(-0.941874 0.335965 0.33694 0.941526 80.8658 126.571)" fill="black"/>
<path d="M130.324 158.968C129.629 155.5 126.99 151.201 121.988 150.646C116.987 150.091 112.958 153.651 111.569 155.5C112.495 152.495 116.431 145.792 124.767 143.018" stroke="black" stroke-width="4.97517" stroke-linecap="round" stroke-linejoin="round"/>
<path d="M71.2807 150.645C72.7094 147.878 75.9424 145.052 80.3107 145.791C84.679 146.53 86.5294 150.131 87.2571 152.032C87.2016 149.264 85.3055 143.219 78.9217 138.856" stroke="black" stroke-width="4.97517" stroke-linecap="round" stroke-linejoin="round"/>
<path d="M120.067 89.0606C120.261 89.6428 120.21 90.2791 119.926 90.8234C119.642 91.3676 119.149 91.7731 118.56 91.9466C116.785 92.4692 114.868 92.9438 112.5 92.8473C110.143 92.7513 107.503 92.0989 104.184 90.6299C100.24 88.8842 97.1495 86.1546 94.9923 83.2981C92.8634 80.479 91.5208 77.37 91.2861 74.7591C91.2262 74.0926 91.4646 73.4336 91.9372 72.9595C92.7799 72.1143 94.0388 71.4697 95.3366 70.9959C96.6941 70.5004 98.3253 70.1088 100.106 69.8904C103.656 69.4553 107.988 69.6864 112.107 71.3452C116.87 73.2634 118.517 77.5064 119.177 81.1004C119.496 82.8358 119.613 84.5624 119.708 85.9614C119.712 86.0156 119.715 86.0693 119.719 86.1225C119.826 87.6985 119.91 88.5909 120.067 89.0606Z" fill="#00692C" stroke="black" stroke-width="4.52288" stroke-linejoin="round"/>
<path d="M115.621 92.36C114.412 92.5683 113.259 91.7766 113.02 90.575C112.648 88.7061 112.077 85.5322 112.097 82.0388C112.116 78.571 112.718 74.556 114.892 71.1548C116.998 67.8587 120.161 65.3525 123.074 63.6729C124.543 62.8255 125.994 62.1623 127.286 61.7009C128.535 61.2549 129.784 60.9438 130.811 60.9174C131.547 60.8984 132.247 61.2392 132.685 61.8306C133.86 63.4151 134.946 66.5443 135.259 70.0327C135.578 73.6044 135.125 77.9335 132.791 81.8719C128.184 89.65 119.046 91.7696 115.621 92.36Z" fill="#24CD6C" stroke="black" stroke-width="4.52288" stroke-linejoin="round"/>
<path d="M69.3588 175.833C68.6642 173.752 65.8209 163.128 74.0585 163.128C78.0014 163.128 87.3146 163.489 96.9809 165.208C105.49 166.722 115.041 169.369 120.598 171.45C121.987 171.97 126.85 173.53 123.377 179.772C119.904 186.013 105.316 199.189 90.7293 195.722C76.1423 192.254 70.0534 177.913 69.3588 175.833Z" fill="black"/>
<path d="M79.2698 183.877C83.4168 190.909 95.2034 192.603 98.1666 191.382C98.618 191.195 98.6386 190.655 98.3412 190.268C95.3458 186.372 86.1993 182.229 79.6385 183.12C79.276 183.169 79.0841 183.563 79.2698 183.877Z" fill="#FF6359"/>
<path d="M110.179 181.158C116.269 181.465 118.232 178.735 119.012 176.833C119.13 176.545 118.969 176.227 118.672 176.135C103.733 171.466 84.9974 168.768 73.9314 168.678C73.6182 168.675 73.3738 168.936 73.433 169.243C73.8249 171.28 75.847 174.892 78.9216 176.304C89.4425 180.112 101.758 180.733 110.111 181.155L110.179 181.158Z" fill="white"/>
<ellipse rx="36.1201" ry="5.54786" transform="matrix(-1 0 0 1 105.318 246.452)" fill="#00692C"/>
<path d="M269.973 154.181C223.922 159.017 209.888 138.602 207.953 122.002C206.69 111.171 209.08 61.8408 258.607 56.7093C299.548 52.4674 319.722 92.2227 321.654 108.787C323.615 121.903 316.024 149.345 269.973 154.181Z" fill="white" stroke="black" stroke-width="4.42028"/>
<path d="M257.28 98.0564C254.887 89.3888 251.109 87.6322 246.514 89.1749C240.36 91.2418 242.349 96.7563 243.142 97.937C243.935 99.1177 246.542 99.426 247.336 100.607C247.837 101.353 247.578 102.499 247.027 103.21C245.925 104.632 245.454 105.974 246.247 107.155C247.041 108.335 249.178 109.985 252.887 108.871C258.41 106.885 258.645 102.998 257.28 98.0564Z" fill="black"/>
<path d="M289.998 89.4321C287.938 81.9686 284.684 80.456 280.729 81.7844C275.429 83.5641 277.142 88.3125 277.825 89.3292C278.508 90.3458 280.753 90.6114 281.436 91.628C281.868 92.2709 281.644 93.257 281.17 93.8694C280.221 95.0942 279.816 96.2496 280.499 97.2663C281.182 98.2829 283.022 99.7039 286.215 98.7446C290.971 97.0343 291.173 93.6869 289.998 89.4321Z" fill="black"/>
<ellipse rx="6.62013" ry="2.8606" transform="matrix(0.897095 -0.44157 0.442837 0.896734 241.076 81.9029)" fill="black"/>
<ellipse rx="5.60097" ry="2.59157" transform="matrix(0.997481 0.0718989 -0.0721231 0.997326 280.679 73.6443)" fill="black"/>
<path d="M244.26 43.9927C244.138 44.5798 244.259 45.1917 244.596 45.688C244.934 46.1842 245.459 46.5221 246.05 46.6241C247.689 46.9067 249.468 47.1348 251.595 46.7994C253.712 46.4655 256.015 45.6014 258.829 43.9433C262.187 41.9642 264.675 39.1921 266.311 36.404C267.925 33.6556 268.811 30.7167 268.748 28.3254C268.731 27.6717 268.425 27.0589 267.913 26.652C267.044 25.9624 265.826 25.5112 264.612 25.2215C263.338 24.9174 261.832 24.7363 260.212 24.7261C256.985 24.7058 253.123 25.364 249.597 27.2839C245.475 29.5283 244.439 33.5545 244.222 36.8441C244.118 38.4318 244.194 39.9895 244.254 41.2424C244.257 41.2919 244.259 41.3408 244.261 41.3892C244.33 42.8127 244.345 43.5872 244.26 43.9927Z" fill="#00692C" stroke="black" stroke-width="4.42028" stroke-linejoin="round"/>
<path d="M248.728 46.6899C249.925 46.7558 250.955 45.8571 251.051 44.6636C251.189 42.9589 251.369 40.0611 250.986 36.9362C250.607 33.8361 249.648 30.2868 247.33 27.4474C245.089 24.7024 241.987 22.7845 239.204 21.5839C237.799 20.9778 236.429 20.5342 235.22 20.2547C234.055 19.9852 232.89 19.8328 231.945 19.9181C231.228 19.9828 230.587 20.3925 230.229 21.0161C229.325 22.587 228.681 25.5208 228.766 28.6765C228.852 31.9138 229.712 35.7596 232.226 39.0616C237.187 45.5763 245.615 46.5186 248.728 46.6899Z" fill="#24CD6C" stroke="black" stroke-width="4.42028" stroke-linejoin="round"/>
<path d="M298.558 115.989C298.96 114.066 300.388 104.319 293.059 105.171C289.55 105.579 281.302 106.863 272.88 109.393C265.466 111.619 257.244 114.962 252.515 117.388C251.333 117.994 247.169 119.885 250.906 125.079C254.644 130.273 268.989 140.487 281.608 135.894C294.226 131.301 298.156 117.911 298.558 115.989Z" fill="black"/>
<path d="M290.574 124.171C287.614 130.855 277.303 133.582 274.54 132.801C274.119 132.682 274.045 132.204 274.269 131.829C276.53 128.053 284.238 123.421 290.167 123.534C290.495 123.541 290.707 123.871 290.574 124.171Z" fill="#FF6359"/>
<path d="M262.791 124.949C257.405 125.852 255.375 123.626 254.484 122.013C254.349 121.77 254.46 121.47 254.714 121.357C267.521 115.658 283.911 111.321 293.747 110.096C294.025 110.062 294.27 110.268 294.249 110.548C294.111 112.4 292.687 115.824 290.098 117.397C281.133 121.874 270.24 123.7 262.852 124.938L262.791 124.949Z" fill="white"/>
<ellipse cx="267.663" cy="235.463" rx="22.9333" ry="3.81598" fill="#00692C"/>
</svg>
