<svg width="92" height="80" viewBox="0 0 92 80" fill="none" xmlns="http://www.w3.org/2000/svg">
<g clip-path="url(#clip0)">
<path fill-rule="evenodd" clip-rule="evenodd" d="M20.0302 63.2886C7.31055 53.7637 7.75539 29.6142 7.75539 29.6142C7.75539 29.6142 28.8228 20.9076 41.5424 30.4324C54.262 39.9573 53.8171 64.1068 53.8171 64.1068C53.8171 64.1068 32.7498 72.8134 20.0302 63.2886Z" fill="#518332"/>
<path fill-rule="evenodd" clip-rule="evenodd" d="M8.05227 29.4622C8.05227 29.4622 29.1196 20.7556 41.8392 30.2804C54.5588 39.8053 54.114 63.9548 54.114 63.9548L8.05227 29.4622Z" fill="#699A2F"/>
<path fill-rule="evenodd" clip-rule="evenodd" d="M38.9186 46.1149C33.5205 28.3474 49.2087 6.97201 49.2087 6.97201C49.2087 6.97201 73.649 14.4034 79.0471 32.1709C84.4452 49.9384 68.757 71.3138 68.757 71.3138C68.757 71.3138 44.3168 63.8824 38.9186 46.1149Z" fill="#518332"/>
<path fill-rule="evenodd" clip-rule="evenodd" d="M49.2087 6.97201C49.2087 6.97201 73.649 14.4034 79.0471 32.1709C84.4452 49.9384 68.757 71.3138 68.757 71.3138L49.2087 6.97201Z" fill="#699A2F"/>
</g>
<defs>
<clipPath id="clip0">
<rect width="91.0998" height="80" transform="matrix(-1 0 0 1 91.8213 1.52588e-05)" fill="white"/>
</clipPath>
</defs>
</svg>
