<svg id="mozzarella" width="80" height="90" viewBox="0 0 80 90" fill="none" xmlns="http://www.w3.org/2000/svg">
<ellipse cx="40.6523" cy="87.4052" rx="16.9565" ry="2.59467" fill="black"/>
<path d="M40.3339 74.3532C16.0668 74.0853 10 62.6511 10 53.9252C9.99999 48.2321 14.2391 22.7915 40.3339 23.1156C61.9046 23.3835 69.9936 45.2181 69.9936 53.9252C70.2183 60.8461 64.6009 74.6211 40.3339 74.3532Z" fill="white" stroke="black" stroke-width="1.82493"/>
<ellipse rx="3.46837" ry="1.49418" transform="matrix(0.946476 -0.322775 0.325904 0.945403 30.9821 36.4215)" fill="black"/>
<ellipse rx="2.93568" ry="1.35307" transform="matrix(0.998769 0.0495944 -0.0501306 0.998743 51.4785 34.526)" fill="black"/>
<path d="M37.7169 45.5957C37.0647 41.055 35.2595 39.9222 32.8255 40.4063C29.5648 41.055 30.2169 43.974 30.543 44.6227C30.869 45.2714 32.1734 45.5957 32.4996 46.2444C32.7058 46.6546 32.4996 47.2174 32.1734 47.5417C31.5212 48.1904 31.1951 48.839 31.5212 49.4877C31.8473 50.1364 32.8255 51.1094 34.7821 50.785C37.7169 50.1364 38.0886 48.1843 37.7169 45.5957Z" fill="black"/>
<path d="M54.8966 43.3421C54.335 39.4322 52.7808 38.4568 50.6851 38.8737C47.8774 39.4322 48.439 41.9457 48.7197 42.5043C49.0004 43.0628 50.1235 43.3421 50.4044 43.9007C50.582 44.2539 50.4044 44.7385 50.1235 45.0178C49.562 45.5763 49.2812 46.1349 49.562 46.6934C49.8427 47.252 50.6851 48.0898 52.3697 47.8105C54.8966 47.252 55.2167 45.5711 54.8966 43.3421Z" fill="black"/>
<path d="M55.3263 50.785C51.935 51.5634 39.5654 53.704 33.8045 54.677C33.1524 54.7873 30.8698 55.65 32.5002 58.569C34.1306 61.488 40.6524 67.326 47.5002 65.7043C54.348 64.0827 56.9567 57.9203 57.2828 56.9473C57.6089 55.9743 59.5654 49.812 55.3263 50.785Z" fill="black"/>
<path d="M49.6956 63.0999C43.7474 65.4302 38.7978 62.5721 36.5858 60.3978C36.309 60.1257 36.3728 59.6746 36.7109 59.484C41.9668 56.5212 47.5928 59.7011 49.9176 62.1769C50.1994 62.477 50.0789 62.9497 49.6956 63.0999Z" fill="#FF6359"/>
<path d="M34.5831 16.4788C34.5509 16.7243 34.6204 16.9727 34.7754 17.1666C34.9305 17.3605 35.1579 17.4833 35.4052 17.5067C36.2646 17.5879 37.1712 17.633 38.2294 17.3834C39.2836 17.1347 40.4241 16.6099 41.8111 15.647C43.4484 14.5102 44.6117 13.0024 45.3398 11.5181C46.0595 10.051 46.3896 8.53151 46.2669 7.34625C46.2391 7.07729 46.0931 6.83421 45.8683 6.68267C45.4303 6.38742 44.8173 6.20817 44.1852 6.10771C43.5275 6.0032 42.7522 5.96909 41.922 6.02691C40.2668 6.1422 38.3174 6.62883 36.5941 7.74084C34.6356 9.00454 34.2613 11.0339 34.2795 12.7248C34.2883 13.5415 34.3885 14.3375 34.4705 14.9894C34.4736 15.0139 34.4767 15.0382 34.4797 15.0623C34.5709 15.7874 34.6161 16.2265 34.5831 16.4788Z" fill="#00692C" stroke="black" stroke-width="1.82493" stroke-linejoin="round"/>
<path d="M35.1429 17.4431C35.5995 17.6305 36.122 17.4212 36.3225 16.9706C36.6839 16.1581 37.267 14.7786 37.6137 13.1966C37.9583 11.6248 38.0905 9.76127 37.4573 8.02272C36.8414 6.33181 35.6671 4.88373 34.5163 3.82986C33.9364 3.29876 33.347 2.8535 32.8104 2.51602C32.2895 2.18835 31.7651 1.92853 31.3201 1.81731C31.0326 1.74547 30.7283 1.81758 30.5039 2.01071C29.8309 2.58996 29.0228 3.87968 28.5258 5.42548C28.0186 7.00328 27.7867 8.99369 28.4388 10.9933C29.7285 14.9474 33.6389 16.8259 35.1429 17.4431Z" fill="#24CD6C" stroke="black" stroke-width="1.82493" stroke-linejoin="round"/>
</svg>
