<svg width="1500" height="1500" viewBox="0 0 1500 1500" fill="none" xmlns="http://www.w3.org/2000/svg">
<g clip-path="url(#clip0_1521_878)">
<path d="M526.293 795.389L649.446 874.938L660.346 938.666C601.543 900.683 485.387 826.125 477.873 823.161C468.481 819.456 458.131 824.58 437.796 823.255C417.461 821.929 386.133 790.536 373.412 784.681C360.691 778.826 312.437 763.774 317.525 748.728C322.77 733.219 344.373 748.735 376.243 750.426C345.469 728.605 311.836 699.315 323.736 688.105C335.635 676.896 374.732 701.764 404.46 706.794C397.057 684.918 346.298 660.732 360.992 644.49C377.177 626.602 407.926 671.69 427.897 684.59C443.873 694.91 456.986 695.507 461.545 694.516C464.362 691.03 470.211 681.711 471.069 672.328C474.169 660.159 473.659 662.521 488.288 650.718C508.395 637.725 518.032 663.618 513.382 681.872C509.326 702.871 517.804 695.784 513.382 709.108C503.812 737.948 502.026 728.325 500.708 748.728C500.308 778.703 522.767 792.324 526.293 795.389Z" fill="white"/>
<path d="M649.448 874.938L513.384 781.543C509.858 778.478 500.309 774.153 500.709 744.179C500.709 724.24 507.751 703.679 513.384 691.218C523.243 669.411 510.023 641.373 488.29 653.834C473.66 665.637 472.761 679.049 469.661 691.218C466.561 703.387 463.164 701.141 454.137 719.256C447.928 731.717 444.823 753.524 457.242 772.216M461.547 694.515C456.988 695.507 448.38 689.072 432.403 678.752C412.433 665.852 374.075 626.592 357.89 644.481C343.196 660.722 410.67 694.515 404.461 706.789C395.146 716.136 333.051 670.529 320.632 688.083C302.003 714.414 379.623 734.827 376.245 748.724C344.376 747.033 311.317 728.602 311.317 748.726C311.317 765.105 363.524 775.687 376.245 781.543C388.966 787.398 402.55 820.956 437.798 823.254C458.133 824.58 468.482 819.455 477.875 823.16C485.389 826.124 566.678 885.047 625.481 923.03" stroke="black" stroke-width="14.6047" stroke-linecap="round" stroke-linejoin="round"/>
<path d="M605.184 901.025L578.331 887.481L562.808 818.949L596.062 841.681L605.184 901.025Z" fill="black" stroke="black" stroke-width="14.6047" stroke-linecap="round" stroke-linejoin="round"/>
<path d="M842.234 1074.45C1072.28 1096.28 1165.13 906.177 1165.13 884.368C1165.13 829.684 1162.03 581.787 901.224 581.785C637.319 575.951 606.271 794.025 600.123 878.04C603.167 909.333 612.481 1052.64 842.234 1074.45Z" fill="white" stroke="black" stroke-width="14.6047"/>
<path d="M739.522 841.165C772.265 846.287 891.21 858.276 946.59 863.63C952.859 864.238 975.131 870.931 961.662 900.019C948.193 929.106 890.288 989.528 824.138 978.708C757.989 967.888 728.963 910.647 725.195 901.55C721.426 892.453 698.594 834.763 739.522 841.165Z" fill="black"/>
<path d="M822.279 957.358C860.902 969.761 906.192 945.595 907.161 933.76C907.267 932.461 906.259 931.439 905.109 930.832C878.431 916.748 838.909 928.622 820.025 949.02C817.427 951.827 818.646 956.191 822.279 957.358Z" fill="#FF6359"/>
<path d="M899.338 910.417C926.16 910.713 938.996 896.609 943.163 887.556C943.825 886.117 942.759 884.584 941.177 884.497C868.618 880.504 781.042 869.171 740.239 862.686C738.674 862.437 737.321 863.714 737.679 865.258C739.67 873.864 747.408 886.675 761.069 892.334C808.862 907.608 861.954 910.005 899.338 910.417Z" fill="white"/>
<ellipse rx="37.1955" ry="16.4185" transform="matrix(-0.915637 -0.402006 -0.399721 0.916637 958.926 688.883)" fill="black"/>
<ellipse rx="27.9526" ry="14.7591" transform="matrix(-0.980302 0.197502 0.196217 0.98056 760.766 683.212)" fill="black"/>
<ellipse rx="235.963" ry="28.0379" transform="matrix(-1 0 0 1 893.091 1357.9)" fill="url(#paint0_linear_1521_878)"/>
<path d="M655.947 448.225C646.012 513.024 693.205 543.761 718.043 551.031C732.532 539.607 767.098 513.645 789.453 501.183C817.396 485.607 907.434 488.722 950.901 485.607C994.367 482.491 1013 510.529 1022.31 522.99C1071.99 488.722 1137.19 429.531 1109.24 351.647C1086.89 289.341 1017.14 292.458 985.053 301.805C977.809 303.881 960.836 306.787 950.901 301.805C871.419 254.452 814.291 327.766 795.662 370.342C794.627 375.534 790.695 385.295 783.243 382.803C773.929 379.688 668.366 367.226 655.947 448.225Z" fill="white"/>
<path d="M745.986 513.645C783.243 492.136 790.488 496.289 804.977 495.251C789.453 517.058 749.091 560.673 724.253 560.673C699.414 560.673 671.471 529.221 665.262 516.76C687.099 538.567 708.729 535.153 745.986 513.645Z" fill="black" stroke="black" stroke-width="14.6047" stroke-linecap="round" stroke-linejoin="round"/>
<path d="M935.381 582.482C977.606 582.482 1018.17 598.058 1028.52 604.289C1028.52 604.289 1031.63 541.729 1009.89 510.575C988.159 479.422 954.006 485.595 860.863 485.607C767.72 485.618 742.882 516.763 733.568 551.031L708.729 632.327C739.777 635.442 792.561 625.799 823.606 613.338C854.651 600.877 882.6 582.482 935.381 582.482Z" fill="#FF6359" stroke="black" stroke-width="14.6047" stroke-linecap="round" stroke-linejoin="round"/>
<path d="M907.434 750.409C904.33 765.986 903.709 798.385 926.061 803.37C950.897 808.908 966.419 771.178 972.628 753.525" stroke="black" stroke-width="14.6047" stroke-linecap="round"/>
<path d="M739.778 744.179C739.778 756.64 738.245 783.991 755.298 787.793C777.029 792.639 786.341 765.986 792.551 744.179" stroke="black" stroke-width="14.6047" stroke-linecap="round"/>
<path d="M671.47 526.108C653.876 501.185 631.109 437.633 693.204 395.264C733.566 367.226 771.124 381.555 786.347 385.918C808.081 392.148 814.289 398.379 848.442 392.149" stroke="black" stroke-width="14.6047" stroke-linecap="round"/>
<path d="M792.556 385.916C795.661 359.955 816.152 304.294 873.28 289.341C913.642 276.879 947.795 295.571 960.214 304.917C972.633 314.263 997.471 332.955 1019.2 342.301" stroke="black" stroke-width="14.6047" stroke-linecap="round"/>
<path d="M969.528 308.032C1000.58 294.533 1071.36 282.487 1106.14 342.301C1149.6 417.069 1075.09 491.838 1025.41 526.106" stroke="black" stroke-width="14.6047" stroke-linecap="round"/>
<path d="M718.042 600.842C727.356 568.65 786.347 479.376 919.852 485.613C792.556 491.838 746.886 501.151 718.042 600.842Z" stroke="black" stroke-width="14.6047" stroke-linecap="round" stroke-linejoin="round"/>
<path d="M733.566 1083.75C611.859 926.737 605.237 815.832 615.587 781.563C609.377 790.909 575.223 871.907 596.957 937.329C628.006 1015.21 680.785 1071.29 708.728 1099.33C714.938 1098.29 728.599 1093.72 733.566 1083.75Z" fill="#FF6359" stroke="black" stroke-width="14.6047" stroke-linecap="round" stroke-linejoin="round"/>
<path d="M1155.82 794.024C1140.91 978.451 882.596 1070.25 755.3 1093.1V1118.02C944.691 1108.67 1016.1 1068.17 1059.57 1040.13C1196.18 946.675 1174.44 853.215 1155.82 794.024Z" fill="#FF6359" stroke="black" stroke-width="14.6047" stroke-linecap="round" stroke-linejoin="round"/>
<path d="M845.339 1236.4C780.76 1213.97 741.847 1152.29 730.463 1124.25L755.301 1118.02C787.384 1135.67 855.275 1172.85 870.178 1180.32C851.549 1199.02 848.444 1220.82 845.339 1236.4Z" fill="#FF6359" stroke="black" stroke-width="14.6047" stroke-linecap="round" stroke-linejoin="round"/>
<path d="M714.934 1270.67C707.483 1198.39 715.968 1143.98 721.142 1127.36C718.038 1122.17 713.071 1108.05 705.621 1105.56C675.818 1147.92 665.263 1208.36 665.263 1230.17C677.681 1248.86 699.412 1264.44 714.934 1270.67Z" fill="#FF6359" stroke="black" stroke-width="14.6047" stroke-linecap="round" stroke-linejoin="round"/>
<path d="M758.399 1105.56C758.399 1118.02 742.876 1127.36 724.25 1124.25C706.865 1121.76 702.519 1108.67 702.519 1102.44C702.519 1096.21 707.486 1083.75 727.354 1083.75C752.19 1083.75 758.399 1093.1 758.399 1105.56Z" fill="#FF6359" stroke="black" stroke-width="14.6047" stroke-linecap="round" stroke-linejoin="round"/>
<path d="M1245.85 806.486C1230.93 837.639 1208.6 893.715 1174.44 896.831C1158.93 898.246 1134.08 878.762 1109.24 856.331L1059.57 909.292C1146.5 977.829 1189.97 979.104 1217.91 949.791C1286.22 878.139 1289.31 825.145 1304.84 822.03C1335.43 815.89 1342.09 803.34 1357.03 781.532C1366.4 767.858 1375.68 743.816 1382.46 731.718C1406.19 689.377 1419.72 603.987 1391.78 603.988C1366.94 603.988 1373.15 666.293 1342.09 700.532L1348.31 688.104L1373.15 603.988L1366.94 579.066L1342.09 585.298L1342.09 616.451L1329.68 669.412L1314.16 660.066L1264.48 669.412L1264.48 688.104L1295.53 700.532L1314.16 719.257L1295.53 744.18L1273.8 744.18L1255.17 706.796L1233.43 700.532L1233.43 775.333L1245.85 806.486Z" fill="white"/>
<path d="M1245.85 806.485C1230.93 837.639 1208.6 893.714 1174.44 896.83C1158.93 898.245 1134.08 878.761 1109.24 856.331M1342.09 700.531C1373.15 666.293 1366.94 603.988 1391.78 603.987C1419.72 603.986 1406.19 689.376 1382.46 731.717C1375.68 743.815 1366.4 767.858 1357.03 781.531C1342.09 803.339 1335.43 815.889 1304.84 822.029C1289.31 825.144 1286.22 878.138 1217.91 949.79C1189.97 979.103 1146.5 977.828 1059.57 909.291" stroke="black" stroke-width="14.6047" stroke-linecap="round" stroke-linejoin="round"/>
<path d="M1062.67 962.252L1059.57 912.407L1137.19 965.368L1096.83 1005.87L1062.67 962.252Z" fill="black" stroke="black" stroke-width="14.6047" stroke-linecap="round" stroke-linejoin="round"/>
<path d="M1258.27 818.947C1248.96 810.639 1233.43 791.541 1233.43 769.11C1233.43 741.072 1233.43 734.842 1230.33 722.38C1227.23 709.919 1230.33 703.688 1236.54 700.573C1242.75 697.458 1258.27 700.573 1264.48 728.611C1270.69 747.303 1286.22 753.534 1301.74 734.842C1317.26 716.15 1301.74 703.688 1289.32 700.573C1276.9 697.458 1255.17 691.225 1258.27 675.651C1261.38 656.957 1304.84 656.95 1320.37 663.181C1335.89 669.412 1342.1 681.883 1342.1 700.573" stroke="black" stroke-width="14.6047" stroke-linecap="round" stroke-linejoin="round"/>
<path d="M1329.68 666.277C1333.82 656.931 1339 635.132 1339 597.748C1339 575.949 1352.4 573.167 1360.73 575.952C1370.04 579.067 1373.14 594.64 1373.14 622.678" stroke="black" stroke-width="14.6047" stroke-linecap="round" stroke-linejoin="round"/>
<path opacity="0.6" d="M377.482 778.655C431.795 817.964 454.579 815.844 496.115 781.417C498.071 779.796 498.725 777.059 497.534 774.816C480.092 741.997 425.325 697.891 514.197 530.235C488.334 485.743 448.91 362.166 192.749 411.596C78.2088 433.698 -14.5479 506.055 48.6464 582.154C141.014 693.383 192.741 741.582 377.482 778.655Z" fill="url(#paint1_linear_1521_878)"/>
<path d="M184.022 416.32C41.2026 456.82 7.04646 531.607 28.7812 553.414C47.4095 572.104 78.4573 540.952 128.134 519.144C177.81 497.337 215.067 506.68 264.744 525.375C314.42 544.069 352.022 560.19 407.563 568.991C466.555 578.338 531.754 553.414 506.916 506.68C451.03 416.337 326.841 375.821 184.022 416.32Z" fill="#FAD177" stroke="black" stroke-width="14.6047" stroke-linecap="round" stroke-linejoin="round"/>
<path d="M140.555 512.896C180.397 478.651 304.759 416.091 415.126 436.608C426.896 438.039 436.992 440.727 444.822 444.352C435.089 441.028 425.165 438.474 415.126 436.608C366.226 430.66 288.447 446.399 224.383 506.662C184.021 500.432 165.393 503.528 140.555 512.896Z" fill="black"/>
<path d="M140.555 512.896C184.021 475.536 328.083 404.476 444.822 444.352C404.46 425.664 303.866 431.894 224.383 506.662C184.021 500.432 165.393 503.528 140.555 512.896Z" stroke="black" stroke-width="14.6047" stroke-linecap="round" stroke-linejoin="round"/>
<path d="M269.852 206.452C270.892 210.28 274.784 212.576 278.624 211.629C284.171 210.261 293.539 207.766 303.032 203.247C312.451 198.763 322.673 191.971 329.217 181.626C335.546 171.621 338.355 159.756 339.228 149.656C339.669 144.558 339.631 139.743 339.244 135.613C338.871 131.631 338.128 127.78 336.867 124.881C335.916 122.695 333.963 121.112 331.634 120.638C325.723 119.437 315.762 120.493 305.858 124.1C295.701 127.799 284.436 134.59 276.633 146.048C261.234 168.659 267.114 196.383 269.852 206.452Z" fill="#00692C" stroke="black" stroke-width="14.6047" stroke-linejoin="round"/>
<path d="M390.465 344.802C388.096 347.965 388.676 352.442 391.773 354.902C396.252 358.459 403.963 364.356 413.345 369.111C422.653 373.828 434.275 377.768 446.441 376.61C458.205 375.491 469.272 370.439 477.758 364.938C482.042 362.161 485.81 359.179 488.824 356.339C491.73 353.602 494.304 350.652 495.812 347.878C496.945 345.792 496.993 343.284 495.941 341.154C493.263 335.734 486.323 328.485 477.407 322.844C468.263 317.06 456.001 312.293 442.186 313.134C414.931 314.795 396.709 336.463 390.465 344.802Z" fill="#24CD6C" stroke="black" stroke-width="14.6047" stroke-linejoin="round"/>
<path d="M277.147 351.73C279.238 351.721 281.226 350.813 282.606 349.236C283.986 347.659 284.625 345.565 284.361 343.485C283.537 336.989 281.967 326.087 278.333 314.501C274.72 302.986 268.898 290.229 259.222 280.434C249.755 270.851 237.896 264.366 227.455 260.446C222.206 258.476 217.186 257.105 212.829 256.316C208.655 255.56 204.494 255.226 201.213 255.776C198.495 256.231 196.263 258.184 195.444 260.823C193.565 266.875 193.582 277.925 196.216 289.622C198.918 301.625 204.628 315.511 215.339 326.998C236.698 349.908 265.931 351.774 277.147 351.73Z" fill="#24CD6C" stroke="black" stroke-width="14.6047" stroke-linejoin="round"/>
<path d="M198.43 208.761C202.426 205.678 204.277 201.195 204.879 196.803C205.475 192.454 204.943 187.694 203.737 182.964C201.318 173.476 195.82 162.676 188.052 152.535C180.284 142.395 171.296 134.285 162.781 129.499C158.536 127.113 154.088 125.373 149.747 124.833C145.362 124.286 140.568 124.928 136.572 128.01C132.575 131.092 130.724 135.576 130.122 139.968C129.527 144.317 130.058 149.077 131.264 153.807C133.683 163.295 139.182 174.095 146.95 184.236C154.718 194.376 163.705 202.486 172.22 207.272C176.466 209.658 180.913 211.397 185.255 211.938C189.64 212.484 194.434 211.843 198.43 208.761Z" fill="#FF6359" stroke="black" stroke-width="14.6047"/>
<path d="M62.5289 373.534C65.9012 377.286 70.4976 378.787 74.9093 379.045C79.277 379.3 83.9653 378.395 88.5713 376.818C97.8097 373.655 108.111 367.307 117.578 358.741C127.045 350.175 134.4 340.548 138.488 331.654C140.526 327.219 141.906 322.633 142.103 318.248C142.302 313.818 141.289 309.076 137.916 305.324C134.544 301.571 129.948 300.071 125.536 299.813C121.168 299.557 116.48 300.462 111.874 302.039C102.635 305.203 92.3341 311.551 82.867 320.116C73.3999 328.682 66.0456 338.309 61.9574 347.204C59.9192 351.638 58.539 356.224 58.3421 360.61C58.1431 365.039 59.1566 369.781 62.5289 373.534Z" fill="#FF6359" stroke="black" stroke-width="14.6047"/>
<path d="M322.591 288.721C325.5 292.841 329.888 294.871 334.24 295.646C338.548 296.412 343.31 296.064 348.069 295.039C357.614 292.982 368.586 287.887 378.987 280.492C389.389 273.096 397.817 264.399 402.915 256.044C405.457 251.879 407.362 247.487 408.069 243.154C408.784 238.778 408.33 233.951 405.42 229.831C402.511 225.711 398.123 223.681 393.771 222.906C389.463 222.14 384.701 222.488 379.942 223.513C370.397 225.57 359.425 230.665 349.024 238.06C338.622 245.456 330.194 254.154 325.096 262.508C322.554 266.673 320.649 271.065 319.941 275.398C319.227 279.774 319.681 284.601 322.591 288.721Z" fill="#FF6359" stroke="black" stroke-width="14.6047"/>
</g>
<defs>
<linearGradient id="paint0_linear_1521_878" x1="234.866" y1="-121.132" x2="234.866" y2="97.6134" gradientUnits="userSpaceOnUse">
<stop stop-color="#E2D3AA"/>
<stop offset="1" stop-color="#E2D3AA" stop-opacity="0"/>
</linearGradient>
<linearGradient id="paint1_linear_1521_878" x1="310.983" y1="407.885" x2="359.351" y2="726.695" gradientUnits="userSpaceOnUse">
<stop stop-color="#E2D3AA"/>
<stop offset="0.962168" stop-color="#E2D3AA" stop-opacity="0"/>
</linearGradient>
<clipPath id="clip0_1521_878">
<rect width="1500" height="1500" fill="white"/>
</clipPath>
</defs>
</svg>
