<svg width="1500" height="1500" viewBox="0 0 1500 1500" fill="none" xmlns="http://www.w3.org/2000/svg">
<path opacity="0.6" d="M313.25 1336.75C330.878 1398.32 413.719 1416.59 467.984 1415.32C469.403 1415.29 470.71 1414.71 471.698 1413.69C606.633 1274.36 775.805 1045.77 851.418 940.935C932.821 756.668 946.229 628.454 726.607 515.088C542.686 521.27 426.299 461.157 380.332 799.676C363.68 922.301 331.734 1158.09 313.25 1336.75Z" fill="url(#paint0_linear_1521_943)"/>
<path d="M1085.47 692.22L997.755 910.569L1028.19 924.556C1031.03 925.859 1034.37 924.537 1035.56 921.65L1123.85 705.867L1085.47 692.22Z" fill="black" stroke="black" stroke-width="14.0187"/>
<path d="M1033.39 926.947L896.334 869.631L874.406 902.383L984.861 945.513C1001.92 952.174 1021.3 945.858 1031.16 930.429L1033.39 926.947Z" fill="#DADADA"/>
<path d="M896.334 869.631L899.039 863.164L893.718 860.939L890.51 865.731L896.334 869.631ZM1033.39 926.947L1039.3 930.722C1040.41 928.978 1040.7 926.831 1040.08 924.856C1039.46 922.88 1038 921.279 1036.09 920.481L1033.39 926.947ZM1031.16 930.429L1037.07 934.204L1037.07 934.204L1031.16 930.429ZM984.861 945.513L982.312 952.043L982.312 952.043L984.861 945.513ZM874.406 902.383L868.581 898.483L863.724 905.737L871.856 908.912L874.406 902.383ZM893.63 876.097L1030.69 933.414L1036.09 920.481L899.039 863.164L893.63 876.097ZM1027.48 923.173L1025.26 926.655L1037.07 934.204L1039.3 930.722L1027.48 923.173ZM987.411 938.984L876.955 895.854L871.856 908.912L982.312 952.043L987.411 938.984ZM880.23 906.283L902.159 873.53L890.51 865.731L868.581 898.483L880.23 906.283ZM1025.26 926.655C1017.2 939.266 1001.35 944.428 987.411 938.984L982.312 952.043C1002.48 959.919 1025.41 952.45 1037.07 934.204L1025.26 926.655Z" fill="black"/>
<ellipse rx="39.8382" ry="32.7603" transform="matrix(0.971452 0.237238 -0.239167 0.970978 1112.7 670.009)" fill="#FFF8E5" stroke="black" stroke-width="14.0187"/>
<rect width="121.266" height="37.5709" rx="10.9665" transform="matrix(0.931708 0.363208 -0.365922 0.930645 978.606 842.336)" fill="black"/>
<path d="M195.751 1224.86C383.539 943.336 281.368 874.78 240.852 870.342C195.141 860.275 77.6583 895.267 185.892 1223.52C187.311 1227.83 193.236 1228.64 195.751 1224.86Z" fill="#FF6359" stroke="black" stroke-width="14.0187"/>
<path d="M211.567 1106.12C297.894 973.262 270.089 902.187 235.454 898.256C196.454 893.829 152.817 950.589 201.928 1104.82C203.306 1109.14 209.093 1109.93 211.567 1106.12Z" fill="#FCCD35"/>
<path d="M945.072 1186.46C1005.34 968.138 925.902 945.823 899.186 951.45C867.979 954.578 800.579 1001.35 938.514 1187.67C940.322 1190.11 944.265 1189.39 945.072 1186.46Z" fill="#FF6359" stroke="black" stroke-width="14.0187"/>
<path d="M927.935 1101.32C952.454 1005.73 922.254 968.822 901.223 973.142C877.542 978.006 863.147 1020.14 922.193 1102.39C923.789 1104.61 927.257 1103.97 927.935 1101.32Z" fill="#FCCD35"/>
<path d="M126.084 774.113L372.783 820.512L381.007 694.962L148.013 664.939L126.084 774.113Z" fill="#DADADA" stroke="black" stroke-width="14.0187"/>
<path d="M139.787 741.361C150.751 678.586 150.751 654.021 137.046 651.292C123.34 648.563 110.183 667.666 101.412 722.254C90.4473 790.488 93.1884 817.781 109.635 817.781C120.599 817.781 128.822 804.136 139.787 741.361Z" fill="#DADADA" stroke="black" stroke-width="14.0187"/>
<path d="M274.219 591.95C211.485 583.667 196.338 675.879 191.378 724.835C187.428 763.83 189.159 792.679 192.359 812.575C193.76 821.283 199.232 828.868 207.574 831.733C228.213 838.822 258.108 841.192 278.339 839.066C288.036 838.047 295.319 830.682 298.121 821.342C304.95 798.578 310.08 772.768 317.341 730.493C321.066 708.803 336.954 600.232 274.219 591.95Z" fill="white" stroke="black" stroke-width="14.0187"/>
<path d="M207.324 645.585C230.438 641.411 285.116 639.002 318.917 662.762" stroke="black" stroke-width="14.0187"/>
<path d="M299.669 794.262C244.67 801.174 206.561 789.367 194.834 780.053L194.834 823.512L240.241 837.321L283.222 837.321C289.339 830.563 298.684 805.136 299.669 794.262Z" fill="black"/>
<path d="M137.046 771.383C145.27 772.293 166.102 775.204 183.645 779.571C180.368 774.676 186.651 761.512 183.645 752.277C169.94 730.442 157.61 688.162 153.493 667.667L137.046 771.383Z" fill="black" stroke="black" stroke-width="14.0187"/>
<path d="M309.741 804.137C317.964 805.047 347.02 807.958 364.563 812.325C364.563 795.949 378.268 722.256 378.268 700.421C376.099 692.233 339.893 694.962 328.928 692.233L309.741 804.137Z" fill="black" stroke="black" stroke-width="14.0187"/>
<path d="M934.71 588.503L874.406 621.256L904.558 700.407L964.862 659.467L934.71 588.503Z" fill="#DADADA" stroke="black" stroke-width="14.0187"/>
<path d="M918.26 686.762L921.001 599.422L962.118 656.739L918.26 686.762Z" fill="black"/>
<path d="M946.561 642.987C924.247 593.048 919.084 572.613 929.913 567.486C940.741 562.36 955.701 575.511 974.47 619.095C997.932 673.574 1008.01 702.324 992.268 708.595C978.563 714.054 968.876 692.925 946.561 642.987Z" fill="#DADADA" stroke="black" stroke-width="14.0187"/>
<path d="M647.595 1006.07C418.969 1003.42 370.035 871.329 370.035 785.215C370.035 714.054 401.75 492.508 647.595 495.706C850.819 498.35 920.944 699.288 920.944 785.215C923.061 853.516 862.573 1008.55 647.595 1006.07Z" fill="#FEFFD9" stroke="black" stroke-width="14.0187"/>
<path d="M656.875 962.404C463.509 960.206 419.381 850.36 419.381 778.75C419.381 719.575 448.946 528.558 656.875 531.217C828.756 533.416 899.075 707.296 899.075 778.75C900.865 835.547 838.697 964.472 656.875 962.404Z" fill="black" stroke="black" stroke-width="14.0187"/>
<path d="M992.27 754.993L880.42 731.369L856.023 777.103C895.279 783.857 974.169 797.761 975.681 799.342C977.571 801.319 999.266 826.985 1022.42 831.414C1045.58 835.843 1047.09 831.414 1063.54 839.602C1088.18 851.868 1107.4 836.874 1101.91 823.226C1110.14 825.955 1134.81 809.58 1123.84 790.474C1140.29 798.663 1175.92 749.533 1107.4 744.076L1104.65 730.428C1100.27 708.594 1062.62 710.413 1047.09 714.052C1021.42 719.51 996.304 748.656 992.27 754.993Z" fill="white"/>
<path d="M880.42 731.369L992.27 754.993C996.304 748.656 1021.42 719.51 1047.09 714.052C1062.62 710.413 1100.27 708.594 1104.65 730.428C1110.14 757.723 1093.69 798.663 1074.5 793.204C1059.15 788.837 1060.8 765.91 1063.54 754.993C1061.71 761.361 1053.12 775.19 1033.39 779.557M856.023 777.103C895.279 783.857 974.169 797.761 975.681 799.342C977.571 801.319 999.266 826.985 1022.42 831.414C1045.58 835.843 1047.09 831.414 1063.54 839.602C1088.18 851.868 1107.4 836.874 1101.91 823.226C1110.14 825.955 1134.81 809.58 1123.84 790.474C1140.29 798.663 1175.92 749.533 1107.4 744.076" stroke="black" stroke-width="14.0187" stroke-linecap="round" stroke-linejoin="round"/>
<path d="M1101.91 825.957C1093.69 812.309 1069.02 795.929 1058.05 801.389C1049.83 804.12 1038.86 817.768 1055.31 834.145" stroke="black" stroke-width="14.0187" stroke-linecap="round" stroke-linejoin="round"/>
<path d="M1126.58 793.204C1121.1 787.745 1110.14 782.286 1099.17 779.556" stroke="black" stroke-width="14.0187" stroke-linecap="round" stroke-linejoin="round"/>
<path d="M933.452 746.245L943.819 788.307L898.118 779.223L897.154 743.583L933.452 746.245Z" fill="black" stroke="black" stroke-width="14.0187" stroke-linecap="round" stroke-linejoin="round"/>
<path d="M677.11 929.669C473.12 927.414 422.123 822.794 422.123 749.362C422.122 701.453 457.757 484.785 677.11 487.513C858.435 489.767 921.004 668.07 921.004 741.343C922.892 799.585 868.923 931.789 677.11 929.669Z" fill="white" stroke="black" stroke-width="14.0187"/>
<path d="M623.187 437.516C623.419 439.403 624.411 441.117 625.936 442.264C627.46 443.41 629.385 443.89 631.268 443.594C638.413 442.47 645.806 440.962 653.801 436.773C661.768 432.599 669.889 426.006 679.12 415.311C689.978 402.73 696.234 388.123 699.02 374.604C701.777 361.228 701.258 348.29 697.823 339.037C697.1 337.091 695.55 335.563 693.59 334.863C689.539 333.417 684.286 333.224 678.964 333.719C673.445 334.232 667.11 335.557 660.514 337.744C647.36 342.105 632.616 350.08 621.014 362.635C607.953 376.769 609.121 393.801 612.802 407.458C614.581 414.058 617.058 420.305 619.099 425.453C619.175 425.644 619.25 425.833 619.324 426.02C621.577 431.706 622.912 435.284 623.187 437.516Z" fill="#00692C" stroke="black" stroke-width="14.0187" stroke-linejoin="round"/>
<path d="M638.087 442.675C641.773 441.744 644.037 438.057 643.194 434.361C641.534 427.082 638.516 414.91 632.901 402.563C627.318 390.289 618.876 377.183 605.989 368.715C593.425 360.459 578.316 356.575 565.304 355.218C558.75 354.535 552.569 354.476 547.289 354.876C542.151 355.265 537.383 356.124 533.912 357.56C531.803 358.432 530.254 360.273 529.761 362.495C528.181 369.609 529.207 382.221 533.632 395.068C538.141 408.16 546.55 422.615 560.886 432.745C589.264 452.799 624.839 446.022 638.087 442.675Z" fill="#24CD6C" stroke="black" stroke-width="14.0187" stroke-linejoin="round"/>
<ellipse rx="29.1586" ry="12.5725" transform="matrix(0.946386 -0.323037 0.32564 0.945494 603.981 579.354)" fill="black"/>
<ellipse rx="24.6722" ry="11.3889" transform="matrix(0.973476 0.22879 -0.230658 0.973035 770.792 563.402)" fill="black"/>
<path d="M655.113 672.932C649.631 634.721 634.457 625.188 613.997 629.262C586.586 634.721 592.069 659.285 594.809 664.744C597.55 670.203 608.515 672.932 611.256 678.391C612.99 681.843 611.256 686.579 608.515 689.308C603.032 694.767 600.291 700.226 603.032 705.684C605.773 711.143 613.997 719.331 630.443 716.602C655.113 711.143 658.239 694.716 655.113 672.932Z" fill="black"/>
<path d="M800.463 713.172C771.883 719.403 667.706 736.249 619.191 743.893C613.698 744.76 594.43 751.804 607.856 776.521C621.283 801.237 675.546 850.977 733.26 837.977C790.974 824.977 813.488 773.368 816.322 765.211C819.155 757.055 836.187 705.384 800.463 713.172Z" fill="black"/>
<path d="M733.621 819.257C700.317 832.052 659.284 813.446 657.694 803.153C657.516 801.999 658.37 801.025 659.372 800.421C682.088 786.73 717.441 794.946 735.197 811.705C737.686 814.055 736.824 818.027 733.621 819.257Z" fill="#FF6359"/>
<path d="M663.332 782.28C639.766 783.969 627.7 772.379 623.517 764.685C622.839 763.438 623.708 762.008 625.118 761.845C688.819 754.473 765.335 739.889 800.95 732.036C802.332 731.731 803.605 732.796 803.366 734.191C802.054 741.823 795.921 753.403 784.211 759.07C742.912 774.984 696.254 779.919 663.332 782.28Z" fill="white"/>
<path d="M799.528 653.97C794.808 621.067 781.742 612.858 764.126 616.366C740.525 621.067 745.245 642.218 747.605 646.919C749.965 651.619 759.405 653.97 761.766 658.67C763.259 661.642 761.766 665.721 759.405 668.071C754.685 672.771 752.325 677.472 754.685 682.172C757.045 686.872 764.126 693.923 778.287 691.573C799.528 686.872 802.219 672.727 799.528 653.97Z" fill="black"/>
<path d="M471.463 760.451L428.493 772.009V739.257L471.463 760.451Z" fill="black" stroke="black" stroke-width="14.0187" stroke-linecap="round" stroke-linejoin="round"/>
<path d="M403.825 570.032C412.597 648.638 462.302 695.583 486.058 709.23L477.836 766.546C442.201 750.17 387.379 709.23 354.486 586.408C351.745 575.491 346.263 572.762 332.557 567.303C318.852 561.844 296.923 550.927 296.923 523.633C296.923 501.798 315.197 490.881 324.334 488.152C328.902 480.873 343.52 466.317 365.45 466.317C401.084 463.587 425.754 479.963 428.495 515.445C431.236 550.927 403.825 561.844 403.825 570.032Z" fill="white"/>
<path d="M486.058 709.23C462.302 695.583 412.597 648.638 403.825 570.032C403.825 561.844 431.236 550.927 428.495 515.445C425.754 479.963 401.084 463.587 365.45 466.317C338.039 469.046 307.887 493.61 327.074 512.716C340.781 526.363 362.709 523.633 376.415 509.986C381.897 504.528 390.12 509.986 392.862 515.445M477.836 766.546C442.201 750.17 387.379 709.23 354.486 586.408C351.745 575.491 346.263 572.762 332.557 567.303C318.852 561.844 296.923 550.927 296.923 523.633C296.923 501.798 315.197 490.881 324.334 488.152" stroke="black" stroke-width="14.0187" stroke-linecap="round"/>
<path d="M304.259 462.947C312.203 480.614 312.482 482.053 318.855 490.884C327.079 485.426 338.043 471.779 357.23 466.32C356.552 464.631 359.083 469.606 350.858 452.03C337.646 423.798 322.08 413.269 309.556 422.275C297.033 431.28 296.314 445.281 304.259 462.947Z" fill="white" stroke="black" stroke-width="14.0187"/>
<path d="M279.005 464.277C285.584 459.91 296.366 460.638 300.934 461.548C320.669 492.117 321.95 510.676 320.124 516.135C306.419 529.782 292.713 518.412 279.005 502.488C262.559 483.383 270.782 469.736 279.005 464.277Z" fill="white" stroke="black" stroke-width="14.0187"/>
<path d="M401.087 435.652V469.047C390.122 466.783 370.935 463.589 357.229 466.783C357.229 464.963 350.171 470.712 352.364 431.409C353.582 409.574 364.33 400.964 375.295 400.964C386.259 400.965 401.087 408.358 401.087 435.652Z" fill="white" stroke="black" stroke-width="14.0187"/>
<path d="M487.908 733.158C482.848 798.662 420.294 818.678 386.487 828.686L408.416 886.002C455.015 867.807 536.7 816.13 534.507 733.158C531.766 629.442 496.131 604.878 419.381 613.066C417.188 619.617 425.776 637.63 430.345 645.818C455.015 645.818 492.969 667.653 487.908 733.158Z" fill="#FEFFD9"/>
<path d="M375.525 834.147C409.332 824.14 482.85 798.666 487.91 733.161C492.971 667.656 457.758 643.092 430.347 648.551" stroke="black" stroke-width="14.0187" stroke-linecap="round"/>
<path d="M400.196 891.462C443.14 874.176 530.125 818.315 534.51 733.159C539.993 626.714 468.724 588.503 416.643 615.796" stroke="black" stroke-width="14.0187"/>
<path d="M726.384 604.247C640.46 604.247 576.485 626.419 550.484 639.735C547.707 641.157 546.863 644.637 548.551 647.261C559.711 664.602 578.21 692.775 590.255 709.346C594.76 715.545 601.907 719.171 609.57 719.099C644.318 718.772 680.419 710.591 702.567 703.971C711.058 701.432 718.389 696.161 724.016 689.313L740.089 669.752L745.572 675.211C751.054 680.669 763.115 691.587 767.5 691.587C772.983 691.587 827.805 683.399 841.51 675.211C853.815 667.859 872.747 616.511 880.456 594.239C881.595 590.95 879.393 587.492 875.922 587.245C829.247 583.913 761.506 598.916 751.054 601.518C740.089 604.247 737.348 604.247 726.384 604.247Z" fill="black" stroke="black" stroke-width="14.0187"/>
<path d="M545.472 645.19L523.539 653.384" stroke="black" stroke-width="14.0187"/>
<path d="M561.918 675.213L534.502 686.131" stroke="black" stroke-width="14.0187"/>
<path d="M701.71 609.71L649.629 713.425L688.004 705.237L734.603 609.71H701.71Z" fill="white" stroke="black" stroke-width="14.0187"/>
<path d="M814.897 593.238L772.185 679.407C770.213 683.384 773.539 687.934 777.928 687.262L803.134 683.401L853.441 589.749L814.897 593.238Z" fill="white" stroke="black" stroke-width="14.0187"/>
<path d="M645.793 615.167L603.032 713.424L581.103 688.86L610.159 620.626L645.793 615.167Z" fill="white" stroke="black" stroke-width="14.0187"/>
<path d="M391.328 114.567H30C114.083 78.8326 136.531 35.5419 177.403 35.0042C218.275 34.4665 228.743 84.3 277.293 69.6992C339.372 51.0301 364.217 107.794 391.328 114.567Z" fill="#FFF8E5"/>
<path d="M1086.86 431.343C1085.59 432.006 1086.12 434.851 1087.55 434.851H1500C1399.1 425.717 1375.6 338.09 1327.87 337.432C1280.14 336.774 1261.43 406.967 1211.22 391.097C1145.47 370.364 1115.49 416.408 1086.86 431.343Z" fill="#FFF8E5"/>
<defs>
<linearGradient id="paint0_linear_1521_943" x1="618.705" y1="798.646" x2="513.317" y2="1284.16" gradientUnits="userSpaceOnUse">
<stop stop-color="#E2D3AA"/>
<stop offset="1" stop-color="#E2D3AA" stop-opacity="0"/>
</linearGradient>
</defs>
</svg>
