<svg width="520" height="230" viewBox="0 0 520 230" fill="none" xmlns="http://www.w3.org/2000/svg">
<ellipse cx="250.47" cy="181.306" rx="228.602" ry="41.6936" fill="black"/>
<mask id="path-2-outside-1_1521_443" maskUnits="userSpaceOnUse" x="2" y="75.8429" width="516" height="116" fill="black">
<rect fill="white" x="2" y="75.8429" width="516" height="116"/>
<path fill-rule="evenodd" clip-rule="evenodd" d="M431.35 155.916C481.123 147.779 515 136.827 515 124.87C515 100.065 384.172 78.8429 238.132 78.8429C107.066 78.8429 5 92.2057 5 124.87C5 138.989 24.0681 149.363 56.3041 156.591C60.1131 165.582 70.2197 174.245 96.6551 179.435C129.675 185.919 194.756 189.387 242.389 189.456V189.457L243.102 189.457L243.836 189.457V189.456C291.492 189.387 357.705 185.919 390.725 179.435C417.821 174.115 427.762 165.146 431.35 155.916Z"/>
</mask>
<path fill-rule="evenodd" clip-rule="evenodd" d="M431.35 155.916C481.123 147.779 515 136.827 515 124.87C515 100.065 384.172 78.8429 238.132 78.8429C107.066 78.8429 5 92.2057 5 124.87C5 138.989 24.0681 149.363 56.3041 156.591C60.1131 165.582 70.2197 174.245 96.6551 179.435C129.675 185.919 194.756 189.387 242.389 189.456V189.457L243.102 189.457L243.836 189.457V189.456C291.492 189.387 357.705 185.919 390.725 179.435C417.821 174.115 427.762 165.146 431.35 155.916Z" fill="#FFF8E5"/>
<path d="M431.35 155.916L431.018 153.888L429.86 154.078L429.435 155.172L431.35 155.916ZM56.3041 156.591L58.1959 155.79L57.784 154.818L56.7537 154.587L56.3041 156.591ZM96.6551 179.435L96.2592 181.451L96.2592 181.451L96.6551 179.435ZM242.389 189.456H244.443V187.405L242.392 187.402L242.389 189.456ZM242.389 189.457H240.334V191.513L242.39 191.512L242.389 189.457ZM243.102 189.457L243.103 187.402L243.101 187.402L243.102 189.457ZM243.836 189.457L243.836 191.512L245.891 191.513V189.457H243.836ZM243.836 189.456L243.833 187.402L241.782 187.405V189.456H243.836ZM390.725 179.435L391.12 181.451L391.12 181.451L390.725 179.435ZM512.945 124.87C512.945 126.832 511.535 129.224 507.732 131.951C504.005 134.624 498.421 137.292 491.149 139.891C476.63 145.079 455.859 149.827 431.018 153.888L431.681 157.944C456.613 153.868 477.668 149.072 492.531 143.76C499.95 141.109 505.946 138.288 510.126 135.291C514.23 132.348 517.055 128.886 517.055 124.87H512.945ZM238.132 80.8975C311.067 80.8975 380.169 86.1978 430.997 94.5818C456.426 98.7764 477.19 103.728 491.552 109.137C498.745 111.845 504.213 114.625 507.845 117.403C511.527 120.219 512.945 122.733 512.945 124.87H517.055C517.055 120.807 514.384 117.231 510.341 114.139C506.249 111.008 500.355 108.06 493 105.291C478.268 99.7435 457.198 94.7391 431.665 90.5274C380.569 82.0991 311.237 76.7883 238.132 76.7883V80.8975ZM7.05458 124.87C7.05458 117.939 12.4599 111.501 23.9194 105.733C35.27 100.021 51.8931 95.3302 72.7748 91.6304C114.499 84.2378 172.642 80.8975 238.132 80.8975V76.7883C172.557 76.7883 114.134 80.1293 72.0579 87.5843C51.0399 91.3083 33.9547 96.0828 22.0721 102.063C10.2984 107.988 2.94542 115.47 2.94542 124.87H7.05458ZM56.7537 154.587C40.7152 150.99 28.1376 146.647 19.6182 141.551C11.0672 136.436 7.05458 130.857 7.05458 124.87H2.94542C2.94542 133.002 8.46679 139.669 17.5088 145.078C26.5825 150.505 39.657 154.964 55.8546 158.596L56.7537 154.587ZM97.0509 177.419C70.8653 172.278 61.6068 163.841 58.1959 155.79L54.4123 157.393C58.6193 167.323 69.5742 176.212 96.2592 181.451L97.0509 177.419ZM242.392 187.402C194.782 187.333 129.866 183.862 97.0509 177.419L96.2592 181.451C129.483 187.975 194.73 191.442 242.386 191.511L242.392 187.402ZM244.443 189.457V189.456H240.334V189.457H244.443ZM243.101 187.402L242.388 187.403L242.39 191.512L243.103 191.512L243.101 187.402ZM243.837 187.403L243.103 187.402L243.101 191.512L243.836 191.512L243.837 187.403ZM241.782 189.456V189.457H245.891V189.456H241.782ZM390.329 177.419C357.515 183.862 291.469 187.333 243.833 187.402L243.839 191.511C291.515 191.442 357.895 187.975 391.12 181.451L390.329 177.419ZM429.435 155.172C426.228 163.422 417.164 172.15 390.329 177.419L391.12 181.451C418.478 176.08 429.296 166.871 433.265 156.661L429.435 155.172Z" fill="black" mask="url(#path-2-outside-1_1521_443)"/>
<path fill-rule="evenodd" clip-rule="evenodd" d="M56.3042 156.591C60.1131 165.582 70.2198 174.245 96.6551 179.435C129.675 185.919 194.756 189.387 242.389 189.456V189.457L243.102 189.457L243.836 189.457V189.456C291.492 189.387 357.705 185.919 390.725 179.435C417.821 174.115 427.762 165.146 431.35 155.916C377.864 164.661 306.021 170.155 238.132 170.155C163.717 170.155 98.6494 166.087 56.3042 156.591Z" fill="#E2D3AA"/>
<path fill-rule="evenodd" clip-rule="evenodd" d="M438.479 131.238C447.135 128.447 451.868 125.426 451.868 122.272C451.868 108.127 353.263 94.804 235.85 94.804C118.437 94.804 31.2416 108.869 31.2416 123.014C31.2416 124.976 32.9842 126.872 36.2992 128.682C47.7457 117.353 136.126 108.538 243.456 108.538C346.326 108.538 423.283 119.896 438.479 131.238Z" fill="#E2D3AA"/>
<path fill-rule="evenodd" clip-rule="evenodd" d="M438.478 131.237C408.314 140.961 330.504 147.884 239.273 147.884C138.142 147.884 56.89 139.927 36.2992 128.682C47.7452 117.353 136.126 108.538 243.457 108.538C346.325 108.538 423.282 119.896 438.478 131.237Z" fill="url(#paint0_linear_1521_443)"/>
<path fill-rule="evenodd" clip-rule="evenodd" d="M127.84 7C119.146 7 112.097 14.0483 112.097 22.7428C112.097 26.5691 113.462 30.0766 115.732 32.8048L113.549 43.1631C113.369 44.0162 114.291 44.6748 115.04 44.2282L125.073 38.2433C125.972 38.4026 126.896 38.4857 127.84 38.4857H171.009C179.704 38.4857 186.752 31.4374 186.752 22.7428C186.752 14.0483 179.704 7 171.009 7H127.84Z" fill="white"/>
<path d="M134.863 16.2881V21.3451H129.307V16.2881H126.957V28.7526H129.307V23.3929H134.863V28.7526H137.213V16.2881H134.863ZM145.564 25.7611C145.332 26.6158 144.602 27.0788 143.48 27.0788C142.091 27.0788 141.166 26.1528 141.005 24.7105H147.629C147.647 24.5325 147.665 24.2654 147.665 23.9627C147.665 21.8259 146.312 19.6357 143.302 19.6357C140.364 19.6357 138.904 21.8615 138.904 24.2298C138.904 26.5802 140.542 28.895 143.48 28.895C145.688 28.895 147.362 27.6664 147.7 25.7611H145.564ZM143.302 21.2739C144.602 21.2739 145.386 22.1286 145.475 23.2682H141.059C141.29 21.9149 142.074 21.2739 143.302 21.2739ZM149.3 28.7526H151.472V15.932H149.3V28.7526ZM153.682 28.7526H155.854V15.932H153.682V28.7526ZM162.159 28.895C164.883 28.895 166.842 26.9363 166.842 24.2654C166.842 21.5944 164.883 19.6357 162.159 19.6357C159.417 19.6357 157.458 21.5944 157.458 24.2654C157.458 26.9363 159.417 28.895 162.159 28.895ZM162.159 27.0075C160.663 27.0075 159.666 25.8857 159.666 24.2654C159.666 22.645 160.663 21.5232 162.159 21.5232C163.637 21.5232 164.634 22.645 164.634 24.2654C164.634 25.8857 163.637 27.0075 162.159 27.0075ZM168.979 25.4228H170.671L171.169 16.2881H168.48L168.979 25.4228ZM168.641 26.4377V28.7526H171.009V26.4377H168.641Z" fill="black"/>
<path d="M367.47 118.668C339.457 118.365 332.454 105.413 332.453 95.5281C332.453 89.0791 337.347 60.2607 367.47 60.6279C392.371 60.9313 401.709 85.665 401.709 95.5281C401.968 103.368 395.484 118.972 367.47 118.668Z" fill="white" stroke="black" stroke-width="2"/>
<ellipse rx="3.99735" ry="1.69546" transform="matrix(0.95505 -0.296445 0.309815 0.950797 356.366 75.966)" fill="black"/>
<ellipse rx="3.38621" ry="1.53399" transform="matrix(0.983751 0.179536 -0.188161 0.982138 380.62 73.2582)" fill="black"/>
<path d="M364.143 85.8268C363.414 80.8506 361.398 79.6091 358.68 80.1397C355.038 80.8506 355.767 84.0496 356.131 84.7605C356.495 85.4714 357.952 85.8268 358.316 86.5377C358.546 86.9873 358.316 87.6041 357.952 87.9595C357.223 88.6704 356.859 89.3813 357.223 90.0922C357.588 90.8031 358.68 91.8694 360.865 91.514C364.143 90.8031 364.558 88.6637 364.143 85.8268Z" fill="black"/>
<path d="M384.283 83.0203C383.634 78.5913 381.84 77.4863 379.421 77.9585C376.18 78.5913 376.828 81.4385 377.152 82.0712C377.476 82.7039 378.773 83.0203 379.097 83.653C379.302 84.0531 379.097 84.6021 378.773 84.9184C378.124 85.5511 377.8 86.1839 378.124 86.8166C378.449 87.4493 379.421 88.3984 381.366 88.082C384.283 87.4493 384.652 85.5452 384.283 83.0203Z" fill="black"/>
<path d="M383.56 91.9362C379.645 92.818 365.366 95.2428 358.716 96.345C357.963 96.47 355.328 97.4472 357.21 100.754C359.092 104.06 366.621 110.673 374.526 108.836C382.431 106.999 385.442 100.019 385.819 98.9167C386.195 97.8145 388.454 90.834 383.56 91.9362Z" fill="black"/>
<path d="M379.307 104.496C375.581 107.695 368.973 106.912 368.275 105.634C368.203 105.502 368.265 105.346 368.372 105.241C370.03 103.618 375.976 102.364 379.167 103.594C379.552 103.743 379.62 104.227 379.307 104.496Z" fill="#FF6359"/>
<path d="M365.204 101.738C361.923 102.005 359.945 100.172 359.327 99.0992C359.242 98.9521 359.343 98.7794 359.511 98.7585C368.288 97.6678 378.845 95.5728 383.709 94.4629C383.873 94.4256 384.025 94.5503 384.011 94.7175C383.921 95.7928 383.393 97.6381 381.767 98.4317C376.12 100.636 369.721 101.371 365.204 101.738Z" fill="white"/>
<path d="M361.502 53.4396C361.487 53.7116 361.587 53.9764 361.778 54.1718C361.97 54.3672 362.235 54.4758 362.513 54.4722C363.51 54.4591 364.55 54.3999 365.737 53.9977C366.919 53.597 368.179 52.8799 369.687 51.6428C371.463 50.1865 372.665 48.3741 373.369 46.637C374.066 44.9203 374.31 43.1911 374.063 41.8872C374.008 41.5934 373.819 41.3415 373.551 41.2018C373.025 40.9289 372.31 40.8039 371.577 40.7685C370.814 40.7316 369.922 40.7868 368.974 40.9507C367.085 41.2775 364.893 42.0514 363.018 43.4899C360.899 45.1147 360.644 47.4012 360.816 49.289C360.899 50.1977 361.086 51.0724 361.239 51.7894C361.244 51.8163 361.25 51.843 361.256 51.8695C361.425 52.6659 361.517 53.1517 361.502 53.4396Z" fill="#00692C" stroke="black" stroke-width="2" stroke-linejoin="round"/>
<path d="M362.281 54.3274C362.785 54.4688 363.318 54.1937 363.5 53.6981C363.849 52.7447 364.407 51.1289 364.67 49.3146C364.931 47.5118 364.917 45.4041 364.015 43.5293C363.14 41.7087 361.634 40.2312 360.195 39.1938C358.786 38.1772 357.279 37.4693 356.304 37.3398C355.995 37.2988 355.683 37.4047 355.46 37.626C354.736 38.3451 353.907 39.88 353.465 41.6741C353.014 43.5024 352.922 45.7643 353.869 47.9298C354.812 50.0844 356.483 51.5554 358.1 52.541C359.717 53.5273 361.339 54.0637 362.281 54.3274Z" fill="#24CD6C" stroke="black" stroke-width="2" stroke-linejoin="round"/>
<path d="M338.477 69.587L332.454 77.1229L335.089 81.899C342.617 75.6533 344.876 69.7749 342.994 68.1175C341.204 66.5415 339.229 68.4849 338.477 69.587Z" fill="white" stroke="black" stroke-width="2" stroke-linecap="round" stroke-linejoin="round"/>
<path d="M334.336 69.0402L329.819 75.2859L333.96 77.8577C339.606 71.612 340.736 69.0402 338.854 67.5706C336.971 66.101 335.089 67.938 334.336 69.0402Z" fill="white" stroke="black" stroke-width="2" stroke-linecap="round" stroke-linejoin="round"/>
<path d="M340.736 111.291L347.135 105.78L337.348 108.719L340.736 111.291Z" fill="black" stroke="black" stroke-width="2" stroke-linecap="round" stroke-linejoin="round"/>
<path d="M329.442 101.371C331.064 102.954 338.351 101.371 342.241 100.269L347.135 105.78C339.23 108.352 328.69 109.821 324.925 105.78C321.914 102.547 323.043 94.7579 325.301 90.7165C322.29 85.573 322.29 82.2664 324.172 79.3272C326.054 76.3881 328.313 75.6533 329.442 75.6533C333.348 75.6533 334.712 78.9598 335.465 80.4294C336.595 79.3272 338.1 77.1228 340.358 76.3881C341.212 76.1103 341.847 76.341 342.32 76.7392C343.19 77.4726 343.006 78.8166 342.41 79.7859L339.982 83.736C338.1 87.41 336.11 88.8796 333.206 91.0839C329.818 93.6557 327.184 99.1667 329.442 101.371Z" fill="white"/>
<path d="M342.24 100.269C338.351 101.372 331.064 102.955 329.442 101.372C327.184 99.1672 329.818 93.6563 333.206 91.0845C336.11 88.8801 338.1 87.4105 339.982 83.7365L342.41 79.7865C343.006 78.8172 343.189 77.4731 342.319 76.7398C341.847 76.3416 341.212 76.1109 340.358 76.3886C338.099 77.1234 336.594 79.3278 335.464 80.43C334.712 78.9604 333.348 75.6538 329.442 75.6538C328.312 75.6538 326.053 76.3886 324.172 79.3278C322.29 82.267 322.29 85.5735 325.301 90.7171C323.043 94.7585 321.046 101.739 324.549 105.78C328.689 110.557 339.229 108.352 347.134 105.78" stroke="black" stroke-width="2" stroke-linecap="round" stroke-linejoin="round"/>
<path d="M327.936 80.0622L329.066 81.1644C328.815 82.2666 328.84 84.5444 330.948 84.8384C333.056 85.1323 334.336 81.8992 335.841 80.0622" stroke="black" stroke-width="2" stroke-linecap="round" stroke-linejoin="round"/>
<ellipse cx="367.839" cy="127.526" rx="19.5743" ry="2.93918" fill="#E2D3AA"/>
<path d="M142.337 103.56L125.047 94.3996L118.655 100.567C124.569 103.22 136.435 108.604 136.591 108.913C136.785 109.299 138.703 114.149 142.168 115.784C145.632 117.418 148.511 117.894 150.88 121.543C153.248 125.193 156.803 123.868 157.479 122.067C158.708 122.412 162.909 120.273 160.181 114.865C161.602 113.495 162.565 109.962 154.275 105.249L153.046 104.904C154.722 101.947 157.006 95.7997 152.734 94.8672C150.05 94.7777 148.504 97.9924 147.603 100.393C145.767 100.94 143.327 102.732 142.337 103.56Z" fill="white"/>
<path d="M125.047 94.4031L142.335 103.563C143.325 102.735 145.764 100.943 147.6 100.396C148.5 97.996 150.046 94.7817 152.731 94.8713C157.563 95.0325 155.921 105.383 148.166 108.846M118.656 100.57C124.568 103.223 136.433 108.606 136.589 108.915C136.783 109.302 138.701 114.15 142.165 115.785C145.628 117.42 148.507 117.896 150.876 121.544C153.244 125.193 156.798 123.869 157.474 122.068C158.703 122.413 162.903 120.275 160.176 114.867C161.596 113.497 162.56 109.964 154.271 105.252" stroke="black" stroke-width="2" stroke-linecap="round" stroke-linejoin="round"/>
<path d="M157.685 122.744C158.151 121.518 156.786 118.635 153.622 115.864" stroke="black" stroke-width="2" stroke-linecap="round" stroke-linejoin="round"/>
<path d="M160.345 115.943C160.054 115.368 158.926 114.203 157.278 113.071" stroke="black" stroke-width="2" stroke-linecap="round" stroke-linejoin="round"/>
<path d="M130.068 97.6423L131.198 105.124L124.349 101.831L126.142 96.19L130.068 97.6423Z" fill="black" stroke="black" stroke-width="2" stroke-linecap="round" stroke-linejoin="round"/>
<ellipse cx="89.076" cy="129.318" rx="23.6858" ry="3.55654" fill="#E2D3AA"/>
<path d="M87.4109 117.571C53.5133 117.204 45.039 101.531 45.0389 89.5706C45.0389 81.767 50.9604 46.8955 87.4109 47.3397C117.542 47.7069 128.841 77.6358 128.841 89.5706C129.155 99.0572 121.308 117.939 87.4109 117.571Z" fill="white" stroke="black" stroke-width="2"/>
<path d="M80.8609 38.8283C80.8589 39.1002 80.9718 39.3587 81.1729 39.5427C81.374 39.7268 81.6455 39.8201 81.9235 39.8007C83.1213 39.7171 84.3501 39.5766 85.731 39.0243C87.1073 38.4738 88.5694 37.5419 90.3112 35.9627C92.3476 34.1163 93.6798 31.8853 94.423 29.7767C95.159 27.6889 95.3471 25.6334 94.9853 24.1301C94.9155 23.8402 94.7143 23.5995 94.4382 23.4755C93.8282 23.2016 92.9916 23.1006 92.1135 23.1081C91.206 23.1159 90.1455 23.2412 89.022 23.5C86.7805 24.0165 84.2069 25.0843 82.0517 26.9154C79.6623 28.9452 79.4791 31.6231 79.792 33.8543C79.9428 34.9296 80.2159 35.9588 80.4424 36.8124C80.4506 36.8434 80.4588 36.8742 80.4669 36.9047C80.7149 37.8399 80.8637 38.4481 80.8609 38.8283Z" fill="#00692C" stroke="black" stroke-width="2" stroke-linejoin="round"/>
<path d="M81.7341 39.5942C82.2427 39.7053 82.7575 39.4044 82.9153 38.9039C83.2837 37.7353 83.863 35.7671 84.075 33.5847C84.2858 31.4141 84.1449 28.9206 82.9656 26.7714C81.8157 24.6757 79.9264 23.0203 78.1335 21.8796C76.3698 20.7574 74.5318 20.029 73.3913 19.9433C73.0832 19.9202 72.7794 20.0412 72.5686 20.2712C71.7657 21.1471 70.8588 23.0114 70.4293 25.1809C69.993 27.3847 70.0147 30.0691 71.2686 32.5646C72.5167 35.0487 74.5983 36.6815 76.5985 37.7463C78.6003 38.812 80.583 39.3427 81.7341 39.5942Z" fill="#24CD6C" stroke="black" stroke-width="2" stroke-linejoin="round"/>
<ellipse rx="4.83543" ry="2.05227" transform="matrix(0.948309 -0.317348 0.331443 0.943475 74.348 64.5458)" fill="black"/>
<ellipse rx="4.10052" ry="1.85476" transform="matrix(0.998809 0.0487926 -0.0509542 0.998701 102.979 61.9477)" fill="black"/>
<path d="M83.7547 77.1203C82.8437 70.8964 80.3221 69.3436 76.9222 70.0073C72.3674 70.8964 73.2784 74.8975 73.7338 75.7867C74.1892 76.6758 76.0112 77.1203 76.4669 78.0095C76.755 78.5717 76.4669 79.3432 76.0112 79.7878C75.1003 80.6769 74.6448 81.566 75.1003 82.4552C75.5557 83.3443 76.9222 84.678 79.6552 84.2334C83.7547 83.3443 84.274 80.6685 83.7547 77.1203Z" fill="black"/>
<path d="M107.754 74.031C106.97 68.6717 104.799 67.3347 101.871 67.9061C97.9493 68.6717 98.7337 72.117 99.1259 72.8826C99.518 73.6482 101.087 74.031 101.479 74.7967C101.727 75.2808 101.479 75.9451 101.087 76.3279C100.302 77.0935 99.9102 77.8591 100.302 78.6247C100.695 79.3903 101.871 80.5388 104.224 80.156C107.754 79.3903 108.201 77.0863 107.754 74.031Z" fill="black"/>
<path d="M108.353 84.2334C103.616 85.3003 86.3377 88.2345 78.2906 89.5682C77.3796 89.7194 74.1912 90.9019 76.4687 94.903C78.7461 98.9041 87.856 106.906 97.4214 104.683C106.987 102.461 110.631 94.0138 111.086 92.6801C111.542 91.3464 114.275 82.8997 108.353 84.2334Z" fill="black"/>
<path d="M100.601 101.069C92.1777 104.368 85.1727 100.342 82.1051 97.3403C81.7614 97.0041 81.8389 96.4444 82.2579 96.2085C89.6831 92.0266 97.6598 96.5082 100.873 99.9267C101.222 100.298 101.075 100.884 100.601 101.069Z" fill="#FF6359"/>
<path d="M54.2947 92.3705L46.0958 93.2597V87.9249L54.2947 92.3705Z" fill="black" stroke="black" stroke-width="2" stroke-linecap="round" stroke-linejoin="round"/>
<path d="M41.9961 60.3617C43.4537 73.1652 51.7134 80.8118 55.661 83.0346L54.2946 92.3705C48.3732 89.7031 39.2633 83.0346 33.7973 63.0291C33.3418 61.2508 32.4309 60.8063 30.1534 59.9171C27.8759 59.028 24.2319 57.2497 24.2319 52.8041C24.2319 49.2475 27.2686 47.4693 28.7869 47.0247C29.546 45.8392 31.9751 43.4682 35.6192 43.4682C41.5406 43.0236 45.6401 45.691 46.0956 51.4704C46.5511 57.2497 41.9961 59.028 41.9961 60.3617Z" fill="white"/>
<path d="M55.661 83.0346C51.7134 80.8118 43.4537 73.1652 41.9961 60.3617C41.9961 59.028 46.5511 57.2497 46.0956 51.4704C45.6401 45.691 41.5406 43.0236 35.6192 43.4682C31.0642 43.9127 26.0538 47.9138 29.2423 51.0258C31.5199 53.2486 35.1638 52.8041 37.4413 50.5812C38.3523 49.6921 39.7188 50.5812 40.1743 51.4704M54.2946 92.3705C48.3732 89.7031 39.2633 83.0346 33.7973 63.0291C33.3418 61.2508 32.4309 60.8063 30.1534 59.9171C27.8759 59.028 24.2319 57.2497 24.2319 52.8041C24.2319 49.2475 27.2686 47.4693 28.7869 47.0247" stroke="black" stroke-width="2" stroke-linecap="round"/>
<path d="M42.4534 33.3188C41.7246 37.5867 41.5424 41.2454 41.5424 43.9128C39.7205 43.5439 36.532 43.0237 34.2545 43.5439C34.2545 43.2475 34.3456 41.0543 34.71 34.6525C35.1655 26.6503 38.354 25.3166 40.176 25.7612C41.9979 26.2058 43.4533 27.4638 42.4534 33.3188Z" stroke="black" stroke-width="2"/>
<path d="M22.7367 37.5117C25.0372 41.2102 26.8621 44.9927 27.877 47.4693C29.2435 46.5802 31.0654 44.3574 34.2538 43.4682C34.1411 43.1931 33.2079 41.7555 30.4339 35.9436C26.9664 28.6786 23.4985 28.5959 21.9759 29.669C20.4533 30.7421 19.5807 32.4377 22.7367 37.5117Z" fill="white" stroke="black" stroke-width="2"/>
<path d="M21.2549 43.1358C22.3481 42.4245 24.1398 42.5431 24.8989 42.6913C28.1782 47.6704 28.3912 50.6935 28.0877 51.5826C25.8102 53.8054 23.5328 51.9535 21.2549 49.3598C18.522 46.2478 19.8885 44.025 21.2549 43.1358Z" fill="white" stroke="black" stroke-width="2"/>
<path d="M42.4534 33.3188C41.7246 37.5867 41.5424 41.2454 41.5424 43.9128C39.7205 43.5439 36.532 43.0237 34.2545 43.5439C34.2545 43.2475 34.3456 41.0543 34.71 34.6525C35.1655 26.6503 38.354 25.3166 40.176 25.7612C41.9979 26.2058 43.4533 27.4638 42.4534 33.3188Z" fill="white" stroke="black" stroke-width="2"/>
<path d="M208.005 120.937C238.963 117.551 241.242 103.376 241.242 93.3447C241.242 86.7998 239.072 61.2784 204.553 61.2784C175.533 61.2784 169.805 86.6332 169.805 97.8548C169.805 109.076 178.589 124.154 208.005 120.937Z" fill="white" stroke="black" stroke-width="2"/>
<ellipse rx="4.0541" ry="1.7219" transform="matrix(-0.940686 0.339277 0.35409 0.935211 213.303 77.6412)" fill="black"/>
<ellipse rx="3.43012" ry="1.55989" transform="matrix(-0.944238 0.329265 0.343757 0.939059 190.355 75.5532)" fill="black"/>
<path d="M209.715 54.807C209.751 55.0767 209.674 55.3505 209.502 55.5642C209.329 55.7779 209.075 55.9129 208.801 55.9377C207.796 56.0281 206.743 56.076 205.515 55.7894C204.292 55.5038 202.963 54.9034 201.341 53.7981C199.431 52.4973 198.071 50.7737 197.217 49.0761C196.374 47.3977 195.985 45.6622 196.125 44.3117C196.156 44.0141 196.32 43.7449 196.573 43.5786C197.076 43.2476 197.783 43.0459 198.519 42.9333C199.284 42.8163 200.187 42.7797 201.155 42.8482C203.085 42.9848 205.357 43.5462 207.366 44.8185C209.632 46.2537 210.077 48.555 210.06 50.4946C210.052 51.4295 209.937 52.3406 209.843 53.0887C209.839 53.1166 209.836 53.1443 209.832 53.1718C209.727 54.0012 209.674 54.5108 209.715 54.807Z" fill="#00692C" stroke="black" stroke-width="2" stroke-linejoin="round"/>
<path d="M209.084 55.8565C208.588 56.0541 208.025 55.8285 207.804 55.3438C207.377 54.4105 206.689 52.8271 206.278 51.0127C205.87 49.2095 205.71 47.0745 206.447 45.0865C207.164 43.1528 208.535 41.499 209.88 40.2967C210.558 39.6907 211.246 39.1836 211.872 38.8C212.481 38.4267 213.089 38.1349 213.599 38.0117C213.908 37.9369 214.235 38.0138 214.479 38.2188C215.258 38.8753 216.208 40.3486 216.795 42.1229C217.394 43.9314 217.672 46.2121 216.913 48.5C215.413 53.0202 210.842 55.1555 209.084 55.8565Z" fill="#24CD6C" stroke="black" stroke-width="2" stroke-linejoin="round"/>
<path d="M216.792 92.9716C216.41 91.1072 214.958 88.7955 212.208 88.4972C209.457 88.1989 207.241 90.1129 206.477 91.1072C206.987 89.4915 209.151 85.8871 213.736 84.3957" stroke="black" stroke-width="2.2" stroke-linecap="round" stroke-linejoin="round"/>
<path d="M185.585 85.9066C186.243 81.4117 188.064 80.2903 190.519 80.7696C193.809 81.4117 193.151 84.3013 192.822 84.9434C192.493 85.5855 191.177 85.9066 190.848 86.5487C190.64 86.9548 190.848 87.5119 191.177 87.833C191.835 88.4751 192.164 89.1173 191.835 89.7594C191.506 90.4015 190.519 91.3647 188.546 91.0436C185.585 90.4015 185.21 88.4691 185.585 85.9066Z" fill="black"/>
<path d="M186.319 94.9553C190.292 95.8502 204.784 98.3111 211.533 99.4296C212.297 99.5565 214.971 100.548 213.061 103.904C211.151 107.26 203.51 113.971 195.488 112.107C187.465 110.243 184.409 103.158 184.027 102.04C183.645 100.921 181.352 93.8367 186.319 94.9553Z" fill="black"/>
<path d="M190.635 107.702C194.416 110.948 201.122 110.154 201.831 108.857C201.905 108.723 201.841 108.565 201.732 108.458C200.05 106.811 194.015 105.538 190.777 106.787C190.386 106.937 190.317 107.429 190.635 107.702Z" fill="#FF6359"/>
<path d="M204.949 104.903C208.279 105.174 210.286 103.314 210.914 102.225C211 102.076 210.898 101.9 210.727 101.879C201.82 100.772 191.105 98.6459 186.169 97.5195C186.003 97.4817 185.849 97.6082 185.863 97.7779C185.953 98.8692 186.49 100.742 188.14 101.547C193.871 103.785 200.365 104.53 204.949 104.903Z" fill="white"/>
<ellipse rx="19.8655" ry="2.98291" transform="matrix(-1 0 0 1 203.416 132.122)" fill="#E2D3AA"/>
<ellipse cx="283.953" cy="140.739" rx="20.782" ry="3.38057" fill="#E2D3AA"/>
<path d="M282.331 139.218C255.919 138.932 249.316 126.72 249.316 117.4C249.316 111.32 249.316 89.6554 280.193 84.4594C311.795 79.1415 314.613 108.101 314.613 117.4C314.858 124.792 308.744 139.504 282.331 139.218Z" fill="white" stroke="black" stroke-width="2"/>
<ellipse rx="3.76084" ry="1.60211" transform="matrix(0.908627 -0.417608 0.434543 0.900651 268.588 96.8738)" fill="black"/>
<ellipse rx="3.19109" ry="1.44707" transform="matrix(0.973544 0.228498 -0.239234 0.970962 296.639 93.6879)" fill="black"/>
<path d="M297.229 113.903C289.776 116.328 281.258 117.021 274.515 117.399C273.805 117.399 271.321 118.439 273.095 121.556C274.87 124.674 281.901 130.575 289.421 129.145C296.874 127.727 299.714 120.863 300.069 119.824C300.778 117.746 301.488 112.518 297.229 113.903Z" fill="black"/>
<path d="M295.573 123.844C290.117 129.308 284.792 127.996 280.521 125.848C280.364 125.769 280.34 125.558 280.475 125.449C285.602 121.324 291.948 121.865 295.504 123.459C295.657 123.528 295.69 123.727 295.573 123.844Z" fill="#FF6359"/>
<path d="M267.801 102.615C269.829 101.134 271.759 102.612 272.65 103.512C273.162 102.364 274.441 100.321 276.872 101.016C279.918 101.887 279.5 105.481 278.482 107.772C277.466 110.056 275.188 113.262 274.89 113.682C274.736 113.906 274.429 113.962 274.202 113.808L274.2 113.807L274.195 113.804L274.195 113.804C273.765 113.513 270.482 111.287 268.713 109.494C266.938 107.695 265.259 104.47 267.801 102.615Z" fill="#FF6359"/>
<path d="M272.657 103.519C271.769 102.619 269.834 101.13 267.801 102.615C265.259 104.47 266.938 107.695 268.713 109.494C270.482 111.287 273.765 113.513 274.195 113.804M274.195 113.804L274.2 113.807M274.195 113.804L274.202 113.808C274.429 113.962 274.736 113.906 274.89 113.682V113.682M272.646 103.521C273.155 102.375 274.434 100.319 276.872 101.016C279.918 101.887 279.5 105.481 278.482 107.772C277.466 110.056 275.188 113.262 274.89 113.682M274.89 113.682L274.887 113.686" stroke="#FF6359" stroke-width="0.614808" stroke-linejoin="round"/>
<path d="M288.721 99.8993C290.606 98.5932 292.333 99.985 293.125 100.826C293.619 99.7908 294.834 97.9546 297.035 98.6432C299.795 99.5062 299.33 102.776 298.346 104.844C297.366 106.906 295.212 109.78 294.93 110.156C294.785 110.357 294.503 110.402 294.3 110.257L294.298 110.255L294.294 110.252C293.908 109.977 290.965 107.873 289.392 106.197C287.814 104.516 286.358 101.536 288.721 99.8993Z" fill="#FF6359"/>
<path d="M293.131 100.833C292.342 99.9921 290.611 98.5899 288.721 99.8993C286.358 101.536 287.814 104.516 289.392 106.197C290.965 107.873 293.908 109.977 294.294 110.252M294.294 110.252L294.298 110.255M294.294 110.252L294.3 110.257C294.503 110.402 294.785 110.357 294.93 110.156V110.156M293.121 100.834C293.612 99.8002 294.828 97.9529 297.035 98.6432C299.795 99.5062 299.33 102.776 298.346 104.844C297.366 106.906 295.212 109.78 294.93 110.156M294.93 110.156L294.928 110.16" stroke="#FF6359" stroke-width="0.614808" stroke-linejoin="round"/>
<path d="M278.063 72.2203C278.12 72.4787 278.285 72.6966 278.519 72.8233C278.754 72.9501 279.037 72.9748 279.304 72.8916C280.212 72.6086 281.156 72.2704 282.149 71.5823C283.138 70.897 284.116 69.9075 285.188 68.3899C286.453 66.5976 287.101 64.6444 287.311 62.8964C287.519 61.1693 287.311 59.5523 286.756 58.4488C286.627 58.192 286.382 58.0121 286.09 57.9583C285.531 57.8555 284.837 57.9405 284.155 58.1092C283.444 58.2849 282.638 58.5784 281.81 58.9841C280.158 59.7928 278.34 61.0856 276.978 62.8899C275.427 64.9435 275.775 67.0755 276.404 68.7127C276.707 69.5022 277.097 70.2329 277.415 70.8301C277.427 70.8527 277.439 70.8751 277.451 70.8973C277.805 71.5632 278.007 71.966 278.063 72.2203Z" fill="#00692C" stroke="black" stroke-width="2" stroke-linejoin="round"/>
<path d="M279.197 72.706C279.716 72.696 280.146 72.2943 280.189 71.781C280.269 70.832 280.372 69.2288 280.149 67.5257C279.929 65.8341 279.373 63.9324 278.045 62.4807C276.758 61.0748 274.975 60.1541 273.375 59.6123C271.806 59.0813 270.224 58.8526 269.282 59.0009C268.979 59.0486 268.713 59.2312 268.56 59.4964C268.069 60.3443 267.693 61.9529 267.743 63.6879C267.794 65.457 268.291 67.526 269.736 69.2265C271.173 70.9166 273.109 71.7868 274.862 72.234C276.616 72.6817 278.257 72.7242 279.197 72.706Z" fill="#24CD6C" stroke="black" stroke-width="2" stroke-linejoin="round"/>
<defs>
<linearGradient id="paint0_linear_1521_443" x1="234.306" y1="123.837" x2="232.107" y2="198.212" gradientUnits="userSpaceOnUse">
<stop stop-color="#FFF8E5"/>
<stop offset="1" stop-color="#E2D3AA"/>
</linearGradient>
</defs>
</svg>
