<svg width="80" height="80" viewBox="0 0 80 80" fill="none" xmlns="http://www.w3.org/2000/svg">
<path fill-rule="evenodd" clip-rule="evenodd" d="M68.8288 53.1052C68.9365 53.3709 69.0443 53.6366 69.152 53.8952C69.9923 56.2869 70.2509 58.5493 69.7338 60.8118C69.0227 65.5952 65.8553 69.7323 61.3304 71.5422C59.7144 72.2533 57.9044 72.5765 56.0945 72.5765C55.5774 72.5765 54.9309 72.5118 54.4138 72.4472C52.2807 72.1886 50.0829 71.4776 47.9497 70.2494C45.3641 68.7626 42.7784 66.6295 39.9342 63.5267C37.09 66.6295 34.569 68.7626 31.9187 70.2494C29.7856 71.4776 27.5878 72.1886 25.4546 72.4472C24.9375 72.5118 24.2911 72.5765 23.7739 72.5765C21.964 72.5765 20.2187 72.2533 18.538 71.5422C14.0778 69.7323 10.8457 65.6599 10.1347 60.8118C9.81146 58.4847 10.07 56.2223 10.9104 53.8305C11.2336 52.9902 11.5568 52.2145 11.88 51.5035C12.1158 50.9729 12.3516 50.4558 12.5813 49.9521C12.8553 49.3512 13.1206 48.7694 13.3667 48.2068L13.4314 48.0775C17.8916 38.3813 22.7397 28.5559 27.717 18.8597L27.911 18.4719C28.4281 17.5022 28.9452 16.468 29.4624 15.4337C30.1088 14.2702 30.8198 13.042 31.7894 11.8785C33.9226 9.4221 36.8314 8 40.0635 8C43.2309 8 46.2044 9.4221 48.2729 12.0077C49.2267 13.0807 49.8506 14.2087 50.4489 15.2902C50.4994 15.3815 50.5497 15.4724 50.6 15.563C51.1171 16.5973 51.6343 17.6315 52.1514 18.6011L52.3453 18.989C57.3873 28.6852 62.1707 38.5106 66.631 48.2068L66.6956 48.2714C66.9418 48.8341 67.2071 49.4159 67.4811 50.0168C67.7108 50.5205 67.9466 51.0376 68.1824 51.5681C68.3979 52.0422 68.6133 52.5737 68.8288 53.1052ZM65.7908 60.2947C65.3384 63.656 63.0759 66.5648 59.9085 67.8577C58.3571 68.5041 56.6764 68.698 54.9958 68.5041C53.3797 68.3102 51.7637 67.793 50.0831 66.8234C47.756 65.5306 45.4289 63.5267 42.714 60.5532C46.9803 55.3173 49.5659 50.5338 50.5355 46.2675C50.988 44.2637 51.0527 42.4537 50.8587 40.773C50.6002 39.157 50.0184 37.6703 49.1134 36.3774C47.1096 33.4686 43.7482 31.7879 39.999 31.7879C36.2499 31.7879 32.8885 33.5332 30.8846 36.3774C29.9797 37.6703 29.3979 39.157 29.1393 40.773C28.8808 42.4537 28.9454 44.3283 29.4625 46.2675C30.4322 50.5338 33.0824 55.3819 37.2841 60.6179C34.6338 63.5914 32.2421 65.5952 29.915 66.888C28.2344 67.8577 26.6183 68.3748 25.0023 68.5687C23.257 68.7626 21.5763 68.5041 20.0896 67.9223C16.9222 66.6295 14.6597 63.7206 14.2072 60.3593C14.0133 58.7433 14.1426 57.1272 14.789 55.3173C14.9238 54.8681 15.121 54.4189 15.3372 53.9263C15.4321 53.71 15.5308 53.4854 15.6293 53.2488C16.0818 52.2145 16.599 51.1156 17.1161 50.0167L17.1807 49.8874C21.641 40.2559 26.4244 30.4305 31.4018 20.8636L31.5957 20.4757C31.8542 19.9911 32.1127 19.4902 32.3712 18.9894C32.6297 18.4885 32.8886 17.9869 33.1471 17.5022C33.6642 16.468 34.246 15.4984 34.957 14.658C36.3145 13.1066 38.1244 12.2663 40.1283 12.2663C42.1322 12.2663 43.9422 13.1066 45.2996 14.658C46.0107 15.4984 46.5924 16.468 47.1096 17.5022C47.368 17.9868 47.6264 18.4875 47.8848 18.9882C48.1434 19.4892 48.4024 19.9909 48.6609 20.4757L48.8549 20.8636C53.7676 30.4951 58.551 40.3205 63.0113 49.9521V50.0167C63.2698 50.5338 63.5122 51.0832 63.7546 51.6326C63.997 52.1821 64.2394 52.7316 64.498 53.2488C64.5966 53.4853 64.6952 53.7099 64.7901 53.9261C65.0063 54.4187 65.2036 54.8681 65.3384 55.3173C65.8555 56.998 66.0494 58.614 65.7908 60.2947ZM39.999 57.2565C36.5084 52.8609 34.246 48.7239 33.4703 45.2333C33.1471 43.7465 33.0824 42.4537 33.2764 41.2902C33.4056 40.2559 33.7935 39.3509 34.3106 38.5752C35.5388 36.8299 37.6073 35.731 39.999 35.731C42.3907 35.731 44.5239 36.7653 45.6874 38.5752C46.2046 39.3509 46.5924 40.2559 46.7217 41.2902C46.9156 42.4537 46.851 43.8112 46.5278 45.2333C45.7521 48.6593 43.4896 52.7963 39.999 57.2565Z" fill="black"/>
</svg>
