<svg width="320" height="80" viewBox="0 0 320 80" fill="none" xmlns="http://www.w3.org/2000/svg">
<path fill-rule="evenodd" clip-rule="evenodd" d="M121.52 51.0756C121.613 51.3058 121.707 51.536 121.8 51.76C122.528 53.832 122.752 55.792 122.304 57.752C121.688 61.896 118.944 65.48 115.024 67.048C113.624 67.664 112.056 67.944 110.488 67.944C110.04 67.944 109.48 67.888 109.032 67.832C107.184 67.608 105.28 66.992 103.432 65.928C101.192 64.64 98.9521 62.792 96.4881 60.104C94.0241 62.792 91.8401 64.64 89.5441 65.928C87.6961 66.992 85.7921 67.608 83.9441 67.832C83.4961 67.888 82.9361 67.944 82.4881 67.944C80.9201 67.944 79.4081 67.664 77.9521 67.048C74.0881 65.48 71.2881 61.952 70.6721 57.752C70.3921 55.736 70.6161 53.776 71.3441 51.704C71.6241 50.976 71.9041 50.304 72.1841 49.688C72.3884 49.2284 72.5926 48.7804 72.7916 48.3441L72.7916 48.344C73.029 47.8234 73.2588 47.3194 73.4721 46.832L73.5281 46.72C77.3921 38.32 81.5921 29.808 85.9041 21.408L86.0721 21.072C86.5201 20.232 86.9681 19.336 87.4161 18.44C87.9761 17.432 88.5921 16.368 89.4321 15.36C91.2801 13.232 93.8001 12 96.6001 12C99.3441 12 101.92 13.232 103.712 15.472C104.538 16.4015 105.079 17.3787 105.597 18.3156L105.599 18.3181L105.602 18.3244C105.644 18.4006 105.686 18.4764 105.728 18.552L105.728 18.5527C106.176 19.4485 106.624 20.3442 107.072 21.184L107.24 21.52C111.608 29.92 115.752 38.432 119.616 46.832L119.672 46.888C119.885 47.3754 120.115 47.8794 120.352 48.3999L120.353 48.4001C120.552 48.8364 120.756 49.2844 120.96 49.744C121.147 50.1547 121.333 50.6151 121.52 51.0756ZM165.032 26.056C165.032 28.072 163.408 29.696 161.392 29.696C159.376 29.696 157.752 28.072 157.752 26.056C157.752 24.04 159.32 22.416 161.392 22.416C163.464 22.472 165.032 24.096 165.032 26.056ZM150.024 33.392V34.288C150.024 34.288 148.288 32.048 144.592 32.048C138.488 32.048 133.728 36.696 133.728 43.136C133.728 49.52 138.432 54.224 144.592 54.224C148.344 54.224 150.024 51.928 150.024 51.928V52.88C150.024 53.328 150.36 53.664 150.808 53.664H155.344V32.608H150.808C150.36 32.608 150.024 33 150.024 33.392ZM145.488 49.184C147.504 49.184 149.184 48.12 150.024 46.888V39.384C149.24 38.208 147.448 37.088 145.488 37.088C141.904 37.088 139.16 39.328 139.16 43.136C139.16 46.944 141.904 49.184 145.488 49.184ZM158.704 32.608H164.08V53.664H158.704V32.608ZM233.576 34.288C233.576 34.288 235.312 32.048 239.008 32.048C245.056 32.048 249.816 36.752 249.816 43.136C249.816 49.52 245.056 54.224 238.952 54.224C235.256 54.224 233.52 51.928 233.52 51.928V52.88C233.52 53.272 233.184 53.664 232.736 53.664H228.2V22.472H233.576V34.288ZM238.112 49.128C236.04 49.128 234.416 48.064 233.576 46.832V39.328C234.416 38.208 236.208 37.032 238.112 37.032C241.696 37.032 244.44 39.272 244.44 43.08C244.44 46.888 241.696 49.128 238.112 49.128ZM225.4 53.72V41.176C225.4 37.648 224.672 35.632 222.768 34.064C221.2 32.72 219.24 32.048 216.888 32.048C214.816 32.048 212.744 32.664 211.176 34.288V33.392C211.176 33 210.84 32.608 210.392 32.608H206.136V53.664H211.512V38.992C212.576 37.76 214.256 36.92 215.88 36.92C218.904 36.92 220.024 38.32 220.024 41.792V53.72H225.4ZM193.088 32.048C189.392 32.048 187.656 34.288 187.656 34.288V22.472H182.28V53.664H186.816C187.264 53.664 187.6 53.272 187.6 52.88V51.928C187.6 51.928 189.336 54.224 193.032 54.224C199.136 54.224 203.896 49.52 203.896 43.136C203.952 36.752 199.192 32.048 193.088 32.048ZM187.656 46.832C188.496 48.064 190.12 49.128 192.192 49.128C195.776 49.128 198.52 46.888 198.52 43.08C198.52 39.272 195.776 37.032 192.192 37.032C190.288 37.032 188.496 38.208 187.656 39.328V46.832ZM177.632 32.048C179.256 32.048 180.096 32.328 180.096 32.328V37.312C180.096 37.312 175.616 35.8 172.816 38.992V53.72H167.44V32.608H171.976C172.424 32.608 172.76 33 172.76 33.392V34.288C173.768 33.112 175.952 32.048 177.632 32.048ZM96.5441 54.672C93.5201 50.864 91.5601 47.28 90.8881 44.256C90.6081 42.968 90.5521 41.848 90.7201 40.84C90.8321 39.944 91.1681 39.16 91.6161 38.488C92.6801 36.976 94.4721 36.024 96.5441 36.024C98.6161 36.024 100.464 36.92 101.472 38.488C101.92 39.16 102.256 39.944 102.368 40.84C102.536 41.848 102.48 43.024 102.2 44.256C101.528 47.224 99.5681 50.808 96.5441 54.672ZM113.792 63.856C116.536 62.736 118.496 60.216 118.888 57.304C119.112 55.848 118.944 54.448 118.496 52.992C118.379 52.6028 118.209 52.2137 118.021 51.7869C117.939 51.5996 117.854 51.405 117.768 51.2C117.544 50.752 117.334 50.276 117.124 49.8C116.914 49.324 116.704 48.848 116.48 48.4V48.344C112.616 40 108.472 31.488 104.216 23.144L104.048 22.808C103.824 22.388 103.6 21.954 103.376 21.52C103.152 21.086 102.928 20.652 102.704 20.232C102.256 19.336 101.752 18.496 101.136 17.768C99.9601 16.424 98.3921 15.696 96.6561 15.696C94.9201 15.696 93.3521 16.424 92.1761 17.768C91.5601 18.496 91.0561 19.336 90.6081 20.232C90.3841 20.652 90.1601 21.086 89.9361 21.52C89.7121 21.954 89.4881 22.388 89.2641 22.808L89.0961 23.144C84.7841 31.432 80.6401 39.944 76.7761 48.288L76.7201 48.4C76.2721 49.352 75.8241 50.304 75.4321 51.2C75.3467 51.405 75.2612 51.5996 75.179 51.7869C74.9917 52.2137 74.8208 52.6028 74.7041 52.992C74.1441 54.56 74.0321 55.96 74.2001 57.36C74.5921 60.272 76.5521 62.792 79.2961 63.912C80.5841 64.416 82.0401 64.64 83.5521 64.472C84.9521 64.304 86.3521 63.856 87.8081 63.016C89.8241 61.896 91.8961 60.16 94.1921 57.584C90.5521 53.048 88.2561 48.848 87.4161 45.152C86.9681 43.472 86.9121 41.848 87.1361 40.392C87.3601 38.992 87.8641 37.704 88.6481 36.584C90.3841 34.12 93.2961 32.608 96.5441 32.608C99.7921 32.608 102.704 34.064 104.44 36.584C105.224 37.704 105.728 38.992 105.952 40.392C106.12 41.848 106.064 43.416 105.672 45.152C104.832 48.848 102.592 52.992 98.8961 57.528C101.248 60.104 103.264 61.84 105.28 62.96C106.736 63.8 108.136 64.248 109.536 64.416C110.992 64.584 112.448 64.416 113.792 63.856Z" fill="#FF5A5F"/>
</svg>
