<svg width="320" height="80" viewBox="0 0 320 80" fill="none" xmlns="http://www.w3.org/2000/svg">
<path fill-rule="evenodd" clip-rule="evenodd" d="M89.7923 12C95.6163 12 100.77 12.4751 103.904 13.2049C110.155 14.5272 115.075 19.4841 116.387 25.7814C117.111 28.9391 117.583 34.1308 117.583 40C117.583 45.8692 117.109 51.0609 116.387 54.2186C115.075 60.5159 110.155 65.4746 103.904 66.7951C100.77 67.5249 95.6181 68 89.7923 68C83.9664 68 78.8126 67.5249 75.6785 66.7951C69.4281 65.4728 64.5074 60.5159 63.1959 54.2186C62.4715 51.0609 62 45.8692 62 40C62 34.1308 62.4733 28.9391 63.1959 25.7814C64.5074 19.4841 69.4281 14.5254 75.6785 13.2049C78.8126 12.4751 83.9683 12 89.7923 12ZM93.4612 52.4826C94.8137 52.7734 95.9376 53.709 96.4689 54.9863H96.4707C96.6442 55.4035 97.0685 55.6595 97.5184 55.6186L97.8581 55.5861C100.035 55.3675 101.747 55.0622 102.741 54.7063C103.433 54.4445 103.891 53.781 103.89 53.0408C103.888 52.9908 103.886 52.9408 103.883 52.8908C103.88 52.8644 103.878 52.8379 103.877 52.8114C103.707 50.5262 102.331 45.1755 100.273 39.0697C97.9213 32.0877 95.4609 26.4354 94.3517 25.3334C94.0912 25.0595 93.7692 24.8514 93.4124 24.7265L93.3997 24.7228C92.6735 24.4754 91.3295 24.3074 89.7905 24.3074C88.2532 24.3074 86.911 24.4754 86.1812 24.7228C85.8201 24.8473 85.4942 25.0567 85.231 25.3334C84.1218 26.4354 81.6632 32.0877 79.3094 39.0697C77.2519 45.1755 75.8754 50.5262 75.7055 52.8095C75.5974 53.6296 76.0692 54.4159 76.8436 54.7063C77.839 55.0622 79.5515 55.3693 81.7301 55.5861C81.8294 55.5961 81.9287 55.6057 82.0281 55.615C82.4973 55.6579 82.9405 55.3929 83.1246 54.9592C83.6609 53.6951 84.779 52.7711 86.1215 52.4826C86.9381 52.2929 88.2785 52.1683 89.7923 52.1683C91.3061 52.1683 92.6465 52.2929 93.4612 52.4826Z" fill="black"/>
<path fill-rule="evenodd" clip-rule="evenodd" d="M164.046 19C165.896 19 167.46 20.5752 167.46 22.3871C167.457 24.275 165.934 25.8081 164.046 25.823C162.196 25.823 160.679 24.2965 160.679 22.3871C160.679 20.5752 162.196 19 164.046 19ZM156.091 30.657H150.78V34.7812C149.121 31.8692 146.274 30.2 142.577 30.2C136.411 30.2 131.479 35.5923 131.479 42.3195C131.479 49.0467 136.411 54.4859 142.577 54.4859C146.274 54.4859 149.121 52.815 150.78 49.9048V54.009H156.091V30.657ZM235.612 30.657H230.301V34.7812C228.641 31.8692 225.796 30.2 222.098 30.2C215.931 30.2 210.999 35.5923 210.999 42.3195C210.999 49.0467 215.933 54.4859 222.098 54.4859C225.796 54.4859 228.641 52.815 230.301 49.9048V54.009H235.612V30.657ZM143.832 49.4098C147.864 49.4098 150.899 46.3569 150.899 42.3014C150.899 38.2929 147.864 35.24 143.832 35.24C141.956 35.2318 140.155 35.973 138.829 37.299C137.502 38.6249 136.76 40.4258 136.767 42.3014C136.767 46.2612 139.896 49.4098 143.832 49.4098ZM230.142 42.3014C230.142 46.3569 227.108 49.4098 223.076 49.4098C219.139 49.4098 216.011 46.2612 216.011 42.3014C216.003 40.4258 216.745 38.6249 218.072 37.299C219.399 35.973 221.2 35.2318 223.076 35.24C227.108 35.24 230.142 38.2929 230.142 42.3014ZM166.702 30.592H161.438V53.944H166.702V30.592ZM183.238 30.135C184.251 30.135 185.229 30.2867 185.931 30.5559C186.347 30.7148 186.712 30.8901 186.997 31.0382L184.853 35.5489C184.159 35.3423 183.439 35.2389 182.716 35.2418C180.154 35.2418 177.309 37.3879 177.309 41.4921V53.944H172.045V30.592H177.309V33.952C178.353 31.7102 180.962 30.135 183.238 30.135ZM199.005 54.4227C203.842 54.4227 207.921 51.8937 209.675 48.0279L204.98 45.88C203.936 48.0279 201.709 49.3159 199.005 49.3159C195.021 49.3159 192.081 46.263 192.081 42.3032C192.081 38.2929 194.974 35.24 198.958 35.24C201.472 35.24 203.559 36.481 204.507 38.3417L208.965 35.8126C207.257 32.3786 203.463 30.135 198.958 30.135C192.081 30.135 186.865 35.3827 186.865 42.3014C186.865 49.2201 192.129 54.4227 199.005 54.4227ZM246.222 19V53.944H240.958V19H246.222ZM256.829 53.944V19H251.565V53.944H256.829Z" fill="black"/>
</svg>
