<svg width="320" height="80" viewBox="0 0 320 80" fill="none" xmlns="http://www.w3.org/2000/svg">
<path fill-rule="evenodd" clip-rule="evenodd" d="M103.904 13.2049C100.77 12.4751 95.6163 12 89.7923 12C83.9683 12 78.8126 12.4751 75.6785 13.2049C69.4281 14.5254 64.5074 19.4841 63.1959 25.7814C62.4733 28.9391 62 34.1308 62 40C62 45.8692 62.4715 51.0609 63.1959 54.2186C64.5074 60.5159 69.4281 65.4728 75.6785 66.7951C78.8126 67.5249 83.9664 68 89.7923 68C95.6181 68 100.77 67.5249 103.904 66.7951C110.155 65.4746 115.075 60.5159 116.387 54.2186C117.109 51.0609 117.583 45.8692 117.583 40C117.583 34.1308 117.111 28.9391 116.387 25.7814C115.075 19.4841 110.155 14.5272 103.904 13.2049Z" fill="#00B388"/>
<mask id="mask0_1519_308" style="mask-type:alpha" maskUnits="userSpaceOnUse" x="62" y="12" width="56" height="56">
<path fill-rule="evenodd" clip-rule="evenodd" d="M103.904 13.2049C100.77 12.4751 95.6163 12 89.7923 12C83.9683 12 78.8126 12.4751 75.6785 13.2049C69.4281 14.5254 64.5074 19.4841 63.1959 25.7814C62.4733 28.9391 62 34.1308 62 40C62 45.8692 62.4715 51.0609 63.1959 54.2186C64.5074 60.5159 69.4281 65.4728 75.6785 66.7951C78.8126 67.5249 83.9664 68 89.7923 68C95.6181 68 100.77 67.5249 103.904 66.7951C110.155 65.4746 115.075 60.5159 116.387 54.2186C117.109 51.0609 117.583 45.8692 117.583 40C117.583 34.1308 117.111 28.9391 116.387 25.7814C115.075 19.4841 110.155 14.5272 103.904 13.2049Z" fill="white"/>
</mask>
<g mask="url(#mask0_1519_308)">
<path fill-rule="evenodd" clip-rule="evenodd" d="M96.4689 54.9863C95.9376 53.709 94.8137 52.7734 93.4612 52.4826C92.6465 52.2929 91.3061 52.1683 89.7923 52.1683C88.2785 52.1683 86.9381 52.2929 86.1215 52.4826C84.779 52.7711 83.6609 53.6951 83.1246 54.9592C82.9405 55.3929 82.4973 55.6579 82.0281 55.615C81.9287 55.6057 81.8294 55.5961 81.7301 55.5861C79.5515 55.3693 77.839 55.0622 76.8436 54.7063C76.0692 54.4159 75.5974 53.6296 75.7055 52.8095C75.8754 50.5262 77.2519 45.1755 79.3094 39.0697C81.6632 32.0877 84.1218 26.4354 85.231 25.3334C85.4942 25.0567 85.8201 24.8473 86.1812 24.7228C86.911 24.4754 88.2532 24.3074 89.7905 24.3074C91.3295 24.3074 92.6735 24.4754 93.3997 24.7228L93.4124 24.7265C93.7692 24.8514 94.0912 25.0595 94.3517 25.3334C95.4609 26.4354 97.9213 32.0877 100.273 39.0697C102.331 45.1755 103.707 50.5262 103.877 52.8114C103.878 52.8379 103.88 52.8644 103.883 52.8908C103.886 52.9408 103.888 52.9908 103.89 53.0408C103.891 53.781 103.433 54.4445 102.741 54.7063C101.747 55.0622 100.035 55.3675 97.8581 55.5861L97.5184 55.6186C97.0685 55.6595 96.6442 55.4035 96.4707 54.9863H96.4689Z" fill="white"/>
</g>
<path fill-rule="evenodd" clip-rule="evenodd" d="M164.046 19C165.896 19 167.461 20.5752 167.461 22.3871C167.458 24.275 165.934 25.8081 164.046 25.823C162.197 25.823 160.679 24.2965 160.679 22.3871C160.679 20.5752 162.197 19 164.046 19ZM156.091 30.657H150.78V34.7812C149.122 31.8692 146.275 30.2 142.577 30.2C136.411 30.2 131.48 35.5923 131.48 42.3195C131.48 49.0467 136.411 54.4859 142.577 54.4859C146.275 54.4859 149.122 52.815 150.78 49.9048V54.009H156.091V30.657ZM235.613 30.657H230.302V34.7812C228.642 31.8692 225.796 30.2 222.099 30.2C215.931 30.2 211 35.5923 211 42.3195C211 49.0467 215.933 54.4859 222.099 54.4859C225.796 54.4859 228.642 52.815 230.302 49.9048V54.009H235.613V30.657ZM143.832 49.4098C147.864 49.4098 150.899 46.3569 150.899 42.3014C150.899 38.2929 147.864 35.24 143.832 35.24C141.957 35.2318 140.155 35.973 138.829 37.299C137.502 38.6249 136.76 40.4258 136.767 42.3014C136.767 46.2612 139.896 49.4098 143.832 49.4098ZM230.143 42.3014C230.143 46.3569 227.108 49.4098 223.076 49.4098C219.14 49.4098 216.011 46.2612 216.011 42.3014C216.004 40.4258 216.746 38.6249 218.072 37.299C219.399 35.973 221.2 35.2318 223.076 35.24C227.108 35.24 230.143 38.2929 230.143 42.3014ZM166.702 30.592H161.438V53.944H166.702V30.592ZM183.238 30.135C184.252 30.135 185.229 30.2867 185.932 30.5559C186.347 30.7148 186.712 30.8901 186.997 31.0382L184.853 35.5489C184.16 35.3423 183.44 35.2389 182.716 35.2418C180.155 35.2418 177.309 37.3879 177.309 41.4921V53.944H172.045V30.592H177.309V33.952C178.354 31.7102 180.962 30.135 183.238 30.135ZM199.005 54.4227C203.843 54.4227 207.922 51.8937 209.676 48.0279L204.981 45.88C203.937 48.0279 201.709 49.3159 199.005 49.3159C195.022 49.3159 192.081 46.263 192.081 42.3032C192.081 38.2929 194.975 35.24 198.958 35.24C201.473 35.24 203.559 36.481 204.507 38.3417L208.966 35.8126C207.257 32.3786 203.463 30.135 198.958 30.135C192.081 30.135 186.866 35.3827 186.866 42.3014C186.866 49.2201 192.13 54.4227 199.005 54.4227ZM246.222 19V53.944H240.958V19H246.222ZM256.829 53.944V19H251.565V53.944H256.829Z" fill="#101820"/>
</svg>
