<svg width="320" height="80" viewBox="0 0 320 80" fill="none" xmlns="http://www.w3.org/2000/svg">
<path d="M128.849 36.4396V36.194H125.454C123.858 36.194 122.68 36.3475 121.905 36.6698C121.161 36.9613 120.789 37.6059 120.789 38.6188C120.789 40.1228 121.858 40.8748 123.982 40.8748C125.764 40.8748 127.02 40.5065 127.733 39.7698C128.477 39.0025 128.849 37.8975 128.849 36.4396ZM122.664 45.2486C120.169 45.2486 118.309 44.6348 117.115 43.4224C115.922 42.1793 115.317 40.5832 115.317 38.6188C115.317 36.2554 116.092 34.5672 117.627 33.539C119.177 32.4801 121.533 31.9429 124.695 31.9429H128.849V31.0682C128.849 29.1038 127.593 28.1369 125.098 28.1369C122.866 28.1369 121.626 28.981 121.378 30.6845H115.798C115.984 28.6433 116.836 26.9398 118.355 25.5586C119.874 24.1774 122.168 23.4868 125.222 23.4868C128.26 23.4868 130.554 24.1621 132.088 25.5126C133.623 26.8785 134.398 28.7815 134.398 31.237V44.7729H129.36V42.4709C128.167 44.3278 125.935 45.2486 122.664 45.2486ZM147.154 39.9386V44.7422C146.596 44.8189 146.007 44.865 145.403 44.865C143.186 44.865 141.621 44.4046 140.691 43.4684C139.761 42.5169 139.296 40.9976 139.296 38.895V15H144.969V38.5114C144.969 39.0178 145.062 39.3861 145.248 39.6163C145.434 39.8619 145.821 39.9693 146.41 39.9693H146.844C147.015 39.954 147.123 39.9386 147.154 39.9386ZM169.552 32.9405V44.7729H163.879V32.4187C163.879 29.6869 162.763 28.3211 160.531 28.3211C159.229 28.3211 158.221 28.7201 157.493 29.5181C156.795 30.3162 156.454 31.4058 156.454 32.8177V44.7729H150.781V23.9779H156.02V26.5101C157.105 24.4997 159.12 23.4868 162.05 23.4868C164.824 23.4868 166.839 24.469 168.126 26.4181C169.908 24.4537 172.233 23.4868 175.07 23.4868C177.519 23.4868 179.394 24.2388 180.696 25.7428C181.998 27.2468 182.649 29.2572 182.649 31.7741V44.7729H176.976V32.4187C176.976 29.6869 175.86 28.3211 173.628 28.3211C172.295 28.3211 171.288 28.7354 170.59 29.5488C169.908 30.3622 169.552 31.4825 169.552 32.9405ZM200.102 36.4396V36.194H196.708C195.111 36.194 193.933 36.3475 193.158 36.6698C192.414 36.9613 192.042 37.6059 192.042 38.6188C192.042 40.1228 193.112 40.8748 195.235 40.8748C197.018 40.8748 198.273 40.5065 198.986 39.7698C199.73 39.0025 200.102 37.8975 200.102 36.4396ZM193.918 45.2486C191.422 45.2486 189.562 44.6348 188.369 43.4224C187.175 42.1793 186.571 40.5832 186.571 38.6188C186.571 36.2554 187.346 34.5672 188.88 33.539C190.43 32.4801 192.786 31.9429 195.948 31.9429H200.102V31.0682C200.102 29.1038 198.847 28.1369 196.351 28.1369C194.119 28.1369 192.879 28.981 192.631 30.6845H187.036C187.222 28.6433 188.074 26.9398 189.593 25.5586C191.112 24.1774 193.406 23.4868 196.46 23.4868C199.498 23.4868 201.792 24.1621 203.326 25.5126C204.876 26.8631 205.636 28.7661 205.636 31.237V44.7729H200.598V42.4709C199.42 44.3278 197.188 45.2486 193.918 45.2486Z" fill="black"/>
<path d="M207 58.4162H114V65H207V58.4162Z" fill="black"/>
</svg>
