<svg width="320" height="80" viewBox="0 0 320 80" fill="none" xmlns="http://www.w3.org/2000/svg">
<path d="M128.849 36.4396V36.194H125.455C123.858 36.194 122.68 36.3475 121.905 36.6698C121.161 36.9613 120.789 37.6059 120.789 38.6188C120.789 40.1228 121.859 40.8748 123.982 40.8748C125.765 40.8748 127.02 40.5065 127.733 39.7698C128.477 39.0025 128.849 37.8975 128.849 36.4396ZM122.665 45.2486C120.169 45.2486 118.309 44.6348 117.116 43.4224C115.922 42.1793 115.318 40.5832 115.318 38.6188C115.318 36.2554 116.093 34.5672 117.627 33.539C119.177 32.4801 121.533 31.9429 124.695 31.9429H128.849V31.0682C128.849 29.1038 127.594 28.1369 125.098 28.1369C122.866 28.1369 121.626 28.981 121.378 30.6845H115.798C115.984 28.6433 116.837 26.9398 118.356 25.5586C119.875 24.1774 122.169 23.4868 125.222 23.4868C128.26 23.4868 130.554 24.1621 132.089 25.5126C133.623 26.8785 134.398 28.7815 134.398 31.237V44.7729H129.361V42.4709C128.167 44.3278 125.935 45.2486 122.665 45.2486ZM147.155 39.9386V44.7422C146.597 44.8189 146.008 44.865 145.403 44.865C143.187 44.865 141.621 44.4046 140.691 43.4684C139.761 42.5169 139.296 40.9976 139.296 38.895V15H144.969V38.5114C144.969 39.0178 145.062 39.3861 145.248 39.6163C145.434 39.8619 145.822 39.9693 146.411 39.9693H146.845C147.015 39.954 147.124 39.9386 147.155 39.9386ZM169.552 32.9405V44.7729H163.879V32.4187C163.879 29.6869 162.763 28.3211 160.531 28.3211C159.229 28.3211 158.222 28.7201 157.493 29.5181C156.796 30.3162 156.455 31.4058 156.455 32.8177V44.7729H150.782V23.9779H156.021V26.5101C157.106 24.4997 159.121 23.4868 162.05 23.4868C164.825 23.4868 166.84 24.469 168.126 26.4181C169.909 24.4537 172.234 23.4868 175.07 23.4868C177.519 23.4868 179.395 24.2388 180.697 25.7428C181.999 27.2468 182.65 29.2572 182.65 31.7741V44.7729H176.977V32.4187C176.977 29.6869 175.861 28.3211 173.629 28.3211C172.296 28.3211 171.288 28.7354 170.591 29.5488C169.909 30.3622 169.552 31.4825 169.552 32.9405ZM200.103 36.4396V36.194H196.708C195.112 36.194 193.934 36.3475 193.159 36.6698C192.415 36.9613 192.043 37.6059 192.043 38.6188C192.043 40.1228 193.112 40.8748 195.236 40.8748C197.018 40.8748 198.274 40.5065 198.987 39.7698C199.731 39.0025 200.103 37.8975 200.103 36.4396ZM193.918 45.2486C191.423 45.2486 189.563 44.6348 188.369 43.4224C187.176 42.1793 186.571 40.5832 186.571 38.6188C186.571 36.2554 187.346 34.5672 188.881 33.539C190.431 32.4801 192.787 31.9429 195.949 31.9429H200.103V31.0682C200.103 29.1038 198.847 28.1369 196.352 28.1369C194.12 28.1369 192.88 28.981 192.632 30.6845H187.036C187.222 28.6433 188.075 26.9398 189.594 25.5586C191.113 24.1774 193.407 23.4868 196.46 23.4868C199.498 23.4868 201.792 24.1621 203.327 25.5126C204.877 26.8631 205.636 28.7661 205.636 31.237V44.7729H200.599V42.4709C199.421 44.3278 197.189 45.2486 193.918 45.2486Z" fill="#004261"/>
<path d="M207 58.4162H114V65H207V58.4162Z" fill="#E8494E"/>
</svg>
