<svg width="80" height="80" viewBox="0 0 80 80" fill="none" xmlns="http://www.w3.org/2000/svg">
<path d="M19.4204 37.7213V37.5642H17.2669C16.2541 37.5642 15.5068 37.6624 15.0151 37.8686C14.5431 38.0553 14.3071 38.4678 14.3071 39.116C14.3071 40.0786 14.9856 40.5599 16.3328 40.5599C17.4636 40.5599 18.2601 40.3241 18.7124 39.8527C19.1844 39.3616 19.4204 38.6544 19.4204 37.7213ZM15.4969 43.3591C13.9138 43.3591 12.7338 42.9663 11.9766 42.1903C11.2194 41.3947 10.8359 40.3732 10.8359 39.116C10.8359 37.6034 11.3276 36.523 12.3011 35.865C13.2844 35.1872 14.7791 34.8435 16.7851 34.8435H19.4204V34.2836C19.4204 33.0264 18.6239 32.4076 17.0408 32.4076C15.6248 32.4076 14.8381 32.9478 14.6808 34.0381H11.1408C11.2588 32.7317 11.7996 31.6415 12.7633 30.7575C13.7269 29.8735 15.1823 29.4316 17.1194 29.4316C19.0468 29.4316 20.5021 29.8637 21.4756 30.7281C22.4491 31.6022 22.9408 32.8201 22.9408 34.3917V43.0546H19.7449V41.5814C18.9878 42.7698 17.5718 43.3591 15.4969 43.3591ZM31.0336 39.9607V43.035C30.6796 43.0841 30.3059 43.1136 29.9224 43.1136C28.5163 43.1136 27.5231 42.8189 26.9331 42.2198C26.3431 41.6108 26.0481 40.6384 26.0481 39.2928V24H29.6471V39.0473C29.6471 39.3714 29.7061 39.6071 29.8241 39.7545C29.9421 39.9116 30.1879 39.9804 30.5616 39.9804H30.8369C30.9451 39.9705 31.0139 39.9607 31.0336 39.9607ZM45.2428 35.4819V43.0546H41.6438V35.148C41.6438 33.3996 40.9358 32.5255 39.5198 32.5255C38.6938 32.5255 38.0546 32.7809 37.5924 33.2916C37.1499 33.8023 36.9336 34.4997 36.9336 35.4033V43.0546H33.3346V29.7459H36.6583V31.3665C37.3466 30.0798 38.6249 29.4316 40.4834 29.4316C42.2436 29.4316 43.5219 30.0602 44.3381 31.3076C45.4689 30.0503 46.9439 29.4316 48.7434 29.4316C50.2971 29.4316 51.4869 29.9128 52.3129 30.8754C53.1389 31.8379 53.5519 33.1246 53.5519 34.7354V43.0546H49.9529V35.148C49.9529 33.3996 49.2449 32.5255 47.8289 32.5255C46.9833 32.5255 46.3441 32.7907 45.9016 33.3112C45.4689 33.8318 45.2428 34.5488 45.2428 35.4819ZM64.6243 37.7213V37.5642H62.4708C61.4579 37.5642 60.7106 37.6624 60.2189 37.8686C59.7469 38.0553 59.5109 38.4678 59.5109 39.116C59.5109 40.0786 60.1894 40.5599 61.5366 40.5599C62.6674 40.5599 63.4639 40.3241 63.9163 39.8527C64.3883 39.3616 64.6243 38.6544 64.6243 37.7213ZM60.7008 43.3591C59.1176 43.3591 57.9376 42.9663 57.1804 42.1903C56.4233 41.3947 56.0398 40.3732 56.0398 39.116C56.0398 37.6034 56.5314 36.523 57.5049 35.865C58.4883 35.1872 59.9829 34.8435 61.9889 34.8435H64.6243V34.2836C64.6243 33.0264 63.8278 32.4076 62.2446 32.4076C60.8286 32.4076 60.0419 32.9478 59.8846 34.0381H56.3348C56.4528 32.7317 56.9936 31.6415 57.9573 30.7575C58.9209 29.8735 60.3763 29.4316 62.3134 29.4316C64.2408 29.4316 65.6961 29.8637 66.6696 30.7281C67.6529 31.5924 68.1348 32.8103 68.1348 34.3917V43.0546H64.9389V41.5814C64.1916 42.7698 62.7756 43.3591 60.7008 43.3591Z" fill="black"/>
<path d="M69 51.7864H10V56H69V51.7864Z" fill="black"/>
</svg>
