<svg width="320" height="80" viewBox="0 0 320 80" fill="none" xmlns="http://www.w3.org/2000/svg">
<g id="bandsintown-long-color">
<g id="logo">
<g id="bitFist">
<path id="Shape" fill-rule="evenodd" clip-rule="evenodd" d="M43.305 20H52V40H43.305V20ZM32.87 28.3333H41.565V40H32.87V28.3333ZM22.4333 28.3333H31.1283V40H22.435V28.3333H22.4333ZM52 60H12V20H20.695V51.6667H43.305V50H22.4333V41.6667H52V60Z" fill="#00B4B3"/>
</g>
<g id="bitText">
<path id="a" fill-rule="evenodd" clip-rule="evenodd" d="M187.833 31.6549C189.674 31.6549 191.167 30.1625 191.167 28.3216C191.167 26.4807 189.674 24.9883 187.833 24.9883C185.992 24.9883 184.5 26.4807 184.5 28.3216C184.5 30.1625 185.992 31.6549 187.833 31.6549ZM69.6667 52.9917H69.755C71.0367 55.205 73.2934 56.6667 76.6517 56.6667C82.0467 56.6667 86.6017 52.5917 86.6017 45.7717C86.6017 38.95 82.0467 34.8767 76.6534 34.8767C73.2934 34.8767 71.0384 36.3383 69.755 38.5517H69.6667V25H65.3334V56.0017H69.6667V52.9917ZM75.9684 39.2817C79.7567 39.2817 82.2234 41.9767 82.2234 45.8C82.2234 49.625 79.755 52.32 75.9684 52.32C72.1784 52.32 69.7117 49.625 69.7117 45.8C69.7117 41.9767 72.18 39.2817 75.9684 39.2817ZM89.7284 45.8C89.7284 38.9983 94.2834 34.9333 99.6784 34.9333C103.038 34.9333 105.293 36.3917 106.575 38.6H106.665V35.5967H110.998V56.005H106.665V53H106.575C105.293 55.2083 103.038 56.6667 99.6784 56.6667C94.2834 56.6667 89.7284 52.6033 89.7284 45.8ZM100.988 39.2817C104.778 39.2817 107.245 41.9767 107.245 45.8H107.243C107.243 49.625 104.777 52.32 100.988 52.32C97.2 52.32 94.7334 49.625 94.7334 45.8C94.7334 41.9767 97.2 39.2817 100.988 39.2817ZM135.393 43.4783V56.045H131.067V44.2283C131.067 40.7333 129.3 39.2717 126.385 39.2717C123.207 39.2717 120.955 41.175 120.955 46.265V56.045H116.627V35.6H120.955V38.6983H121.043C122.368 36.3533 124.577 34.9367 127.71 34.9367C132.082 34.9367 135.393 37.2817 135.393 43.4783ZM149.722 34.8767C144.327 34.8767 139.772 38.95 139.772 45.7717C139.772 52.5917 144.327 56.6667 149.72 56.6667C153.082 56.6667 155.337 55.205 156.62 52.9917H156.708V56.0017H161.042V25H156.708V38.5517H156.62C155.337 36.3383 153.082 34.8767 149.722 34.8767ZM157.288 45.8C157.288 41.9767 154.82 39.2817 151.032 39.2817C147.243 39.2817 144.777 41.9767 144.777 45.8C144.777 49.625 147.243 52.32 151.032 52.32C154.82 52.32 157.287 49.625 157.287 45.8H157.288ZM166.738 50.66L164.793 54.5017C167.135 55.8717 170.185 56.6667 173.102 56.6667C177.875 56.6667 181.057 54.635 181.057 50.4833C181.057 47.7433 179.643 45.9767 176.99 44.74L173.19 42.93C171.423 42.09 170.848 41.4717 170.848 40.5C170.848 39.5733 171.467 38.9533 173.367 38.9533C175.355 38.9533 177.255 39.6167 178.805 40.28L180.572 36.525C178.405 35.5517 175.843 34.935 173.5 34.935C169.037 34.935 166.252 36.9667 166.252 40.7217C166.252 43.0617 167.445 45.1383 170.54 46.595L174.252 48.4067C175.975 49.2467 176.418 49.865 176.418 50.7033C176.418 51.985 175.312 52.6033 173.235 52.6033C170.805 52.6033 168.638 51.7633 166.738 50.66ZM185.437 56.045H189.815V35.555H185.437V56.045ZM214.21 56.045V43.4767L214.212 43.4783C214.212 37.2817 210.9 34.9367 206.528 34.9367C203.393 34.9367 201.185 36.3533 199.86 38.6983H199.772V35.6H195.445V56.045H199.77V46.265C199.77 41.175 202.025 39.2717 205.203 39.2717C208.117 39.2717 209.883 40.7333 209.883 44.2283V56.045H214.21ZM225.147 39.2967V49.9633C225.147 51.4183 225.753 52.08 227.228 52.08H228.268V56.0467H226.318C222.803 56.0467 220.895 54.15 220.895 50.8V39.2967H217.338V35.6383H220.895V27.4833H225.145V35.6383H229.223V39.2967H225.147ZM242.36 56.6667C248.813 56.6667 253.62 52.0733 253.62 45.8C253.62 39.5283 248.813 34.9333 242.36 34.9333C235.907 34.9333 231.1 39.5283 231.1 45.8C231.1 52.0733 235.907 56.6667 242.36 56.6667ZM236.103 45.8C236.103 49.755 238.793 52.32 242.673 52.32C246.553 52.32 249.24 49.755 249.24 45.8C249.24 41.845 246.553 39.2817 242.673 39.2817C238.793 39.2817 236.105 41.845 236.105 45.8H236.103ZM275.37 56.045H279.33L286.147 35.555H281.397L277.305 50.325L272.598 35.555H268.42L263.712 50.325L259.622 35.555H254.87L261.69 56.045H265.648L270.53 41.3667L275.37 56.045ZM308.667 43.4783V56.045H304.34V44.2283C304.34 40.7333 302.573 39.2717 299.658 39.2717C296.48 39.2717 294.227 41.175 294.227 46.265V56.045H289.9V35.6H294.227V38.6983H294.317C295.642 36.3533 297.85 34.9367 300.983 34.9367C305.355 34.9367 308.667 37.2817 308.667 43.4783Z" fill="#2D2D2D"/>
</g>
</g>
</g>
</svg>
