<svg width="320" height="80" viewBox="0 0 320 80" fill="none" xmlns="http://www.w3.org/2000/svg">
<path fill-rule="evenodd" clip-rule="evenodd" d="M82.1524 38.4576C80.8982 30.8983 73.7457 25.8136 66.2202 27.1017L68.4236 14.4407L60.3389 13C59.6609 14.5254 56.6101 21.4746 55.1355 29.2712C58.1355 31.3051 60.3389 34.5254 60.9999 38.4237C61.6779 42.5424 60.4914 46.5593 58.0169 49.5424C58.627 50.2881 59.3219 50.9661 60.1016 51.5763C63.2372 54.0508 67.0508 55.0169 70.7796 54.3898C78.3558 53.1356 83.4406 45.9831 82.1355 38.4576H82.1524Z" fill="#054752"/>
<path fill-rule="evenodd" clip-rule="evenodd" d="M54.9999 30.1525L55.1694 29.3051C52.288 27.339 48.7287 26.4576 45.0338 27.0678L47.2372 14.4237L39.1694 13C38.4575 14.5763 35.2033 21.9831 33.8135 30.1186C32.6948 36.6949 32.7457 43.7458 36.1863 48.7119C36.9491 49.7797 37.8474 50.7458 38.9321 51.5932C42.0847 54.0678 45.9152 55.0339 49.644 54.4068C53.0677 53.8475 55.966 52.0339 58.0169 49.5763L57.3728 48.7288C53.9152 43.7797 53.8643 36.7288 54.9999 30.1695V30.1525Z" fill="#2DBEFF"/>
<path fill-rule="evenodd" clip-rule="evenodd" d="M61.0168 38.4576C60.3388 34.5593 58.1354 31.339 55.1524 29.3051L54.9829 30.1525C53.8812 36.7288 53.932 43.7797 57.3897 48.7458L58.0168 49.5932C60.4914 46.5424 61.7117 42.5424 60.9998 38.4068L61.0168 38.4576Z" fill="#9EF769"/>
<path fill-rule="evenodd" clip-rule="evenodd" d="M111.932 43.7119C113.102 44.6949 114.017 45.8813 114.695 47.2712L114.712 47.2373C115.424 48.6271 115.78 50.1864 115.813 51.8474C115.813 53 115.61 54.1017 115.271 55.1525C115.237 55.2203 115.203 55.322 115.203 55.3898L115.152 55.5254C115.034 55.8305 114.915 56.1186 114.746 56.4576C114.051 57.8474 113.102 59.0508 111.949 60.0169C111.017 60.7796 109.915 61.3898 108.729 61.7966C107.508 62.2034 106 62.4068 104.186 62.4068H91.5592C91.3558 62.4068 91.1863 62.2373 91.1863 62.0339V27.7119C91.1863 27.4915 91.3558 27.322 91.5592 27.322H101.813C103.508 27.322 104.949 27.5593 106.102 28C107.22 28.4407 108.237 29.0508 109.085 29.8305C110 30.678 110.729 31.661 111.237 32.8474C111.746 34.0339 112 35.2542 112 36.5763C112 37.7966 111.746 38.9661 111.237 40.1017C110.898 40.8813 110.424 41.6102 109.881 42.2373L109.763 42.3559L109.932 42.4407C110.525 42.7119 111.085 43.0678 111.593 43.4576L111.932 43.7119ZM177.619 47.2546C176.941 45.8719 175.995 44.691 174.83 43.7119L174.491 43.4576C173.983 43.0678 173.424 42.7119 172.83 42.4407L172.661 42.3559L172.78 42.2373C173.322 41.6102 173.796 40.8813 174.135 40.1017C174.644 38.9661 174.898 37.7966 174.898 36.5763C174.898 35.2542 174.627 34.0339 174.118 32.8474C173.61 31.661 172.881 30.678 171.966 29.8305C171.118 29.0508 170.102 28.4407 168.949 28C167.796 27.5593 166.356 27.322 164.661 27.322H154.39C154.186 27.322 154.017 27.4915 154.017 27.7119V62.0339C154.017 62.2373 154.186 62.4068 154.39 62.4068H167.068C168.881 62.4068 170.39 62.2034 171.61 61.7966C172.796 61.3898 173.898 60.7796 174.83 60.0169C175.983 59.0508 176.932 57.8474 177.627 56.4576C177.796 56.1186 177.915 55.8305 178.034 55.5254L178.085 55.3898L178.169 55.1525C178.508 54.1017 178.712 53 178.712 51.8474C178.678 50.1933 178.325 48.6401 177.619 47.2546ZM187.186 27.3729H187.152L182.491 28.1864C182.322 28.2203 182.152 28.3559 182.152 28.5254V62.0508C182.152 62.2542 182.322 62.4237 182.542 62.4237H187.237C187.407 62.4237 187.576 62.2542 187.576 62.0508V27.7458C187.576 27.5424 187.407 27.3729 187.186 27.3729ZM240.051 51.6441H244.864L244.881 51.6949C244.983 51.6949 245.085 51.7288 245.118 51.7796C245.186 51.8644 245.22 51.9322 245.22 52.0339V52.1186C244.491 55.4237 242.898 58.1356 240.559 60C238.203 61.8813 235.118 62.9322 231.322 62.9322C226.898 62.9322 223 61.1525 220.203 58.0169C217.407 54.9152 215.712 50.4746 215.712 45.1695C215.712 39.8644 217.407 35.4407 220.203 32.322C223 29.2203 226.898 27.4068 231.305 27.4068C235.102 27.4068 238.152 28.4915 240.491 30.3559C242.83 32.2203 244.407 34.8983 245.169 38.1525V38.2373C245.169 38.339 245.135 38.4237 245.068 38.4746C245.017 38.5424 244.915 38.5763 244.847 38.5763H240.017C239.847 38.5763 239.729 38.4746 239.678 38.339C238.983 36.5932 238.051 35.1017 236.695 34.0508C235.339 33.0169 233.61 32.4237 231.356 32.4237C228.271 32.4237 225.763 33.7796 224.068 36.0339C222.356 38.2881 221.424 41.4576 221.424 45.1186C221.424 48.7458 222.373 51.9152 224.068 54.2034C225.763 56.4746 228.254 57.8305 231.356 57.8305C233.627 57.8305 235.373 57.2203 236.729 56.2034C238.085 55.1525 239.034 53.661 239.712 51.8644C239.763 51.7288 239.881 51.6441 240.051 51.6441ZM285.644 37.2373C286.305 37.2373 286.779 37.3051 287.118 37.3729H287.068C287.254 37.4068 287.373 37.5763 287.322 37.7458V42.6949C287.322 42.8983 287.186 43.0339 286.983 43.0339H286.932C286.542 42.9661 285.864 42.8983 285.186 42.8983C284.288 42.8983 283.254 43 282.305 43.339C281.491 43.6271 280.796 44.0678 280.169 44.6441C279.576 45.2203 279.118 45.9661 278.813 46.9152C278.525 47.8644 278.356 49.0169 278.356 50.3729V62.0678C278.356 62.2373 278.186 62.4068 277.983 62.4068H273.339C273.169 62.4068 273 62.2373 273 62.0678V38C273 37.7966 273.169 37.6271 273.339 37.6271H277.949C278.118 37.6271 278.288 37.7966 278.288 38V41.2881L278.508 40.9491C278.813 40.4746 279.152 40.0508 279.491 39.7119C280.102 39.1017 280.779 38.5932 281.457 38.2203C282.135 37.8474 282.864 37.5763 283.542 37.4407C284.356 37.2881 285.068 37.2373 285.644 37.2373ZM159.491 32.5254H163.796C165.152 32.5254 166.169 32.6441 166.847 32.8644C167.491 33.1186 168 33.4576 168.373 33.8813C169.102 34.6949 169.474 35.6441 169.474 36.7627C169.474 37.8474 169.135 38.7966 168.373 39.6102C168 40.0339 167.525 40.3729 166.847 40.6271C166.373 40.7966 165.661 40.8983 164.813 40.9661H159.441V32.5254H159.491ZM171.593 55.5763C172.068 55.0678 172.441 54.4915 172.712 53.8135H172.678C172.966 53.1525 173.102 52.4407 173.102 51.678C173.102 50.9491 172.966 50.2203 172.678 49.5932C172.39 48.9491 172.017 48.3729 171.542 47.8644C171.017 47.339 170.356 46.9152 169.593 46.6102C168.796 46.322 167.644 46.1525 166.085 46.1525H159.474V57.2881H166.085C167.644 57.2881 168.813 57.1186 169.61 56.8305C170.407 56.5254 171.051 56.0847 171.593 55.5763ZM209.661 39.6441C207.864 38 205.39 37.1864 202.305 37.1864C199.525 37.1864 197.254 37.8644 195.525 39.2203C194 40.3559 192.898 41.8135 192.305 43.5424C192.237 43.7119 192.356 43.9322 192.559 43.9661L196.932 44.7288C197.102 44.7627 197.22 44.678 197.271 44.5593C198.169 42.5763 199.847 41.6102 202.322 41.6102C204.017 41.6102 205.305 42.0678 206.22 43C207.135 43.9322 207.576 45.1695 207.576 46.7288V47.6102C205.288 46.9322 203.102 46.5932 201.068 46.5932C198.186 46.5932 195.779 47.3051 193.864 48.7627C191.966 50.2203 190.983 52.2712 190.983 54.8983C190.983 57.4068 191.881 59.3729 193.627 60.7966C195.373 62.2203 197.474 62.9322 199.949 62.9322C203.102 62.9322 205.712 62.0169 207.61 60.1186V62.0169C207.61 62.2542 207.813 62.4407 208.034 62.4407H212.068C212.288 62.4407 212.474 62.2712 212.474 62.0339V46.3898C212.424 43.5085 211.508 41.2712 209.678 39.6441H209.661ZM200.593 58.2881C202.559 58.2881 204.203 57.7288 205.559 56.5932V56.5763C206.915 55.4915 207.593 53.983 207.593 52C205.339 51.322 203.237 50.983 201.322 50.983C199.796 50.983 198.542 51.3051 197.593 51.9152C196.644 52.5254 196.135 53.4407 196.135 54.661C196.135 55.7796 196.525 56.661 197.271 57.3051C198.051 57.9491 199.152 58.2881 200.593 58.2881ZM124.322 27.3729H124.288L119.61 28.1864C119.441 28.2203 119.271 28.3559 119.271 28.5254V62.0508C119.271 62.2542 119.441 62.4237 119.661 62.4237H124.356C124.525 62.4237 124.695 62.2542 124.695 62.0508V27.7458C124.695 27.5424 124.525 27.3729 124.322 27.3729ZM96.5592 32.5254H100.898C102.254 32.5254 103.271 32.6441 103.949 32.8644C104.593 33.1186 105.102 33.4576 105.474 33.8813C106.203 34.6949 106.576 35.6441 106.576 36.7627C106.576 37.8474 106.237 38.7966 105.474 39.6102C105.102 40.0339 104.627 40.3729 103.949 40.6271C103.474 40.7966 102.763 40.8983 101.915 40.9661H96.5592V32.5254ZM108.695 55.5763C109.152 55.0678 109.542 54.4915 109.83 53.8135H109.813C110.085 53.1525 110.254 52.4407 110.254 51.678C110.254 50.9491 110.118 50.2203 109.83 49.5932C109.542 48.9491 109.169 48.3729 108.695 47.8644C108.169 47.339 107.508 46.9152 106.712 46.6102C105.932 46.322 104.763 46.1525 103.186 46.1525H96.5761V57.2881H103.186C104.746 57.2881 105.915 57.1186 106.712 56.8305C107.508 56.5254 108.152 56.0847 108.695 55.5763ZM146.779 39.6441C144.966 38 142.491 37.1864 139.407 37.1864C136.644 37.1864 134.373 37.8644 132.627 39.2203C131.102 40.3559 130.017 41.8135 129.407 43.5424C129.356 43.7119 129.474 43.9322 129.678 43.9661L134.034 44.7288C134.203 44.7627 134.373 44.678 134.424 44.5593C135.305 42.5763 136.966 41.6102 139.457 41.6102C141.102 41.6102 142.407 42.0678 143.322 43C144.237 43.9322 144.712 45.1695 144.712 46.7288V47.6102C142.39 46.9322 140.203 46.5932 138.169 46.5932C135.288 46.5932 132.881 47.3051 130.966 48.7627C129.017 50.2203 128.085 52.2712 128.085 54.8983C128.085 57.4068 128.932 59.3729 130.678 60.7966C132.424 62.2203 134.525 62.9322 137 62.9322C140.169 62.9322 142.763 62.0169 144.678 60.1186V62.0169C144.678 62.2542 144.847 62.4407 145.068 62.4407H149.102C149.339 62.4407 149.525 62.2712 149.525 62.0339V46.3898C149.474 43.5085 148.576 41.2712 146.746 39.6441H146.779ZM137.644 58.2881C139.593 58.2881 141.288 57.7288 142.644 56.5932L142.61 56.5763C143.966 55.4915 144.644 53.983 144.61 52C142.373 51.322 140.271 50.983 138.339 50.983C136.813 50.983 135.576 51.3051 134.61 51.9152C133.644 52.5254 133.135 53.4407 133.135 54.661C133.135 55.7796 133.542 56.661 134.322 57.3051C135.102 57.9491 136.203 58.2881 137.644 58.2881ZM266.474 39.6441C264.661 38 262.186 37.1864 259.102 37.1864C256.356 37.1864 254.085 37.8644 252.322 39.2203C250.796 40.3559 249.729 41.8135 249.102 43.5424C249.068 43.7119 249.186 43.9322 249.39 43.9661L253.763 44.7288C253.932 44.7627 254.051 44.678 254.102 44.5593C255 42.5763 256.678 41.6102 259.152 41.6102C260.813 41.6102 262.118 42.0678 263.051 43C263.949 43.9322 264.407 45.1695 264.407 46.7288V47.6102C262.102 46.9322 259.915 46.5932 257.881 46.5932C255 46.5932 252.593 47.3051 250.678 48.7627C248.763 50.2203 247.796 52.2712 247.796 54.8983C247.796 57.4068 248.678 59.3729 250.424 60.7966C252.169 62.2203 254.271 62.9322 256.746 62.9322C259.932 62.9322 262.508 62.0169 264.441 60.1186V62.0169C264.441 62.2542 264.61 62.4407 264.847 62.4407H268.881C269.102 62.4407 269.288 62.2712 269.288 62.0339V46.3898C269.22 43.5085 268.305 41.2712 266.491 39.6441H266.474ZM257.373 58.2881C259.339 58.2881 260.966 57.7288 262.322 56.5932L262.339 56.5763C263.695 55.4915 264.373 53.983 264.373 52C262.169 51.322 260.034 50.983 258.102 50.983C256.576 50.983 255.339 51.3051 254.373 51.9152C253.424 52.5254 252.915 53.4407 252.915 54.661C252.915 55.7796 253.305 56.661 254.051 57.3051C254.83 57.9491 255.932 58.2881 257.373 58.2881Z" fill="#054752"/>
</svg>
