<svg width="320" height="80" viewBox="0 0 320 80" fill="none" xmlns="http://www.w3.org/2000/svg">
<path d="M231 22H221.362L218.792 29.0706H228.431L231 22ZM102.493 22H130.123L126.268 31.0003H110.202L107.633 36.7857H121.768L118.555 45.7847H104.42L99.9249 57.9987H89L102.493 22ZM132.693 22H142.973L129.48 57.9987H119.199L132.692 22H132.693ZM142.973 31.6423H153.254L142.973 58H133.335L142.973 31.6423ZM156.466 31.6423H166.105L164.819 35.4992C167.137 33.1453 170.659 31.0003 173.815 31.0003C178.372 31.0003 181.781 32.9608 180.882 38.0709C180.62 39.8225 180.191 41.5434 179.598 43.213L173.815 58H163.534L168.674 45.7847C169.207 44.5367 169.636 43.2463 169.96 41.9278C170.251 40.2749 168.992 39.3561 167.389 39.3561C164.234 39.3561 163.327 41.15 162.248 43.8563L156.466 57.9987H146.828L156.466 31.6423ZM191.163 22H201.444L194.375 39.3561L203.371 31.6423H214.937L201.444 42.5711L205.299 57.9987H195.018L193.091 48.3564L190.52 50.2849L187.308 57.9987H177.67L191.163 22Z" fill="white"/>
</svg>
