<svg width="80" height="80" viewBox="0 0 80 80" fill="none" xmlns="http://www.w3.org/2000/svg">
<g clip-path="url(#clip0_1519_440)">
<path d="M68.8096 40.689C68.8096 38.6496 68.6443 36.5993 68.2915 34.593H39.9946V46.1455H56.1989C55.5265 49.8714 53.3659 53.1674 50.2022 55.2618V62.7577H59.8697C65.5467 57.5326 68.8096 49.8163 68.8096 40.689Z" fill="#4285F4"/>
<path d="M39.9943 70C48.0854 70 54.9089 67.3434 59.8804 62.7577L50.2129 55.2618C47.5232 57.0917 44.0509 58.1279 40.0053 58.1279C32.1788 58.1279 25.5427 52.8477 23.1617 45.7487H13.1855V53.476C18.2783 63.6065 28.6513 70 39.9943 70Z" fill="#34A853"/>
<path d="M23.151 45.7487C21.8943 42.0228 21.8943 37.9882 23.151 34.2624V26.535H13.1859C8.93088 35.0119 8.93088 44.9991 13.1859 53.476L23.151 45.7487Z" fill="#FBBC04"/>
<path d="M39.9943 21.8721C44.2713 21.806 48.4051 23.4154 51.5027 26.3696L60.0678 17.8045C54.6443 12.7117 47.4461 9.91179 39.9943 9.99998C28.6513 9.99998 18.2783 16.3935 13.1855 26.535L23.1506 34.2623C25.5207 27.1523 32.1677 21.8721 39.9943 21.8721Z" fill="#EA4335"/>
</g>
<defs>
<clipPath id="clip0_1519_440">
<rect width="58.8095" height="60" fill="white" transform="translate(10 10)"/>
</clipPath>
</defs>
</svg>
