<svg width="80" height="80" viewBox="0 0 80 80" fill="none" xmlns="http://www.w3.org/2000/svg">
<g id="google-short-black">
<g id="Google__G__Logo 1" clip-path="url(#clip0)">
<path id="Vector" d="M68.8094 40.689C68.8094 38.6496 68.6441 36.5993 68.2913 34.593H39.9944V46.1455H56.1987C55.5263 49.8714 53.3657 53.1674 50.202 55.2618V62.7577H59.8695C65.5465 57.5326 68.8094 49.8163 68.8094 40.689Z" fill="black"/>
<path id="Vector_2" d="M39.9945 70C48.0857 70 54.9091 67.3434 59.8806 62.7577L50.2132 55.2618C47.5235 57.0917 44.0511 58.1279 40.0056 58.1279C32.179 58.1279 25.5429 52.8477 23.1619 45.7487H13.1858V53.476C18.2786 63.6065 28.6515 70 39.9945 70Z" fill="black"/>
<path id="Vector_3" d="M23.151 45.7487C21.8943 42.0228 21.8943 37.9882 23.151 34.2624V26.535H13.1859C8.93088 35.0119 8.93088 44.9991 13.1859 53.476L23.151 45.7487Z" fill="black"/>
<path id="Vector_4" d="M39.9945 21.8721C44.2716 21.806 48.4053 23.4154 51.5029 26.3696L60.068 17.8045C54.6445 12.7117 47.4463 9.91179 39.9945 9.99998C28.6515 9.99998 18.2786 16.3935 13.1858 26.535L23.1509 34.2623C25.5209 27.1523 32.168 21.8721 39.9945 21.8721Z" fill="black"/>
</g>
</g>
<defs>
<clipPath id="clip0">
<rect width="58.8095" height="60" fill="white" transform="translate(10 10)"/>
</clipPath>
</defs>
</svg>
