<svg width="320" height="80" viewBox="0 0 320 80" fill="none" xmlns="http://www.w3.org/2000/svg">
<g id="molotov-long-color">
<g id="logo-molotov-color">
<path id="Shape" fill-rule="evenodd" clip-rule="evenodd" d="M139.68 55.142C169.956 52.518 200.848 53.678 212.14 60.254L212.138 60.258C216.474 62.788 214.228 67.42 212.848 69.188C207.2 63.038 184.224 56.572 141.356 58.452C131.836 58.864 121.48 60.04 112.836 61.56L112.82 61.49C112.816 61.47 115.34 60.784 117.056 60.376C115.926 60.5202 114.291 60.756 113.343 60.8928C112.883 60.959 112.585 61.002 112.584 61V60.964C112.584 60.96 115.248 60.212 116.944 59.864C115.489 60.0184 113.626 60.2722 112.832 60.3805C112.587 60.4139 112.443 60.4334 112.444 60.432V60.398C112.444 60.392 115.276 59.694 117.02 59.324C115.577 59.4674 113.682 59.718 112.864 59.826C112.61 59.8596 112.46 59.8794 112.46 59.878C112.462 59.8746 112.463 59.8726 112.463 59.8705C112.464 59.8678 112.464 59.8648 112.464 59.858C112.466 59.8541 112.889 59.7637 113.523 59.6281C114.516 59.4157 116.027 59.0927 117.248 58.818C116.147 58.9514 114.549 59.1718 113.526 59.3129C112.954 59.3919 112.562 59.446 112.538 59.446C112.533 59.446 112.537 59.4419 112.542 59.436C112.547 59.4297 112.554 59.4213 112.554 59.414C112.591 59.4046 112.821 59.3591 113.168 59.2905C114.298 59.0672 116.667 58.5987 117.646 58.334C116.206 58.558 113.13 58.938 112.654 58.954C112.655 58.9495 112.656 58.9455 112.657 58.9417C112.658 58.9354 112.66 58.9295 112.66 58.922C121.96 57.134 130.392 55.95 139.68 55.142ZM101.956 62.042C101.952 62.062 101.952 62.082 101.952 62.102L101.948 62.098C101.948 62.1031 101.773 62.1497 101.486 62.2261C100.637 62.4525 98.8075 62.9399 97.656 63.378C99.542 62.894 101.982 62.562 101.982 62.57L101.972 62.644C101.971 62.647 101.855 62.6769 101.654 62.7286C100.903 62.9219 98.968 63.4198 97.464 63.95C99.116 63.494 101.924 63.13 101.924 63.144L101.908 63.208C101.744 63.22 98.25 64.08 97.084 64.5C98.52 64.066 101.69 63.65 101.79 63.654C101.789 63.6561 101.789 63.6585 101.788 63.6612C101.785 63.6687 101.782 63.6783 101.782 63.69C96.198 64.866 90.53 66.222 84.818 67.758C82.478 68.388 79.93 67.236 82.554 66.368C88 64.566 94.44 62.814 101.72 61.174C101.726 61.194 101.732 61.214 101.732 61.226C101.733 61.2312 101.526 61.2878 101.191 61.379C100.361 61.6054 98.7486 62.0451 97.608 62.44C99.168 62.01 101.872 61.542 101.872 61.55C101.876 61.572 101.876 61.592 101.876 61.616C101.876 61.6183 101.734 61.6575 101.499 61.7227C100.692 61.9463 98.7845 62.4749 97.716 62.862C99.584 62.342 101.956 62.03 101.956 62.042Z" fill="#FFC107"/>
<path id="Shape_2" fill-rule="evenodd" clip-rule="evenodd" d="M124.428 51.76C127.192 51.192 129.754 49.516 132.214 46.08C134.328 43.124 135.42 40.126 136.206 36.416C136.374 35.626 136.502 34.9 136.602 34.228C138.094 33.558 139.482 32.468 140.572 30.868C139.722 35.868 139.288 39.26 139.132 41.412C138.918 44.532 139.212 46.704 139.962 48.402C140.816 50.352 142.356 51.328 144.102 51.562C146.592 51.902 148.262 50.696 150.254 48.788C150.54 48.516 150.824 48.208 151.108 47.868C152.382 50.532 155.088 52.108 158.78 51.374C161.546 50.828 164.124 49.174 166.614 45.754C168.754 42.814 169.874 39.828 170.69 36.124C170.858 35.354 170.99 34.644 171.098 33.984C172.714 33.364 174.252 32.324 175.45 30.774C174.456 35.402 173.87 38.486 173.67 40.574C173.37 43.678 173.61 45.868 174.316 47.618C175.126 49.626 176.65 50.712 178.404 51.078C180.898 51.598 182.784 50.446 184.664 48.752C184.994 48.458 185.324 48.124 185.656 47.764C186.806 50.708 189.604 52.524 193.528 51.764C196.3 51.234 198.882 49.598 201.384 46.214C203.538 43.302 204.664 40.338 205.5 36.662C205.67 35.912 205.8 35.222 205.908 34.582C207.922 33.738 209.256 32.222 210.124 29.926C210.55 28.798 210.264 25.918 209.618 27.366C208.262 30.406 206.578 31.716 204.782 32.152C205.27 31.86 205.762 31.484 206.238 31.002C206.238 29.07 205.87 27.888 205.512 27.068C204.328 24.348 201.558 24.496 200.882 24.776C200.902 23.116 200.112 22.1 197.402 22.584C195.822 22.864 194.23 23.484 192.918 24.47C190.478 26.304 188.322 29.398 187.248 32.006C186.108 34.77 185.3 37.49 184.958 40.32C184.778 41.792 184.778 43.52 185.004 45.12C184.768 45.36 184.524 45.584 184.268 45.794C183.524 46.414 182.302 47.164 181.428 47.034C179.716 46.7744 179.862 43.8397 179.929 42.4897L179.929 42.4859C179.931 42.4512 179.933 42.4175 179.934 42.385C179.936 42.3586 179.937 42.3329 179.938 42.308C180.033 40.305 180.581 37.6814 181.002 35.6652C181.134 35.034 181.253 34.4624 181.342 33.988C181.662 32.274 182.782 26.768 184.59 19.878C192.254 19.426 198.69 20.364 202.636 21.204C204.166 21.532 205.996 22.058 207.91 22.794C212.624 24.79 212.464 31.2 211.938 34.986C211.11 40.9712 209.317 45.7978 208.309 48.511C207.887 49.6455 207.603 50.4105 207.584 50.736L207.582 50.7813C207.558 51.1989 207.493 52.3395 208.238 53.252C208.63 53.732 209.538 54.518 210.658 55.204C212.166 56.096 213.21 56.112 214.214 55.844C216.588 55.188 225.354 47.38 230.35 39.224C233.08 34.724 234.87 29.714 234.862 28.034C234.85 26.128 227.532 26.654 227.338 29.538C227.01 34.198 224.478 39.928 220.87 44.374C218.424 47.378 215.744 49.818 213.744 50.808C215.654 45.444 218.07 37.452 218.596 29.848C218.776 27.332 218.642 23.6 217.066 21.244C214.35 17.184 206.272 15.238 195.87 15.28C192.422 15.28 188.91 15.512 185.57 15.9C185.927 14.3811 186.218 13.1906 186.418 12.3753C186.576 11.7275 186.677 11.3166 186.706 11.166C186.832 10.532 185.746 10.266 183.612 10.326C181.418 10.386 179.944 10.722 179.572 12.234C179.375 13.0456 179.193 13.771 179.017 14.4716L179.017 14.4719C178.803 15.3218 178.599 16.1353 178.388 17.022C177.396 17.222 176.442 17.428 175.538 17.646C173.086 18.234 171.468 18.722 169.958 19.372C168.548 19.868 167.546 23.356 168.798 22.908C171.706 21.874 174.178 21.268 177.058 20.756L177.584 20.672L177.492 21.0942C177.392 21.5516 177.308 21.9358 177.254 22.172C175.814 28.552 172.528 30.924 169.874 31.424C170.382 31.124 170.894 30.732 171.398 30.224C171.364 28.398 171.006 27.268 170.658 26.472C169.464 23.74 166.694 23.9 166.018 24.182C166.034 22.514 165.238 21.49 162.528 21.986C160.952 22.274 159.362 22.9 158.054 23.898C155.62 25.752 153.48 28.878 152.414 31.504C151.284 34.288 150.49 37.03 150.158 39.884C149.964 41.55 149.998 43.544 150.322 45.314C150.146 45.502 149.962 45.684 149.776 45.86C149.056 46.532 147.86 47.372 146.99 47.304C145.284 47.1701 145.354 44.2127 145.386 42.8636L145.386 42.8606C145.388 42.8004 145.389 42.7434 145.39 42.69C145.432 40.7096 145.895 38.1731 146.259 36.18L146.259 36.1793C146.38 35.5158 146.49 34.9125 146.57 34.41C147.063 31.1594 149.55 18.5625 150.618 13.1512L150.618 13.1505C150.88 11.8235 151.057 10.9286 151.098 10.71C151.208 10.062 150.122 9.87403 148.008 10.09C145.834 10.314 144.384 10.754 144.056 12.29C143.379 15.4768 142.887 18.17 142.429 20.6806C142.219 21.8287 142.016 22.9386 141.806 24.04C140.296 28.86 137.786 30.98 135.618 31.648C136.038 31.378 136.458 31.048 136.866 30.634C136.83 28.738 136.454 27.574 136.092 26.764C134.872 24.04 132.104 24.224 131.432 24.51C131.432 22.842 130.632 21.824 127.922 22.342C126.348 22.642 124.762 23.282 123.462 24.288C121.046 26.16 118.934 29.302 117.89 31.938C116.786 34.732 116.014 37.482 115.71 40.334C115.454 42.694 115.656 45.71 116.49 47.798C117.678 50.762 120.502 52.568 124.426 51.762L124.428 51.76ZM112.66 39.024C111.516 45.496 110.652 53.604 110.46 57.284L110.464 57.28C110.27 61.11 110.81 64.828 112.83 68.136C113.446 69.146 110.338 69.356 109.486 69.116C105.14 67.884 102.946 64.064 103.006 59.264C103.078 53.342 105.652 39.95 106.986 33.23C107.079 32.759 107.16 32.3573 107.232 31.9941L107.232 31.994C107.487 30.7164 107.647 29.9145 107.958 28.242C101.61 34.408 96.4021 48.006 94.9701 53.838C94.6661 55.078 91.3521 56.3 90.4821 56.49C90.3801 56.512 90.3021 56.52 90.2321 56.52C88.2265 56.6116 88.89 50.8777 89.2826 47.4854C89.3101 47.2479 89.3362 47.0218 89.3601 46.81C89.5901 44.782 91.1361 34.598 92.1701 29.118C85.1741 36.238 80.2181 53.606 78.7061 60.058C78.4141 61.302 75.1441 62.642 74.2781 62.862C74.1941 62.884 74.1181 62.896 74.0581 62.896C71.4781 63.1891 72.4172 57.0335 72.6851 55.2774L72.7121 55.1C72.8687 54.0557 73.3652 50.3426 73.981 45.738L73.981 45.7379C75.0244 37.9356 76.41 27.5738 77.0641 23.3C74.9881 25.6 72.5381 29.114 70.8921 31.7C69.6161 33.716 68.5581 30.46 69.1861 29.26C70.1261 27.454 70.9301 26.04 72.8881 22.714C73.8441 21.086 77.0401 16.532 78.9681 15.326L78.983 15.3169C79.0245 15.2916 79.0677 15.2652 79.1141 15.242C79.1201 15.24 79.1261 15.236 79.1301 15.23H79.1401C79.1441 15.23 79.1481 15.224 79.1481 15.224L79.1681 15.218L79.1841 15.212C80.0041 14.834 81.7261 14.906 82.6561 14.998C83.3661 15.066 84.4521 15.358 84.7961 15.918C84.9546 16.1731 84.8325 16.8765 84.7663 17.2582C84.7556 17.3195 84.7464 17.3725 84.7401 17.414C84.4134 19.6846 83.1613 26.9243 82.2715 32.0694L82.2714 32.0699L82.2712 32.0706C81.9243 34.0764 81.6325 35.7637 81.4721 36.714C81.4058 37.1069 81.0312 39.5047 80.7056 41.5892L80.7053 41.5907L80.7052 41.5912C80.5006 42.9015 80.3152 44.0878 80.2381 44.574C81.8461 39.35 84.9161 30.856 88.1501 26.47C89.3121 24.89 91.0021 22.99 92.9661 21.998C94.0661 21.444 94.9081 21.246 96.2341 21.694L96.2541 21.7C96.4077 21.7605 96.5581 21.8233 96.7059 21.885C96.7929 21.9213 96.8789 21.9572 96.9641 21.992C97.8481 22.358 99.0961 23.332 99.4201 24.002C99.6019 24.3813 99.4504 24.9853 99.3522 25.3765C99.3241 25.4886 99.3003 25.5832 99.2901 25.65C99.064 27.1212 98.2088 31.0011 97.3912 34.7106C96.7693 37.5318 96.1692 40.2545 95.8841 41.744C97.6441 36.744 100.438 29.86 103.924 25.496C105.14 23.976 106.82 22.11 108.8 21.182C109.894 20.67 110.994 20.456 112.434 21.026C112.464 21.034 112.494 21.044 112.514 21.058C113.61 21.528 114.67 22.268 115.014 22.688C115.7 23.514 115.504 24.882 115.42 25.274C115.265 26.0307 115.082 26.912 114.884 27.8676L114.884 27.8684L114.884 27.8685L114.884 27.8687C114.144 31.4316 113.191 36.0248 112.66 39.024ZM246.24 52.09L242.87 60.996L239.41 52.09H223.98V56.558H228.034V69.386H232.874V56.56H239.114L236.658 57.536L241.662 69.388H244.058L250.854 53.132V52.092H246.24V52.09ZM221.18 64.35C219.62 64.35 218.49 65.418 218.49 66.89C218.49 68.34 219.622 69.39 221.182 69.39C222.714 69.39 223.826 68.34 223.826 66.89C223.826 65.444 222.69 64.35 221.186 64.35H221.18ZM195.232 30.252C193.74 31.996 192.93 33.552 192.04 36.296L192.044 36.298C190.33 41.578 190.564 45.634 192.564 47.114C193.858 48.078 195.972 46.902 197.924 44.102C199.344 42.062 200.432 39.16 200.984 36.016C202.3 35.934 203.656 35.59 204.884 34.95C203.342 35.414 201.732 35.516 200.332 35.3C198.818 35.066 200.112 30.982 201.222 31.686C200.974 30.358 200.286 29.842 199.486 29.672C198.766 29.526 198.426 29.078 198.886 28.372C198.146 28.304 196.366 28.922 195.232 30.252ZM157.224 35.806C158.104 33.04 158.908 31.474 160.39 29.71C161.52 28.37 163.298 27.736 164.038 27.806C163.578 28.514 163.918 28.966 164.638 29.114C165.388 29.266 166.038 29.726 166.328 30.866C165.348 30.54 164.228 34.406 165.638 34.606C166.894 34.79 168.302 34.742 169.706 34.41C168.572 34.974 167.372 35.264 166.186 35.33C165.658 38.558 164.57 41.55 163.132 43.644C161.192 46.468 159.084 47.658 157.784 46.694C155.78 45.21 155.53 41.128 157.224 35.806ZM125.85 30.086C124.382 31.86 123.592 33.434 122.738 36.206H122.732C121.088 41.538 121.372 45.618 123.388 47.086C124.696 48.04 126.796 46.834 128.708 43.994C130.124 41.898 131.182 38.918 131.688 35.698C132.968 35.632 134.27 35.302 135.484 34.642C134.006 35.096 132.48 35.18 131.094 34.97C129.346 34.708 130.926 31.166 131.806 31.238C131.512 30.068 130.856 29.604 130.096 29.452C129.376 29.312 129.032 28.864 129.482 28.152C128.74 28.086 126.97 28.734 125.85 30.086Z" fill="#000001"/>
</g>
</g>
</svg>
