<svg width="80" height="80" viewBox="0 0 80 80" fill="none" xmlns="http://www.w3.org/2000/svg">
<g id="mymark-short-white">
<g id="Group 937">
<g id="Group">
<path id="Vector 5.32 (Stroke)" fill-rule="evenodd" clip-rule="evenodd" d="M46.6103 58.9536C47.9091 57.8396 48.0554 55.6042 46.937 54.3106L27.9561 32.2564C27.3665 31.5745 26.5051 31.0956 25.3444 31.0956C24.1836 31.0956 23.3222 31.5745 22.7327 32.2564L3.75179 54.3106C2.6334 55.6042 2.77963 57.8396 4.0784 58.9536C5.37718 60.0675 7.39515 59.6668 8.51355 58.3732L25.3444 39.2209L42.1752 58.3732C43.2936 59.6668 45.3116 60.0675 46.6103 58.9536Z" fill="white"/>
<path id="Ellipse" d="M28.8283 56.0523C28.8283 57.9755 27.2692 59.5345 25.346 59.5345C23.4228 59.5345 21.8638 57.9755 21.8638 56.0523C21.8638 54.1291 23.4228 52.5701 25.346 52.5701C27.2692 52.5701 28.8283 54.1291 28.8283 56.0523Z" fill="white"/>
</g>
<g id="Group_2">
<path id="Vector 5.32 (Stroke)_2" fill-rule="evenodd" clip-rule="evenodd" d="M75.9219 20.6495C77.2206 21.7634 77.3669 23.9988 76.2485 25.2924L57.2676 47.3466C56.678 48.0286 55.8166 48.5074 54.6559 48.5074C53.4952 48.5074 52.6338 48.0286 52.0442 47.3466L33.0633 25.2924C31.9449 23.9988 32.0912 21.7634 33.3899 20.6495C34.6887 19.5355 36.7067 19.9362 37.8251 21.2298L54.6559 40.3822L71.4867 21.2298C72.6051 19.9362 74.6231 19.5355 75.9219 20.6495Z" fill="white"/>
<path id="Ellipse_2" d="M58.1398 23.5507C58.1398 21.6275 56.5807 20.0685 54.6575 20.0685C52.7343 20.0685 51.1753 21.6275 51.1753 23.5507C51.1753 25.4739 52.7343 27.033 54.6575 27.033C56.5807 27.033 58.1398 25.4739 58.1398 23.5507Z" fill="white"/>
</g>
</g>
</g>
</svg>
