<svg width="80" height="80" viewBox="0 0 80 80" fill="none" xmlns="http://www.w3.org/2000/svg">
<circle cx="40" cy="40" r="30" fill="white"/>
<path d="M49.4532 35.8721C50.9689 35.8721 52.3715 36.4574 53.4573 37.5155C54.5206 38.5735 55.1088 39.9918 55.1088 41.5001C55.1088 43.0084 54.5206 44.4041 53.4573 45.4846C52.3941 46.5427 50.9689 47.128 49.4532 47.128C47.9376 47.128 46.535 46.5427 45.4491 45.4846C44.3859 44.4266 43.7977 43.0084 43.7977 41.5001C43.7977 39.9918 44.3859 38.5961 45.4491 37.5155C46.5124 36.4574 47.9376 35.8721 49.4532 35.8721ZM49.4532 32.0001C44.1823 32.0001 39.9067 36.2548 39.9067 41.5001C39.9067 46.7453 44.1823 51 49.4532 51C54.7242 51 58.9997 46.7453 58.9997 41.5001C58.9997 36.2548 54.7242 32.0001 49.4532 32.0001Z" fill="#BBBBBB"/>
<path d="M36.0617 32H21.9455C20.8596 32 20 32.8554 20 33.936C20 35.0166 20.8823 35.872 21.9455 35.872H36.0617C37.1475 35.872 38.0071 34.9941 38.0071 33.936C38.0071 32.878 37.1249 32 36.0617 32ZM34.0483 39.7665H26.8092C25.7234 39.7665 24.8637 40.6445 24.8637 41.7025C24.8637 42.7831 25.746 43.6386 26.8092 43.6386H34.0483C35.1341 43.6386 35.9938 42.7606 35.9938 41.7025C35.9938 40.622 35.1341 39.7665 34.0483 39.7665Z" fill="#BBBBBB"/>
</svg>
