<svg width="320" height="80" viewBox="0 0 320 80" fill="none" xmlns="http://www.w3.org/2000/svg">
<path d="M171.963 26.3433C171.963 24.4627 173.484 23 175.364 23C177.214 23 178.705 24.4627 178.705 26.3433C178.705 28.2239 177.184 29.6865 175.364 29.6865C173.455 29.6865 171.963 28.2537 171.963 26.3433ZM172.53 56.2537V32.4925H178.198V56.2537H172.53ZM109.343 36.9104C111.341 36.9104 113.191 37.6865 114.623 39.0895C116.025 40.4925 116.801 42.3731 116.801 44.3731C116.801 46.3731 116.025 48.2239 114.623 49.6567C113.221 51.0597 111.341 51.8358 109.343 51.8358C107.344 51.8358 105.494 51.0597 104.062 49.6567C102.66 48.2537 101.884 46.3731 101.884 44.3731C101.884 42.3731 102.66 40.5224 104.062 39.0895C105.464 37.6865 107.344 36.9104 109.343 36.9104ZM109.343 31.7761C102.391 31.7761 96.7529 37.4179 96.7529 44.3731C96.7529 51.3283 102.391 56.9701 109.343 56.9701C116.294 56.9701 121.932 51.3283 121.932 44.3731C121.932 37.4179 116.294 31.7761 109.343 31.7761ZM183.687 56.2537V32.4925H189.296V43.1791L197.769 32.4925H204.123L194.577 44.1642L204.481 56.2836H198.067L189.266 45.4477V56.2836H183.687V56.2537ZM224.35 32.4925V34.9104C222.56 33.0597 220.293 31.8059 217.28 31.8059C210.329 31.8059 204.69 37.4477 204.69 44.403C204.69 51.3582 210.329 57 217.28 57C220.293 57 222.56 55.7164 224.35 53.8955V56.3134H230.019V32.5522H224.35V32.4925ZM222.53 49.6268C221.128 51.0298 219.249 51.8059 217.25 51.8059C215.251 51.8059 213.401 51.0298 211.969 49.6268C210.567 48.2239 209.792 46.3433 209.792 44.3433C209.792 42.3433 210.567 40.4925 211.969 39.0597C213.372 37.6567 215.251 36.8806 217.25 36.8806C219.249 36.8806 221.098 37.6567 222.53 39.0597C223.933 40.4627 224.708 42.3433 224.708 44.3433C224.738 46.3731 223.933 48.2239 222.53 49.6268ZM235.538 56.2537V32.4925H241.146V34.9104C243.175 32.8806 244.16 32.4925 248.217 32.4925H249.5V37.8656H247.561C243.652 37.8656 241.146 40.3134 241.146 44.2239V56.2537H235.538ZM126.556 56.2537V32.4925H132.165V34.9104C134.194 32.8806 135.178 32.4925 139.236 32.4925H140.518V37.8656H138.579C134.671 37.8656 132.165 40.3134 132.165 44.2239V56.2537H126.556ZM158.001 32.0149C153.436 32.0149 152.034 33.6865 150.781 34.8806V32.4627H145.173V56.2239H150.781V42.5522C150.781 39.2985 153.078 37.0298 156.3 37.0298C159.463 37.0298 161.342 39.0597 161.342 42.3134V56.2239H167.011V41.5074C166.981 35.6567 163.639 32.0149 158.001 32.0149Z" fill="black"/>
<path d="M91.6817 31.7759H73.0657C71.6337 31.7759 70.5 32.9103 70.5 34.3431C70.5 35.7759 71.6635 36.9103 73.0657 36.9103H91.6817C93.1137 36.9103 94.2474 35.7461 94.2474 34.3431C94.2474 32.9401 93.0839 31.7759 91.6817 31.7759ZM89.0265 42.0744H79.4798C78.0478 42.0744 76.9142 43.2386 76.9142 44.6416C76.9142 46.0745 78.0777 47.2088 79.4798 47.2088H89.0265C90.4585 47.2088 91.5922 46.0446 91.5922 44.6416C91.5922 43.2088 90.4585 42.0744 89.0265 42.0744Z" fill="black"/>
</svg>
