<svg width="80" height="80" viewBox="0 0 80 80" fill="none" xmlns="http://www.w3.org/2000/svg">
<g id="paypal-short-color">
<g id="Group 451">
<path id="Path" fill-rule="evenodd" clip-rule="evenodd" d="M61.8803 24.2603C61.8209 24.64 61.7531 25.0281 61.6767 25.4268C59.0533 38.8961 50.078 43.5492 38.6149 43.5492H32.7784C31.3766 43.5492 30.1953 44.5672 29.9768 45.95L26.9886 64.9016L26.1424 70.2737C26.0742 70.7049 26.1981 71.1444 26.4816 71.4764C26.7651 71.8085 27.1797 71.9998 27.6163 72H37.9681C39.1939 72 40.2352 71.1093 40.4282 69.9004L40.53 69.3744L42.4791 57.0058L42.6042 56.3271C42.7951 55.114 43.8385 54.2233 45.0643 54.2233H46.6125C56.6419 54.2233 64.4932 50.1513 66.7879 38.368C67.7465 33.4456 67.2502 29.3355 64.7137 26.4448C63.9098 25.5506 62.9496 24.8103 61.8803 24.2603V24.2603Z" fill="#179BD7"/>
<path id="Path_2" fill-rule="evenodd" clip-rule="evenodd" d="M59.1362 23.166C58.2985 22.9237 57.4464 22.7345 56.5849 22.5997C54.8825 22.3381 53.162 22.2126 51.4398 22.2244H35.8475C34.6214 22.2234 33.5778 23.1167 33.3895 24.3282L30.0725 45.3371L29.9771 45.95C30.1906 44.568 31.3803 43.5485 32.7787 43.5492H38.6152C50.0782 43.5492 59.0535 38.894 61.677 25.4268C61.7554 25.0281 61.8212 24.64 61.8806 24.2603C61.1883 23.8973 60.4668 23.593 59.7237 23.3505C59.5289 23.2859 59.333 23.2244 59.1362 23.166Z" fill="#222D65"/>
<path id="Subtract" d="M60.8108 23.7558C61.1828 23.9116 61.54 24.0797 61.8826 24.2603C62.6631 19.2828 61.8762 15.8937 59.1849 12.8249C56.2179 9.4464 50.8628 8 44.0105 8H24.1172C22.7174 8 21.5234 9.01799 21.3071 10.4029L13.021 62.925C12.9429 63.4185 13.0846 63.9214 13.4089 64.3016C13.7331 64.6817 14.2075 64.9009 14.7071 64.9016H26.9888L29.977 45.95C29.9777 45.946 29.9783 45.9419 29.979 45.938L30.0725 45.3371L33.3895 24.3282C33.5778 23.1167 34.6214 22.2234 35.8475 22.2243H51.4398C53.1621 22.2126 54.8826 22.3381 56.5849 22.5997C57.4464 22.7345 58.2986 22.9237 59.1362 23.166C59.333 23.2244 59.5289 23.2859 59.7237 23.3505C59.7541 23.3604 59.7845 23.3704 59.8148 23.3806C59.8382 23.3885 59.8617 23.3962 59.885 23.4042C60.1978 23.5105 60.5066 23.6278 60.8108 23.7558Z" fill="#253B80"/>
</g>
</g>
</svg>
