<svg width="320" height="80" viewBox="0 0 320 80" fill="none" xmlns="http://www.w3.org/2000/svg">
<g id="paypal-long-black">
<path id="Union" fill-rule="evenodd" clip-rule="evenodd" d="M131.478 24.1917H119.124C118.279 24.1912 117.559 24.8058 117.427 25.6405L112.431 57.3203C112.384 57.6178 112.47 57.9207 112.666 58.1493C112.862 58.378 113.148 58.5093 113.45 58.5089H119.348C120.193 58.5093 120.913 57.8937 121.044 57.0583L122.391 48.5138C122.522 47.6791 123.241 47.0637 124.086 47.0632H127.997C136.135 47.0632 140.832 43.1252 142.058 35.3213C142.611 31.9071 142.082 29.2245 140.483 27.3458C138.727 25.2828 135.613 24.1917 131.478 24.1917ZM132.903 35.7621C132.228 40.1951 128.84 40.1951 125.565 40.1951H123.701L125.009 31.9161C125.088 31.4157 125.519 31.0472 126.026 31.0472H126.88C129.111 31.0472 131.216 31.0472 132.303 32.319C132.952 33.0777 133.151 34.2049 132.903 35.7621ZM162.491 35.6194H168.407C168.708 35.6193 168.993 35.751 169.188 35.9797C169.383 36.2085 169.468 36.5112 169.421 36.808L166.223 57.0565C166.092 57.8919 165.373 58.5075 164.527 58.5071H159.198C158.897 58.5066 158.611 58.3743 158.415 58.145C158.22 57.9156 158.135 57.6123 158.183 57.3148L158.446 55.671C158.446 55.671 155.525 59.0581 150.258 59.0581C147.189 59.0581 144.609 58.1729 142.806 56.0485C140.841 53.7381 140.037 50.425 140.602 46.9603C141.69 40.0145 147.274 35.063 153.811 35.063C156.662 35.063 159.518 35.6844 160.798 37.5432L161.212 38.143L161.474 36.4883C161.553 35.9879 161.984 35.6194 162.491 35.6194ZM160.161 47.1337C159.59 50.5135 156.907 52.7825 153.486 52.7825C151.768 52.7825 150.395 52.2315 149.514 51.1874C148.639 50.1505 148.307 48.6746 148.585 47.0307C149.118 43.6797 151.846 41.3368 155.215 41.3368C156.895 41.3368 158.26 41.895 159.16 42.9481C160.061 44.0121 160.419 45.497 160.161 47.1337ZM193.97 35.6194H199.915C200.298 35.6195 200.65 35.8324 200.827 36.1719C201.005 36.5114 200.979 36.9214 200.761 37.2361L180.987 65.7781C180.667 66.2404 180.139 66.5159 179.576 66.5151H173.639C173.253 66.5153 172.9 66.3003 172.723 65.9581C172.547 65.6158 172.576 65.2034 172.799 64.8893L178.955 56.1985L172.407 36.9814C172.299 36.6665 172.351 36.3191 172.545 36.0488C172.739 35.7784 173.051 35.6185 173.384 35.6194H179.226C179.985 35.6197 180.654 36.1173 180.874 36.8441L184.349 48.4506L192.549 36.3726C192.869 35.9022 193.401 35.6203 193.97 35.6194Z" fill="black"/>
<path id="Shape" opacity="0.6" fill-rule="evenodd" clip-rule="evenodd" d="M258.43 57.3203L263.501 25.0607C263.58 24.5606 264.01 24.1917 264.516 24.1899H270.224C270.525 24.1905 270.811 24.3226 271.006 24.5515C271.201 24.7804 271.286 25.0832 271.239 25.3804L266.239 57.0583C266.109 57.8947 265.39 58.5089 264.543 58.5089H259.445C259.144 58.5089 258.859 58.3772 258.664 58.1486C258.468 57.92 258.383 57.6173 258.43 57.3203ZM219.598 24.1917H207.242C206.398 24.1921 205.679 24.8065 205.548 25.6405L200.551 57.3203C200.504 57.6173 200.59 57.9199 200.785 58.1486C200.98 58.3772 201.266 58.5089 201.566 58.5089H207.907C208.498 58.508 209.001 58.0775 209.092 57.4937L210.51 48.5138C210.641 47.6791 211.36 47.0637 212.205 47.0632H216.114C224.254 47.0632 228.949 43.1252 230.177 35.3213C230.732 31.9071 230.199 29.2245 228.6 27.3458C226.846 25.2828 223.733 24.1917 219.598 24.1917ZM221.024 35.7621C220.35 40.1951 216.963 40.1951 213.686 40.1951H211.823L213.133 31.9161C213.211 31.4156 213.642 31.0466 214.148 31.0472H215.003C217.232 31.0472 219.338 31.0472 220.426 32.319C221.074 33.0777 221.271 34.2049 221.024 35.7621ZM250.613 35.6194H256.526C256.827 35.619 257.113 35.7503 257.31 35.9789C257.506 36.2074 257.592 36.5103 257.547 36.808L254.347 57.0565C254.217 57.8912 253.498 58.5066 252.653 58.5071H247.326C247.024 58.5077 246.737 58.3758 246.541 58.1464C246.345 57.9169 246.259 57.6129 246.307 57.3148L246.571 55.671C246.571 55.671 243.65 59.0581 238.382 59.0581C235.313 59.0581 232.737 58.1729 230.93 56.0485C228.965 53.7381 228.165 50.425 228.728 46.9603C229.816 40.0145 235.398 35.063 241.935 35.063C244.786 35.063 247.64 35.6844 248.921 37.5432L249.336 38.143L249.598 36.4883C249.675 35.9874 250.107 35.618 250.613 35.6194ZM248.279 47.1337C247.712 50.5136 245.026 52.7825 241.605 52.7825C239.89 52.7825 238.514 52.2315 237.632 51.1874C236.758 50.1505 236.429 48.6746 236.704 47.0307C237.24 43.6797 239.964 41.3368 243.333 41.3368C245.013 41.3368 246.379 41.895 247.279 42.9481C248.184 44.0121 248.541 45.497 248.279 47.1337Z" fill="black"/>
<path id="Path" opacity="0.6" fill-rule="evenodd" clip-rule="evenodd" d="M89.6351 25.8501C89.5845 26.1734 89.5267 26.504 89.4617 26.8436C87.2271 38.3164 79.5822 42.2797 69.8183 42.2797H64.847C63.6529 42.2797 62.6467 43.1468 62.4606 44.3246L59.9154 60.4671L59.1946 65.0428C59.1365 65.4102 59.2421 65.7845 59.4835 66.0673C59.725 66.3502 60.0782 66.5131 60.4501 66.5133H69.2674C70.3115 66.5133 71.1985 65.7546 71.3628 64.7249L71.4496 64.2769L73.1097 53.7417L73.2163 53.1636C73.3788 52.1303 74.2676 51.3716 75.3117 51.3716H76.6305C85.1732 51.3716 91.8606 47.9032 93.8152 37.8666C94.6317 33.6738 94.209 30.1729 92.0485 27.7107C91.3637 26.949 90.5459 26.3185 89.6351 25.8501V25.8501Z" fill="black"/>
<path id="Path_2" fill-rule="evenodd" clip-rule="evenodd" d="M87.2976 24.9179C86.5841 24.7115 85.8583 24.5504 85.1244 24.4356C83.6744 24.2128 82.209 24.1059 80.742 24.1159H67.461C66.4166 24.1151 65.5277 24.8759 65.3673 25.9079L62.542 43.8026L62.4607 44.3247C62.6426 43.1476 63.656 42.2792 64.847 42.2797H69.8184C79.5822 42.2797 87.2271 38.3146 89.4617 26.8436C89.5286 26.504 89.5846 26.1734 89.6351 25.8501C89.0455 25.5409 88.431 25.2816 87.798 25.0751C87.632 25.02 87.4652 24.9676 87.2976 24.9179Z" fill="black"/>
<path id="Subtract" opacity="0.8" d="M88.7239 25.4203C89.0408 25.553 89.3451 25.6962 89.6369 25.8501C90.3016 21.6103 89.6315 18.7236 87.3391 16.1097C84.8118 13.232 80.2505 12 74.4139 12H57.4694C56.2771 12 55.2601 12.8671 55.0758 14.0467L48.018 58.7835C47.9515 59.2038 48.0722 59.6322 48.3484 59.956C48.6246 60.2798 49.0286 60.4665 49.4542 60.4671H59.9153L62.4606 44.3246C62.4612 44.3212 62.4617 44.3178 62.4623 44.3144L62.542 43.8026L65.3673 25.9079C65.5277 24.8759 66.4166 24.1151 67.461 24.1159H80.742C82.209 24.1059 83.6744 24.2128 85.1244 24.4356C85.8583 24.5504 86.5841 24.7115 87.2976 24.9179C87.4652 24.9676 87.632 25.02 87.798 25.0751C87.8239 25.0836 87.8497 25.0921 87.8756 25.1007C87.8955 25.1075 87.9155 25.114 87.9354 25.1209C88.2018 25.2114 88.4648 25.3113 88.7239 25.4203Z" fill="black"/>
</g>
</svg>
