<svg width="80" height="80" viewBox="0 0 80 80" fill="none" xmlns="http://www.w3.org/2000/svg">
<g id="paypal-short-white">
<g id="Group 452">
<path id="Path" opacity="0.7" fill-rule="evenodd" clip-rule="evenodd" d="M61.8808 24.2603C61.8214 24.6399 61.7536 25.0281 61.6772 25.4268C59.0538 38.8961 50.0784 43.5492 38.6154 43.5492H32.7789C31.377 43.5492 30.1957 44.5672 29.9773 45.9499L26.9891 64.9016L26.1429 70.2736C26.0746 70.7049 26.1986 71.1444 26.4821 71.4764C26.7656 71.8085 27.1802 71.9998 27.6168 72H37.9686C39.1944 72 40.2357 71.1092 40.4287 69.9004L40.5305 69.3744L42.4795 57.0058L42.6047 56.3271C42.7955 55.114 43.839 54.2233 45.0648 54.2233H46.613C56.6424 54.2233 64.4937 50.1513 66.7884 38.368C67.747 33.4456 67.2507 29.3354 64.7142 26.4448C63.9103 25.5505 62.9501 24.8103 61.8808 24.2603V24.2603Z" fill="white"/>
<path id="Path_2" fill-rule="evenodd" clip-rule="evenodd" d="M59.1365 23.166C58.2988 22.9237 57.4466 22.7345 56.5851 22.5997C54.8828 22.3381 53.1623 22.2126 51.44 22.2244H35.8477C34.6216 22.2234 33.578 23.1167 33.3897 24.3282L30.0727 45.3371L29.9773 45.95C30.1908 44.568 31.3806 43.5485 32.7789 43.5492H38.6154C50.0784 43.5492 59.0537 38.894 61.6772 25.4268C61.7557 25.0281 61.8214 24.64 61.8808 24.2603C61.1885 23.8973 60.467 23.593 59.7239 23.3505C59.5291 23.2859 59.3333 23.2244 59.1365 23.166Z" fill="white"/>
<path id="Subtract" d="M60.8108 23.7558C61.1828 23.9116 61.54 24.0797 61.8826 24.2603C62.6631 19.2828 61.8762 15.8937 59.1849 12.8249C56.2179 9.4464 50.8628 8 44.0105 8H24.1172C22.7174 8 21.5234 9.01799 21.3071 10.4029L13.021 62.925C12.9429 63.4185 13.0846 63.9214 13.4089 64.3016C13.7331 64.6817 14.2075 64.9009 14.7071 64.9016H26.9888L29.977 45.95C29.9777 45.946 29.9783 45.9419 29.979 45.938L30.0725 45.3371L33.3895 24.3282C33.5778 23.1167 34.6214 22.2234 35.8475 22.2243H51.4398C53.1621 22.2126 54.8826 22.3381 56.5849 22.5997C57.4464 22.7345 58.2986 22.9237 59.1362 23.166C59.333 23.2244 59.5289 23.2859 59.7237 23.3505C59.7541 23.3604 59.7845 23.3704 59.8148 23.3806C59.8382 23.3885 59.8617 23.3962 59.885 23.4042C60.1978 23.5105 60.5066 23.6278 60.8108 23.7558Z" fill="white"/>
</g>
</g>
</svg>
