<svg width="80" height="80" viewBox="0 0 80 80" fill="none" xmlns="http://www.w3.org/2000/svg">
<path d="M52.7393 29.2418L48.5047 24.9304L46.1656 22.5531C42.9393 19.2894 37.7771 19.2894 34.5507 22.5531L33.7441 23.359L37.1721 26.8645C37.6158 27.3077 38.3417 27.3077 38.7853 26.8645C39.1886 26.4615 39.7532 26.2198 40.3178 26.2198C40.8824 26.2198 41.4471 26.4615 41.8504 26.8645L44.1895 29.2418L40.3582 33.1502L25.3959 18L21.1613 22.3114L27.977 29.2015L21 36.293L46.3673 62L50.6422 57.6886L44.6331 51.6044L53.9089 42.1758C57.0949 38.9121 57.0949 33.674 53.9089 30.4103L52.7393 29.2418ZM49.6339 37.8645L41.1244 46.4469C40.6808 46.8901 39.9549 46.8901 39.5112 46.4469L29.5095 36.293L32.2116 33.5531L40.3582 41.8132L48.4644 33.5531L49.6339 34.7216C50.0372 35.1245 50.2792 35.6886 50.2792 36.293C50.2792 36.8974 50.0372 37.4212 49.6339 37.8645ZM55.0381 26.9048L59.5147 22.3517L55.2801 18.0403L49.9566 23.3993L53.3846 26.9048C53.8685 27.348 54.5945 27.348 55.0381 26.9048Z" fill="black"/>
</svg>
