<svg width="320" height="80" viewBox="0 0 320 80" fill="none" xmlns="http://www.w3.org/2000/svg">
<path d="M97.8007 51.8864V42.1758H104.697C104.939 42.1758 105.302 42.1758 105.746 42.1355C106.189 42.0952 106.593 42.0549 106.956 42.0146C108.569 41.7729 109.9 41.2491 110.948 40.4029C111.997 39.5971 112.803 38.5494 113.328 37.3004C113.852 36.0513 114.094 34.641 114.094 33.1502C114.094 31.619 113.852 30.2088 113.328 28.9597C112.803 27.7106 112.037 26.663 110.988 25.8571C109.94 25.0513 108.609 24.4872 106.956 24.2454C106.593 24.1648 106.189 24.1245 105.786 24.1245C105.342 24.1245 105.02 24.0842 104.737 24.0842H93.1628V51.8864H97.8007ZM104.495 37.8242H97.8007V28.4359H104.495C104.737 28.4359 105.06 28.4359 105.383 28.4762C105.705 28.4762 105.988 28.5568 106.27 28.6373C107.036 28.8388 107.641 29.1612 108.125 29.6447C108.569 30.1282 108.891 30.6923 109.093 31.2967C109.295 31.9011 109.375 32.5458 109.375 33.1099C109.375 33.674 109.295 34.3187 109.093 34.9231C108.891 35.5275 108.569 36.0916 108.125 36.5751C107.681 37.0586 107.077 37.4212 106.27 37.5824C105.988 37.663 105.705 37.7033 105.383 37.7436C105.06 37.8242 104.778 37.8242 104.495 37.8242ZM135.993 42.7802C136.194 40.282 135.912 38.1062 135.146 36.293C134.42 34.4395 133.291 33.0293 131.758 32.022C130.226 31.0146 128.37 30.4908 126.193 30.4908C124.136 30.4908 122.321 30.9341 120.748 31.8608C119.175 32.7875 117.965 34.0769 117.078 35.7692C116.191 37.4615 115.747 39.4359 115.747 41.6923C115.747 43.7875 116.191 45.6813 117.119 47.293C118.006 48.9048 119.256 50.1941 120.869 51.0806C122.482 52.0073 124.338 52.4505 126.475 52.4505C128.491 52.4505 130.347 51.9267 132.04 50.8791C133.734 49.8315 134.944 48.3809 135.751 46.4872L131.113 45.1172C130.669 46.0842 130.024 46.8095 129.177 47.3333C128.33 47.8571 127.362 48.0989 126.193 48.0989C124.418 48.0989 123.047 47.5348 122.119 46.3663C121.434 45.5201 120.99 44.3919 120.829 43.0623L120.789 42.7802H133.694H135.993ZM131.234 39.2344H120.91L120.95 38.9927C121.152 38.0256 121.474 37.1795 121.958 36.5348L122.119 36.293C123.047 35.1245 124.499 34.5201 126.394 34.5201C128.088 34.5201 129.338 35.0439 130.145 36.0916C130.669 36.7765 131.032 37.7436 131.194 38.9927L131.234 39.2344ZM143.776 51.8864V41.1685C143.776 39.8791 143.938 38.8315 144.22 38.0256C144.502 37.2198 144.865 36.5751 145.349 36.0916C145.833 35.608 146.357 35.2857 146.922 35.0842C147.487 34.8828 148.092 34.8022 148.697 34.8022C149.826 34.8022 150.713 35.0439 151.358 35.5275C152.004 36.011 152.488 36.6154 152.85 37.3406C153.173 38.0659 153.375 38.8315 153.496 39.6374C153.617 40.4432 153.617 41.1685 153.617 41.8132V51.8461H158.376V40.2015C158.376 39.7179 158.335 39.033 158.255 38.2271C158.174 37.4212 157.972 36.5751 157.69 35.6886C157.408 34.8022 156.964 33.956 156.359 33.1502C155.754 32.3443 154.948 31.6996 153.939 31.1758C152.931 30.652 151.641 30.4103 150.108 30.4103C148.132 30.4103 146.478 30.8535 145.148 31.6996C144.543 32.1026 143.978 32.5458 143.494 33.0293L143.252 33.3113V31.0146H139.017V51.8461H143.776V51.8864ZM167.409 51.8864V41.1685C167.409 39.8791 167.571 38.8315 167.853 38.0256C168.135 37.2198 168.498 36.5751 168.982 36.0916C169.466 35.608 169.991 35.2857 170.555 35.0842C171.12 34.8828 171.725 34.8022 172.33 34.8022C173.459 34.8022 174.346 35.0439 174.991 35.5275C175.637 36.011 176.121 36.6154 176.484 37.3406C176.806 38.0659 177.008 38.8315 177.129 39.6374C177.25 40.4432 177.25 41.1685 177.25 41.8132V51.8461H182.009V40.2015C182.009 39.7179 181.968 39.033 181.888 38.2271C181.807 37.4212 181.605 36.5751 181.323 35.6886C181.041 34.8022 180.597 33.956 179.992 33.1502C179.387 32.3443 178.581 31.6996 177.572 31.1758C176.564 30.652 175.274 30.4103 173.741 30.4103C171.765 30.4103 170.112 30.8535 168.781 31.6996C168.176 32.1026 167.611 32.5458 167.127 33.0293L166.885 33.3113V31.0146H162.691V51.8461H167.409V51.8864ZM192.736 61.1538L204.432 31.0549H199.754L194.027 45.9634L188.179 31.0549H183.299L191.809 51.7656L188.34 61.1941H192.736V61.1538ZM211.691 51.8864V23.5201H207.013V51.8864H211.691ZM222.742 52.4908C224.637 52.4908 226.21 52.1282 227.46 51.4432C228.388 50.9194 229.235 50.1941 229.961 49.2674L230.081 49.1062V51.9267H234.195V39.1135C234.195 38.2271 234.155 37.3809 234.074 36.6154C233.993 35.8498 233.751 35.0842 233.389 34.359C232.703 32.989 231.654 31.9817 230.243 31.3773C228.831 30.7729 227.178 30.4505 225.323 30.4505C222.863 30.4505 220.886 30.9743 219.435 32.0623C217.983 33.1502 216.974 34.5604 216.45 36.293L220.725 37.6227C221.088 36.5348 221.693 35.8095 222.58 35.3663C223.467 34.9231 224.395 34.7216 225.323 34.7216C226.895 34.7216 228.025 35.0439 228.67 35.7289C229.154 36.2527 229.477 36.978 229.598 37.9047L229.638 38.2271L229.194 38.3077C228.831 38.348 228.509 38.3883 228.146 38.4689L227.137 38.63C225.807 38.8315 224.556 39.033 223.427 39.2344C222.298 39.4359 221.29 39.6776 220.443 39.9597C219.314 40.3223 218.426 40.8058 217.7 41.4102C217.015 42.0146 216.49 42.6996 216.128 43.5055C215.805 44.3113 215.603 45.1978 215.603 46.2051C215.603 47.3333 215.886 48.3809 216.41 49.348C216.934 50.315 217.741 51.0806 218.789 51.6447C219.918 52.1685 221.209 52.4908 222.742 52.4908ZM223.669 48.7839C222.943 48.7839 222.298 48.663 221.814 48.4212C221.33 48.1795 220.927 47.8974 220.685 47.4945C220.443 47.0916 220.281 46.6483 220.281 46.1245C220.281 45.6813 220.362 45.2784 220.564 44.956C220.765 44.6337 221.048 44.3113 221.411 44.0696C221.774 43.8278 222.258 43.5861 222.782 43.3846C223.346 43.2234 223.992 43.022 224.718 42.9011C225.444 42.7399 226.331 42.5787 227.339 42.4176C227.904 42.337 228.549 42.2161 229.275 42.0952L229.517 42.0549V42.2161C229.517 42.4176 229.517 42.6593 229.477 42.9011V43.2637C229.436 44.0293 229.315 44.7143 229.073 45.3187C228.912 45.8022 228.63 46.2857 228.186 46.8498C227.742 47.3736 227.137 47.8571 226.371 48.2198C225.645 48.5824 224.718 48.7839 223.669 48.7839ZM243.269 51.8864V41.1685C243.269 39.8791 243.431 38.8315 243.713 38.0256C243.995 37.2198 244.358 36.5751 244.842 36.0916C245.326 35.608 245.85 35.2857 246.415 35.0842C246.98 34.8828 247.585 34.8022 248.189 34.8022C249.319 34.8022 250.206 35.0439 250.851 35.5275C251.496 36.011 251.98 36.6154 252.343 37.3406C252.666 38.0659 252.868 38.8315 252.989 39.6374C253.069 40.4432 253.11 41.1685 253.11 41.8132V51.8461H257.869V40.2015C257.869 39.7179 257.828 39.033 257.748 38.2271C257.667 37.4212 257.465 36.5751 257.183 35.6886C256.901 34.8022 256.457 33.956 255.852 33.1502C255.247 32.3443 254.441 31.6996 253.432 31.1758C252.424 30.652 251.134 30.4103 249.601 30.4103C247.625 30.4103 245.971 30.8535 244.64 31.6996C244.036 32.1026 243.471 32.5458 242.987 33.0293L242.745 33.3113V31.0146H238.551V51.8461H243.269V51.8864ZM280.937 42.7802C281.139 40.282 280.856 38.1062 280.09 36.293C279.364 34.4395 278.235 33.0293 276.702 32.022C275.17 31.0146 273.315 30.4908 271.137 30.4908C269.08 30.4908 267.265 30.9341 265.692 31.8608C264.12 32.7875 262.91 34.0769 262.022 35.7692C261.135 37.4615 260.692 39.4359 260.692 41.6923C260.692 43.7875 261.135 45.6813 262.063 47.293C262.95 48.9048 264.2 50.1941 265.813 51.0806C267.427 52.0073 269.282 52.4505 271.419 52.4505C273.436 52.4505 275.291 51.9267 276.985 50.8791C278.679 49.8315 279.888 48.3809 280.695 46.4872L276.057 45.1172C275.614 46.0842 274.968 46.8095 274.121 47.3333C273.274 47.8571 272.306 48.0989 271.137 48.0989C269.362 48.0989 267.991 47.5348 267.064 46.3663C266.378 45.5201 265.934 44.3919 265.773 43.0623L265.733 42.7802H278.638H280.937ZM276.178 39.2344H265.854L265.894 38.9927C266.096 38.0256 266.418 37.1795 266.902 36.5348L267.064 36.293C267.991 35.1245 269.443 34.5201 271.339 34.5201C273.032 34.5201 274.283 35.0439 275.089 36.0916C275.614 36.7765 275.976 37.7436 276.138 38.9927L276.178 39.2344Z" fill="#1D231F"/>
<path d="M70.7393 29.2418L66.5047 24.9304L64.1656 22.5531C60.9393 19.2894 55.7771 19.2894 52.5507 22.5531L51.7441 23.359L55.1721 26.8645C55.6158 27.3077 56.3417 27.3077 56.7853 26.8645C57.1886 26.4615 57.7532 26.2198 58.3178 26.2198C58.8824 26.2198 59.4471 26.4615 59.8504 26.8645L62.1895 29.2418L58.3582 33.1502L43.3959 18L39.1613 22.3114L45.977 29.2015L39 36.293L64.3673 62L68.6422 57.6886L62.6331 51.6044L71.9089 42.1758C75.0949 38.9121 75.0949 33.674 71.9089 30.4103L70.7393 29.2418ZM67.6339 37.8645L59.1244 46.4469C58.6808 46.8901 57.9549 46.8901 57.5112 46.4469L47.5095 36.293L50.2116 33.5531L58.3582 41.8132L66.4644 33.5531L67.6339 34.7216C68.0372 35.1245 68.2792 35.6886 68.2792 36.293C68.2792 36.8974 68.0372 37.4212 67.6339 37.8645ZM73.0381 26.9048L77.5147 22.3517L73.2801 18.0403L67.9566 23.3993L71.3846 26.9048C71.8685 27.348 72.5945 27.348 73.0381 26.9048Z" fill="#61D899"/>
</svg>
