<svg width="80" height="80" viewBox="0 0 80 80" fill="none" xmlns="http://www.w3.org/2000/svg">
<g id="qonto-short-black">
<g id="Group">
<path id="Combined Shape" fill-rule="evenodd" clip-rule="evenodd" d="M38.3667 38.477C31.6 38.0084 25.0667 35.1967 20.1667 30.2762C15.2667 25.3556 12.4667 18.795 12 12C19 12.4686 25.3 15.2803 30.2 20.2008C35.1 25.1213 37.9 31.682 38.3667 38.477ZM41.6333 38.477C48.4 38.0084 54.9333 35.1967 59.8333 30.2762C64.7333 25.3556 67.5333 18.795 68 12C61 12.4686 54.4667 15.2803 49.8 20.2008C44.9 25.1213 42.1 31.682 41.6333 38.477ZM59.8333 49.7238C54.9333 44.8033 48.4 41.9916 41.6333 41.523C42.1 48.318 44.9 54.8787 49.8 59.7992C54.7 64.7197 61.2333 67.5314 68 68C67.5333 60.9707 64.7333 54.41 59.8333 49.7238ZM38.6 41.523C31.6 41.9916 25.0667 44.8033 20.1667 49.7239C15.2667 54.41 12.4667 60.9707 12 68C19 67.5314 25.3 64.7197 30.4333 59.7992C35.3333 54.8787 38.1333 48.318 38.6 41.523Z" fill="black"/>
</g>
</g>
</svg>
