<svg width="320" height="80" viewBox="0 0 320 80" fill="none" xmlns="http://www.w3.org/2000/svg">
<g id="qonto-long-color">
<g id="logo">
<path id="Shape" fill-rule="evenodd" clip-rule="evenodd" d="M223 25.7143H212.286V17L207.286 17.8571V43.1429C207.286 45 207.429 46.7143 207.714 48.1429C208 49.5714 208.571 50.7143 209.286 51.7143C210 52.5714 211 53.4286 212.286 53.8571C213.429 54.2857 215.143 54.5714 217 54.5714C218.571 54.5714 220 54.4286 221.286 54C222.571 53.5714 223.429 53.2857 224 53L223 48.8571C222.714 49 222 49.2857 221.143 49.5714C220.143 50 219 50.1429 217.429 50.1429C216.571 50.1429 215.857 50.1429 215.143 49.8571C214.571 49.5714 214 49.2857 213.571 48.7143C213.143 48.2857 212.857 47.4286 212.571 46.5714C212.429 45.5714 212.286 44.4286 212.286 43V30H223V25.7143ZM119.429 29C118.143 30.2857 117.286 31.8571 116.571 33.7143C115.857 35.5714 115.571 37.7143 115.571 40C115.571 42.1429 115.857 44 116.429 45.8571C117 47.7143 117.714 49.2857 118.857 50.5714C120 51.8571 121.286 52.8571 122.857 53.5714C124.429 54.2857 126.286 54.7143 128.286 54.7143C129.857 54.7143 131.286 54.4286 132.571 54C133.857 53.5714 134.857 53.1429 135.429 52.7143V67L140.429 66.1429V26.7143C139.787 26.5538 139.055 26.3934 138.208 26.2077C137.546 26.0626 136.814 25.9022 136 25.7143C134.143 25.2857 132 25.1429 129.714 25.1429C127.571 25.1429 125.571 25.5714 123.857 26C122.143 26.7143 120.714 27.7143 119.429 29ZM121.286 44C121 42.8571 120.857 41.4286 120.857 40C120.857 36.7143 121.714 34.1429 123.286 32.4286C125 30.5714 127.143 29.7143 129.857 29.7143C131.286 29.7143 132.429 29.7143 133.286 29.8571C133.547 29.9007 133.795 29.931 134.034 29.9602C134.579 30.0266 135.075 30.0872 135.571 30.2857V48.1429C135.465 48.2066 135.356 48.2735 135.243 48.3426C134.596 48.7383 133.83 49.2066 132.857 49.5714C131.571 50 130.429 50.2857 129 50.2857C127.571 50.2857 126.429 49.8571 125.286 49.4286C124.143 49 123.429 48.1429 122.714 47.2857C122 46.2857 121.571 45.2857 121.286 44ZM172.429 39.8571C172.429 42.1429 172.143 44.1429 171.429 46C170.714 47.8571 169.857 49.4286 168.714 50.7143C167.571 52 166.143 53 164.571 53.7143C163 54.4286 161.143 54.7143 159.286 54.7143C157.429 54.7143 155.571 54.4286 154 53.7143C152.429 53 151 52 149.857 50.7143C148.714 49.4286 147.714 47.8571 147.143 46C146.429 44.1429 146.143 42.1429 146.143 39.8571C146.143 37.7143 146.429 35.5714 147.143 33.8571C147.857 32 148.714 30.4286 149.857 29.1429C151 27.8571 152.429 26.8571 154 26.1429C155.571 25.4286 157.429 25.1429 159.286 25.1429C161.143 25.1429 163 25.4286 164.571 26.1429C166.143 26.8571 167.571 27.8571 168.714 29.1429C169.857 30.4286 170.857 32 171.429 33.8571C172.143 35.7143 172.429 37.7143 172.429 39.8571ZM165 32.2857C166.429 34.1429 167.143 36.7143 167.143 39.8571C167.143 43.1429 166.429 45.5714 165.143 47.4286C163.714 49.2857 161.714 50.2857 159.286 50.2857C156.857 50.2857 154.857 49.2857 153.429 47.4286C152 45.5714 151.286 43 151.286 39.8571C151.286 36.7143 151.857 34.1429 153.286 32.2857C154.714 30.4286 156.714 29.4286 159.143 29.4286C161.571 29.4286 163.571 30.4286 165 32.2857ZM178 26.5714C179.143 26.2857 180.714 26 182.571 25.7143C184.429 25.4286 186.714 25.2857 189.143 25.2857C191.429 25.2857 193.286 25.5714 194.714 26.2857C196.143 26.8571 197.429 27.8571 198.286 29C199.286 29.8571 199.857 31.2857 200.286 32.8571C200.714 34.4286 200.857 36.1429 200.857 38.1429V54H195.857V39.2857C195.857 37.5714 195.714 36 195.571 34.8571C195.429 33.7143 195 32.5714 194.429 31.8571C193.857 31.1429 193.143 30.5714 192.286 30.1429C191.429 29.7143 190.286 29.5714 188.857 29.5714H187.143C187.143 29.5714 185.857 29.7143 185.286 29.8571C184.714 30 184.286 30 183.857 30C183.429 30.1429 183.143 30.1429 183 30.1429V54H178V26.5714ZM252.714 39.8571C252.714 42.1429 252.429 44.1429 251.714 46C251 47.8571 250.143 49.4286 249 50.7143C247.857 52 246.429 53 244.857 53.7143C243.286 54.4286 241.429 54.7143 239.571 54.7143C237.714 54.7143 235.857 54.4286 234.286 53.7143C232.714 53 231.286 52 230.143 50.7143C229 49.4286 228 47.8571 227.429 46C226.714 44.1429 226.429 42.1429 226.429 39.8571C226.429 37.7143 226.714 35.5714 227.429 33.8571C228.143 32 229 30.4286 230.143 29.1429C231.286 27.8571 232.714 26.8571 234.286 26.1429C235.857 25.4286 237.714 25.1429 239.571 25.1429C241.429 25.1429 243.286 25.4286 244.857 26.1429C246.429 26.8571 247.857 27.8571 249 29.1429C250.143 30.4286 251.143 32 251.714 33.8571C252.429 35.7143 252.714 37.7143 252.714 39.8571ZM245.286 32.2857C246.714 34.1429 247.429 36.7143 247.429 39.8571C247.429 43.1429 246.714 45.5714 245.286 47.4286C243.857 49.2857 241.857 50.2857 239.429 50.2857C237 50.2857 235 49.2857 233.571 47.4286C232.143 45.5714 231.429 43 231.429 39.8571C231.429 36.7143 232.143 34.1429 233.571 32.2857C235 30.4286 237 29.4286 239.429 29.4286C241.857 29.4286 243.857 30.4286 245.286 32.2857Z" fill="#414660"/>
<g id="Group">
<path id="Combined Shape" fill-rule="evenodd" clip-rule="evenodd" d="M83.1429 38.8571C79 38.5714 75 36.8571 72 33.8571C69 30.8571 67.2857 26.8571 67 22.7143C71.2857 23 75.1429 24.7143 78.1429 27.7143C81.1429 30.7143 82.8571 34.7143 83.1429 38.8571ZM85.1429 38.8571C89.2857 38.5714 93.2857 36.8571 96.2857 33.8571C99.2857 30.8571 101 26.8571 101.286 22.7143C97 23 93 24.7143 90.1429 27.7143C87.1429 30.7143 85.4286 34.7143 85.1429 38.8571ZM96.2857 45.7143C93.2857 42.7143 89.2857 41 85.1429 40.7143C85.4286 44.8571 87.1429 48.8571 90.1429 51.8571C93.1429 54.8571 97.1429 56.5714 101.286 56.8571C101 52.5714 99.2857 48.5714 96.2857 45.7143ZM83.2857 40.7143C79 41 75 42.7143 72 45.7143C69 48.5714 67.2857 52.5714 67 56.8571C71.2857 56.5714 75.1429 54.8571 78.2857 51.8571C81.2857 48.8571 83 44.8571 83.2857 40.7143Z" fill="#6A5AED"/>
</g>
</g>
</g>
</svg>
