<svg width="320" height="80" viewBox="0 0 320 80" fill="none" xmlns="http://www.w3.org/2000/svg">
<path d="M85.3516 29.9392C81.6951 25.3144 75.7275 23.14 69.9324 24.3135C58.0662 26.764 53.03 40.535 60.5498 50.0608C64.2063 54.6856 70.1739 56.86 75.969 55.6865C87.8697 53.236 92.9059 39.465 85.3516 29.9392ZM81.3502 47.9899C81.1087 47.9554 80.8672 47.8864 80.6258 47.7829C80.5223 47.7138 80.3843 47.7483 80.3153 47.8519C80.2808 47.9209 80.2808 47.9899 80.3153 48.059C80.3843 48.266 80.4533 48.4731 80.4878 48.7147C80.8327 51.0962 78.3146 53.4431 74.8307 53.9263C71.3467 54.4095 68.3111 52.8564 67.9662 50.4749C67.9317 50.2333 67.9317 49.9572 67.9662 49.7156C68.0007 49.6121 67.9317 49.474 67.7937 49.4395C67.7247 49.405 67.6212 49.4395 67.5867 49.5085C67.4143 49.6466 67.2073 49.7501 67.0348 49.8537C64.8617 50.9236 61.8606 49.2324 60.3428 46.0917C58.8251 42.9509 59.3425 39.5341 61.5157 38.4986C61.7571 38.3951 61.9641 38.2916 62.2401 38.2571C62.3435 38.2571 62.447 38.1535 62.447 38.0155C62.447 37.9464 62.378 37.8774 62.309 37.8429C62.1366 37.7048 61.9641 37.5668 61.7916 37.4287C60.1014 35.703 60.7913 32.3207 63.2749 29.9047C65.793 27.4888 69.1735 26.9365 70.8638 28.6622C71.0362 28.8348 71.2087 29.0419 71.3122 29.2835C71.3467 29.387 71.4847 29.456 71.5881 29.387C71.6571 29.3525 71.6916 29.2835 71.7261 29.2144C71.7951 29.0074 71.8641 28.8003 72.0021 28.5932C73.1404 26.4533 76.5554 26.0392 79.6254 27.6958C82.6955 29.318 84.2822 32.3897 83.1439 34.5296C83.0404 34.7712 82.8679 34.9782 82.6955 35.1508C82.592 35.2198 82.592 35.3579 82.661 35.4614C82.6955 35.5305 82.7989 35.5305 82.8679 35.5305C83.0749 35.5305 83.3164 35.5305 83.5233 35.565C85.9035 35.9791 87.3523 39.1199 86.7313 42.5368C86.1449 45.9536 83.7303 48.4041 81.3502 47.9899ZM80.0739 36.3933C78.6941 36.5659 77.0728 36.2553 75.5205 35.4269C73.9683 34.5986 72.761 33.3561 72.1401 32.1136C72.1056 32.0101 71.9676 31.941 71.8641 31.9755C71.7951 32.0101 71.7261 32.0791 71.7261 32.1826C71.4502 33.5632 70.6568 35.0128 69.415 36.2207C68.1732 37.4287 66.6209 38.2225 65.2066 38.4296C65.1031 38.4296 64.9996 38.5332 64.9996 38.6367C64.9996 38.7402 65.0686 38.8093 65.1376 38.8438C66.3449 39.5341 67.4833 40.742 68.2421 42.2952C69.0355 43.9173 69.277 45.574 69.0355 46.989C69.001 47.0926 69.07 47.2306 69.1735 47.2651C69.277 47.2997 69.3805 47.2651 69.415 47.1961C70.4498 46.2297 71.9331 45.5395 73.6578 45.2979C75.4171 45.0563 77.1073 45.3324 78.3491 45.9881C78.4526 46.0572 78.5906 46.0572 78.6596 45.9536C78.7286 45.8846 78.7286 45.7811 78.6596 45.712C78.0732 44.435 77.8662 42.8129 78.1766 41.0872C78.4871 39.327 79.2805 37.8429 80.2808 36.842C80.3843 36.773 80.3843 36.6349 80.3153 36.5314C80.2463 36.3933 80.1428 36.3588 80.0739 36.3933ZM99.4254 45.712H105.083C105.083 48.0245 107.118 49.9917 110.429 49.9917C113.775 49.9917 115.845 48.4386 115.845 46.2642C115.845 44.3315 114.293 43.3306 112.12 42.8474L108.187 41.9155C102.771 40.5005 100.288 37.7048 100.288 33.3906C100.288 28.6622 104.565 24.8657 110.602 24.8657C115.569 24.8657 120.916 27.4888 120.916 33.5632H115.086C115.086 31.4578 112.913 30.0083 110.74 30.0083C108.187 30.0083 106.462 31.5614 106.462 33.5632C106.462 35.3579 108.153 36.3588 109.946 36.8075L114.362 37.8774C120.605 39.4305 121.951 43.2961 121.951 46.4023C121.951 51.9245 116.466 55.1688 110.498 55.1688C105.083 55.1688 99.5289 51.7519 99.4254 45.712ZM124.676 39.9137C124.676 30.6985 131.644 24.8657 139.922 24.8657C148.201 24.8657 155.203 30.6985 155.203 39.9137C155.203 49.1289 148.167 55.1688 139.888 55.1688C131.609 55.1688 124.676 49.1289 124.676 39.9137ZM149.098 39.9137C149.098 34.3225 144.855 30.5605 139.888 30.5605C134.921 30.5605 130.747 34.288 130.747 39.9137C130.747 45.574 134.921 49.3705 139.888 49.3705C144.855 49.3705 149.098 45.574 149.098 39.9137ZM178.246 25.9356L177.177 31.734C175.831 31.1127 174.383 30.7676 172.899 30.733C167.622 30.733 165.138 36.2553 165.138 44.1244V54.5821H158.963V25.5215H165.138V32.0446C166.621 26.9365 169.553 24.9002 173.279 24.9002C175.245 24.8657 177.315 25.3489 178.246 25.9356ZM209.671 25.487V54.5475H203.565V50.1988C201.633 53.5121 197.46 55.1688 193.562 55.1688C185.662 55.1688 179.143 49.1979 179.143 39.9827C179.143 30.6985 185.662 24.8657 193.493 24.8657C197.598 24.8657 201.633 26.4879 203.565 29.7667V25.4524H209.671V25.487ZM203.531 39.9137C203.531 34.0809 198.736 30.6295 194.252 30.6295C189.284 30.6295 185.248 34.426 185.248 39.9137C185.248 45.3324 189.284 49.3705 194.252 49.3705C199.184 49.3705 203.531 45.781 203.531 39.9137ZM233.714 25.9356L232.644 31.734C231.299 31.1127 229.85 30.7676 228.367 30.733C223.089 30.733 220.606 36.2553 220.606 44.1244V54.5821H214.465V25.5215H220.64V32.0446C222.123 26.9365 225.055 24.9002 228.781 24.9002C230.713 24.8657 232.782 25.3489 233.714 25.9356ZM263.897 42.4677H240.751C241.544 47.1961 245.028 49.5085 249.754 49.5085C253.1 49.5085 256.273 48.0935 257.894 45.4014L262.758 47.8174C260.206 52.6838 254.997 55.1688 249.443 55.1688C241.061 55.1688 234.472 49.1289 234.472 39.9137C234.472 30.6985 241.199 24.8657 249.443 24.8657C257.687 24.8657 264 30.6985 264 39.8447C264 40.673 263.931 41.5359 263.897 42.4677ZM257.929 37.5668C257.377 33.011 253.997 30.526 249.547 30.526C245.097 30.526 241.716 32.7694 240.854 37.5668H257.929Z" fill="white"/>
</svg>
