<svg width="80" height="80" viewBox="0 0 80 80" fill="none" xmlns="http://www.w3.org/2000/svg">
<path d="M59.4047 24.2801C53.6779 17.0537 44.3314 13.6563 35.255 15.4898C16.6699 19.3187 8.78204 40.8359 20.5598 55.7199C26.2866 62.9462 35.6331 66.3437 44.7096 64.5102C63.3487 60.6813 71.2365 39.1641 59.4047 24.2801ZM53.1377 52.4843C52.7595 52.4303 52.3813 52.3225 52.0031 52.1607C51.841 52.0529 51.6249 52.1068 51.5169 52.2686C51.4629 52.3764 51.4629 52.4843 51.5169 52.5921C51.6249 52.9157 51.733 53.2393 51.787 53.6167C52.3273 57.3378 48.3834 61.0049 42.9267 61.7598C37.47 62.5148 32.7157 60.0881 32.1755 56.3671C32.1214 55.9896 32.1214 55.5581 32.1755 55.1806C32.2295 55.0189 32.1214 54.8032 31.9053 54.7492C31.7973 54.6953 31.6352 54.7492 31.5812 54.8571C31.311 55.0728 30.9869 55.2346 30.7167 55.3964C27.3131 57.0681 22.6128 54.4257 20.2356 49.5182C17.8585 44.6108 18.6689 39.272 22.0725 37.6541C22.4507 37.4923 22.7749 37.3306 23.2071 37.2766C23.3692 37.2766 23.5312 37.1149 23.5312 36.8991C23.5312 36.7913 23.4232 36.6834 23.3151 36.6295C23.045 36.4138 22.7749 36.1981 22.5047 35.9824C19.8574 33.286 20.938 28.0011 24.8279 24.2261C28.7718 20.4512 34.0664 19.5883 36.7137 22.2847C36.9838 22.5544 37.2539 22.8779 37.416 23.2554C37.47 23.4172 37.6861 23.5251 37.8482 23.4172C37.9563 23.3633 38.0103 23.2554 38.0643 23.1476C38.1724 22.824 38.2804 22.5004 38.4965 22.1769C40.2794 18.8334 45.628 18.1862 50.4364 20.7748C55.2447 23.3094 57.7299 28.1089 55.9471 31.4524C55.785 31.8299 55.5148 32.1535 55.2447 32.4231C55.0826 32.531 55.0826 32.7467 55.1907 32.9085C55.2447 33.0164 55.4068 33.0164 55.5148 33.0164C55.839 33.0164 56.2172 33.0163 56.5413 33.0703C60.2692 33.7174 62.5383 38.6248 61.5658 43.9637C60.6474 49.3025 56.8655 53.1314 53.1377 52.4843ZM51.1387 34.3646C48.9776 34.6342 46.4384 34.1488 44.0072 32.8546C41.576 31.5603 39.6851 29.6189 38.7126 27.6775C38.6586 27.5157 38.4425 27.4079 38.2804 27.4618C38.1724 27.5157 38.0643 27.6236 38.0643 27.7854C37.6321 29.9425 36.3895 32.2074 34.4446 34.0949C32.4996 35.9824 30.0684 37.2227 27.8533 37.5463C27.6913 37.5463 27.5292 37.7081 27.5292 37.8699C27.5292 38.0316 27.6372 38.1395 27.7453 38.1934C29.6362 39.272 31.4191 41.1594 32.6077 43.5862C33.8503 46.1208 34.2285 48.7093 33.8503 50.9204C33.7962 51.0821 33.9043 51.2979 34.0664 51.3518C34.2285 51.4057 34.3905 51.3518 34.4446 51.2439C36.0653 49.734 38.3885 48.6554 41.0898 48.2779C43.8451 47.9004 46.4924 48.3318 48.4374 49.3565C48.5995 49.4643 48.8156 49.4643 48.9236 49.3025C49.0317 49.1947 49.0317 49.0329 48.9236 48.925C48.0052 46.9297 47.681 44.3951 48.1673 41.6987C48.6535 38.9484 49.8961 36.6295 51.4629 35.0656C51.6249 34.9578 51.6249 34.742 51.5169 34.5803C51.4088 34.3645 51.2468 34.3106 51.1387 34.3646Z" fill="black"/>
</svg>
