<svg width="320" height="80" viewBox="0 0 320 80" fill="none" xmlns="http://www.w3.org/2000/svg">
<g id="ycombinator-long-color">
<g id="Group 458">
<g id="Union">
<path d="M132.476 29.9984L132.945 27.3572L132.524 27.2265C131.363 26.8661 129.677 26.672 128.576 26.672C127.041 26.672 125.708 27.0403 124.754 27.8796C123.79 28.7286 123.288 29.9924 123.288 31.618V34.994H119.83V37.894H123.288V54.5H126.492V37.894H131.908L132.256 34.994H126.492V31.884C126.492 30.9035 126.655 30.3695 126.941 30.0646C127.219 29.768 127.724 29.572 128.728 29.572C129.717 29.572 130.788 29.6819 131.98 29.9054L132.476 29.9984Z" fill="#75C861"/>
<path d="M158.732 34.994H155.528V50.2C155.528 51.5265 155.793 52.7118 156.521 53.5685C157.263 54.4416 158.404 54.88 159.942 54.88C161.132 54.88 162.571 54.59 163.944 54.1903C165.045 53.8697 166.125 53.4718 167.032 53.0762L167.162 54.5H170.056V34.994H166.852V49.8941C165.784 50.427 164.533 50.8964 163.359 51.2402C162.076 51.6162 160.934 51.828 160.246 51.828C159.648 51.828 159.29 51.7107 159.081 51.5311C158.889 51.3654 158.732 51.0657 158.732 50.466V34.994Z" fill="#75C861"/>
<path d="M187.859 54.5H191.063V39.294C191.063 37.9675 190.798 36.7822 190.07 35.9255C189.328 35.0524 188.187 34.614 186.649 34.614C185.459 34.614 184.02 34.904 182.647 35.3037C181.546 35.6243 180.466 36.0222 179.559 36.4178L179.429 34.994H176.535V54.5H179.739V39.5999C180.807 39.067 182.058 38.5976 183.231 38.2538C184.515 37.8778 185.657 37.666 186.345 37.666C186.943 37.666 187.301 37.7833 187.51 37.9629C187.702 38.1286 187.859 38.4282 187.859 39.028V54.5Z" fill="#75C861"/>
<path fill-rule="evenodd" clip-rule="evenodd" d="M202.981 34.614C204.772 34.614 206.309 34.7737 208.181 35.1179V27.4962L211.385 27.0543V54.5H208.403L208.315 53.1638C206.514 54.2987 204.418 54.88 202.525 54.88C200.644 54.88 199.182 54.4146 198.195 53.4216C197.208 52.4291 196.781 50.9962 196.781 49.25V40.814C196.781 39.0583 197.174 37.4912 198.192 36.3612C199.219 35.2212 200.8 34.614 202.981 34.614ZM208.181 49.806C206.539 51.0824 204.73 51.904 202.677 51.904C201.472 51.904 200.849 51.6541 200.507 51.285C200.157 50.9076 199.985 50.2852 199.985 49.25V40.814C199.985 39.6099 200.225 38.8275 200.656 38.3444C201.076 37.8739 201.766 37.59 202.905 37.59C204.534 37.59 206.333 37.7842 208.181 38.1453V49.806Z" fill="#75C861"/>
<path fill-rule="evenodd" clip-rule="evenodd" d="M220.087 47.73V45.912H231.525V41.84C231.525 39.8869 231.137 38.0642 229.995 36.7272C228.839 35.3747 226.996 34.614 224.299 34.614C221.603 34.614 219.718 35.3743 218.516 36.7188C217.324 38.0526 216.883 39.8752 216.883 41.84V47.654C216.883 49.7243 217.311 51.5532 218.5 52.8635C219.697 54.1832 221.577 54.88 224.261 54.88C226.555 54.88 229.044 54.4541 230.813 53.8251L231.226 53.6784L230.645 50.9473L230.135 51.0854C228.337 51.5724 226.255 51.942 224.413 51.942C222.612 51.942 221.578 51.5941 220.976 50.9767C220.372 50.357 220.087 49.3491 220.087 47.73ZM220.087 41.764C220.087 40.258 220.393 39.2242 221.012 38.5619C221.624 37.9066 222.639 37.514 224.299 37.514C225.96 37.514 226.93 37.9067 227.502 38.5523C228.087 39.2115 228.359 40.2452 228.359 41.764V42.936H220.087V41.764Z" fill="#75C861"/>
<path d="M246.115 37.5908L245.726 34.426L245.134 34.645C243.549 35.2307 241.801 36.2904 240.071 37.4077L239.973 34.994H237.017V54.5H240.221V40.9692C241.965 39.8194 243.96 38.5204 245.771 37.7391L246.115 37.5908Z" fill="#75C861"/>
<path d="M253.702 42.5718C254.167 42.7482 254.792 42.9225 255.648 43.1412C257.013 43.4848 258.079 43.8029 258.906 44.1455C259.733 44.4882 260.354 44.8684 260.801 45.3539C261.708 46.3408 261.764 47.6311 261.764 49.326C261.764 51.0392 261.456 52.4844 260.376 53.4754C259.311 54.4526 257.609 54.88 255.108 54.88C253.198 54.88 250.925 54.4931 249.481 53.8915L249.098 53.7319L249.679 51.0045L250.201 51.1664C251.749 51.6453 253.637 51.904 254.956 51.904C255.799 51.904 256.449 51.8638 256.952 51.774C257.455 51.6842 257.775 51.5506 257.987 51.3888C258.379 51.09 258.56 50.5699 258.56 49.402C258.56 48.725 258.553 48.2568 258.489 47.894C258.43 47.554 258.325 47.3482 258.149 47.1793C257.955 46.9935 257.632 46.8131 257.054 46.6154C256.48 46.419 255.707 46.2221 254.652 45.9748L254.65 45.9744C252.335 45.4241 250.92 44.8357 250.128 43.8428C249.329 42.8414 249.25 41.5316 249.25 39.864C249.25 38.2508 249.639 36.8907 250.736 35.9544C251.812 35.0358 253.47 34.614 255.792 34.614C257.532 34.614 259.672 34.8448 261.175 35.2797L261.584 35.3981L261.238 38.2207L260.707 38.1118C259.257 37.8143 257.124 37.59 255.64 37.59C254.023 37.59 253.281 37.8097 252.918 38.1333C252.581 38.4327 252.454 38.9291 252.454 39.94C252.454 40.583 252.464 41.0349 252.524 41.383C252.58 41.715 252.675 41.9125 252.821 42.0671C252.978 42.2334 253.235 42.395 253.702 42.5718Z" fill="#75C861"/>
<path fill-rule="evenodd" clip-rule="evenodd" d="M150.206 47.654V41.84C150.206 39.8591 149.691 38.0366 148.43 36.7078C147.165 35.3739 145.221 34.614 142.524 34.614C139.828 34.614 137.884 35.3739 136.618 36.7078C135.358 38.0366 134.842 39.8591 134.842 41.84V47.654C134.842 49.6349 135.358 51.4574 136.618 52.7861C137.884 54.1201 139.828 54.88 142.524 54.88C145.221 54.88 147.165 54.1201 148.43 52.7861C149.691 51.4574 150.206 49.6349 150.206 47.654ZM147.002 47.73C147.002 49.214 146.641 50.2257 145.964 50.8746C145.283 51.5278 144.189 51.904 142.524 51.904C140.86 51.904 139.766 51.5278 139.085 50.8746C138.408 50.2257 138.046 49.214 138.046 47.73V41.764C138.046 40.28 138.408 39.2683 139.085 38.6194C139.766 37.9662 140.86 37.59 142.524 37.59C144.189 37.59 145.283 37.9662 145.964 38.6194C146.641 39.2683 147.002 40.28 147.002 41.764V47.73Z" fill="#75C861"/>
</g>
<path id="Vector" fill-rule="evenodd" clip-rule="evenodd" d="M58 40C58 25.0883 70.085 13 85 13C99.9117 13 112 25.085 112 40C112 54.9117 99.915 67 85 67C70.0883 67 58 54.915 58 40ZM82.016 37.8113C81.7715 37.9488 81.5679 38.2892 81.5682 38.5649L81.5672 41.4288C81.5675 41.7045 81.7756 42.0387 82.0204 42.1768L84.5769 43.6185C84.8148 43.7436 85.185 43.7452 85.4254 43.6233C85.4254 43.6233 96.7685 37.2364 97.1128 37.0425C97.6459 36.7424 97.9479 36.2027 97.96 35.6434L97.959 34.6044C97.9582 33.5629 97.2012 32.2843 96.2767 31.7629L86.681 26.3517C85.7565 25.8303 84.2443 25.8293 83.3204 26.3494L73.7326 31.7474C72.8088 32.2676 72.0393 33.5532 72.04 34.5947L72.0478 45.4038C72.0485 46.4453 72.82 47.7159 73.7445 48.2372L83.3401 53.6484C84.1818 54.123 85.5102 54.1663 86.4386 53.7779L96.5326 48.095C97.2904 47.5424 97.8872 46.5043 97.9592 45.5958V41.1359C97.9496 40.9967 97.9082 40.8574 97.8318 40.7285C97.5647 40.2774 96.9731 40.1227 96.5105 40.3832C96.5099 40.3835 85.7916 46.4147 85.7916 46.4147C85.3659 46.6544 84.6751 46.6582 84.2382 46.4276L79.6967 43.8681C79.2887 43.638 78.9441 43.0978 78.9028 42.6274V37.3278C78.9504 36.9044 79.2351 36.4287 79.5876 36.1776L84.3125 33.5175C84.7497 33.329 85.3826 33.3471 85.7824 33.5725L86.6523 34.063C86.8412 34.1849 86.9658 34.3939 86.9658 34.6313C86.9658 34.8794 86.8297 35.0964 86.6264 35.2155L82.016 37.8113Z" fill="#75C861"/>
</g>
</g>
</svg>
